<svg width="128" height="128" viewBox="0 0 128 128" fill="none" xmlns="http://www.w3.org/2000/svg">
<path d="M70.2217 114.93C91.5609 114.93 108.86 97.6308 108.86 76.2915C108.86 54.9523 91.5609 37.6533 70.2217 37.6533C48.8825 37.6533 31.5835 54.9523 31.5835 76.2915C31.5835 97.6308 48.8825 114.93 70.2217 114.93Z" fill="#F1F7FF"/>
<path d="M10.1647 109.203H7.49463V22.7945C7.49463 22.0593 8.09442 21.4595 8.82965 21.4595C9.56488 21.4595 10.1647 22.0593 10.1647 22.7945V109.203Z" fill="#414042"/>
<path d="M10.1647 109.203H7.49463V22.7945C7.49463 22.0593 8.09442 21.4595 8.82965 21.4595C9.56488 21.4595 10.1647 22.0593 10.1647 22.7945V109.203Z" stroke="#2A2A2A" stroke-width="0.406897" stroke-miterlimit="10" stroke-linecap="round" stroke-linejoin="round"/>
<path d="M15.6404 109.203H2" stroke="#2A2A2A" stroke-width="0.406897" stroke-miterlimit="10" stroke-linecap="round" stroke-linejoin="round"/>
<path d="M18.9102 109.203H18.0396" stroke="#2A2A2A" stroke-width="0.406897" stroke-miterlimit="10" stroke-linecap="round" stroke-linejoin="round"/>
<path d="M30.5582 36.2989C28.604 36.3763 26.6692 36.5311 24.7344 36.7632C24.7344 34.8284 24.7344 32.8743 24.7344 30.9395C26.6692 30.7073 28.604 30.5525 30.5582 30.4751C30.5582 32.4099 30.5582 34.3641 30.5582 36.2989Z" fill="#2A2A2A"/>
<path d="M30.5582 47.9468C28.604 48.0242 26.6692 48.179 24.7344 48.4112C24.7344 46.4764 24.7344 44.5222 24.7344 42.5874C26.6692 42.3552 28.604 42.2004 30.5582 42.123C30.5582 44.0579 30.5582 46.012 30.5582 47.9468Z" fill="#2A2A2A"/>
<path d="M36.4012 36.2993C34.4471 36.2219 32.5123 36.2219 30.5581 36.2993C30.5581 34.3645 30.5581 32.4103 30.5581 30.4755C32.5123 30.3981 34.4471 30.3981 36.4012 30.4755C36.4012 32.4103 36.4012 34.3645 36.4012 36.2993Z" fill="white"/>
<path d="M36.4012 42.123C34.4471 42.0456 32.5123 42.0456 30.5581 42.123C30.5581 40.1882 30.5581 38.2341 30.5581 36.2993C32.5123 36.2219 34.4471 36.2219 36.4012 36.2993C36.4012 38.2341 36.4012 40.1882 36.4012 42.123Z" fill="#2A2A2A"/>
<path d="M36.4012 47.9468C34.4471 47.8694 32.5123 47.8694 30.5581 47.9468C30.5581 46.012 30.5581 44.0578 30.5581 42.123C32.5123 42.0456 34.4471 42.0456 36.4012 42.123C36.4012 44.0578 36.4012 46.012 36.4012 47.9468Z" fill="white"/>
<path d="M42.2247 36.7632C40.2899 36.5311 38.355 36.3763 36.4009 36.2989C36.4009 34.3641 36.4009 32.4099 36.4009 30.4751C38.355 30.5525 40.2899 30.7073 42.2247 30.9395C42.2247 32.8743 42.2247 34.8091 42.2247 36.7632Z" fill="#2A2A2A"/>
<path d="M42.2247 42.5875C40.2899 42.3553 38.355 42.2005 36.4009 42.1231C36.4009 40.1883 36.4009 38.2341 36.4009 36.2993C38.355 36.3767 40.2899 36.5315 42.2247 36.7637C42.2247 38.6985 42.2247 40.6333 42.2247 42.5875Z" fill="white"/>
<path d="M42.2247 48.4112C40.2899 48.179 38.355 48.0242 36.4009 47.9468C36.4009 46.012 36.4009 44.0579 36.4009 42.123C38.355 42.2004 40.2899 42.3552 42.2247 42.5874C42.2247 44.5222 42.2247 46.4764 42.2247 48.4112Z" fill="#2A2A2A"/>
<path d="M30.5582 42.1231C28.604 42.2005 26.6692 42.3553 24.7344 42.5875C24.7344 40.6526 24.7344 38.6985 24.7344 36.7637C26.6692 36.5315 28.604 36.3767 30.5582 36.2993C30.5582 38.2341 30.5582 40.1883 30.5582 42.1231Z" fill="white"/>
<path d="M42.2251 48.4112C36.4206 47.7147 30.5582 47.7147 24.7344 48.4112C24.7344 42.5874 24.7344 36.7637 24.7344 30.9399C30.5388 30.2433 36.4013 30.2433 42.2251 30.9399C42.2251 36.7637 42.2251 42.5874 42.2251 48.4112Z" stroke="#2A2A2A" stroke-width="0.406897" stroke-miterlimit="10" stroke-linecap="round" stroke-linejoin="round"/>
<path opacity="0.41" d="M24.7344 30.9201C26.4951 30.7073 28.2751 30.5718 30.0358 30.4751C30.0358 36.2989 30.0358 42.1227 30.0358 47.9464C28.2557 48.0238 26.4951 48.1786 24.7344 48.3915C24.7344 42.587 24.7344 36.7632 24.7344 30.9201Z" fill="#2A2A2A"/>
<path d="M15.9888 31.3072C14.0347 31.3846 12.0999 31.5394 10.165 31.7715C10.165 29.8367 10.165 27.8826 10.165 25.9478C12.0999 25.7156 14.0347 25.5608 15.9888 25.4834C15.9888 27.4182 15.9888 29.353 15.9888 31.3072Z" fill="#2A2A2A"/>
<path d="M15.9888 42.9551C14.0347 43.0325 12.0999 43.1873 10.165 43.4195C10.165 41.4847 10.165 39.5305 10.165 37.5957C12.0999 37.3635 14.0347 37.2087 15.9888 37.1313C15.9888 39.0662 15.9888 41.0203 15.9888 42.9551Z" fill="#2A2A2A"/>
<path d="M21.8319 31.3076C19.8777 31.2302 17.9429 31.2302 15.9888 31.3076C15.9888 29.3728 15.9888 27.4186 15.9888 25.4838C17.9429 25.4064 19.8777 25.4064 21.8319 25.4838C21.8319 27.4186 21.8319 29.3535 21.8319 31.3076Z" fill="white"/>
<path d="M21.8319 37.1309C19.8777 37.0535 17.9429 37.0535 15.9888 37.1309C15.9888 35.196 15.9888 33.2419 15.9888 31.3071C17.9429 31.2297 19.8777 31.2297 21.8319 31.3071C21.8319 33.2419 21.8319 35.196 21.8319 37.1309Z" fill="#2A2A2A"/>
<path d="M21.8319 42.9546C19.8777 42.8772 17.9429 42.8772 15.9888 42.9546C15.9888 41.0198 15.9888 39.0656 15.9888 37.1308C17.9429 37.0534 19.8777 37.0534 21.8319 37.1308C21.8319 39.0656 21.8319 41.0198 21.8319 42.9546Z" fill="white"/>
<path d="M27.6558 31.7525C25.721 31.5203 23.7862 31.3655 21.832 31.2881C21.832 29.3533 21.832 27.3992 21.832 25.4644C23.7862 25.5417 25.721 25.6965 27.6558 25.9287C27.6558 27.8829 27.6558 29.8177 27.6558 31.7525Z" fill="#2A2A2A"/>
<path d="M27.6558 37.5948C25.721 37.3626 23.7862 37.2078 21.832 37.1304C21.832 35.1956 21.832 33.2415 21.832 31.3066C23.7862 31.384 25.721 31.5388 27.6558 31.771C27.6558 33.7058 27.6558 35.6406 27.6558 37.5948Z" fill="white"/>
<path d="M27.6558 43.4195C25.721 43.1873 23.7862 43.0325 21.832 42.9551C21.832 41.0203 21.832 39.0662 21.832 37.1313C23.7862 37.2087 25.721 37.3635 27.6558 37.5957C27.6558 39.5305 27.6558 41.4653 27.6558 43.4195Z" fill="#2A2A2A"/>
<path d="M15.9888 37.1304C14.0347 37.2078 12.0999 37.3626 10.165 37.5948C10.165 35.66 10.165 33.7058 10.165 31.771C12.0999 31.5388 14.0347 31.384 15.9888 31.3066C15.9888 33.2415 15.9888 35.1956 15.9888 37.1304Z" fill="white"/>
<path d="M27.6557 43.4195C21.8513 42.723 15.9888 42.723 10.165 43.4195C10.165 37.5957 10.165 31.772 10.165 25.9482C15.9695 25.2516 21.832 25.2516 27.6557 25.9482C27.6557 31.7526 27.6557 37.5957 27.6557 43.4195Z" stroke="#2A2A2A" stroke-width="0.406897" stroke-miterlimit="10" stroke-linecap="round" stroke-linejoin="round"/>
<path d="M58.6902 83.2957C57.7035 83.2183 56.7167 83.1409 55.73 83.0635C56.233 79.2713 56.0009 75.4597 55.1108 71.8223C55.8074 71.6288 56.5039 71.416 57.2004 71.2031C58.4387 75.0341 58.9611 79.1358 58.6902 83.2957Z" fill="#AAD543"/>
<g opacity="0.49">
<path opacity="0.49" d="M58.6902 83.2957C57.7035 83.2183 56.7167 83.1409 55.73 83.0635C56.233 79.2713 56.0009 75.4597 55.1108 71.8223C55.8074 71.6288 56.5039 71.416 57.2004 71.2031C58.4387 75.0341 58.9611 79.1358 58.6902 83.2957Z" fill="#AAD543"/>
</g>
<path d="M58.6902 83.2957C57.7035 83.2183 56.7167 83.1409 55.73 83.0635C56.233 79.2713 56.0009 75.4597 55.1108 71.8223C55.8074 71.6288 56.5039 71.416 57.2004 71.2031C58.4387 75.0341 58.9611 79.1358 58.6902 83.2957Z" stroke="#2A2A2A" stroke-width="0.406897" stroke-miterlimit="10" stroke-linecap="round" stroke-linejoin="round"/>
<path d="M104.255 101.502L76.4712 98.5616C72.1179 98.1359 68.8094 94.4791 68.8094 90.1064L68.3644 86.5464C67.7452 81.303 63.8369 79.5811 59.9092 79.5811C54.2983 79.5811 53.4276 83.3926 53.3115 90.5901C53.7178 90.7643 54.1435 90.7836 54.8207 90.8223C54.9948 93.0086 54.0854 94.9821 53.3309 96.2591C53.8146 103.592 58.3614 108.971 64.901 108.971H106.848C107.893 108.971 109.595 108.816 111.046 108.661C112.497 108.506 113.233 106.823 112.343 105.662C110.833 103.708 109.286 102.392 104.255 101.502Z" fill="white"/>
<path d="M104.255 101.502L76.4712 98.5616C72.1179 98.1359 68.8094 94.4791 68.8094 90.1064L68.3644 86.5464C67.7452 81.303 63.8369 79.5811 59.9092 79.5811C54.2983 79.5811 53.4276 83.3926 53.3115 90.5901C53.7178 90.7643 54.1435 90.7836 54.8207 90.8223C54.9948 93.0086 54.0854 94.9821 53.3309 96.2591C53.8146 103.592 58.3614 108.971 64.901 108.971H106.848C107.893 108.971 109.595 108.816 111.046 108.661C112.497 108.506 113.233 106.823 112.343 105.662C110.833 103.708 109.286 102.392 104.255 101.502Z" fill="#AAD543"/>
<path d="M112.052 105.295C112.052 107.094 108.376 107.307 107.39 107.307L65.8685 106.61C61.7474 106.61 58.9032 105.527 56.2138 102.238C55.4786 101.328 53.9694 98.4454 53.5244 96.8008C54.2596 104.985 59.7545 109.009 64.8818 109.009H106.828C107.873 109.009 109.15 108.855 110.601 108.7C111.898 108.545 113.291 106.92 112.052 105.295Z" fill="#8EC42B"/>
<path d="M112.497 105.121C111.007 103.166 109.305 102.392 104.313 101.522C104.294 101.522 104.274 101.522 104.236 101.502L76.4905 98.5616C72.1565 98.1552 68.8479 94.5178 68.8286 90.1645C68.8286 90.1258 68.8286 90.1064 68.8286 90.0677L68.3836 86.5464C67.7644 81.303 63.8561 79.5811 59.9285 79.5811C59.29 79.5811 58.7095 79.6391 58.1871 79.7358C57.0843 79.9487 57.1423 80.0648 56.0395 80.6065C54.7432 81.2643 53.6597 85.5596 53.6597 85.579C53.8145 89.139 53.8144 82.2317 57.4712 81.2643C61.6891 80.1421 65.5781 81.6126 66.294 86.6431C66.294 86.6431 66.7777 91.3447 66.9518 92.5249C67.5903 96.8202 71.1117 99.8579 75.4456 100.284L102.746 103.495C102.765 103.495 102.011 102.721 102.03 102.721C107.022 103.611 112.188 104.173 112.497 106.61C112.497 106.649 111.956 107.462 111.975 107.5C112.207 107.733 112.188 107.791 112.497 107.191C112.826 106.572 112.962 105.74 112.497 105.121Z" fill="#C6E65B"/>
<path d="M104.255 101.502L76.4712 98.5616C72.1179 98.1359 68.8094 94.4791 68.8094 90.1064L68.3644 86.5464C67.7452 81.303 63.8369 79.5811 59.9092 79.5811C54.2983 79.5811 53.4276 83.3926 53.3115 90.5901C53.7178 90.7643 54.1435 90.7836 54.8207 90.8223C54.9948 93.0086 54.0854 94.9821 53.3309 96.2591C53.8146 103.592 58.3614 108.971 64.901 108.971H106.848C107.893 108.971 110.234 108.758 111.433 107.945C112.904 106.939 112.942 105.469 111.917 104.443C110.466 102.992 109.286 102.392 104.255 101.502Z" stroke="#2A2A2A" stroke-width="0.406897" stroke-miterlimit="10" stroke-linecap="round" stroke-linejoin="round"/>
<path d="M53.3115 90.6094C53.3115 90.6094 54.6465 91.364 59.1547 90.145C59.1934 91.809 56.6781 95.8721 53.3502 96.2784C53.5437 95.9301 54.7239 93.6664 54.8207 92.0798C54.8207 91.7896 54.9368 91.035 54.84 90.8415C53.8339 90.8415 53.3115 90.6094 53.3115 90.6094Z" fill="#2A2A2A"/>
<path d="M53.3115 90.6094C53.3115 90.6094 54.6465 91.364 59.1547 90.145C59.1934 91.809 56.6781 95.8721 53.3502 96.2784C53.5437 95.9301 54.7239 93.6664 54.8207 92.0798C54.8207 91.7896 54.9368 91.035 54.84 90.8415C53.8339 90.8415 53.3115 90.6094 53.3115 90.6094Z" stroke="#2A2A2A" stroke-width="0.406897" stroke-miterlimit="10" stroke-linecap="round" stroke-linejoin="round"/>
<path d="M58.6123 89.1387C58.6703 89.1967 59.5991 90.0867 59.8506 91.0155" stroke="#2A2A2A" stroke-width="0.406897" stroke-miterlimit="10" stroke-linecap="round" stroke-linejoin="round"/>
<path d="M64.7847 83.4121C63.7399 83.3347 62.7145 83.238 61.6697 83.1606C62.3275 77.8592 61.9599 72.5384 60.6636 67.4886C61.3988 67.2758 62.134 67.0629 62.8693 66.8501C64.4945 72.0934 65.191 77.7044 64.7847 83.4121Z" fill="#AAD543"/>
<path d="M62.8697 66.8501C62.386 66.9855 61.9217 67.121 61.438 67.2758C62.0958 69.0364 61.9023 73.5639 62.2313 73.5252C62.5602 73.4865 63.2374 73.2737 63.3148 73.5832C63.9146 76.3887 64.2435 79.407 64.2435 82.9477C64.7078 82.9864 64.3209 83.3927 64.7852 83.4314C65.1915 77.7044 64.495 72.0934 62.8697 66.8501Z" fill="#8EC42B"/>
<path d="M61.8438 81.477C62.2308 76.7367 61.8245 72.0157 60.6636 67.5076C61.3988 67.2948 62.134 67.082 62.8693 66.8691C64.5138 72.1125 65.191 77.7234 64.7847 83.4311" stroke="#2A2A2A" stroke-width="0.406897" stroke-miterlimit="10" stroke-linecap="round" stroke-linejoin="round"/>
<path d="M55.1689 73.4671C57.7656 73.4671 59.8705 71.3621 59.8705 68.7656C59.8705 66.1688 57.7656 64.064 55.1689 64.064C52.5724 64.064 50.4673 66.1688 50.4673 68.7656C50.4673 71.3621 52.5724 73.4671 55.1689 73.4671Z" fill="#AAD543"/>
<path d="M55.1689 73.4671C57.7656 73.4671 59.8705 71.3621 59.8705 68.7656C59.8705 66.1688 57.7656 64.064 55.1689 64.064C52.5724 64.064 50.4673 66.1688 50.4673 68.7656C50.4673 71.3621 52.5724 73.4671 55.1689 73.4671Z" stroke="#2A2A2A" stroke-width="0.406897" stroke-miterlimit="10" stroke-linecap="round" stroke-linejoin="round"/>
<path d="M54.6657 73.3698C56.7921 73.3698 58.516 71.6461 58.516 69.5197C58.516 67.3932 56.7921 65.6694 54.6657 65.6694C52.5393 65.6694 50.8154 67.3932 50.8154 69.5197C50.8154 71.6461 52.5393 73.3698 54.6657 73.3698Z" fill="white"/>
<path d="M53.6403 71.5125C54.431 71.5125 55.072 70.8714 55.072 70.0807C55.072 69.2901 54.431 68.6489 53.6403 68.6489C52.8495 68.6489 52.2085 69.2901 52.2085 70.0807C52.2085 70.8714 52.8495 71.5125 53.6403 71.5125Z" fill="#2A2A2A"/>
<path d="M54.6657 73.3698C56.7921 73.3698 58.516 71.6461 58.516 69.5197C58.516 67.3932 56.7921 65.6694 54.6657 65.6694C52.5393 65.6694 50.8154 67.3932 50.8154 69.5197C50.8154 71.6461 52.5393 73.3698 54.6657 73.3698Z" stroke="#2A2A2A" stroke-width="0.406897" stroke-miterlimit="10" stroke-linecap="round" stroke-linejoin="round"/>
<path d="M62.7143 71.8418C66.2193 71.8418 69.0605 69.0005 69.0605 65.4956C69.0605 61.9907 66.2193 59.1494 62.7143 59.1494C59.2094 59.1494 56.3682 61.9907 56.3682 65.4956C56.3682 69.0005 59.2094 71.8418 62.7143 71.8418Z" fill="#AAD543"/>
<path d="M62.7143 71.8418C66.2193 71.8418 69.0605 69.0005 69.0605 65.4956C69.0605 61.9907 66.2193 59.1494 62.7143 59.1494C59.2094 59.1494 56.3682 61.9907 56.3682 65.4956C56.3682 69.0005 59.2094 71.8418 62.7143 71.8418Z" stroke="#2A2A2A" stroke-width="0.406897" stroke-miterlimit="10" stroke-linecap="round" stroke-linejoin="round"/>
<path d="M62.0181 71.7067C64.8925 71.7067 67.2228 69.3764 67.2228 66.502C67.2228 63.6275 64.8925 61.2974 62.0181 61.2974C59.1438 61.2974 56.8135 63.6275 56.8135 66.502C56.8135 69.3764 59.1438 71.7067 62.0181 71.7067Z" fill="white"/>
<path d="M60.6249 69.1718C61.6827 69.1718 62.5404 68.3141 62.5404 67.2563C62.5404 66.1983 61.6827 65.3408 60.6249 65.3408C59.567 65.3408 58.7095 66.1983 58.7095 67.2563C58.7095 68.3141 59.567 69.1718 60.6249 69.1718Z" fill="#2A2A2A"/>
<path d="M62.0181 71.7067C64.8925 71.7067 67.2228 69.3764 67.2228 66.502C67.2228 63.6275 64.8925 61.2974 62.0181 61.2974C59.1438 61.2974 56.8135 63.6275 56.8135 66.502C56.8135 69.3764 59.1438 71.7067 62.0181 71.7067Z" stroke="#2A2A2A" stroke-width="0.406897" stroke-miterlimit="10" stroke-linecap="round" stroke-linejoin="round"/>
<path d="M78.6383 102.218C75.5619 101.792 72.563 96.781 72.563 90.1253C72.563 79.5225 80.8246 71.6865 91.0017 71.6865C101.179 71.6865 109.441 79.9482 109.441 90.1446C109.441 100.341 101.179 108.583 91.0017 108.583C85.9132 108.583 78.6576 106.242 77.4581 98.6385C76.2585 91.0346 80.9988 83.8178 89.3185 83.3341C94.7166 83.0245 99.6117 87.4359 99.6117 92.834C99.6117 98.2322 95.1035 102.257 91.0017 102.257C86.9386 102.257 84.7716 99.7413 84.7716 96.723C84.7716 93.7047 86.8226 91.6538 89.8409 91.6538C91.8531 91.6538 92.8979 93.5692 92.8205 95.0397" fill="#EE368C"/>
<path d="M86.9385 101.231C86.9385 101.231 94.9873 103.553 99.5534 93.937C98.3152 97.6132 97.8895 99.5673 94.4262 101.386C90.3824 102.237 90.7307 102.663 86.9385 101.231Z" fill="#E41B64"/>
<path d="M104.835 78.0908C107.099 81.1478 108.608 84.1468 108.879 87.3392C109.885 99.5866 97.9667 108.003 88.1959 106.978C84.0361 106.552 81.6176 104.946 78.6573 102.218L75.4455 100.032C74.4781 99.8961 75.0972 98.9674 74.2266 98.0387C75.3875 100.438 77.0127 101.986 78.6573 102.199C81.1919 106.978 86.8415 108.564 91.0207 108.564C101.198 108.564 109.459 100.302 109.459 90.1254C109.44 85.8494 108.047 81.3026 104.835 78.0908Z" fill="#E41B64"/>
<path opacity="0.39" d="M73.6076 91.8087C73.6076 81.206 81.8692 73.37 92.0464 73.37C98.2571 73.37 103.771 76.4463 107.099 81.1673C103.945 75.5176 97.9088 71.7061 90.9822 71.7061C80.8051 71.7061 72.5435 79.542 72.5435 90.1448C72.5435 94.3627 73.743 97.9034 75.407 100.051C74.3235 97.9228 73.6076 95.0592 73.6076 91.8087Z" fill="#FFFFFB"/>
<path opacity="0.39" d="M78.9091 102.721C78.8123 102.567 78.7156 102.392 78.6188 102.218L78.7156 102.18C78.5414 101.618 78.406 101.038 78.3093 100.419C77.1097 92.8151 81.85 85.5982 90.1697 85.1145C93.8265 84.9017 97.2511 86.8559 99.0698 89.8161C97.6767 85.8885 93.6523 83.083 89.299 83.3345C80.9793 83.7989 76.239 91.0351 77.4386 98.6389C77.6514 99.9932 78.0577 101.193 78.6188 102.238" fill="#FFFFFB"/>
<path opacity="0.39" d="M85.1776 98.9093C84.8874 98.2322 84.752 97.4969 84.752 96.723C84.752 93.7047 86.8028 91.6538 89.8212 91.6538C91.2336 91.6538 92.1623 92.2149 92.5686 93.2791C92.1042 92.8921 91.2142 92.5825 90.479 92.5825C86.6094 92.5825 85.3711 95.4073 85.3711 98.445C85.3711 98.6385 85.4098 98.7352 85.4291 98.9093H85.1776Z" fill="#FFFFFB"/>
<path d="M78.6383 102.218C75.5619 101.792 72.563 96.781 72.563 90.1253C72.563 79.5225 80.8246 71.6865 91.0017 71.6865C101.179 71.6865 109.441 79.9482 109.441 90.1446C109.441 100.341 101.179 108.583 91.0017 108.583C85.9132 108.583 78.6576 106.242 77.4581 98.6385C76.2585 91.0346 80.9988 83.8178 89.3185 83.3341C94.7166 83.0245 99.6117 87.4359 99.6117 92.834C99.6117 98.2322 95.1036 102.257 91.0017 102.257C86.9386 102.257 84.7716 99.7413 84.7716 96.723C84.7716 93.7047 86.8226 91.441 89.8409 91.6538C92.5883 91.8473 93.4976 94.2851 92.8205 95.3493" stroke="#2A2A2A" stroke-width="0.406897" stroke-miterlimit="10" stroke-linecap="round" stroke-linejoin="round"/>
<path opacity="0.49" d="M62.9811 85.5857C63.2759 85.4907 63.3878 85.018 63.2307 84.5297C63.0735 84.0415 62.7071 83.7227 62.412 83.8175C62.1172 83.9125 62.0053 84.3851 62.1624 84.8735C62.3196 85.3616 62.686 85.6805 62.9811 85.5857Z" fill="#AAD543"/>
<path opacity="0.49" d="M64.1171 89.107C64.4122 89.012 64.524 88.5394 64.3669 88.051C64.2098 87.5629 63.8432 87.244 63.5483 87.339C63.2532 87.4338 63.1416 87.9065 63.2987 88.3948C63.4558 88.883 63.8223 89.2018 64.1171 89.107Z" fill="#AAD543"/>
<path opacity="0.49" d="M62.8819 87.5613C63.177 87.4663 63.2886 86.9936 63.1315 86.5052C62.9744 86.0171 62.608 85.6982 62.3131 85.7931C62.018 85.8881 61.9062 86.3607 62.0633 86.8491C62.2204 87.3372 62.5869 87.6561 62.8819 87.5613Z" fill="#AAD543"/>
<path opacity="0.49" d="M64.2159 87.131C64.511 87.0362 64.6226 86.5633 64.4655 86.0751C64.3084 85.587 63.942 85.2679 63.6471 85.3629C63.352 85.4579 63.2402 85.9306 63.3973 86.4189C63.5544 86.9071 63.9209 87.226 64.2159 87.131Z" fill="#AAD543"/>
<path d="M126.389 109.203H126.679" stroke="#2A2A2A" stroke-width="0.406897" stroke-miterlimit="10" stroke-linecap="round" stroke-linejoin="round"/>
<path d="M119.347 109.203H124.338" stroke="#2A2A2A" stroke-width="0.406897" stroke-miterlimit="10" stroke-linecap="round" stroke-linejoin="round"/>
<path d="M116.29 109.203H117.586" stroke="#2A2A2A" stroke-width="0.406897" stroke-miterlimit="10" stroke-linecap="round" stroke-linejoin="round"/>
<path d="M55.0913 109.203H114.548" stroke="#2A2A2A" stroke-width="0.406897" stroke-miterlimit="10" stroke-linecap="round" stroke-linejoin="round"/>
<path d="M50.9512 109.203H52.4797" stroke="#2A2A2A" stroke-width="0.406897" stroke-miterlimit="10" stroke-linecap="round" stroke-linejoin="round"/>
<path d="M44.0435 109.203H48.2807" stroke="#2A2A2A" stroke-width="0.406897" stroke-miterlimit="10" stroke-linecap="round" stroke-linejoin="round"/>
<path opacity="0.29" d="M97.6768 91.3449C98.4997 91.3449 99.1666 90.6777 99.1666 89.855C99.1666 89.0322 98.4997 88.3652 97.6768 88.3652C96.8539 88.3652 96.187 89.0322 96.187 89.855C96.187 90.6777 96.8539 91.3449 97.6768 91.3449Z" fill="#E41B64"/>
<path opacity="0.29" d="M103.617 80.5294C104.525 80.5294 105.261 79.793 105.261 78.8848C105.261 77.9764 104.525 77.2402 103.617 77.2402C102.708 77.2402 101.972 77.9764 101.972 78.8848C101.972 79.793 102.708 80.5294 103.617 80.5294Z" fill="#E41B64"/>
<path opacity="0.29" d="M79.2185 102.083C79.6887 102.083 80.0698 101.701 80.0698 101.231C80.0698 100.761 79.6887 100.38 79.2185 100.38C78.7483 100.38 78.3672 100.761 78.3672 101.231C78.3672 101.701 78.7483 102.083 79.2185 102.083Z" fill="#E41B64"/>
<path opacity="0.29" d="M83.2041 97.8652C83.546 97.8652 83.8232 97.588 83.8232 97.2461C83.8232 96.9042 83.546 96.627 83.2041 96.627C82.862 96.627 82.585 96.9042 82.585 97.2461C82.585 97.588 82.862 97.8652 83.2041 97.8652Z" fill="#E41B64"/>
<path opacity="0.29" d="M75.097 91.3635C75.3321 91.3635 75.5227 91.1729 75.5227 90.9379C75.5227 90.7028 75.3321 90.5122 75.097 90.5122C74.862 90.5122 74.6714 90.7028 74.6714 90.9379C74.6714 91.1729 74.862 91.3635 75.097 91.3635Z" fill="#E41B64"/>
<path opacity="0.29" d="M77.4581 86.6819C77.5649 86.6819 77.6516 86.5952 77.6516 86.4884C77.6516 86.3816 77.5649 86.2949 77.4581 86.2949C77.3511 86.2949 77.2646 86.3816 77.2646 86.4884C77.2646 86.5952 77.3511 86.6819 77.4581 86.6819Z" fill="#E41B64"/>
<path opacity="0.29" d="M86.2998 88.229C86.6417 88.229 86.9189 87.9519 86.9189 87.6099C86.9189 87.268 86.6417 86.9907 86.2998 86.9907C85.9577 86.9907 85.6807 87.268 85.6807 87.6099C85.6807 87.9519 85.9577 88.229 86.2998 88.229Z" fill="#E41B64"/>
<path opacity="0.29" d="M81.1336 80.4708C81.5717 80.4708 81.9269 80.1156 81.9269 79.6776C81.9269 79.2393 81.5717 78.8843 81.1336 78.8843C80.6954 78.8843 80.3403 79.2393 80.3403 79.6776C80.3403 80.1156 80.6954 80.4708 81.1336 80.4708Z" fill="#E41B64"/>
<path opacity="0.29" d="M95.7806 83.7989C96.2186 83.7989 96.5739 83.4437 96.5739 83.0057C96.5739 82.5676 96.2186 82.2124 95.7806 82.2124C95.3424 82.2124 94.9873 82.5676 94.9873 83.0057C94.9873 83.4437 95.3424 83.7989 95.7806 83.7989Z" fill="#E41B64"/>
<path opacity="0.29" d="M91.0014 76.2723C91.6318 76.2723 92.1429 75.7614 92.1429 75.1308C92.1429 74.5004 91.6318 73.9893 91.0014 73.9893C90.3709 73.9893 89.8599 74.5004 89.8599 75.1308C89.8599 75.7614 90.3709 76.2723 91.0014 76.2723Z" fill="#E41B64"/>
<path opacity="0.29" d="M101.972 92.8065C102.602 92.8065 103.113 92.2953 103.113 91.665C103.113 91.0344 102.602 90.5234 101.972 90.5234C101.341 90.5234 100.83 91.0344 100.83 91.665C100.83 92.2953 101.341 92.8065 101.972 92.8065Z" fill="#E41B64"/>
<path opacity="0.29" d="M106.151 87.1846C106.664 87.1846 107.08 86.7688 107.08 86.2559C107.08 85.7429 106.664 85.3271 106.151 85.3271C105.638 85.3271 105.223 85.7429 105.223 86.2559C105.223 86.7688 105.638 87.1846 106.151 87.1846Z" fill="#E41B64"/>
<path opacity="0.29" d="M89.9373 105.411C90.3219 105.411 90.6338 105.099 90.6338 104.714C90.6338 104.329 90.3219 104.018 89.9373 104.018C89.5524 104.018 89.2407 104.329 89.2407 104.714C89.2407 105.099 89.5524 105.411 89.9373 105.411Z" fill="#E41B64"/>
<path opacity="0.29" d="M98.7408 102.624C98.9332 102.624 99.0891 102.468 99.0891 102.276C99.0891 102.084 98.9332 101.928 98.7408 101.928C98.5485 101.928 98.3926 102.084 98.3926 102.276C98.3926 102.468 98.5485 102.624 98.7408 102.624Z" fill="#E41B64"/>
<path opacity="0.46" d="M40.9871 7.27697C41.3396 7.27697 41.6256 6.9912 41.6256 6.63849C41.6256 6.28596 41.3396 6 40.9871 6C40.6344 6 40.3486 6.28596 40.3486 6.63849C40.3486 6.9912 40.6344 7.27697 40.9871 7.27697Z" stroke="#F4CD39" stroke-width="0.135632" stroke-miterlimit="10" stroke-linecap="round" stroke-linejoin="round"/>
<path d="M102.146 45.9924C102.68 45.9924 103.113 45.5594 103.113 45.025C103.113 44.4908 102.68 44.0576 102.146 44.0576C101.611 44.0576 101.178 44.4908 101.178 45.025C101.178 45.5594 101.611 45.9924 102.146 45.9924Z" stroke="#FDB130" stroke-width="0.135632" stroke-miterlimit="10" stroke-linecap="round" stroke-linejoin="round"/>
<path d="M81.1338 66.0947C81.5612 66.0947 81.9077 65.7482 81.9077 65.3208C81.9077 64.8934 81.5612 64.5469 81.1338 64.5469C80.7064 64.5469 80.3599 64.8934 80.3599 65.3208C80.3599 65.7482 80.7064 66.0947 81.1338 66.0947Z" stroke="#1DB7C2" stroke-width="0.135632" stroke-miterlimit="10" stroke-linecap="round" stroke-linejoin="round"/>
<path d="M58.7093 49.3204C59.062 49.3204 59.3478 49.0345 59.3478 48.6819C59.3478 48.3292 59.062 48.0435 58.7093 48.0435C58.3566 48.0435 58.0708 48.3292 58.0708 48.6819C58.0708 49.0345 58.3566 49.3204 58.7093 49.3204Z" stroke="#FDB130" stroke-width="0.135632" stroke-miterlimit="10" stroke-linecap="round" stroke-linejoin="round"/>
<path d="M15.6021 55.047C15.8266 55.047 16.0084 54.8651 16.0084 54.6407C16.0084 54.4162 15.8266 54.2344 15.6021 54.2344C15.3777 54.2344 15.1958 54.4162 15.1958 54.6407C15.1958 54.8651 15.3777 55.047 15.6021 55.047Z" stroke="#FDB130" stroke-width="0.135632" stroke-miterlimit="10" stroke-linecap="round" stroke-linejoin="round"/>
<path d="M108.337 60.7554H109.44" stroke="#E03F8D" stroke-width="0.135632" stroke-miterlimit="10" stroke-linecap="round" stroke-linejoin="round"/>
<path d="M108.898 60.1938V61.2967" stroke="#E03F8D" stroke-width="0.135632" stroke-miterlimit="10" stroke-linecap="round" stroke-linejoin="round"/>
<path d="M66.6616 26.0059H67.7645" stroke="#E03F8D" stroke-width="0.135632" stroke-miterlimit="10" stroke-linecap="round" stroke-linejoin="round"/>
<path d="M67.2227 25.4644V26.5478" stroke="#E03F8D" stroke-width="0.135632" stroke-miterlimit="10" stroke-linecap="round" stroke-linejoin="round"/>
<path d="M25.7988 62.0518H27.308" stroke="#E03F8D" stroke-width="0.135632" stroke-miterlimit="10" stroke-linecap="round" stroke-linejoin="round"/>
<path d="M26.5527 61.2974V62.7872" stroke="#E03F8D" stroke-width="0.135632" stroke-miterlimit="10" stroke-linecap="round" stroke-linejoin="round"/>
<path d="M18.4844 83.7017H20.4772" stroke="#1DB7C2" stroke-width="0.135632" stroke-miterlimit="10" stroke-linecap="round" stroke-linejoin="round"/>
<path d="M19.4717 82.6958V84.708" stroke="#1DB7C2" stroke-width="0.135632" stroke-miterlimit="10" stroke-linecap="round" stroke-linejoin="round"/>
<path d="M35.1626 72.8866C35.3754 72.5964 35.685 72.8092 35.8978 72.519C36.1107 72.2288 35.8011 71.9966 36.0139 71.7064C36.2267 71.4161 36.5363 71.629 36.7491 71.3387C36.962 71.0485 36.6524 70.8163 36.8652 70.5068C37.0781 70.2166 37.3876 70.4294 37.6005 70.1392" stroke="white" stroke-width="0.135632" stroke-miterlimit="10" stroke-linecap="round" stroke-linejoin="round"/>
<g opacity="0.53">
<path opacity="0.53" d="M41.0835 90.8605C40.8513 90.9959 40.6578 90.667 40.4257 90.8025C40.1935 90.9379 40.387 91.2668 40.1741 91.4023C39.942 91.5377 39.7485 91.2088 39.5163 91.3442C39.2841 91.4796 39.4776 91.8086 39.2648 91.944C39.0519 92.0794 38.8391 91.7505 38.6069 91.886" stroke="#1DB7C2" stroke-width="0.135632" stroke-miterlimit="10" stroke-linecap="round" stroke-linejoin="round"/>
</g>
<path d="M80.7861 45.9156C81.1344 45.7995 81.2505 46.1864 81.5987 46.0704C81.947 45.9543 81.8309 45.5867 82.1792 45.4899C82.5275 45.3738 82.6435 45.7608 82.9918 45.6447C83.3401 45.5286 83.224 45.161 83.5723 45.0643C83.9205 44.9675 84.0366 45.3351 84.3849 45.219" stroke="#9E3FB7" stroke-width="0.135632" stroke-miterlimit="10" stroke-linecap="round" stroke-linejoin="round"/>
</svg>
