<svg width="24" height="24" viewBox="0 0 24 24" fill="none" xmlns="http://www.w3.org/2000/svg">
<g clip-path="url(#clip0_1_662)">
<path d="M3.66455 1.85576C3.66455 1.45546 3.98906 1.13095 4.38936 1.13095C4.38936 1.13095 12.5107 1.13095 13.4495 1.13095C14.2393 1.13095 14.7262 1.64398 14.8608 1.8068C14.8872 1.83874 14.9138 1.87049 14.9431 1.8998L19.6085 6.56514C19.6097 6.56639 19.6108 6.56744 19.612 6.56868C19.6505 6.60714 20.3351 7.30199 20.3351 8.01662C20.3351 8.7519 20.3351 22.1504 20.3351 22.1504C20.3351 22.5507 20.0106 22.8752 19.6103 22.8752H4.38936C3.98906 22.8752 3.66455 22.5507 3.66455 22.1504V1.85576Z" fill="white"/>
<path d="M15.3028 1.4413C15.1316 1.23434 14.4983 0.557422 13.4495 0.557422H13.4439H13.4381H13.4322H13.4261H13.4199H13.4135H13.407H13.4002H13.3934H13.3863H13.3792H13.3718H13.3643H13.3566H13.3488H13.3409H13.3327H13.3245H13.316H13.3075H13.2987H13.2899H13.2808H13.2717H13.2623H13.2529H13.2433H13.2335H13.2236H13.2135H13.2033H13.193H13.1825H13.1719H13.1611H13.1502H13.1392H13.128H13.1167H13.1052H13.0936H13.0819H13.07H13.058H13.0459H13.0336H13.0212H13.0086H12.996H12.9832H12.9703H12.9572H12.944H12.9307H12.9172H12.9037H12.89H12.8762H12.8622H12.8481H12.8339H12.8196H12.8052H12.7906H12.7759H12.7611H12.7462H12.7312H12.716H12.7008H12.6854H12.6699H12.6542H12.6385H12.6226H12.6067H12.5906H12.5744H12.5581H12.5417H12.5252H12.5086H12.4918H12.475H12.458H12.441H12.4238H12.4066H12.3892H12.3717H12.3541H12.3365H12.3187H12.3008H12.2828H12.2647H12.2466H12.2283H12.2099H12.1914H12.1729H12.1542H12.1354H12.1166H12.0977H12.0786H12.0595H12.0403H12.021H12.0016H11.9821H11.9625H11.9428H11.9231H11.9032H11.8833H11.8633H11.8432H11.823H11.8028H11.7824H11.762H11.7415H11.7209H11.7002H11.6795H11.6587H11.6378H11.6168H11.5957H11.5746H11.5534H11.5321H11.5108H11.4894H11.4679H11.4463H11.4247H11.4029H11.3812H11.3593H11.3374H11.3154H11.2934H11.2713H11.2491H11.2268H11.2045H11.1822H11.1597H11.1372H11.1147H11.0921H11.0694H11.0467H11.0239H11.001H10.9781H10.9551H10.9321H10.9091H10.8859H10.8627H10.8395H10.8162H10.7929H10.7695H10.7461H10.7226H10.699H10.6754H10.6518H10.6281H10.6044H10.5806H10.5568H10.533H10.509H10.4851H10.4611H10.4371H10.413H10.3889H10.3648H10.3406H10.3163H10.2921H10.2678H10.2434H10.2191H10.1947H10.1702H10.1458H10.1213H10.0967H10.0722H10.0476H10.0229H9.99828H9.9736H9.94889H9.92415H9.89939H9.8746H9.84979H9.82495H9.80009H9.7752H9.75029H9.72537H9.70042H9.67545H9.65046H9.62545H9.60043H9.57539H9.55033H9.52525H9.50016H9.47506H9.44994H9.42481H9.39967H9.37451H9.34934H9.32417H9.29898H9.27378H9.24858H9.22336H9.19814H9.17292H9.14769H9.12245H9.09721H9.07196H9.04672H9.02147H8.99622H8.97096H8.94571H8.92046H8.89521H8.86996H8.84471H8.81947H8.79423H8.769H8.74377H8.71854H8.69333H8.66812H8.64292H8.61772H8.59254H8.56737H8.5422H8.51705H8.49191H8.46679H8.44167H8.41658H8.39149H8.36642H8.34137H8.31634H8.29132H8.26632H8.24134H8.21638H8.19144H8.16652H8.14162H8.11675H8.09189H8.06707H8.04226H8.01748H7.99273H7.968H7.9433H7.91863H7.89399H7.86937H7.84479H7.82024H7.79571H7.77122H7.74677H7.72234H7.69795H7.6736H7.64928H7.62499H7.60074H7.57653H7.55236H7.52823H7.50414H7.48008H7.45607H7.4321H7.40817H7.38428H7.36044H7.33664H7.31289H7.28918H7.26552H7.24191H7.21834H7.19482H7.17135H7.14793H7.12457H7.10125H7.07798H7.05477H7.03161H7.0085H6.98545H6.96245H6.93951H6.91663H6.8938H6.87103H6.84832H6.82567H6.80308H6.78055H6.75808H6.73567H6.71333H6.69105H6.66883H6.64668H6.62459H6.60257H6.58062H6.55873H6.53691H6.51516H6.49349H6.47188H6.45034H6.42887H6.40748H6.38616H6.36491H6.34374H6.32264H6.30162H6.28067H6.2598H6.23901H6.2183H6.19766H6.17711H6.15664H6.13625H6.11594H6.09571H6.07556H6.0555H6.03553H6.01564H5.99583H5.97612H5.95649H5.93694H5.91749H5.89813H5.87885H5.85967H5.84058H5.82158H5.80267H5.78386H5.76514H5.74652H5.72799H5.70956H5.69122H5.67298H5.65484H5.6368H5.61886H5.60102H5.58328H5.56565H5.54811H5.53068H5.51335H5.49613H5.47901H5.462H5.44509H5.42829H5.4116H5.39502H5.37855H5.36218H5.34593H5.32979H5.31376H5.29784H5.28204H5.26635H5.25078H5.23532H5.21997H5.20475H5.18964H5.17465H5.15978H5.14502H5.13039H5.11588H5.10149H5.08722H5.07308H5.05906H5.04516H5.03139H5.01775H5.00423H4.99083H4.97757H4.96443H4.95143H4.93855H4.9258H4.91319H4.9007H4.88835H4.87613H4.86405H4.8521H4.84029H4.82861H4.81706H4.80566H4.79439H4.78327H4.77228H4.76143H4.75072H4.74015H4.72973H4.71945H4.70931H4.69932H4.68947H4.67977H4.67021H4.6608H4.65153H4.64242H4.63345H4.62464H4.61597H4.60746H4.5991H4.59088H4.58283H4.57492H4.56717H4.55958H4.55214H4.54486H4.53773H4.53077H4.52396H4.51731H4.51082H4.50449H4.49832H4.49232H4.48647H4.48079H4.47528H4.46993H4.46474H4.45972H4.45487H4.45018H4.44566H4.44132H4.43714H4.43313H4.42929H4.42562H4.42213H4.41881H4.41566H4.41268H4.40989H4.40726H4.40481H4.40254H4.40045H4.39854H4.3968H4.39525H4.39387H4.39268H4.39167H4.39084H4.39019H4.38973H4.38945L4.38936 1.13095V0.557422C3.67231 0.557422 3.09102 1.13871 3.09102 1.85576V22.1504C3.09102 22.8674 3.67231 23.4487 4.38936 23.4487H19.6103C20.3274 23.4487 20.9087 22.8674 20.9087 22.1504H20.3351C20.9087 22.1504 20.9087 22.1503 20.9087 22.1502V22.1498V22.149V22.1479V22.1466V22.1449V22.1429V22.1407V22.1381V22.1352V22.1321V22.1286V22.1249V22.1209V22.1165V22.1119V22.107V22.1018V22.0963V22.0906V22.0845V22.0782V22.0716V22.0647V22.0576V22.0501V22.0424V22.0344V22.0262V22.0176V22.0088V21.9997V21.9904V21.9808V21.9709V21.9607V21.9503V21.9396V21.9287V21.9175V21.906V21.8943V21.8823V21.8701V21.8576V21.8448V21.8318V21.8186V21.8051V21.7913V21.7773V21.7631V21.7486V21.7338V21.7188V21.7036V21.6882V21.6724V21.6565V21.6403V21.6239V21.6072V21.5903V21.5732V21.5559V21.5383V21.5205V21.5024V21.4841V21.4656V21.4469V21.428V21.4088V21.3894V21.3698V21.35V21.3299V21.3096V21.2892V21.2685V21.2475V21.2264V21.2051V21.1835V21.1618V21.1398V21.1177V21.0953V21.0727V21.0499V21.0269V21.0038V20.9804V20.9568V20.933V20.909V20.8849V20.8605V20.836V20.8112V20.7863V20.7612V20.7358V20.7103V20.6847V20.6588V20.6327V20.6065V20.5801V20.5535V20.5267V20.4998V20.4726V20.4453V20.4179V20.3902V20.3624V20.3344V20.3062V20.2779V20.2494V20.2208V20.1919V20.1629V20.1338V20.1045V20.075V20.0454V20.0156V19.9856V19.9555V19.9253V19.8949V19.8643V19.8336V19.8028V19.7717V19.7406V19.7093V19.6779V19.6463V19.6145V19.5827V19.5507V19.5185V19.4862V19.4538V19.4212V19.3885V19.3557V19.3228V19.2897V19.2564V19.2231V19.1896V19.156V19.1223V19.0884V19.0545V19.0204V18.9862V18.9518V18.9174V18.8828V18.8481V18.8133V18.7784V18.7434V18.7083V18.673V18.6377V18.6022V18.5666V18.531V18.4952V18.4593V18.4233V18.3873V18.3511V18.3148V18.2784V18.242V18.2054V18.1687V18.132V18.0951V18.0582V18.0212V17.9841V17.9469V17.9096V17.8722V17.8348V17.7973V17.7597V17.722V17.6842V17.6464V17.6084V17.5704V17.5324V17.4942V17.456V17.4177V17.3794V17.341V17.3025V17.2639V17.2253V17.1866V17.1479V17.1091V17.0702V17.0313V16.9923V16.9533V16.9142V16.8751V16.8359V16.7966V16.7573V16.718V16.6786V16.6391V16.5996V16.5601V16.5205V16.4809V16.4413V16.4016V16.3618V16.3221V16.2822V16.2424V16.2025V16.1626V16.1227V16.0827V16.0427V16.0026V15.9626V15.9225V15.8824V15.8423V15.8021V15.7619V15.7217V15.6815V15.6413V15.601V15.5608V15.5205V15.4802V15.4399V15.3996V15.3592V15.3189V15.2786V15.2382V15.1979V15.1575V15.1171V15.0768V15.0364V14.9961V14.9557V14.9153V14.875V14.8346V14.7943V14.754V14.7137V14.6733V14.633V14.5928V14.5525V14.5122V14.472V14.4318V14.3916V14.3514V14.3112V14.2711V14.2309V14.1908V14.1508V14.1107V14.0707V14.0307V13.9908V13.9508V13.9109V13.8711V13.8313V13.7915V13.7517V13.712V13.6723V13.6327V13.5931V13.5535V13.514V13.4746V13.4351V13.3958V13.3565V13.3172V13.278V13.2388V13.1997V13.1606V13.1216V13.0827V13.0438V13.005V12.9662V12.9275V12.8888V12.8503V12.8118V12.7733V12.7349V12.6966V12.6584V12.6202V12.5821V12.5441V12.5061V12.4682V12.4304V12.3927V12.3551V12.3175V12.28V12.2426V12.2053V12.1681V12.1309V12.0938V12.0569V12.02V11.9832V11.9465V11.9099V11.8734V11.837V11.8006V11.7644V11.7283V11.6923V11.6564V11.6205V11.5848V11.5492V11.5137V11.4783V11.443V11.4078V11.3727V11.3378V11.3029V11.2682V11.2336V11.1991V11.1647V11.1304V11.0963V11.0622V11.0283V10.9946V10.9609V10.9274V10.894V10.8607V10.8275V10.7945V10.7616V10.7289V10.6963V10.6638V10.6314V10.5992V10.5672V10.5352V10.5034V10.4718V10.4403V10.4089V10.3777V10.3466V10.3157V10.2849V10.2543V10.2238V10.1935V10.1633V10.1333V10.1035V10.0738V10.0442V10.0148V9.9856V9.95654V9.92765V9.89891V9.87034V9.84194V9.81371V9.78564V9.75774V9.73002V9.70246V9.67508V9.64788V9.62085V9.594V9.56732V9.54083V9.51451V9.48838V9.46243V9.43666V9.41107V9.38568V9.36047V9.33545V9.31062V9.28598V9.26153V9.23727V9.21321V9.18935V9.16568V9.14221V9.11894V9.09587V9.073V9.05033V9.02786V9.0056V8.98355V8.9617V8.94006V8.91864V8.89742V8.87641V8.85562V8.83504V8.81467V8.79453V8.7746V8.75489V8.73539V8.71612V8.69708V8.67825V8.65965V8.64128V8.62313V8.60521V8.58752V8.57006V8.55283V8.53584V8.51908V8.50255V8.48626V8.47021V8.4544V8.43882V8.42349V8.4084V8.39355V8.37895V8.36459V8.35048V8.33661V8.323V8.30964V8.29652V8.28366V8.27106V8.2587V8.24661V8.23477V8.22319V8.21187V8.20081V8.19001V8.17948V8.16921V8.1592V8.14946V8.13999V8.13079V8.12186V8.1132V8.10481V8.0967V8.08886V8.08129V8.074V8.067V8.06027V8.05382V8.04765V8.04176V8.03616V8.03085V8.02582V8.02108V8.01662C20.9087 7.49157 20.6645 7.02427 20.4673 6.72417C20.2616 6.41099 20.0511 6.19665 20.0176 6.16318L20.0175 6.16314L20.0151 6.16069L20.014 6.1596L15.3487 1.49426L14.9439 1.899L15.3487 1.49425C15.3408 1.48645 15.33 1.47416 15.3028 1.4413ZM15.3028 1.4413L14.8626 1.80533L15.3028 1.4413C15.3028 1.4413 15.3028 1.4413 15.3028 1.4413Z" stroke="black" stroke-opacity="0.2" stroke-width="1.14706"/>
<path d="M14.166 1.28259V6.56459C14.166 6.96613 14.4893 7.28943 14.8909 7.28943H20.133C20.0148 7.05069 19.8439 6.79935 19.6092 6.56459L14.898 1.85336C14.6698 1.56465 14.416 1.38988 14.1731 1.28287L14.166 1.28259Z" fill="white"/>
<path d="M14.8912 8.37664C13.8891 8.37664 13.0791 7.56655 13.0791 6.56459V1.125L13.4497 1.13077C13.8478 1.13077 14.1663 1.28259 14.1663 1.28259V6.56459C14.1663 6.96613 14.4896 7.28942 14.8912 7.28942H20.1333C20.1333 7.28942 20.3353 7.65404 20.3353 8.01645V8.37664H14.8912Z" fill="#CCCCCC"/>
</g>
<defs>
<clipPath id="clip0_1_662">
<rect width="24" height="24" fill="white"/>
</clipPath>
</defs>
</svg>
