<svg width="24" height="24" viewBox="0 0 24 24" fill="none" xmlns="http://www.w3.org/2000/svg">
<g clip-path="url(#clip0_1_656)">
<path d="M3.66455 1.85591C3.66455 1.45561 3.98906 1.1311 4.38936 1.1311C4.38936 1.1311 12.5107 1.1311 13.4495 1.1311C14.2393 1.1311 14.7262 1.64413 14.8608 1.80695C14.8872 1.83889 14.9138 1.87065 14.9431 1.89996L19.6085 6.5653C19.6097 6.56654 19.6108 6.56759 19.612 6.56884C19.6505 6.6073 20.3351 7.30214 20.3351 8.01678C20.3351 8.75206 20.3351 22.1505 20.3351 22.1505C20.3351 22.5508 20.0106 22.8753 19.6103 22.8753H4.38936C3.98906 22.8753 3.66455 22.5508 3.66455 22.1505V1.85591Z" fill="white"/>
<path d="M15.3028 1.44146C15.1316 1.23449 14.4983 0.557575 13.4495 0.557575H13.4439H13.4381H13.4322H13.4261H13.4199H13.4135H13.407H13.4002H13.3934H13.3863H13.3792H13.3718H13.3643H13.3566H13.3488H13.3409H13.3327H13.3245H13.316H13.3075H13.2987H13.2899H13.2808H13.2717H13.2623H13.2529H13.2433H13.2335H13.2236H13.2135H13.2033H13.193H13.1825H13.1719H13.1611H13.1502H13.1392H13.128H13.1167H13.1052H13.0936H13.0819H13.07H13.058H13.0459H13.0336H13.0212H13.0086H12.996H12.9832H12.9703H12.9572H12.944H12.9307H12.9172H12.9037H12.89H12.8762H12.8622H12.8481H12.8339H12.8196H12.8052H12.7906H12.7759H12.7611H12.7462H12.7312H12.716H12.7008H12.6854H12.6699H12.6542H12.6385H12.6226H12.6067H12.5906H12.5744H12.5581H12.5417H12.5252H12.5086H12.4918H12.475H12.458H12.441H12.4238H12.4066H12.3892H12.3717H12.3541H12.3365H12.3187H12.3008H12.2828H12.2647H12.2466H12.2283H12.2099H12.1914H12.1729H12.1542H12.1354H12.1166H12.0977H12.0786H12.0595H12.0403H12.021H12.0016H11.9821H11.9625H11.9428H11.9231H11.9032H11.8833H11.8633H11.8432H11.823H11.8028H11.7824H11.762H11.7415H11.7209H11.7002H11.6795H11.6587H11.6378H11.6168H11.5957H11.5746H11.5534H11.5321H11.5108H11.4894H11.4679H11.4463H11.4247H11.4029H11.3812H11.3593H11.3374H11.3154H11.2934H11.2713H11.2491H11.2268H11.2045H11.1822H11.1597H11.1372H11.1147H11.0921H11.0694H11.0467H11.0239H11.001H10.9781H10.9551H10.9321H10.9091H10.8859H10.8627H10.8395H10.8162H10.7929H10.7695H10.7461H10.7226H10.699H10.6754H10.6518H10.6281H10.6044H10.5806H10.5568H10.533H10.509H10.4851H10.4611H10.4371H10.413H10.3889H10.3648H10.3406H10.3163H10.2921H10.2678H10.2434H10.2191H10.1947H10.1702H10.1458H10.1213H10.0967H10.0722H10.0476H10.0229H9.99828H9.9736H9.94889H9.92415H9.89939H9.8746H9.84979H9.82495H9.80009H9.7752H9.75029H9.72537H9.70042H9.67545H9.65046H9.62545H9.60043H9.57539H9.55033H9.52525H9.50016H9.47506H9.44994H9.42481H9.39967H9.37451H9.34934H9.32417H9.29898H9.27378H9.24858H9.22336H9.19814H9.17292H9.14769H9.12245H9.09721H9.07196H9.04672H9.02147H8.99622H8.97096H8.94571H8.92046H8.89521H8.86996H8.84471H8.81947H8.79423H8.769H8.74377H8.71854H8.69333H8.66812H8.64292H8.61772H8.59254H8.56737H8.5422H8.51705H8.49191H8.46679H8.44167H8.41658H8.39149H8.36642H8.34137H8.31634H8.29132H8.26632H8.24134H8.21638H8.19144H8.16652H8.14162H8.11675H8.09189H8.06707H8.04226H8.01748H7.99273H7.968H7.9433H7.91863H7.89399H7.86937H7.84479H7.82024H7.79571H7.77122H7.74677H7.72234H7.69795H7.6736H7.64928H7.62499H7.60074H7.57653H7.55236H7.52823H7.50414H7.48008H7.45607H7.4321H7.40817H7.38428H7.36044H7.33664H7.31289H7.28918H7.26552H7.24191H7.21834H7.19482H7.17135H7.14793H7.12457H7.10125H7.07798H7.05477H7.03161H7.0085H6.98545H6.96245H6.93951H6.91663H6.8938H6.87103H6.84832H6.82567H6.80308H6.78055H6.75808H6.73567H6.71333H6.69105H6.66883H6.64668H6.62459H6.60257H6.58062H6.55873H6.53691H6.51516H6.49349H6.47188H6.45034H6.42887H6.40748H6.38616H6.36491H6.34374H6.32264H6.30162H6.28067H6.2598H6.23901H6.2183H6.19766H6.17711H6.15664H6.13625H6.11594H6.09571H6.07556H6.0555H6.03553H6.01564H5.99583H5.97612H5.95649H5.93694H5.91749H5.89813H5.87885H5.85967H5.84058H5.82158H5.80267H5.78386H5.76514H5.74652H5.72799H5.70956H5.69122H5.67298H5.65484H5.6368H5.61886H5.60102H5.58328H5.56565H5.54811H5.53068H5.51335H5.49613H5.47901H5.462H5.44509H5.42829H5.4116H5.39502H5.37855H5.36218H5.34593H5.32979H5.31376H5.29784H5.28204H5.26635H5.25078H5.23532H5.21997H5.20475H5.18964H5.17465H5.15978H5.14502H5.13039H5.11588H5.10149H5.08722H5.07308H5.05906H5.04516H5.03139H5.01775H5.00423H4.99083H4.97757H4.96443H4.95143H4.93855H4.9258H4.91319H4.9007H4.88835H4.87613H4.86405H4.8521H4.84029H4.82861H4.81706H4.80566H4.79439H4.78327H4.77228H4.76143H4.75072H4.74015H4.72973H4.71945H4.70931H4.69932H4.68947H4.67977H4.67021H4.6608H4.65153H4.64242H4.63345H4.62464H4.61597H4.60746H4.5991H4.59088H4.58283H4.57492H4.56717H4.55958H4.55214H4.54486H4.53773H4.53077H4.52396H4.51731H4.51082H4.50449H4.49832H4.49232H4.48647H4.48079H4.47528H4.46993H4.46474H4.45972H4.45487H4.45018H4.44566H4.44132H4.43714H4.43313H4.42929H4.42562H4.42213H4.41881H4.41566H4.41268H4.40989H4.40726H4.40481H4.40254H4.40045H4.39854H4.3968H4.39525H4.39387H4.39268H4.39167H4.39084H4.39019H4.38973H4.38945L4.38936 1.1311V0.557575C3.67231 0.557575 3.09102 1.13886 3.09102 1.85591V22.1505C3.09102 22.8676 3.67231 23.4489 4.38936 23.4489H19.6103C20.3274 23.4489 20.9087 22.8676 20.9087 22.1505H20.3351C20.9087 22.1505 20.9087 22.1505 20.9087 22.1504V22.1499V22.1491V22.1481V22.1467V22.145V22.1431V22.1408V22.1382V22.1354V22.1322V22.1288V22.125V22.121V22.1167V22.1121V22.1072V22.102V22.0965V22.0907V22.0847V22.0784V22.0718V22.0649V22.0577V22.0503V22.0426V22.0346V22.0263V22.0178V22.009V21.9999V21.9905V21.9809V21.971V21.9609V21.9504V21.9398V21.9288V21.9176V21.9062V21.8944V21.8824V21.8702V21.8577V21.845V21.832V21.8187V21.8052V21.7915V21.7775V21.7632V21.7487V21.734V21.719V21.7038V21.6883V21.6726V21.6567V21.6405V21.624V21.6074V21.5905V21.5734V21.556V21.5384V21.5206V21.5026V21.4843V21.4658V21.4471V21.4281V21.4089V21.3896V21.3699V21.3501V21.3301V21.3098V21.2893V21.2686V21.2477V21.2266V21.2052V21.1837V21.1619V21.14V21.1178V21.0954V21.0729V21.0501V21.0271V21.0039V20.9805V20.9569V20.9332V20.9092V20.885V20.8607V20.8361V20.8114V20.7864V20.7613V20.736V20.7105V20.6848V20.6589V20.6329V20.6066V20.5802V20.5536V20.5269V20.4999V20.4728V20.4455V20.418V20.3904V20.3625V20.3345V20.3064V20.2781V20.2496V20.2209V20.1921V20.1631V20.1339V20.1046V20.0752V20.0455V20.0157V19.9858V19.9557V19.9254V19.895V19.8645V19.8338V19.8029V19.7719V19.7407V19.7094V19.678V19.6464V19.6147V19.5828V19.5508V19.5187V19.4864V19.4539V19.4214V19.3887V19.3559V19.3229V19.2898V19.2566V19.2232V19.1898V19.1562V19.1224V19.0886V19.0546V19.0205V18.9863V18.952V18.9175V18.883V18.8483V18.8135V18.7786V18.7435V18.7084V18.6732V18.6378V18.6024V18.5668V18.5311V18.4953V18.4595V18.4235V18.3874V18.3512V18.315V18.2786V18.2421V18.2055V18.1689V18.1321V18.0953V18.0584V18.0213V17.9842V17.947V17.9098V17.8724V17.8349V17.7974V17.7598V17.7221V17.6843V17.6465V17.6086V17.5706V17.5325V17.4944V17.4562V17.4179V17.3795V17.3411V17.3026V17.2641V17.2255V17.1868V17.148V17.1092V17.0704V17.0314V16.9925V16.9534V16.9143V16.8752V16.836V16.7968V16.7575V16.7181V16.6787V16.6393V16.5998V16.5603V16.5207V16.4811V16.4414V16.4017V16.362V16.3222V16.2824V16.2425V16.2027V16.1628V16.1228V16.0828V16.0428V16.0028V15.9627V15.9226V15.8825V15.8424V15.8022V15.7621V15.7219V15.6817V15.6414V15.6012V15.5609V15.5206V15.4803V15.44V15.3997V15.3594V15.319V15.2787V15.2384V15.198V15.1576V15.1173V15.0769V15.0366V14.9962V14.9558V14.9155V14.8751V14.8348V14.7945V14.7541V14.7138V14.6735V14.6332V14.5929V14.5526V14.5124V14.4721V14.4319V14.3917V14.3515V14.3114V14.2712V14.2311V14.191V14.1509V14.1109V14.0709V14.0309V13.9909V13.951V13.9111V13.8712V13.8314V13.7916V13.7519V13.7121V13.6725V13.6328V13.5932V13.5537V13.5142V13.4747V13.4353V13.3959V13.3566V13.3173V13.2781V13.239V13.1998V13.1608V13.1218V13.0828V13.044V13.0051V12.9664V12.9276V12.889V12.8504V12.8119V12.7735V12.7351V12.6968V12.6585V12.6203V12.5822V12.5442V12.5063V12.4684V12.4306V12.3929V12.3552V12.3176V12.2802V12.2428V12.2054V12.1682V12.1311V12.094V12.057V12.0201V11.9834V11.9467V11.91V11.8735V11.8371V11.8008V11.7646V11.7285V11.6924V11.6565V11.6207V11.585V11.5494V11.5138V11.4784V11.4432V11.408V11.3729V11.3379V11.3031V11.2684V11.2337V11.1992V11.1648V11.1306V11.0964V11.0624V11.0285V10.9947V10.9611V10.9275V10.8941V10.8608V10.8277V10.7947V10.7618V10.729V10.6964V10.6639V10.6316V10.5994V10.5673V10.5354V10.5036V10.4719V10.4404V10.4091V10.3778V10.3468V10.3158V10.2851V10.2544V10.224V10.1936V10.1635V10.1335V10.1036V10.0739V10.0444V10.015V9.98576V9.9567V9.9278V9.89906V9.8705V9.84209V9.81386V9.78579V9.7579V9.73017V9.70262V9.67524V9.64803V9.621V9.59415V9.56747V9.54098V9.51466V9.48853V9.46258V9.43681V9.41123V9.38583V9.36062V9.3356V9.31077V9.28613V9.26168V9.23743V9.21337V9.1895V9.16583V9.14236V9.11909V9.09602V9.07315V9.05048V9.02802V9.00576V8.9837V8.96186V8.94022V8.91879V8.89757V8.87656V8.85577V8.83519V8.81483V8.79468V8.77475V8.75504V8.73555V8.71628V8.69723V8.6784V8.6598V8.64143V8.62328V8.60536V8.58767V8.57022V8.55299V8.53599V8.51923V8.50271V8.48642V8.47036V8.45455V8.43897V8.42364V8.40855V8.3937V8.3791V8.36474V8.35063V8.33677V8.32315V8.30979V8.29668V8.28382V8.27121V8.25886V8.24676V8.23492V8.22334V8.21202V8.20096V8.19017V8.17963V8.16936V8.15936V8.14962V8.14015V8.13094V8.12201V8.11335V8.10496V8.09685V8.08901V8.08144V8.07416V8.06715V8.06042V8.05397V8.0478V8.04192V8.03632V8.031V8.02597V8.02123V8.01678C20.9087 7.49172 20.6645 7.02443 20.4673 6.72432C20.2616 6.41114 20.0511 6.19681 20.0176 6.16333L20.0175 6.16329L20.0151 6.16085L20.014 6.15975L15.3487 1.49441L14.9439 1.89915L15.3487 1.49441C15.3408 1.4866 15.33 1.47431 15.3028 1.44146ZM15.3028 1.44146L14.8626 1.80548L15.3028 1.44145C15.3028 1.44145 15.3028 1.44145 15.3028 1.44146Z" stroke="black" stroke-opacity="0.2" stroke-width="1.14706"/>
<path d="M14.166 1.28271V6.56471C14.166 6.96625 14.4893 7.28955 14.8909 7.28955H20.133C20.0148 7.05081 19.8439 6.79947 19.6092 6.56471L14.898 1.85349C14.6698 1.56477 14.416 1.39001 14.1731 1.28299L14.166 1.28271Z" fill="white"/>
<path d="M14.8907 8.37676C13.8886 8.37676 13.0786 7.56667 13.0786 6.56471V1.12512L13.4492 1.1309C13.8474 1.1309 14.1658 1.28271 14.1658 1.28271V6.56471C14.1658 6.96625 14.4891 7.28955 14.8907 7.28955H20.1328C20.1328 7.28955 20.3349 7.65416 20.3349 8.01657V8.37676H14.8907Z" fill="#CCCCCC"/>
<path d="M7.95806 13.6376L8.47222 19.5H9.50558L12.2528 14.0812L12.6309 19.5H13.6793L16.6736 13.6628C17.092 12.8512 17.2633 12.7403 17.9136 12.6647L18.0043 12.2211H15.6906L15.5999 12.6647C16.3358 12.7555 16.3711 12.8865 16.0082 13.6275L13.7499 18.3053L13.4576 13.6426C13.4122 12.8966 13.4878 12.7655 14.2842 12.6647L14.38 12.2211H11.5118L11.416 12.6647C12.1621 12.7555 12.1873 12.8865 11.8294 13.6275L9.58119 18.3053L9.27875 13.6426C9.23338 12.8966 9.30899 12.7655 10.1105 12.6647L10.2012 12.2211H7.24731L7.16162 12.6647C7.73627 12.7403 7.89253 12.8512 7.95806 13.6376Z" fill="#0F73BD"/>
</g>
<defs>
<clipPath id="clip0_1_656">
<rect width="24" height="24" fill="white"/>
</clipPath>
</defs>
</svg>
