<svg width="24" height="24" viewBox="0 0 24 24" fill="none" xmlns="http://www.w3.org/2000/svg">
<g clip-path="url(#clip0_1_667)">
<path d="M3.66455 1.85591C3.66455 1.45561 3.98906 1.1311 4.38936 1.1311C4.38936 1.1311 12.5107 1.1311 13.4495 1.1311C14.2393 1.1311 14.7262 1.64413 14.8608 1.80695C14.8872 1.83889 14.9138 1.87065 14.9431 1.89996L19.6085 6.5653C19.6097 6.56654 19.6108 6.56759 19.612 6.56884C19.6505 6.6073 20.3351 7.30214 20.3351 8.01678C20.3351 8.75206 20.3351 22.1505 20.3351 22.1505C20.3351 22.5508 20.0106 22.8753 19.6103 22.8753H4.38936C3.98906 22.8753 3.66455 22.5508 3.66455 22.1505V1.85591Z" fill="white"/>
<path d="M15.3028 1.44146C15.1316 1.23449 14.4983 0.557575 13.4495 0.557575H13.4439H13.4381H13.4322H13.4261H13.4199H13.4135H13.407H13.4002H13.3934H13.3863H13.3792H13.3718H13.3643H13.3566H13.3488H13.3409H13.3327H13.3245H13.316H13.3075H13.2987H13.2899H13.2808H13.2717H13.2623H13.2529H13.2433H13.2335H13.2236H13.2135H13.2033H13.193H13.1825H13.1719H13.1611H13.1502H13.1392H13.128H13.1167H13.1052H13.0936H13.0819H13.07H13.058H13.0459H13.0336H13.0212H13.0086H12.996H12.9832H12.9703H12.9572H12.944H12.9307H12.9172H12.9037H12.89H12.8762H12.8622H12.8481H12.8339H12.8196H12.8052H12.7906H12.7759H12.7611H12.7462H12.7312H12.716H12.7008H12.6854H12.6699H12.6542H12.6385H12.6226H12.6067H12.5906H12.5744H12.5581H12.5417H12.5252H12.5086H12.4918H12.475H12.458H12.441H12.4238H12.4066H12.3892H12.3717H12.3541H12.3365H12.3187H12.3008H12.2828H12.2647H12.2466H12.2283H12.2099H12.1914H12.1729H12.1542H12.1354H12.1166H12.0977H12.0786H12.0595H12.0403H12.021H12.0016H11.9821H11.9625H11.9428H11.9231H11.9032H11.8833H11.8633H11.8432H11.823H11.8028H11.7824H11.762H11.7415H11.7209H11.7002H11.6795H11.6587H11.6378H11.6168H11.5957H11.5746H11.5534H11.5321H11.5108H11.4894H11.4679H11.4463H11.4247H11.4029H11.3812H11.3593H11.3374H11.3154H11.2934H11.2713H11.2491H11.2268H11.2045H11.1822H11.1597H11.1372H11.1147H11.0921H11.0694H11.0467H11.0239H11.001H10.9781H10.9551H10.9321H10.9091H10.8859H10.8627H10.8395H10.8162H10.7929H10.7695H10.7461H10.7226H10.699H10.6754H10.6518H10.6281H10.6044H10.5806H10.5568H10.533H10.509H10.4851H10.4611H10.4371H10.413H10.3889H10.3648H10.3406H10.3163H10.2921H10.2678H10.2434H10.2191H10.1947H10.1702H10.1458H10.1213H10.0967H10.0722H10.0476H10.0229H9.99828H9.9736H9.94889H9.92415H9.89939H9.8746H9.84979H9.82495H9.80009H9.7752H9.75029H9.72537H9.70042H9.67545H9.65046H9.62545H9.60043H9.57539H9.55033H9.52525H9.50016H9.47506H9.44994H9.42481H9.39967H9.37451H9.34934H9.32416H9.29898H9.27378H9.24858H9.22336H9.19814H9.17292H9.14769H9.12245H9.09721H9.07196H9.04672H9.02147H8.99622H8.97096H8.94571H8.92046H8.89521H8.86996H8.84471H8.81947H8.79423H8.769H8.74377H8.71854H8.69333H8.66812H8.64292H8.61772H8.59254H8.56737H8.5422H8.51705H8.49191H8.46679H8.44167H8.41658H8.39149H8.36642H8.34137H8.31634H8.29132H8.26632H8.24134H8.21638H8.19144H8.16652H8.14162H8.11675H8.09189H8.06707H8.04226H8.01748H7.99273H7.968H7.9433H7.91863H7.89399H7.86937H7.84479H7.82024H7.79571H7.77122H7.74677H7.72234H7.69795H7.6736H7.64928H7.62499H7.60074H7.57653H7.55236H7.52823H7.50414H7.48008H7.45607H7.4321H7.40817H7.38428H7.36044H7.33664H7.31289H7.28918H7.26552H7.24191H7.21834H7.19482H7.17135H7.14793H7.12457H7.10125H7.07798H7.05477H7.03161H7.0085H6.98545H6.96245H6.93951H6.91663H6.8938H6.87103H6.84832H6.82567H6.80308H6.78055H6.75808H6.73567H6.71333H6.69105H6.66883H6.64668H6.62459H6.60257H6.58062H6.55873H6.53691H6.51516H6.49348H6.47188H6.45034H6.42887H6.40748H6.38616H6.36491H6.34374H6.32264H6.30161H6.28067H6.2598H6.23901H6.2183H6.19766H6.17711H6.15664H6.13625H6.11594H6.09571H6.07556H6.0555H6.03553H6.01564H5.99583H5.97612H5.95649H5.93694H5.91749H5.89813H5.87885H5.85967H5.84058H5.82158H5.80267H5.78386H5.76514H5.74652H5.72799H5.70956H5.69122H5.67298H5.65484H5.6368H5.61886H5.60102H5.58328H5.56565H5.54811H5.53068H5.51335H5.49613H5.47901H5.462H5.44509H5.42829H5.4116H5.39502H5.37855H5.36218H5.34593H5.32979H5.31376H5.29784H5.28204H5.26635H5.25078H5.23532H5.21997H5.20475H5.18964H5.17465H5.15978H5.14502H5.13039H5.11588H5.10149H5.08722H5.07308H5.05906H5.04516H5.03139H5.01775H5.00423H4.99083H4.97757H4.96443H4.95143H4.93855H4.9258H4.91319H4.9007H4.88835H4.87613H4.86405H4.8521H4.84028H4.82861H4.81706H4.80566H4.79439H4.78327H4.77228H4.76143H4.75072H4.74015H4.72973H4.71945H4.70931H4.69932H4.68947H4.67977H4.67021H4.6608H4.65153H4.64242H4.63345H4.62464H4.61597H4.60746H4.5991H4.59088H4.58283H4.57492H4.56717H4.55958H4.55214H4.54486H4.53773H4.53077H4.52396H4.51731H4.51082H4.50449H4.49832H4.49232H4.48647H4.48079H4.47528H4.46993H4.46474H4.45972H4.45487H4.45018H4.44566H4.44132H4.43714H4.43313H4.42929H4.42562H4.42213H4.41881H4.41566H4.41268H4.40989H4.40726H4.40481H4.40254H4.40045H4.39854H4.3968H4.39525H4.39387H4.39268H4.39167H4.39084H4.39019H4.38973H4.38945L4.38936 1.1311V0.557575C3.67231 0.557575 3.09102 1.13886 3.09102 1.85591V22.1505C3.09102 22.8676 3.67231 23.4489 4.38936 23.4489H19.6103C20.3274 23.4489 20.9087 22.8676 20.9087 22.1505H20.3351C20.9087 22.1505 20.9087 22.1505 20.9087 22.1504V22.1499V22.1491V22.1481V22.1467V22.145V22.1431V22.1408V22.1382V22.1354V22.1322V22.1288V22.125V22.121V22.1167V22.1121V22.1072V22.102V22.0965V22.0907V22.0847V22.0784V22.0718V22.0649V22.0577V22.0503V22.0426V22.0346V22.0263V22.0178V22.009V21.9999V21.9905V21.9809V21.971V21.9609V21.9504V21.9398V21.9288V21.9176V21.9062V21.8944V21.8824V21.8702V21.8577V21.845V21.832V21.8187V21.8052V21.7915V21.7775V21.7632V21.7487V21.734V21.719V21.7038V21.6883V21.6726V21.6567V21.6405V21.624V21.6074V21.5905V21.5734V21.556V21.5384V21.5206V21.5026V21.4843V21.4658V21.4471V21.4281V21.4089V21.3896V21.3699V21.3501V21.3301V21.3098V21.2893V21.2686V21.2477V21.2266V21.2052V21.1837V21.1619V21.14V21.1178V21.0954V21.0729V21.0501V21.0271V21.0039V20.9805V20.9569V20.9332V20.9092V20.885V20.8607V20.8361V20.8114V20.7864V20.7613V20.736V20.7105V20.6848V20.6589V20.6329V20.6066V20.5802V20.5536V20.5269V20.4999V20.4728V20.4455V20.418V20.3904V20.3625V20.3345V20.3064V20.2781V20.2496V20.2209V20.1921V20.1631V20.1339V20.1046V20.0752V20.0455V20.0157V19.9858V19.9557V19.9254V19.895V19.8645V19.8338V19.8029V19.7719V19.7407V19.7094V19.678V19.6464V19.6147V19.5828V19.5508V19.5187V19.4864V19.4539V19.4214V19.3887V19.3559V19.3229V19.2898V19.2566V19.2232V19.1898V19.1562V19.1224V19.0886V19.0546V19.0205V18.9863V18.952V18.9175V18.883V18.8483V18.8135V18.7786V18.7435V18.7084V18.6732V18.6378V18.6024V18.5668V18.5311V18.4953V18.4595V18.4235V18.3874V18.3512V18.315V18.2786V18.2421V18.2055V18.1689V18.1321V18.0953V18.0584V18.0213V17.9842V17.947V17.9098V17.8724V17.8349V17.7974V17.7598V17.7221V17.6843V17.6465V17.6086V17.5706V17.5325V17.4944V17.4562V17.4179V17.3795V17.3411V17.3026V17.2641V17.2255V17.1868V17.148V17.1092V17.0704V17.0314V16.9925V16.9534V16.9143V16.8752V16.836V16.7968V16.7575V16.7181V16.6787V16.6393V16.5998V16.5603V16.5207V16.4811V16.4414V16.4017V16.362V16.3222V16.2824V16.2425V16.2027V16.1628V16.1228V16.0828V16.0428V16.0028V15.9627V15.9226V15.8825V15.8424V15.8022V15.7621V15.7219V15.6817V15.6414V15.6012V15.5609V15.5206V15.4803V15.44V15.3997V15.3594V15.319V15.2787V15.2384V15.198V15.1576V15.1173V15.0769V15.0366V14.9962V14.9558V14.9155V14.8751V14.8348V14.7945V14.7541V14.7138V14.6735V14.6332V14.5929V14.5526V14.5124V14.4721V14.4319V14.3917V14.3515V14.3114V14.2712V14.2311V14.191V14.1509V14.1109V14.0709V14.0309V13.9909V13.951V13.9111V13.8712V13.8314V13.7916V13.7519V13.7121V13.6725V13.6328V13.5932V13.5537V13.5142V13.4747V13.4353V13.3959V13.3566V13.3173V13.2781V13.239V13.1998V13.1608V13.1218V13.0828V13.044V13.0051V12.9664V12.9276V12.889V12.8504V12.8119V12.7735V12.7351V12.6968V12.6585V12.6203V12.5822V12.5442V12.5063V12.4684V12.4306V12.3929V12.3552V12.3176V12.2802V12.2428V12.2054V12.1682V12.1311V12.094V12.057V12.0201V11.9834V11.9467V11.91V11.8735V11.8371V11.8008V11.7646V11.7285V11.6924V11.6565V11.6207V11.585V11.5494V11.5138V11.4784V11.4432V11.408V11.3729V11.3379V11.3031V11.2684V11.2337V11.1992V11.1648V11.1306V11.0964V11.0624V11.0285V10.9947V10.9611V10.9275V10.8941V10.8608V10.8277V10.7947V10.7618V10.729V10.6964V10.6639V10.6316V10.5994V10.5673V10.5354V10.5036V10.4719V10.4404V10.4091V10.3778V10.3468V10.3158V10.2851V10.2544V10.224V10.1936V10.1635V10.1335V10.1036V10.0739V10.0444V10.015V9.98576V9.9567V9.9278V9.89906V9.8705V9.84209V9.81386V9.78579V9.7579V9.73017V9.70262V9.67524V9.64803V9.621V9.59415V9.56747V9.54098V9.51466V9.48853V9.46258V9.43681V9.41123V9.38583V9.36062V9.3356V9.31077V9.28613V9.26168V9.23743V9.21337V9.1895V9.16583V9.14236V9.11909V9.09602V9.07315V9.05048V9.02802V9.00576V8.9837V8.96186V8.94022V8.91879V8.89757V8.87656V8.85577V8.83519V8.81483V8.79468V8.77475V8.75504V8.73555V8.71628V8.69723V8.6784V8.6598V8.64143V8.62328V8.60536V8.58767V8.57022V8.55299V8.53599V8.51923V8.50271V8.48642V8.47036V8.45455V8.43897V8.42364V8.40855V8.3937V8.3791V8.36474V8.35063V8.33677V8.32315V8.30979V8.29668V8.28382V8.27121V8.25886V8.24676V8.23492V8.22334V8.21202V8.20096V8.19017V8.17963V8.16936V8.15936V8.14962V8.14015V8.13094V8.12201V8.11335V8.10496V8.09685V8.08901V8.08144V8.07416V8.06715V8.06042V8.05397V8.0478V8.04192V8.03632V8.031V8.02597V8.02123V8.01678C20.9087 7.49172 20.6645 7.02443 20.4673 6.72432C20.2616 6.41114 20.0511 6.19681 20.0176 6.16333L20.0175 6.16329L20.0151 6.16085L20.014 6.15975L15.3487 1.49441L14.9439 1.89915L15.3487 1.49441C15.3408 1.4866 15.33 1.47431 15.3028 1.44146ZM15.3028 1.44146L14.8626 1.80548L15.3028 1.44145C15.3028 1.44145 15.3028 1.44145 15.3028 1.44146Z" stroke="black" stroke-opacity="0.2" stroke-width="1.14706"/>
<path d="M14.166 1.28271V6.56471C14.166 6.96625 14.4893 7.28955 14.8909 7.28955H20.133C20.0148 7.05081 19.8439 6.79947 19.6092 6.56471L14.898 1.85349C14.6698 1.56477 14.416 1.39001 14.1731 1.28299L14.166 1.28271Z" fill="white"/>
<path d="M14.8912 8.37676C13.8891 8.37676 13.0791 7.56667 13.0791 6.56471V1.12512L13.4497 1.1309C13.8478 1.1309 14.1663 1.28271 14.1663 1.28271V6.56471C14.1663 6.96625 14.4896 7.28955 14.8912 7.28955H20.1333C20.1333 7.28955 20.3354 7.65416 20.3354 8.01657V8.37676H14.8912Z" fill="#CCCCCC"/>
<mask id="path-5-outside-1_1_667" maskUnits="userSpaceOnUse" x="5" y="6.875" width="14" height="14" fill="black">
<rect fill="white" x="5" y="6.875" width="14" height="14"/>
<path d="M9.97722 14.8785C10.3509 14.146 10.7756 13.3208 11.1156 12.4922L11.25 12.1652C10.806 10.4755 10.5397 9.11928 10.7776 8.24236C10.8416 8.01373 11.1064 7.875 11.3895 7.875L11.562 7.87755H11.5937C11.9813 7.8716 12.1638 8.36465 12.1845 8.55635C12.2187 8.87561 12.071 9.41592 12.071 9.41592C12.071 9.19773 12.0795 8.84518 11.9419 8.54094C11.7816 8.18891 11.6284 7.97862 11.4912 7.94529C11.4219 7.99158 11.3545 8.08745 11.3314 8.27186C11.2836 8.53043 11.2693 8.8568 11.2693 9.02504C11.2693 9.61946 11.3863 10.4041 11.6163 11.2129C11.6597 11.0876 11.6979 10.9673 11.7283 10.8546C11.7754 10.6769 12.0753 9.4992 12.0753 9.4992C12.0753 9.4992 11.9997 11.0669 11.8942 11.5413C11.8716 11.6416 11.8466 11.7407 11.8206 11.8422C12.1999 12.9019 12.8111 13.8477 13.5402 14.5285C13.8276 14.7971 14.1907 15.0137 14.5343 15.2112C15.2846 15.104 15.9756 15.0533 16.5519 15.0597C17.3166 15.0698 17.8779 15.1829 18.1051 15.4068C18.2164 15.5156 18.2616 15.647 18.2756 15.7944C18.2789 15.8517 18.251 15.9864 18.2429 16.0202C18.2511 15.9792 18.2511 15.778 17.6372 15.5821C17.1537 15.4275 16.2489 15.4323 15.1632 15.5479C16.419 16.1623 17.6424 16.4676 18.0302 16.2846C18.125 16.2384 18.24 16.0809 18.24 16.0809C18.24 16.0809 18.1716 16.3914 18.1226 16.469C18.0599 16.5533 17.9371 16.6447 17.8206 16.6755C17.2083 16.8388 15.6144 16.4608 14.2248 15.6668C12.6724 15.8955 10.9674 16.3178 9.60069 16.7661C8.25769 19.1198 7.24803 20.2006 6.42667 19.7895L6.12469 19.6376C6.00193 19.5674 5.9832 19.3965 6.01159 19.2573C6.10736 18.7887 6.69486 18.0831 7.87498 17.3784C8.002 17.3016 8.56783 17.0024 8.56783 17.0024C8.56783 17.0024 8.14894 17.4078 8.0508 17.4874C7.10886 18.2593 6.41362 19.2305 6.43105 19.6069L6.43445 19.6397C7.2346 19.5257 8.43448 17.8971 9.97712 14.8787L9.97722 14.8785ZM10.466 15.129C10.2083 15.6143 9.95648 16.0642 9.72397 16.4773C11.0102 15.9385 12.3944 15.5936 13.7123 15.3486C13.5352 15.2264 13.3632 15.0969 13.2015 14.96C12.4758 14.3456 11.9226 13.5791 11.5215 12.7726C11.2672 13.4578 10.9647 14.1859 10.466 15.1291"/>
</mask>
<path d="M9.97722 14.8785C10.3509 14.146 10.7756 13.3208 11.1156 12.4922L11.25 12.1652C10.806 10.4755 10.5397 9.11928 10.7776 8.24236C10.8416 8.01373 11.1064 7.875 11.3895 7.875L11.562 7.87755H11.5937C11.9813 7.8716 12.1638 8.36465 12.1845 8.55635C12.2187 8.87561 12.071 9.41592 12.071 9.41592C12.071 9.19773 12.0795 8.84518 11.9419 8.54094C11.7816 8.18891 11.6284 7.97862 11.4912 7.94529C11.4219 7.99158 11.3545 8.08745 11.3314 8.27186C11.2836 8.53043 11.2693 8.8568 11.2693 9.02504C11.2693 9.61946 11.3863 10.4041 11.6163 11.2129C11.6597 11.0876 11.6979 10.9673 11.7283 10.8546C11.7754 10.6769 12.0753 9.4992 12.0753 9.4992C12.0753 9.4992 11.9997 11.0669 11.8942 11.5413C11.8716 11.6416 11.8466 11.7407 11.8206 11.8422C12.1999 12.9019 12.8111 13.8477 13.5402 14.5285C13.8276 14.7971 14.1907 15.0137 14.5343 15.2112C15.2846 15.104 15.9756 15.0533 16.5519 15.0597C17.3166 15.0698 17.8779 15.1829 18.1051 15.4068C18.2164 15.5156 18.2616 15.647 18.2756 15.7944C18.2789 15.8517 18.251 15.9864 18.2429 16.0202C18.2511 15.9792 18.2511 15.778 17.6372 15.5821C17.1537 15.4275 16.2489 15.4323 15.1632 15.5479C16.419 16.1623 17.6424 16.4676 18.0302 16.2846C18.125 16.2384 18.24 16.0809 18.24 16.0809C18.24 16.0809 18.1716 16.3914 18.1226 16.469C18.0599 16.5533 17.9371 16.6447 17.8206 16.6755C17.2083 16.8388 15.6144 16.4608 14.2248 15.6668C12.6724 15.8955 10.9674 16.3178 9.60069 16.7661C8.25769 19.1198 7.24803 20.2006 6.42667 19.7895L6.12469 19.6376C6.00193 19.5674 5.9832 19.3965 6.01159 19.2573C6.10736 18.7887 6.69486 18.0831 7.87498 17.3784C8.002 17.3016 8.56783 17.0024 8.56783 17.0024C8.56783 17.0024 8.14894 17.4078 8.0508 17.4874C7.10886 18.2593 6.41362 19.2305 6.43105 19.6069L6.43445 19.6397C7.2346 19.5257 8.43448 17.8971 9.97712 14.8787L9.97722 14.8785ZM10.466 15.129C10.2083 15.6143 9.95648 16.0642 9.72397 16.4773C11.0102 15.9385 12.3944 15.5936 13.7123 15.3486C13.5352 15.2264 13.3632 15.0969 13.2015 14.96C12.4758 14.3456 11.9226 13.5791 11.5215 12.7726C11.2672 13.4578 10.9647 14.1859 10.466 15.1291" fill="#FE4A23"/>
<path d="M9.97722 14.8785L9.80663 14.7915L9.80214 14.8017L9.97722 14.8785ZM11.1156 12.4922L10.9387 12.4196L10.9387 12.4197L11.1156 12.4922ZM11.25 12.1652L11.4268 12.2378L11.4512 12.1786L11.4349 12.1166L11.25 12.1652ZM10.7776 8.24236L10.5935 8.1908L10.5931 8.19232L10.7776 8.24236ZM11.3895 7.875L11.3924 7.68382H11.3895V7.875ZM11.562 7.87755L11.5592 8.06873H11.562V7.87755ZM11.5937 7.87755V8.06875L11.5966 8.0687L11.5937 7.87755ZM12.1845 8.55635L12.3746 8.53599L12.3746 8.5358L12.1845 8.55635ZM12.071 9.41592H11.8799L12.2554 9.46633L12.071 9.41592ZM11.9419 8.54094L12.116 8.46213L12.1159 8.46171L11.9419 8.54094ZM11.4912 7.94529L11.5363 7.75951L11.4548 7.73971L11.385 7.78631L11.4912 7.94529ZM11.3314 8.27186L11.5197 8.30667L11.5211 8.29561L11.3314 8.27186ZM11.6163 11.2129L11.4325 11.2652L11.5984 11.8487L11.797 11.2754L11.6163 11.2129ZM11.7283 10.8546L11.9129 10.9043L11.913 10.9036L11.7283 10.8546ZM12.0753 9.4992L12.2662 9.5084L11.89 9.45203L12.0753 9.4992ZM11.8942 11.5413L12.0807 11.5834L12.0808 11.5828L11.8942 11.5413ZM11.8206 11.8422L11.6354 11.7947L11.6209 11.8515L11.6406 11.9066L11.8206 11.8422ZM13.5402 14.5285L13.6707 14.3888L13.6706 14.3887L13.5402 14.5285ZM14.5343 15.2112L14.439 15.3769L14.4961 15.4097L14.5613 15.4004L14.5343 15.2112ZM16.5519 15.0597L16.5544 14.8685L16.554 14.8685L16.5519 15.0597ZM18.1051 15.4068L17.971 15.543L17.9715 15.5435L18.1051 15.4068ZM18.2756 15.7944L18.4666 15.7835L18.4659 15.7763L18.2756 15.7944ZM18.2429 16.0202L18.0554 15.9825L18.4287 16.0652L18.2429 16.0202ZM17.6372 15.5821L17.579 15.7642L17.579 15.7642L17.6372 15.5821ZM15.1632 15.5479L15.143 15.3578L14.4832 15.428L15.0792 15.7196L15.1632 15.5479ZM18.0302 16.2846L18.1118 16.4575L18.114 16.4564L18.0302 16.2846ZM18.24 16.0809L18.4267 16.1219L18.0856 15.9681L18.24 16.0809ZM18.1226 16.469L18.276 16.583L18.2803 16.5772L18.2842 16.5711L18.1226 16.469ZM17.8206 16.6755L17.7717 16.4906L17.7713 16.4908L17.8206 16.6755ZM14.2248 15.6668L14.3196 15.5008L14.2623 15.4681L14.1969 15.4777L14.2248 15.6668ZM9.60069 16.7661L9.54111 16.5844L9.47114 16.6074L9.43464 16.6714L9.60069 16.7661ZM6.42667 19.7895L6.34078 19.9602L6.34109 19.9604L6.42667 19.7895ZM6.12469 19.6376L6.02963 19.8038L6.0388 19.8084L6.12469 19.6376ZM6.01159 19.2573L5.82428 19.219L5.82427 19.2191L6.01159 19.2573ZM7.87498 17.3784L7.97299 17.5426L7.97395 17.542L7.87498 17.3784ZM8.56783 17.0024L8.70079 17.1398L8.47848 16.8334L8.56783 17.0024ZM8.0508 17.4874L7.9304 17.3389L7.92963 17.3395L8.0508 17.4874ZM6.43105 19.6069L6.23977 19.6158L6.24089 19.6266L6.43105 19.6069ZM6.43445 19.6397L6.2443 19.6594L6.26477 19.857L6.46142 19.829L6.43445 19.6397ZM9.97712 14.8787L10.1477 14.9659L10.1522 14.9555L9.97712 14.8787ZM9.72397 16.4773L9.55737 16.3836L9.28423 16.8689L9.79784 16.6537L9.72397 16.4773ZM13.7123 15.3486L13.7472 15.5366L14.1992 15.4526L13.8209 15.1913L13.7123 15.3486ZM13.2015 14.96L13.0779 15.1059L13.078 15.1059L13.2015 14.96ZM11.5215 12.7726L11.6927 12.6875L11.496 12.2919L11.3423 12.7061L11.5215 12.7726ZM10.1475 14.9654C10.5203 14.2347 10.9489 13.4021 11.2924 12.5648L10.9387 12.4197C10.6023 13.2395 10.1815 14.0573 9.80693 14.7916L10.1475 14.9654ZM11.2924 12.5649L11.4268 12.2378L11.0731 12.0925L10.9387 12.4196L11.2924 12.5649ZM11.4349 12.1166C11.2133 11.2734 11.0381 10.5208 10.9474 9.87251C10.8563 9.22137 10.8533 8.69357 10.9621 8.29241L10.5931 8.19232C10.464 8.66807 10.4752 9.25686 10.5687 9.92549C10.6627 10.597 10.8426 11.3673 11.0651 12.2138L11.4349 12.1166ZM10.9617 8.29392C10.9927 8.18317 11.1488 8.06618 11.3895 8.06618V7.68382C11.064 7.68382 10.6905 7.84429 10.5935 8.1908L10.9617 8.29392ZM11.3867 8.06616L11.5592 8.06871L11.5649 7.6864L11.3924 7.68384L11.3867 8.06616ZM11.562 8.06873H11.5937V7.68638H11.562V8.06873ZM11.5966 8.0687C11.6974 8.06716 11.7879 8.12798 11.8671 8.24813C11.9466 8.36859 11.9873 8.5106 11.9945 8.57689L12.3746 8.5358C12.361 8.4104 12.3001 8.21003 12.1863 8.03753C12.0722 7.86472 11.8776 7.68199 11.5908 7.6864L11.5966 8.0687ZM11.9944 8.57671C12.0083 8.70635 11.985 8.89739 11.9527 9.07079C11.9371 9.15438 11.9204 9.22867 11.9076 9.28202C11.9013 9.30864 11.8959 9.32989 11.8922 9.34432C11.8903 9.35153 11.8889 9.35703 11.8879 9.36062C11.8875 9.36242 11.8871 9.36374 11.8869 9.36456C11.8868 9.36497 11.8867 9.36526 11.8866 9.36542C11.8866 9.3655 11.8866 9.36554 11.8866 9.36556C11.8866 9.36556 11.8866 9.36556 11.8866 9.36556C11.8866 9.36555 11.8866 9.36554 11.8866 9.36554C11.8866 9.36552 11.8866 9.3655 12.071 9.41592C12.2554 9.46633 12.2554 9.46631 12.2555 9.46628C12.2555 9.46627 12.2555 9.46625 12.2555 9.46623C12.2555 9.46619 12.2555 9.46614 12.2555 9.46608C12.2555 9.46596 12.2556 9.46581 12.2556 9.46563C12.2557 9.46527 12.2559 9.46477 12.256 9.46415C12.2564 9.46291 12.2568 9.46116 12.2574 9.45892C12.2586 9.45444 12.2603 9.44801 12.2624 9.43983C12.2666 9.42346 12.2726 9.40001 12.2795 9.37099C12.2934 9.31305 12.3115 9.23231 12.3285 9.14092C12.3615 8.96435 12.3949 8.72561 12.3746 8.53599L11.9944 8.57671ZM12.2622 9.41592C12.2622 9.20825 12.2739 8.81106 12.116 8.46213L11.7677 8.61976C11.8851 8.8793 11.8799 9.18721 11.8799 9.41592H12.2622ZM12.1159 8.46171C12.0329 8.27963 11.948 8.12524 11.8609 8.00898C11.7789 7.89957 11.6721 7.7925 11.5363 7.75951L11.4461 8.13106C11.444 8.13056 11.4537 8.13251 11.4751 8.15025C11.4963 8.16772 11.5231 8.19584 11.5549 8.23823C11.6187 8.32346 11.6905 8.45023 11.7679 8.62017L12.1159 8.46171ZM11.385 7.78631C11.2565 7.87213 11.1695 8.02638 11.1417 8.24811L11.5211 8.29561C11.5395 8.14851 11.5872 8.11102 11.5974 8.10426L11.385 7.78631ZM11.1434 8.23711C11.0927 8.51176 11.0781 8.85104 11.0781 9.02504H11.4605C11.4605 8.86256 11.4746 8.54909 11.5194 8.30661L11.1434 8.23711ZM11.0781 9.02504C11.0781 9.64111 11.1988 10.4436 11.4325 11.2652L11.8002 11.1606C11.5738 10.3645 11.4605 9.59782 11.4605 9.02504H11.0781ZM11.797 11.2754C11.8413 11.1474 11.881 11.0226 11.9129 10.9043L11.5437 10.8049C11.5148 10.912 11.4781 11.0278 11.4357 11.1503L11.797 11.2754ZM11.913 10.9036C11.9369 10.8137 12.024 10.4736 12.1047 10.1576C12.1451 9.99921 12.1841 9.84641 12.2129 9.73321C12.2274 9.6766 12.2393 9.6299 12.2476 9.59734C12.2517 9.58106 12.255 9.56832 12.2572 9.55965C12.2583 9.55531 12.2591 9.55199 12.2597 9.54976C12.26 9.54864 12.2602 9.54779 12.2603 9.54722C12.2604 9.54694 12.2605 9.54673 12.2605 9.54658C12.2605 9.54651 12.2605 9.54646 12.2605 9.54642C12.2605 9.5464 12.2605 9.54639 12.2605 9.54638C12.2605 9.54637 12.2605 9.54637 12.0753 9.4992C11.89 9.45203 11.89 9.45204 11.89 9.45204C11.89 9.45205 11.89 9.45207 11.89 9.45209C11.89 9.45212 11.89 9.45217 11.89 9.45225C11.8899 9.45239 11.8899 9.4526 11.8898 9.45288C11.8897 9.45345 11.8894 9.45429 11.8892 9.45541C11.8886 9.45764 11.8877 9.46096 11.8866 9.46529C11.8844 9.47396 11.8812 9.48669 11.877 9.50296C11.8688 9.53551 11.8569 9.5822 11.8424 9.63878C11.8136 9.75195 11.7747 9.90469 11.7342 10.063C11.6532 10.3802 11.5668 10.7178 11.5435 10.8055L11.913 10.9036ZM12.0753 9.4992C11.8843 9.49 11.8843 9.49 11.8843 9.49C11.8843 9.49001 11.8843 9.49003 11.8843 9.49005C11.8843 9.49009 11.8843 9.49015 11.8843 9.49024C11.8843 9.49042 11.8843 9.49069 11.8843 9.49105C11.8842 9.49178 11.8842 9.49288 11.8841 9.49435C11.884 9.49727 11.8838 9.50165 11.8835 9.50739C11.8829 9.51887 11.882 9.53582 11.8809 9.55758C11.8787 9.60112 11.8753 9.66391 11.871 9.74077C11.8623 9.89455 11.8496 10.1044 11.8336 10.3288C11.8012 10.7846 11.7566 11.2794 11.7076 11.4998L12.0808 11.5828C12.1373 11.3289 12.1832 10.8025 12.215 10.3559C12.2311 10.1291 12.2439 9.91737 12.2527 9.76237C12.2571 9.68484 12.2605 9.62145 12.2627 9.5774C12.2639 9.55537 12.2648 9.53817 12.2653 9.52646C12.2656 9.5206 12.2659 9.51611 12.266 9.51308C12.2661 9.51156 12.2661 9.5104 12.2662 9.50962C12.2662 9.50923 12.2662 9.50893 12.2662 9.50873C12.2662 9.50863 12.2662 9.50855 12.2662 9.50849C12.2662 9.50847 12.2662 9.50844 12.2662 9.50843C12.2662 9.50841 12.2662 9.5084 12.0753 9.4992ZM11.7077 11.4992C11.6857 11.5966 11.6613 11.6936 11.6354 11.7947L12.0058 11.8896C12.0319 11.7878 12.0574 11.6865 12.0807 11.5834L11.7077 11.4992ZM11.6406 11.9066C12.0292 12.9922 12.6562 13.9647 13.4097 14.6682L13.6706 14.3887C12.9659 13.7307 12.3706 12.8116 12.0006 11.7777L11.6406 11.9066ZM13.4096 14.6681C13.7153 14.9538 14.0966 15.1802 14.439 15.3769L14.6295 15.0454C14.2847 14.8473 13.9399 14.6404 13.6707 14.3888L13.4096 14.6681ZM14.5613 15.4004C15.3045 15.2942 15.9854 15.2446 16.5498 15.2509L16.554 14.8685C15.9658 14.862 15.2648 14.9137 14.5072 15.0219L14.5613 15.4004ZM16.5494 15.2509C16.9243 15.2558 17.242 15.286 17.4894 15.3398C17.7432 15.3951 17.8966 15.4697 17.971 15.543L18.2393 15.2706C18.0864 15.12 17.8456 15.0261 17.5707 14.9662C17.2895 14.905 16.9442 14.8737 16.5544 14.8685L16.5494 15.2509ZM17.9715 15.5435C18.0411 15.6115 18.0741 15.6951 18.0853 15.8125L18.4659 15.7763C18.4491 15.599 18.3918 15.4197 18.2388 15.2701L17.9715 15.5435ZM18.0848 15.8052C18.0847 15.8037 18.0849 15.8104 18.0829 15.8286C18.0812 15.8448 18.0784 15.8641 18.075 15.8844C18.0681 15.9254 18.06 15.9631 18.0571 15.9751L18.4287 16.0652C18.4339 16.0434 18.4438 15.9968 18.4521 15.9478C18.4593 15.9049 18.4695 15.8366 18.4665 15.7835L18.0848 15.8052ZM18.4303 16.0578C18.4475 15.9721 18.4274 15.8495 18.3121 15.7278C18.2045 15.6142 18.0159 15.5023 17.6953 15.4L17.579 15.7642C17.8724 15.8578 17.9907 15.9445 18.0345 15.9907C18.0707 16.0289 18.0464 16.0274 18.0554 15.9825L18.4303 16.0578ZM17.6954 15.4C17.426 15.3139 17.056 15.2763 16.6277 15.2725C16.1958 15.2688 15.6904 15.2995 15.143 15.3578L15.1834 15.738C15.7216 15.6807 16.2116 15.6513 16.6244 15.6549C17.0408 15.6585 17.3649 15.6958 17.579 15.7642L17.6954 15.4ZM15.0792 15.7196C15.7168 16.0316 16.349 16.2665 16.875 16.4005C17.1378 16.4675 17.3784 16.5103 17.5826 16.5238C17.7801 16.5369 17.9696 16.5246 18.1118 16.4575L17.9486 16.1117C17.8969 16.1361 17.7881 16.1542 17.6078 16.1423C17.4344 16.1308 17.218 16.0933 16.9694 16.03C16.4728 15.9035 15.8654 15.6786 15.2472 15.3762L15.0792 15.7196ZM18.114 16.4564C18.1979 16.4155 18.2717 16.3389 18.3128 16.2932C18.3364 16.2669 18.3564 16.2426 18.3704 16.2248C18.3775 16.2159 18.3832 16.2085 18.3873 16.2031C18.3893 16.2004 18.3909 16.1982 18.3921 16.1966C18.3927 16.1958 18.3932 16.1952 18.3936 16.1946C18.3938 16.1944 18.394 16.1942 18.3941 16.194C18.3942 16.1939 18.3942 16.1938 18.3943 16.1937C18.3943 16.1937 18.3943 16.1937 18.3943 16.1936C18.3943 16.1936 18.3944 16.1936 18.3944 16.1936C18.3944 16.1936 18.3944 16.1936 18.24 16.0809C18.0856 15.9681 18.0856 15.9681 18.0856 15.9681C18.0856 15.9681 18.0856 15.9681 18.0856 15.9681C18.0856 15.9681 18.0856 15.968 18.0857 15.968C18.0857 15.968 18.0857 15.968 18.0857 15.9679C18.0857 15.9679 18.0857 15.9679 18.0857 15.968C18.0856 15.9681 18.0855 15.9683 18.0852 15.9686C18.0847 15.9694 18.0837 15.9706 18.0824 15.9723C18.0798 15.9757 18.0758 15.981 18.0706 15.9875C18.0602 16.0008 18.0454 16.0187 18.0285 16.0376C18.0113 16.0567 17.9933 16.075 17.9765 16.0899C17.9682 16.0972 17.9611 16.1029 17.9553 16.107C17.9493 16.1113 17.9464 16.1127 17.9465 16.1127L18.114 16.4564ZM18.24 16.0809C18.0533 16.0398 18.0533 16.0397 18.0533 16.0397C18.0533 16.0397 18.0533 16.0397 18.0533 16.0397C18.0533 16.0397 18.0533 16.0397 18.0533 16.0397C18.0533 16.0398 18.0533 16.0398 18.0533 16.0398C18.0532 16.0399 18.0532 16.0401 18.0531 16.0404C18.053 16.0408 18.0529 16.0416 18.0526 16.0427C18.0522 16.0447 18.0515 16.0479 18.0505 16.052C18.0487 16.0601 18.0459 16.072 18.0425 16.0866C18.0356 16.1158 18.0259 16.1552 18.0149 16.1967C18.0038 16.2385 17.9918 16.2805 17.9802 16.3153C17.9668 16.3557 17.9594 16.3693 17.961 16.3668L18.2842 16.5711C18.3103 16.5299 18.3298 16.4755 18.343 16.4359C18.3581 16.3907 18.3723 16.3404 18.3844 16.2949C18.3966 16.2491 18.4071 16.206 18.4146 16.1746C18.4183 16.1588 18.4213 16.1458 18.4234 16.1367C18.4244 16.1322 18.4252 16.1286 18.4258 16.1261C18.4261 16.1248 18.4263 16.1238 18.4264 16.1231C18.4265 16.1228 18.4266 16.1225 18.4266 16.1223C18.4266 16.1222 18.4266 16.1221 18.4267 16.1221C18.4267 16.122 18.4267 16.122 18.4267 16.122C18.4267 16.122 18.4267 16.122 18.4267 16.122C18.4267 16.122 18.4267 16.1219 18.24 16.0809ZM17.9691 16.355C17.9296 16.4081 17.8422 16.472 17.7717 16.4906L17.8695 16.8603C18.032 16.8173 18.1903 16.6985 18.276 16.583L17.9691 16.355ZM17.7713 16.4908C17.6504 16.523 17.4623 16.5321 17.2142 16.5082C16.9697 16.4845 16.6802 16.4301 16.3635 16.3455C15.73 16.1762 14.9995 15.8893 14.3196 15.5008L14.1299 15.8328C14.8397 16.2383 15.6009 16.5375 16.2648 16.7148C16.5969 16.8036 16.9075 16.8626 17.1775 16.8887C17.4439 16.9145 17.6846 16.9096 17.8699 16.8602L17.7713 16.4908ZM14.1969 15.4777C12.6327 15.7081 10.9171 16.1331 9.54111 16.5844L9.66027 16.9478C11.0178 16.5025 12.7121 16.0829 14.2526 15.856L14.1969 15.4777ZM9.43464 16.6714C8.76457 17.8457 8.18715 18.6847 7.68418 19.1781C7.17485 19.6778 6.80643 19.7658 6.51225 19.6185L6.34109 19.9604C6.86827 20.2243 7.41536 19.9774 7.95194 19.4511C8.49489 18.9184 9.09381 18.0402 9.76673 16.8608L9.43464 16.6714ZM6.51256 19.6187L6.21058 19.4668L6.0388 19.8084L6.34078 19.9602L6.51256 19.6187ZM6.21961 19.4716C6.21716 19.4702 6.20563 19.4633 6.19739 19.4288C6.18885 19.3931 6.18888 19.3446 6.19891 19.2955L5.82427 19.2191C5.8059 19.3091 5.8011 19.4157 5.82553 19.5178C5.85025 19.6212 5.90946 19.7347 6.02977 19.8035L6.21961 19.4716ZM6.19889 19.2956C6.23652 19.1115 6.38017 18.8492 6.67537 18.5379C6.96713 18.2303 7.39431 17.8881 7.97298 17.5426L7.77697 17.2143C7.17553 17.5734 6.7189 17.9364 6.39793 18.2748C6.08041 18.6097 5.88243 18.9345 5.82428 19.219L6.19889 19.2956ZM7.97395 17.542C8.03215 17.5068 8.19992 17.4156 8.35941 17.3301C8.4378 17.288 8.51227 17.2483 8.56716 17.2192C8.5946 17.2046 8.61713 17.1926 8.63279 17.1843C8.64062 17.1802 8.64673 17.1769 8.65088 17.1747C8.65296 17.1736 8.65454 17.1728 8.6556 17.1722C8.65613 17.172 8.65654 17.1718 8.6568 17.1716C8.65693 17.1715 8.65703 17.1715 8.6571 17.1715C8.65713 17.1714 8.65716 17.1714 8.65717 17.1714C8.65718 17.1714 8.65719 17.1714 8.65719 17.1714C8.65719 17.1714 8.65719 17.1714 8.56783 17.0024C8.47848 16.8334 8.47847 16.8334 8.47847 16.8334C8.47846 16.8334 8.47845 16.8334 8.47845 16.8334C8.47843 16.8334 8.4784 16.8334 8.47836 16.8335C8.47829 16.8335 8.47819 16.8335 8.47805 16.8336C8.47777 16.8338 8.47736 16.834 8.47681 16.8343C8.47573 16.8348 8.47412 16.8357 8.47202 16.8368C8.46781 16.839 8.46165 16.8423 8.45376 16.8465C8.43798 16.8548 8.41531 16.8669 8.38772 16.8815C8.33255 16.9109 8.25762 16.9508 8.17867 16.9931C8.02349 17.0764 7.84483 17.1732 7.776 17.2149L7.97395 17.542ZM8.56783 17.0024C8.43488 16.865 8.43488 16.865 8.43488 16.865C8.43487 16.865 8.43487 16.865 8.43486 16.865C8.43485 16.8651 8.43484 16.8651 8.43481 16.8651C8.43477 16.8651 8.43469 16.8652 8.4346 16.8653C8.4344 16.8655 8.43411 16.8658 8.43372 16.8662C8.43293 16.8669 8.43177 16.868 8.43024 16.8695C8.42718 16.8725 8.42266 16.8768 8.41687 16.8824C8.40529 16.8936 8.38863 16.9097 8.36831 16.9292C8.32767 16.9683 8.27251 17.0212 8.21435 17.0766C8.09443 17.1906 7.97204 17.3051 7.9304 17.3389L8.1712 17.6359C8.2277 17.5901 8.36383 17.4621 8.47789 17.3536C8.53672 17.2976 8.59242 17.2442 8.63338 17.2048C8.65388 17.1851 8.6707 17.1688 8.68242 17.1575C8.68827 17.1519 8.69285 17.1474 8.69598 17.1444C8.69754 17.1429 8.69873 17.1418 8.69954 17.141C8.69995 17.1406 8.70026 17.1403 8.70047 17.1401C8.70057 17.14 8.70065 17.1399 8.7007 17.1399C8.70073 17.1398 8.70075 17.1398 8.70077 17.1398C8.70077 17.1398 8.70078 17.1398 8.70078 17.1398C8.70079 17.1398 8.70079 17.1398 8.56783 17.0024ZM7.92963 17.3395C7.44708 17.735 7.02701 18.1818 6.72815 18.5808C6.57883 18.7802 6.45717 18.971 6.37308 19.1405C6.29255 19.3027 6.23337 19.4708 6.24008 19.6158L6.62202 19.5981C6.62002 19.5548 6.64121 19.4603 6.71557 19.3105C6.78636 19.1678 6.89411 18.997 7.03417 18.8101C7.31405 18.4364 7.71258 18.0117 8.17197 17.6353L7.92963 17.3395ZM6.24089 19.6266L6.2443 19.6594L6.62461 19.62L6.62121 19.5872L6.24089 19.6266ZM6.46142 19.829C6.71439 19.793 6.97311 19.6426 7.23383 19.4167C7.49739 19.1883 7.77997 18.8677 8.08086 18.4623C8.6829 17.6512 9.37411 16.4787 10.1474 14.9657L9.80689 14.7917C9.03749 16.2971 8.35744 17.4481 7.77384 18.2344C7.48192 18.6277 7.21809 18.9243 6.98342 19.1277C6.74592 19.3335 6.55459 19.4295 6.40748 19.4505L6.46142 19.829ZM10.1522 14.9555L10.1523 14.9553L9.80214 14.8017L9.80204 14.8019L10.1522 14.9555ZM10.2971 15.0394C10.0407 15.5224 9.78979 15.9706 9.55737 16.3836L9.89057 16.5711C10.1232 16.1578 10.376 15.7062 10.6348 15.2187L10.2971 15.0394ZM9.79784 16.6537C11.0667 16.122 12.4364 15.7803 13.7472 15.5366L13.6773 15.1607C12.3524 15.407 10.9536 15.7549 9.65009 16.301L9.79784 16.6537ZM13.8209 15.1913C13.648 15.072 13.4812 14.9463 13.325 14.814L13.078 15.1059C13.2453 15.2475 13.4223 15.3807 13.6036 15.506L13.8209 15.1913ZM13.325 14.8141C12.6225 14.2193 12.0843 13.475 11.6927 12.6875L11.3503 12.8577C11.7609 13.6833 12.3291 14.4719 13.0779 15.1059L13.325 14.8141ZM11.3423 12.7061C11.0903 13.385 10.7911 14.1052 10.297 15.0397L10.635 15.2184C11.1383 14.2665 11.4441 13.5306 11.7007 12.8391L11.3423 12.7061Z" fill="#666666" mask="url(#path-5-outside-1_1_667)"/>
</g>
<defs>
<clipPath id="clip0_1_667">
<rect width="24" height="24" fill="white"/>
</clipPath>
</defs>
</svg>
