<svg width="24" height="24" viewBox="0 0 24 24" fill="none" xmlns="http://www.w3.org/2000/svg">
<rect x="1.09106" y="1.09082" width="21.8181" height="21.8181" rx="4.8" fill="url(#paint0_linear_508_31283)"/>
<path d="M20.4389 14.1796C19.1261 12.819 15.5483 13.3718 14.6927 13.4726C13.7521 12.5262 12.9386 11.4578 12.2741 10.2934C12.7471 8.94319 13.0186 7.53428 13.0819 6.1098C13.0819 4.84989 12.5768 3.48926 11.1684 3.48926C10.6685 3.50535 10.2168 3.77114 9.95624 4.19631C9.35042 5.25428 9.60531 7.37543 10.5621 9.53863C9.90277 11.5217 9.07892 13.4456 8.08998 15.2848C6.62813 15.8906 3.55023 17.2995 3.30053 18.8144C3.20502 19.2769 3.3592 19.755 3.70442 20.0743C4.05534 20.3717 4.50179 20.5316 4.96433 20.5259C6.83006 20.5259 8.64285 17.9531 9.90796 15.7842C11.3433 15.3004 12.8104 14.9126 14.2935 14.6255C16.2605 16.3428 17.9721 16.5925 18.881 16.5925C20.0932 16.5925 20.5448 16.0874 20.6938 15.6358C20.9176 15.1524 20.8163 14.5674 20.4389 14.1796ZM19.179 15.0351C19.1313 15.3861 18.6739 15.7422 17.8661 15.5402C16.9255 15.2905 16.0482 14.8441 15.2934 14.2274C15.9475 14.1261 17.4093 13.9777 18.4725 14.1796C18.8764 14.2803 19.2802 14.5357 19.179 15.0351ZM10.7588 4.64847C10.8439 4.50519 10.9929 4.40915 11.1627 4.39877C11.6143 4.39877 11.7156 4.95164 11.7156 5.40899C11.6678 6.47215 11.4601 7.53013 11.1097 8.53464C10.3549 6.5142 10.5039 5.1053 10.7588 4.64847ZM10.6581 14.4345C11.0942 13.5146 11.4819 12.574 11.8168 11.612C12.2845 12.3564 12.8213 13.0474 13.4328 13.6797C13.4276 13.7274 11.8645 14.0306 10.6581 14.4345ZM7.68091 16.4492C6.52223 18.3627 5.31007 19.5749 4.65597 19.5749C4.54955 19.5645 4.44313 19.5323 4.3528 19.4736C4.20381 19.3781 4.13996 19.1866 4.20381 19.022C4.35332 18.3155 5.66619 17.3582 7.68091 16.4492Z" fill="white"/>
<defs>
<linearGradient id="paint0_linear_508_31283" x1="12.0001" y1="1.09082" x2="12.0001" y2="23.806" gradientUnits="userSpaceOnUse">
<stop stop-color="#E54629"/>
<stop offset="1" stop-color="#CE3519"/>
</linearGradient>
</defs>
</svg>
