<svg width="128" height="128" viewBox="0 0 128 128" fill="none" xmlns="http://www.w3.org/2000/svg">
<path d="M117.583 71.9079C113.346 82.8804 105.378 92.4935 94.3117 96.7182C92.8724 97.2667 91.4026 97.7322 89.9098 98.1121C82.0143 100.125 73.3765 99.4249 66.0982 95.7569C63.0091 94.1988 60.1924 92.1401 57.0921 90.6044C53.9919 89.0688 50.4516 88.0636 47.0772 88.8217C44.1718 89.4743 41.7206 91.3447 39.2525 93.0109C33.4343 96.9391 26.4385 100.048 19.549 98.6986C16.3788 98.0785 13.2571 96.3611 11.7849 93.4902C8.53079 87.1433 14.6679 79.5974 13.425 72.5783C12.6296 68.086 8.99699 64.7219 6.73872 60.7573C2.87391 53.976 3.33079 44.9681 7.86226 38.6137C12.3937 32.2594 20.7593 28.8888 28.4292 30.3303C37.7821 32.0888 44.8534 40.004 53.9481 42.8049C59.6357 44.555 65.811 44.0329 71.2432 41.728C80.0199 38.003 92.0777 32.2902 101.955 33.2207C107.207 33.7158 112.358 36.0468 115.825 40.0273C120.207 45.052 121.521 52.1858 120.79 58.8114C120.288 63.2965 119.21 67.6983 117.583 71.9079Z" fill="url(#paint0_linear_261_11371)"/>
<path d="M120.403 80.5869C120.208 80.5866 120.014 80.5631 119.825 80.5169C119.226 80.3698 118.707 79.9998 118.372 79.4825C118.037 78.9652 117.912 78.3397 118.023 77.7334C118.133 77.1273 118.472 76.5862 118.968 76.2208C119.464 75.8553 120.081 75.6931 120.693 75.767C121.304 75.841 121.865 76.1457 122.259 76.619C122.655 77.0922 122.853 77.6982 122.817 78.3133C122.78 78.9284 122.509 79.5062 122.061 79.9288C121.612 80.3512 121.019 80.5867 120.403 80.5869ZM120.403 76.8405C120.082 76.8417 119.773 76.9601 119.534 77.1733C119.294 77.3866 119.141 77.6799 119.103 77.9982C119.066 78.3166 119.145 78.6378 119.328 78.9015C119.51 79.165 119.782 79.353 120.093 79.4298C120.273 79.473 120.461 79.4777 120.643 79.4435C120.825 79.4091 120.998 79.3367 121.15 79.2309C121.302 79.125 121.43 78.9882 121.525 78.8293C121.621 78.6704 121.682 78.4932 121.704 78.3091C121.726 78.1251 121.708 77.9385 121.653 77.7616C121.598 77.5847 121.506 77.4215 121.383 77.2828C121.26 77.1441 121.11 77.0329 120.94 76.9567C120.771 76.8805 120.588 76.8408 120.403 76.8405Z" fill="#E7F6FF"/>
<path d="M118.196 83.1518C118.333 82.5848 117.985 82.0137 117.418 81.8762C116.85 81.7387 116.28 82.0869 116.142 82.6539C116.005 83.2209 116.352 83.7921 116.92 83.9295C117.487 84.067 118.058 83.7188 118.196 83.1518Z" fill="#E7F6FF"/>
<path d="M9.14609 80.3564C8.50567 80.3424 7.89662 80.0764 7.45115 79.6161C7.00568 79.1558 6.75975 78.5383 6.76675 77.8978C6.77375 77.2572 7.03311 76.6453 7.48853 76.1948C7.94395 75.7444 8.55866 75.4917 9.19924 75.4917C9.83981 75.4917 10.4545 75.7444 10.9099 76.1948C11.3654 76.6453 11.6247 77.2572 11.6317 77.8978C11.6387 78.5383 11.3928 79.1558 10.9473 79.6161C10.5019 80.0764 9.89281 80.3424 9.25239 80.3564H9.14609ZM9.14609 76.611H9.09108C8.7452 76.6184 8.41623 76.762 8.17559 77.0106C7.93496 77.2592 7.80209 77.5927 7.80584 77.9386C7.80959 78.2845 7.94964 78.6151 8.19559 78.8583C8.44155 79.1017 8.77355 79.2381 9.11952 79.2381C9.46549 79.2381 9.79749 79.1017 10.0434 78.8583C10.2894 78.6151 10.4295 78.2845 10.4332 77.9386C10.4369 77.5927 10.3041 77.2592 10.0634 77.0106C9.82281 76.762 9.49384 76.6184 9.14796 76.611H9.14609Z" fill="#E7F6FF"/>
<path d="M7.41153 84.4385C7.99443 84.4134 8.44658 83.9205 8.42143 83.3376C8.39629 82.7547 7.90337 82.3026 7.32047 82.3277C6.73758 82.3528 6.28543 82.8458 6.31057 83.4286C6.33572 84.0116 6.82863 84.4637 7.41153 84.4385Z" fill="#E7F6FF"/>
<path d="M70.1146 41.0267C69.5342 41.0272 68.9727 40.8199 68.5317 40.4423C68.0909 40.0647 67.7998 39.5417 67.7111 38.968C67.6225 38.3943 67.7421 37.8078 68.0484 37.3147C68.3547 36.8216 68.8274 36.4545 69.381 36.2797C69.9345 36.105 70.5324 36.1342 71.0663 36.362C71.6002 36.5899 72.0349 37.0014 72.2917 37.522C72.5484 38.0426 72.6103 38.6379 72.4662 39.2002C72.322 39.7626 71.9814 40.2547 71.5057 40.5875C71.098 40.8729 70.6124 41.0261 70.1146 41.0267ZM70.1071 37.2821C69.7676 37.2818 69.4408 37.4125 69.1952 37.6471C68.9496 37.8817 68.804 38.202 68.7887 38.5413C68.7734 38.8806 68.8898 39.2127 69.1133 39.4685C69.3369 39.7241 69.6505 39.8837 69.9888 39.9138C70.3272 39.9439 70.6641 39.8423 70.9293 39.6302C71.1945 39.418 71.3676 39.1117 71.4126 38.775C71.4575 38.4384 71.3709 38.0974 71.1705 37.8231C70.9703 37.5488 70.6718 37.3623 70.3374 37.3027C70.2614 37.2891 70.1844 37.2822 70.1071 37.2821Z" fill="#E7F6FF"/>
<path d="M65.1547 40.8936C65.6325 40.5586 65.7481 39.8999 65.4132 39.4221C65.0781 38.9444 64.4193 38.8288 63.9416 39.1637C63.464 39.4987 63.3483 40.1575 63.6833 40.6352C64.0182 41.1129 64.677 41.2286 65.1547 40.8936Z" fill="#E7F6FF"/>
<path d="M123.907 53.5584C123.907 52.5331 123.499 51.5498 122.775 50.8249C122.049 50.0999 121.066 49.6927 120.041 49.6927C119.955 49.6927 119.87 49.6927 119.786 49.7011C119.792 49.6171 119.795 49.5323 119.795 49.4465C119.795 48.8971 119.677 48.354 119.451 47.8534C119.224 47.3529 118.894 46.9064 118.481 46.5437C118.068 46.1809 117.583 45.9103 117.057 45.7499C116.532 45.5895 115.978 45.543 115.434 45.6134C114.888 45.6838 114.365 45.8695 113.897 46.1583C113.43 46.447 113.029 46.8321 112.722 47.2878C112.416 47.7435 112.21 48.2594 112.117 48.8011C112.026 49.3428 112.05 49.8979 112.19 50.4293C111.723 50.0904 111.186 49.8605 110.618 49.7564C110.05 49.6523 109.466 49.6765 108.91 49.8275C108.352 49.9785 107.837 50.2522 107.398 50.6287C106.961 51.0051 106.613 51.4748 106.381 52.0032C106.149 52.5315 106.038 53.1052 106.057 53.6819C106.075 54.2588 106.223 54.8242 106.487 55.3367C106.753 55.8491 107.13 56.2957 107.59 56.6435C108.051 56.9913 108.584 57.2316 109.149 57.3468C109.381 57.9592 109.763 58.5028 110.262 58.927C110.76 59.3511 111.357 59.6418 111.999 59.7716C112.64 59.9015 113.304 59.8665 113.929 59.6696C114.553 59.4728 115.117 59.1208 115.568 58.6465C116.03 58.9948 116.563 59.2351 117.13 59.3499C117.697 59.4646 118.281 59.4508 118.842 59.3095C119.403 59.1681 119.924 58.9028 120.369 58.5331C120.814 58.1634 121.169 57.6987 121.411 57.1733C122.144 56.8952 122.776 56.4005 123.221 55.7548C123.668 55.1091 123.907 54.343 123.907 53.5584Z" fill="white"/>
<path d="M21.8508 44.2658C21.8514 43.7579 21.7517 43.2549 21.5578 42.7855C21.3637 42.3161 21.0792 41.8896 20.7203 41.5302C20.3613 41.1709 19.9351 40.8857 19.4659 40.6912C18.9968 40.4967 18.4939 40.3964 17.986 40.3963C17.9002 40.3963 17.8154 40.3963 17.7315 40.4047C17.7371 40.3208 17.7399 40.236 17.7399 40.1502C17.7398 39.6007 17.6226 39.0576 17.396 38.5571C17.1695 38.0565 16.8389 37.61 16.4262 37.2473C16.0135 36.8846 15.5282 36.614 15.0027 36.4536C14.4772 36.2932 13.9236 36.2466 13.3787 36.317C12.8338 36.3875 12.3102 36.5732 11.8427 36.8619C11.3753 37.1507 10.9747 37.5357 10.6678 37.9914C10.3609 38.4471 10.1546 38.963 10.0628 39.5048C9.97097 40.0464 9.99566 40.6015 10.1352 41.1329C9.66801 40.7941 9.13086 40.5642 8.5632 40.46C7.99553 40.3559 7.41176 40.3802 6.85471 40.5312C6.29766 40.6821 5.78148 40.9559 5.34404 41.3323C4.9066 41.7088 4.55901 42.1784 4.32678 42.7068C4.09454 43.2351 3.98356 43.8088 4.00197 44.3856C4.02038 44.9625 4.16771 45.5279 4.43316 46.0403C4.69861 46.5528 5.07543 46.9993 5.53598 47.3472C5.99654 47.695 6.52913 47.9353 7.09467 48.0504C7.32578 48.6623 7.70836 49.2055 8.20659 49.6292C8.70482 50.0528 9.30242 50.3433 9.94343 50.4731C10.5845 50.6029 11.2479 50.5681 11.8718 50.3716C12.4957 50.1753 13.0595 49.8238 13.5105 49.3502C13.9719 49.6984 14.5056 49.9388 15.0723 50.0536C15.6389 50.1683 16.2241 50.1545 16.7846 50.0131C17.3452 49.8718 17.8669 49.6065 18.3114 49.2368C18.7559 48.8671 19.1118 48.4024 19.3529 47.877C20.0863 47.5993 20.718 47.1052 21.1642 46.4603C21.6103 45.8153 21.8498 45.0499 21.8508 44.2658Z" fill="white"/>
<path d="M92.9678 99.2712H37.3501V98.0591H92.9678C93.1286 98.0591 93.2827 98.123 93.3964 98.2365C93.51 98.3502 93.5739 98.5044 93.5739 98.6651C93.5739 98.8259 93.51 98.98 93.3964 99.0937C93.2827 99.2073 93.1286 99.2712 92.9678 99.2712Z" fill="#426572"/>
<path d="M34.8625 99.2712H31.462C31.3013 99.2712 31.1471 99.2073 31.0335 99.0937C30.9198 98.98 30.856 98.8259 30.856 98.6651C30.856 98.5044 30.9198 98.3502 31.0335 98.2365C31.1471 98.123 31.3013 98.0591 31.462 98.0591H34.8625C35.0232 98.0591 35.1774 98.123 35.291 98.2365C35.4047 98.3502 35.4685 98.5044 35.4685 98.6651C35.4685 98.8259 35.4047 98.98 35.291 99.0937C35.1774 99.2073 35.0232 99.2712 34.8625 99.2712Z" fill="#426572"/>
<path d="M29.2554 99.2712H28.172C28.0112 99.2712 27.8571 99.2073 27.7434 99.0937C27.6298 98.98 27.5659 98.8259 27.5659 98.6651C27.5659 98.5044 27.6298 98.3502 27.7434 98.2365C27.8571 98.123 28.0112 98.0591 28.172 98.0591H29.2554C29.4162 98.0591 29.5703 98.123 29.684 98.2365C29.7976 98.3502 29.8615 98.5044 29.8615 98.6651C29.8615 98.8259 29.7976 98.98 29.684 99.0937C29.5703 99.2073 29.4162 99.2712 29.2554 99.2712Z" fill="#426572"/>
<path d="M112.47 99.2712H95.3755V98.0591H112.47C112.63 98.0591 112.785 98.123 112.899 98.2365C113.013 98.3502 113.076 98.5044 113.076 98.6651C113.076 98.8259 113.013 98.98 112.899 99.0937C112.785 99.2073 112.63 99.2712 112.47 99.2712Z" fill="#426572"/>
<path d="M25.0721 99.2712H7.97656V98.0591H25.0721C25.2328 98.0591 25.3871 98.123 25.5007 98.2365C25.6144 98.3502 25.6782 98.5044 25.6782 98.6651C25.6782 98.8259 25.6144 98.98 25.5007 99.0937C25.3871 99.2073 25.2328 99.2712 25.0721 99.2712Z" fill="#426572"/>
<path d="M30.4897 51.9639H92.7573C93.8811 51.9639 94.9589 52.4101 95.7538 53.2046C96.5486 53.9992 96.9954 55.0768 96.996 56.2007V96.5047H26.251V56.2007C26.2514 55.0768 26.6982 53.9992 27.4931 53.2046C28.2879 52.4101 29.3658 51.9639 30.4897 51.9639Z" fill="#EBF0F9"/>
<path d="M94.5371 55.0547H28.9902V92.4999H94.5371V55.0547Z" fill="#637F91"/>
<path d="M28.499 92.4302H94.816C94.816 92.7274 94.6983 93.0126 94.4886 93.2233C94.2789 93.434 93.9944 93.5532 93.6971 93.5547H29.6225C29.3243 93.5547 29.0383 93.4361 28.8274 93.2252C28.6166 93.0144 28.498 92.7284 28.498 92.4302H28.499Z" fill="white"/>
<g opacity="0.5">
<path opacity="0.5" d="M48.5775 54.915L38.777 92.7108H33.8418L43.6423 54.915H48.5775Z" fill="#A7BCD5"/>
<path opacity="0.5" d="M61.1565 54.915L51.357 92.7108H41.0073L50.8078 54.915H61.1565Z" fill="#A7BCD5"/>
</g>
<path d="M97.5552 97.064H25.6914V54.3936C25.6923 53.601 26.0076 52.8413 26.568 52.2808C27.1284 51.7205 27.8881 51.4052 28.6807 51.4043H94.566C95.3584 51.4052 96.1183 51.7205 96.6786 52.2808C97.239 52.8413 97.5542 53.601 97.5552 54.3936V97.064ZM26.8103 95.9451H96.4364V54.3936C96.4358 53.8976 96.2386 53.4222 95.888 53.0715C95.5374 52.7208 95.0618 52.5236 94.566 52.5232H28.6807C28.1847 52.5236 27.7093 52.7208 27.3586 53.0715C27.008 53.4222 26.8108 53.8976 26.8103 54.3936V95.9451Z" fill="#426572"/>
<path d="M17.3286 95.1704H107.815V95.4678C107.815 96.4322 107.432 97.3572 106.751 98.0391C106.068 98.7211 105.143 99.1042 104.179 99.1042H20.965C20.0006 99.1042 19.0757 98.7211 18.3937 98.0391C17.7117 97.3572 17.3286 96.4322 17.3286 95.4678V95.1704Z" fill="#EBF0F9"/>
<path opacity="0.5" d="M107.352 97.0669C107.153 97.5841 106.802 98.0289 106.345 98.3425C105.888 98.6562 105.346 98.8238 104.793 98.8235H19.7876C19.2336 98.8234 18.6927 98.6556 18.2361 98.342C17.7796 98.0284 17.4288 97.5838 17.23 97.0669H107.352Z" fill="#A7BCD5"/>
<path d="M103.757 99.5229H20.5435C19.431 99.5217 18.3645 99.0792 17.578 98.2926C16.7913 97.506 16.3489 96.4395 16.3477 95.3271V94.4702H107.953V95.3271C107.952 96.4396 107.509 97.5063 106.722 98.293C105.936 99.0795 104.869 99.5219 103.757 99.5229ZM17.4768 95.5891C17.5424 96.357 17.8938 97.0723 18.4615 97.5936C19.0291 98.1148 19.7718 98.404 20.5425 98.404H103.757C104.528 98.404 105.27 98.1148 105.838 97.5936C106.405 97.0723 106.757 96.357 106.822 95.5891H17.4768Z" fill="#426572"/>
<path d="M94.9557 92.8485H28.2891V54.4951H94.9557V92.8485ZM29.4079 91.7296H93.8368V55.614H29.4079V91.7296Z" fill="#426572"/>
<path d="M84.5175 43.0345V92.2895H39.8359V43.0345C39.8376 42.8124 39.9266 42.6 40.0836 42.443C40.2406 42.2859 40.4531 42.197 40.6751 42.1953H83.6746C83.7253 42.1953 83.7759 42.2 83.8257 42.2093C84.0189 42.245 84.1936 42.3469 84.3199 42.4975C84.4461 42.6481 84.516 42.8379 84.5175 43.0345Z" fill="white"/>
<path d="M40.5393 46.266H84.6586V43.3028L83.8148 42.1914H45.1761H41.3822L39.9771 43.3028V46.266H40.5393Z" fill="#E2F2FF"/>
<path d="M85.2179 92.8488H39.4175V43.0343C39.4189 42.6638 39.5668 42.3089 39.8287 42.0469C40.0907 41.785 40.4455 41.6371 40.8161 41.6357H83.8138C84.1842 41.6371 84.5391 41.785 84.8011 42.0469C85.063 42.3089 85.2109 42.6638 85.2124 43.0343L85.2179 92.8488ZM40.5364 91.7299H84.0991V43.0343C84.0971 42.9607 84.0671 42.8907 84.015 42.8386C83.9629 42.7865 83.8929 42.7565 83.8193 42.7546H40.8198C40.7462 42.7565 40.6761 42.7865 40.6241 42.8386C40.572 42.8907 40.542 42.9607 40.5401 43.0343L40.5364 91.7299Z" fill="#426572"/>
<path d="M81.9096 43.918H42.6052C42.2946 43.918 42.043 44.1696 42.043 44.4802C42.043 44.7907 42.2946 45.0424 42.6052 45.0424H81.9096C82.2201 45.0424 82.4719 44.7907 82.4719 44.4802C82.4719 44.1696 82.2201 43.918 81.9096 43.918Z" fill="#CADCE8"/>
<path d="M54.5468 51.5425H45.3599V62.0105H54.5468V51.5425Z" fill="#E8837E"/>
<path d="M77.1973 51.5425H55.4136V62.0105H77.1973V51.5425Z" fill="#E8837E"/>
<path d="M77.1974 63.1694H66.9121V73.6375H77.1974V63.1694Z" fill="#DDE4ED"/>
<path d="M66.0448 63.1694H45.4751V73.6375H66.0448V63.1694Z" fill="#DDE4ED"/>
<path d="M77.2551 74.7964H45.4751V85.2645H77.2551V74.7964Z" fill="#DDE4ED"/>
<path d="M77.5358 86.6714H69.3867V87.7903H77.5358V86.6714Z" fill="#DDE4ED"/>
<path d="M33.0183 89.6215H19.6794C19.4598 89.623 19.2433 89.5692 19.05 89.4649C18.7703 89.312 18.5913 89.0611 18.5913 88.7786L18.5988 70.442C18.599 70.3219 18.6311 70.2042 18.692 70.1008C18.8617 69.8061 19.2449 69.5991 19.6869 69.5991H33.0258C33.492 69.5991 33.8845 69.8248 34.0412 70.1399C34.0886 70.2332 34.1135 70.3364 34.1139 70.4411L34.1074 88.7786C34.1074 89.2019 33.6981 89.5553 33.1694 89.6131C33.1192 89.6187 33.0688 89.6215 33.0183 89.6215Z" fill="white"/>
<path d="M33.3809 89.4807L20.0373 89.4779C19.8178 89.4794 19.6012 89.4256 19.408 89.3213C19.1282 89.1684 18.9492 88.9176 18.9492 88.635L18.9567 70.2985C18.9569 70.1784 18.989 70.0606 19.0499 69.9572C19.2196 69.6626 19.6028 69.4556 20.0448 69.4556H20.2266L20.2238 87.5106C20.2238 87.7903 20.4047 88.0439 20.6826 88.1968C20.8758 88.3012 21.0923 88.355 21.3119 88.3535H34.47V88.6332C34.47 89.0565 34.0606 89.4099 33.532 89.4677C33.4819 89.4749 33.4315 89.4792 33.3809 89.4807Z" fill="#D6DEE9"/>
<path d="M33.1989 90.0402H19.859C19.5444 90.0418 19.2346 89.9639 18.9583 89.8137C18.4921 89.5554 18.2124 89.1153 18.2124 88.6379L18.2199 70.3013C18.221 70.0826 18.2798 69.868 18.3905 69.6794C18.6702 69.1992 19.2297 68.8999 19.8683 68.8999H33.2073C33.86 68.8999 34.4427 69.2216 34.7075 69.7213L34.7821 69.836V69.8882C34.8303 70.0212 34.8549 70.1616 34.8548 70.3032L34.8474 88.6398C34.8474 89.3428 34.2292 89.9451 33.4105 90.03C33.3402 90.0373 33.2696 90.0408 33.1989 90.0402ZM19.8656 70.0141C19.6147 70.0141 19.4189 70.1251 19.3565 70.2351C19.3442 70.2537 19.3374 70.2753 19.3369 70.2976L19.3294 88.6342C19.3294 88.6957 19.3975 88.774 19.4991 88.8309C19.6099 88.8896 19.7336 88.9197 19.859 88.9185H33.1979C33.2272 88.9186 33.2565 88.9171 33.2856 88.9139C33.5653 88.884 33.7276 88.7274 33.7276 88.6342L33.735 70.2976C33.735 70.2864 33.7331 70.2754 33.7294 70.2649L33.6772 70.1848C33.5483 70.0684 33.3789 70.0071 33.2054 70.0141H19.8665H19.8656Z" fill="#426572"/>
<path d="M31.6609 77.5342H22.6147V78.6531H31.6609V77.5342Z" fill="#426572"/>
<path d="M31.6609 75.1992H22.6147V76.3181H31.6609V75.1992Z" fill="#426572"/>
<path d="M31.6609 80.1792H22.6147V81.2981H31.6609V80.1792Z" fill="#426572"/>
<path opacity="0.2" d="M103.954 56.4803C104.605 55.2571 105.005 53.9157 105.13 52.5354C105.255 51.155 105.102 49.7636 104.681 48.4433C104.259 47.123 103.578 45.9005 102.675 44.8479C101.774 43.7954 100.671 42.9342 99.4305 42.315C98.1904 41.6958 96.8391 41.3312 95.4559 41.2428C94.0727 41.1544 92.6859 41.344 91.3772 41.8002C90.0684 42.2565 88.8644 42.9704 87.836 43.8995C86.8076 44.8287 85.9758 45.9544 85.3896 47.2104C84.58 48.7306 84.1614 50.4284 84.1716 52.1508C84.1817 53.8732 84.6203 55.566 85.4478 57.0766C86.2753 58.5871 87.4657 59.8681 88.9117 60.8039C90.3577 61.7398 92.0138 62.3012 93.7308 62.4374C93.4312 62.5083 93.1269 62.5657 92.818 62.6099C94.4434 62.8442 96.1012 62.6895 97.6552 62.1585C99.2095 61.6275 100.615 60.7354 101.757 59.5553C102.671 58.673 103.416 57.6308 103.954 56.4803Z" fill="#606060"/>
<path d="M93.3952 60.0141C99.1266 60.0141 103.773 55.3678 103.773 49.6364C103.773 43.9051 99.1266 39.2588 93.3952 39.2588C87.6638 39.2588 83.0176 43.9051 83.0176 49.6364C83.0176 55.3678 87.6638 60.0141 93.3952 60.0141Z" fill="#A8EF9E"/>
<path d="M103.277 50.3777C103.277 51.8655 102.957 53.336 102.338 54.6893C101.72 56.0426 100.818 57.247 99.6931 58.2211C98.5686 59.1951 97.2474 59.9159 95.8195 60.3347C94.3917 60.7534 92.8906 60.8603 91.418 60.6481C93.8873 60.2911 96.1454 59.0564 97.7789 57.17C99.4115 55.2838 100.31 52.8722 100.31 50.3772C100.31 47.8821 99.4115 45.4705 97.7789 43.5843C96.1454 41.698 93.8873 40.4633 91.418 40.1063C92.8908 39.8939 94.392 40.0006 95.8199 40.4194C97.2474 40.8381 98.5686 41.559 99.694 42.5332C100.819 43.5074 101.721 44.712 102.339 46.0655C102.957 47.419 103.278 48.8896 103.278 50.3777H103.277Z" fill="#A7E59C"/>
<path d="M93.1476 61.067C90.9844 61.067 88.8698 60.4255 87.0712 59.2237C85.2726 58.022 83.8708 56.3138 83.043 54.3154C82.2152 52.3169 81.9986 50.1178 82.4207 47.9962C82.8427 45.8747 83.8843 43.9258 85.4139 42.3962C86.9435 40.8667 88.8923 39.825 91.0139 39.403C93.1353 38.981 95.3345 39.1976 97.3332 40.0254C99.3313 40.8532 101.04 42.2551 102.241 44.0537C103.443 45.8522 104.085 47.9668 104.085 50.1299C104.081 53.0296 102.928 55.8097 100.877 57.8601C98.8269 59.9105 96.0472 61.0637 93.1476 61.067ZM93.1476 40.3127C91.2057 40.3127 89.3075 40.8885 87.6928 41.9673C86.0783 43.0462 84.8198 44.5795 84.0767 46.3736C83.3336 48.1676 83.1392 50.1418 83.518 52.0463C83.8968 53.9508 84.832 55.7003 86.205 57.0733C87.5782 58.4465 89.3275 59.3816 91.2321 59.7604C93.1367 60.1393 95.1107 59.9448 96.9048 59.2016C98.6992 58.4585 100.232 57.2002 101.311 55.5855C102.39 53.971 102.966 52.0727 102.966 50.1309C102.963 47.5278 101.928 45.032 100.087 43.1914C98.246 41.3506 95.7506 40.3154 93.1476 40.3127Z" fill="#426572"/>
<path d="M98.3899 45.8864C98.1661 45.7612 97.9022 45.7277 97.6542 45.7926C97.4062 45.8577 97.1931 46.0162 97.0593 46.2351L95.2626 49.1721L92.3917 53.8602L92.3115 53.9917L88.9968 51.34L88.3926 50.857C87.9964 50.54 87.3987 50.4402 87.0174 50.857C86.6929 51.2104 86.5931 51.8929 87.0174 52.2323L91.2794 55.6411L91.8836 56.1241C92.1344 56.3255 92.3731 56.4355 92.7003 56.3917C92.8466 56.3737 92.9868 56.3223 93.11 56.2415C93.2332 56.1607 93.3361 56.0525 93.4108 55.9255L95.2076 52.9885L98.0794 48.3013L98.7423 47.2178C99.0043 46.7833 98.8477 46.1306 98.3899 45.8864Z" fill="white"/>
<defs>
<linearGradient id="paint0_linear_261_11371" x1="4.12333" y1="64.61" x2="120.979" y2="64.61" gradientUnits="userSpaceOnUse">
<stop stop-color="#C5E9FA"/>
<stop offset="1" stop-color="#C4F4EA"/>
</linearGradient>
</defs>
</svg>
