<svg width="128" height="128" viewBox="0 0 128 128" fill="none" xmlns="http://www.w3.org/2000/svg">
<path d="M53.848 11.6206H1.84473V60.3267H53.848V11.6206Z" fill="#E6E6E6"/>
<path d="M55.716 11.6206H2.71826V60.3267H55.716V11.6206Z" fill="#F0F0F0"/>
<path d="M53.848 60.3271H1.84473V62.5449H53.848V60.3271Z" fill="#E6E6E6"/>
<path d="M58.8268 60.3271H5.8291V62.5449H58.8268V60.3271Z" fill="#F0F0F0"/>
<path d="M53.0991 57.713V14.2373L5.32856 14.2373V57.713H53.0991Z" fill="#FAFAFA"/>
<path d="M10.3335 57.713L25.6813 14.2373H32.9234L17.5789 57.713H10.3335Z" fill="white"/>
<path d="M6.54241 58.9262C6.59186 58.9262 6.63928 58.9065 6.67425 58.8716C6.70921 58.8366 6.72886 58.7892 6.72886 58.7397V15.9379C6.72886 15.8885 6.70921 15.841 6.67425 15.8061C6.63928 15.7711 6.59186 15.7515 6.54241 15.7515C6.49296 15.7515 6.44553 15.7711 6.41057 15.8061C6.3756 15.841 6.35596 15.8885 6.35596 15.9379V58.7397C6.35596 58.7892 6.3756 58.8366 6.41057 58.8716C6.44553 58.9065 6.49296 58.9262 6.54241 58.9262Z" fill="#E0E0E0"/>
<path d="M19.1353 57.713L34.4798 14.2373H37.306L21.9582 57.713H19.1353Z" fill="white"/>
<path d="M53.0991 57.71V14.2344H52.7655V57.71H53.0991Z" fill="#E6E6E6"/>
<path opacity="0.5" d="M56.3342 19.5796H4.33092L4.08887 15.252H56.0922L56.3342 19.5796Z" fill="#E6E6E6"/>
<path opacity="0.5" d="M56.3342 23.9694H4.33092L4.08887 19.645H56.0922L56.3342 23.9694Z" fill="#E6E6E6"/>
<path opacity="0.5" d="M56.3342 28.359H4.33092L4.08887 24.0347H56.0922L56.3342 28.359Z" fill="#E6E6E6"/>
<path opacity="0.5" d="M56.3342 32.7487H4.33092L4.08887 28.4243H56.0922L56.3342 32.7487Z" fill="#E6E6E6"/>
<path opacity="0.5" d="M56.3342 37.1417H4.33092L4.08887 32.8174H56.0922L56.3342 37.1417Z" fill="#E6E6E6"/>
<path opacity="0.5" d="M56.3342 41.5314H4.33092L4.08887 37.207H56.0922L56.3342 41.5314Z" fill="#E6E6E6"/>
<path d="M69.7288 71.9355H54.9175V111.375H69.7288V71.9355Z" fill="#E6E6E6"/>
<path d="M67.4818 111.375H69.729V106.004H65.1299L67.4818 111.375Z" fill="#F0F0F0"/>
<path d="M14.8114 71.9355H0V111.375H14.8114V71.9355Z" fill="#E6E6E6"/>
<path d="M69.7292 71.9355H12.8521V108.077H69.7292V71.9355Z" fill="#F0F0F0"/>
<path d="M67.9887 73.5381H14.5952V83.4494H67.9887V73.5381Z" fill="#E6E6E6"/>
<path d="M48.3562 76.1328H34.2285C28.092 76.1328 22.227 74.9094 18.0073 72.7505H64.5774C60.3577 74.9094 54.4927 76.1328 48.3562 76.1328Z" fill="#F0F0F0"/>
<path d="M15.0993 111.375H12.8521V106.004H17.4512L15.0993 111.375Z" fill="#F0F0F0"/>
<path d="M67.9887 85.0493H14.5952V94.9606H67.9887V85.0493Z" fill="#E6E6E6"/>
<path d="M48.3562 87.6469H34.2285C28.092 87.6469 22.227 86.4235 18.0073 84.2646H64.5774C60.3577 86.4235 54.4927 87.6469 48.3562 87.6469Z" fill="#F0F0F0"/>
<path d="M67.9887 96.5635H14.5952V106.475H67.9887V96.5635Z" fill="#E6E6E6"/>
<path d="M48.3562 99.1611H34.2285C28.092 99.1611 22.227 97.9377 18.0073 95.7788H64.5774C60.3577 97.9377 54.4927 99.1611 48.3562 99.1611Z" fill="#F0F0F0"/>
<path d="M86.9806 56.1855L118.154 56.1855V14.4893L86.9806 14.4893V56.1855Z" fill="#E6E6E6"/>
<path d="M84.9525 56.1855L117.719 56.1855V14.4893L84.9525 14.4893V56.1855Z" fill="#F0F0F0"/>
<path d="M113.185 51.6485V19.0229H89.4895V51.6485H113.185Z" fill="white"/>
<path d="M92.332 42.5552H110.336V39.6668H92.332V42.5552Z" fill="#F0F0F0"/>
<path d="M94.7985 46.7129H107.87V43.8245H94.7985V46.7129Z" fill="#F0F0F0"/>
<path d="M101.337 36.5102C105.084 36.5102 108.122 33.4729 108.122 29.7261C108.122 25.9793 105.084 22.9419 101.337 22.9419C97.5906 22.9419 94.5532 25.9793 94.5532 29.7261C94.5532 33.4729 97.5906 36.5102 101.337 36.5102Z" fill="#F0F0F0"/>
<path d="M89.8428 51.6485V19.0229H89.4862V51.6485H89.8428Z" fill="#E6E6E6"/>
<path d="M100.232 82.7529C100.218 82.6877 100.182 82.6293 100.131 82.5875C100.079 82.5458 100.014 82.5233 99.9473 82.5239H89.0285C88.9623 82.5234 88.898 82.546 88.8467 82.5878C88.7953 82.6296 88.7601 82.688 88.7472 82.7529L84.8579 111.375H85.4467L89.264 83.1127H99.7314L103.539 111.388H104.128L100.232 82.7529Z" fill="#F0F0F0"/>
<path d="M121.412 82.7529C121.398 82.6877 121.362 82.6293 121.311 82.5875C121.259 82.5458 121.194 82.5233 121.127 82.5239H110.195C110.129 82.5234 110.065 82.546 110.014 82.5878C109.962 82.6296 109.927 82.688 109.914 82.7529L106.035 111.375H106.623L110.431 83.1127H120.898L124.699 111.375H125.288L121.412 82.7529Z" fill="#F0F0F0"/>
<path d="M121.723 80.3389H87.3372C85.7016 80.3389 84.3638 81.1305 84.3638 82.1052V82.1674C84.3638 82.5207 84.8479 82.8216 85.4465 82.8216H123.613C124.212 82.8216 124.696 82.5337 124.696 82.1674V82.1052C124.696 81.1305 123.365 80.3389 121.723 80.3389Z" fill="#E0E0E0"/>
<path d="M123.826 66.1724H101.092L97.7979 79.5968H120.532L123.826 66.1724Z" fill="#E6E6E6"/>
<path d="M120.532 79.5967L120.44 80.3392H97.7031L97.7947 79.5967H120.532Z" fill="#E6E6E6"/>
<path d="M123.129 66.1724H100.392L97.0981 79.5968H119.832L123.129 66.1724Z" fill="#F0F0F0"/>
<path d="M119.351 78.9815L122.347 66.7837H100.873L97.8799 78.9815H119.351Z" fill="white"/>
<path d="M113.908 79.5967L113.816 80.3392H88.7798L88.8714 79.5967H113.908Z" fill="#F0F0F0"/>
<path d="M64.5774 126.146C99.6047 126.146 128 124.489 128 122.444C128 120.399 99.6047 118.741 64.5774 118.741C29.55 118.741 1.15479 120.399 1.15479 122.444C1.15479 124.489 29.55 126.146 64.5774 126.146Z" fill="#F5F5F5"/>
<path d="M8.88019 94.9441L8.57031 95.0488L9.25548 97.0754L9.56536 96.9706L8.88019 94.9441Z" fill="#407BFF"/>
<path d="M8.1483 93.2789C7.83838 91.4618 8.24145 89.5953 9.27355 88.0681C10.0547 86.9962 11.1515 86.1956 12.4105 85.7783L12.5152 86.0858C11.3188 86.4797 10.278 87.2424 9.54177 88.2643C8.55604 89.7224 8.17273 91.5053 8.47214 93.2396L8.1483 93.2789Z" fill="#407BFF"/>
<path d="M98.5963 107.531H47.7477L43.4004 94.682C41.8728 90.1582 36.9663 86.5044 32.4424 86.5044H15.0763C10.5557 86.5044 8.12859 90.1713 9.65618 94.682L14.01 107.55C14.6884 109.561 15.9808 111.309 17.7049 112.546C19.429 113.784 21.498 114.45 23.6203 114.449H98.5963C99.2331 114.449 99.8438 114.196 100.294 113.746C100.744 113.296 100.997 112.685 100.997 112.048V109.935C100.998 109.619 100.936 109.307 100.815 109.015C100.695 108.724 100.518 108.458 100.295 108.235C100.072 108.012 99.8074 107.835 99.5159 107.714C99.2243 107.593 98.9119 107.531 98.5963 107.531Z" fill="#407BFF"/>
<path opacity="0.2" d="M43.4005 94.682C41.8729 90.1582 36.9663 86.5044 32.4424 86.5044H20.7451C16.2212 86.5044 13.7974 90.1713 15.325 94.682L19.6755 107.55L47.7444 107.531L43.4005 94.682Z" fill="white"/>
<path opacity="0.2" d="M69.6479 114.449H98.5903C99.9163 114.449 100.991 113.374 100.991 112.048V109.932C100.991 108.606 99.9163 107.531 98.5903 107.531H69.6479C68.3219 107.531 67.247 108.606 67.247 109.932V112.048C67.247 113.374 68.3219 114.449 69.6479 114.449Z" fill="white"/>
<path d="M71.1618 120.802H69.644V114.449H72.1137L71.1618 120.802Z" fill="#263238"/>
<path d="M97.0723 120.802H98.5901V114.449H96.1172L97.0723 120.802Z" fill="#263238"/>
<path d="M26.9704 120.802H25.4526V114.449H27.9223L26.9704 120.802Z" fill="#263238"/>
<path d="M52.8772 120.802H54.3949V114.449H51.9253L52.8772 120.802Z" fill="#263238"/>
<path d="M31.3172 75.2422C31.5854 76.3118 32.7793 77.388 33.1293 77.8198C33.4793 78.2516 31.7359 78.7455 31.7359 78.7455L29.9858 76.8515L31.3172 75.2422Z" fill="#263238"/>
<path d="M32.4817 83.7664L33.1359 83.8057L33.849 83.8384C34.3298 83.8384 34.8107 83.8743 35.2915 83.8776C36.2532 83.8776 37.2084 83.8776 38.1373 83.8155C38.6018 83.786 39.063 83.7468 39.5112 83.6912C39.9593 83.6356 40.4042 83.58 40.8196 83.4949C41.5974 83.3574 42.3568 83.1313 43.0832 82.8211L41.9383 84.0575C42.2818 83.4328 42.635 82.7785 42.9621 82.0949C43.2893 81.4112 43.6164 80.6982 43.9435 79.9752C44.2706 79.2523 44.5715 78.5196 44.8888 77.7804C45.2061 77.0411 45.5168 76.2822 45.8407 75.5691L45.8701 75.5037C46.0172 75.1805 46.27 74.917 46.5869 74.7565C46.9037 74.5961 47.2657 74.5483 47.6134 74.621C47.961 74.6937 48.2735 74.8826 48.4995 75.1566C48.7254 75.4306 48.8514 75.7734 48.8566 76.1285C48.8566 77.028 48.8173 77.8654 48.7454 78.729C48.6734 79.5925 48.5491 80.4365 48.4183 81.2902C48.2874 82.144 48.0912 83.001 47.8589 83.858C47.6265 84.736 47.3437 85.5999 47.0117 86.4454C46.8305 86.9023 46.5071 87.2888 46.0893 87.5477L45.8668 87.6819C44.746 88.3646 43.5348 88.8866 42.2687 89.2323C41.1133 89.5598 39.9328 89.7906 38.7392 89.9225C37.5949 90.0569 36.4437 90.1235 35.2915 90.1221C34.7223 90.1221 34.1532 90.1221 33.584 90.0763C33.2994 90.0763 33.0116 90.0436 32.727 90.0174L32.292 89.9749L31.8176 89.9193C31.035 89.8122 30.323 89.4095 29.8279 88.794C29.3329 88.1784 29.0922 87.3967 29.1554 86.6093C29.2186 85.8219 29.5809 85.0885 30.1678 84.5599C30.7548 84.0312 31.5219 83.7473 32.3116 83.7664H32.4817Z" fill="#263238"/>
<path d="M47.748 74.6439C46.07 74.2677 45.7494 75.2817 45.5859 76.0799C45.4223 76.878 46.0078 77.9934 47.3359 78.3009C48.6639 78.6084 48.8864 77.6925 48.9485 77.2116C49.0107 76.7308 49.6878 75.0789 47.748 74.6439Z" fill="#407BFF"/>
<path d="M48.5493 77.0149L49.7792 76.2495L47.6269 73.6719C47.6269 73.6719 45.5694 74.7546 46.0208 75.9125L46.9628 76.8415C47.1694 77.0444 47.4382 77.1719 47.726 77.2033C48.0138 77.2348 48.3038 77.1684 48.5493 77.0149Z" fill="#B55B52"/>
<path d="M46.0144 75.8574C45.635 73.8947 47.4308 73.3321 47.5911 72.3377C47.5946 72.2796 47.619 72.2247 47.6597 72.1831C47.7005 72.1415 47.7548 72.1159 47.8129 72.1112C47.8709 72.1064 47.9287 72.1227 47.9757 72.1571C48.0227 72.1915 48.0557 72.2417 48.0687 72.2984C48.1712 72.6825 48.122 73.0913 47.9313 73.44C47.6958 73.7148 48.9355 75.1901 47.8233 75.8475C47.224 75.7502 46.6127 75.7535 46.0144 75.8574Z" fill="#B55B52"/>
<path d="M50.8388 73.6919L50.4953 73.2405C50.3094 72.9956 50.0393 72.8283 49.7373 72.7709C49.4352 72.7135 49.1226 72.7701 48.8598 72.9297L47.6299 73.6723L49.7822 76.2499L50.7178 75.3242C50.9322 75.1129 51.0626 74.831 51.0848 74.5308C51.1071 74.2306 51.0197 73.9325 50.8388 73.6919Z" fill="#B55B52"/>
<path d="M84.6818 106.992C84.2892 106.337 83.5009 106.508 82.6079 106.337C82.6079 106.337 84.0897 102.51 84.8977 102.981C86.5528 103.963 88.4958 102.537 90.2393 100.564C90.4814 100.289 91.1029 101.14 90.6776 101.873C89.6145 103.717 88.0869 104.489 87.2921 105.402C86.6117 106.177 86.6084 106.782 85.9607 107.302C85.421 107.728 85.071 107.646 84.6818 106.992Z" fill="#263238"/>
<path d="M73.8871 106.432C74.0801 105.692 74.2731 104.655 73.7759 103.893C73.7759 103.893 77.5376 102.258 77.7731 103.157C78.2507 105.012 78.7021 105.869 81.8848 106.428C82.2447 106.494 82.9054 107.554 82.0549 107.554C79.5951 107.554 78.0577 107.289 76.8572 107.361C75.8268 107.42 75.3983 107.635 74.5675 107.541C73.8904 107.475 73.6908 107.177 73.8871 106.432Z" fill="#263238"/>
<path d="M33.6855 84.5023C30.7808 84.2635 27.0027 84.9047 24.8111 86.5794C24.1086 87.0983 23.5736 87.8117 23.2724 88.6315C22.9712 89.4513 22.9171 90.3414 23.1167 91.1916C24.8634 98.3422 33.9766 108.155 45.1407 108.155L52.6282 94.1879C52.6282 94.1879 53.4558 88.9706 42.4879 89.5234C39.3477 86.2949 36.5706 84.7477 33.6855 84.5023Z" fill="#263238"/>
<path d="M51.5718 93.1578C57.8839 90.8738 64.4165 89.2525 71.064 88.3199C77.037 87.5022 78.123 104.021 78.123 104.021L73.7757 104.734C72.9743 100.135 70.472 98.8887 69.3631 95.4148C64.6985 99.7588 54.3718 103.511 46.6357 100.361C47.8199 97.2761 48.2549 96.7887 49.4489 94.9438C50.4596 93.3966 51.5718 93.1578 51.5718 93.1578Z" fill="#407BFF"/>
<path opacity="0.3" d="M51.5718 93.1578C57.8839 90.8738 64.4165 89.2525 71.064 88.3199C77.037 87.5022 78.123 104.021 78.123 104.021L73.7757 104.734C72.9743 100.135 70.472 98.8887 69.3631 95.4148C64.6985 99.7588 54.3718 103.511 46.6357 100.361C47.8199 97.2761 48.2549 96.7887 49.4489 94.9438C50.4596 93.3966 51.5718 93.1578 51.5718 93.1578Z" fill="black"/>
<path d="M48.3368 96.687C48.3368 96.687 60.3645 96.8636 70.9628 99.5296C76.0427 100.805 85.6825 102.971 85.6825 102.971L83.8148 106.739C83.8148 106.739 77.6782 107.194 67.7179 105.453C60.9991 107.926 55 108.155 45.1476 108.155C45.0789 101.963 48.3368 96.687 48.3368 96.687Z" fill="#407BFF"/>
<path opacity="0.2" d="M48.3368 96.687C48.3368 96.687 60.3645 96.8636 70.9628 99.5296C76.0427 100.805 85.6825 102.971 85.6825 102.971L83.8148 106.739C83.8148 106.739 77.6782 107.194 67.7179 105.453C60.9991 107.926 55 108.155 45.1476 108.155C45.0789 101.963 48.3368 96.687 48.3368 96.687Z" fill="black"/>
<path d="M29.0539 90.8291L28.7464 93.7501C28.6418 94.7314 28.56 95.7127 28.4749 96.6941C28.4389 97.1815 28.3997 97.6754 28.3768 98.1562C28.3539 98.6371 28.3212 99.1376 28.2983 99.6053C28.2721 100.56 28.2558 101.503 28.2983 102.399L27.6146 100.874C28.0282 101.413 28.5085 101.897 29.0441 102.314C29.3352 102.533 29.6427 102.759 29.9665 102.968C30.2904 103.177 30.6404 103.38 30.9969 103.576C31.7319 103.974 32.4887 104.33 33.2638 104.643C33.6596 104.803 34.0586 104.97 34.4675 105.107C34.6703 105.182 34.8731 105.258 35.0792 105.323L35.6582 105.526L35.8315 105.588C36.1688 105.706 36.4545 105.938 36.6399 106.243C36.8253 106.548 36.8988 106.909 36.8477 107.262C36.7967 107.616 36.6244 107.941 36.3603 108.181C36.0961 108.422 35.7566 108.563 35.3998 108.581C35.0956 108.597 34.8666 108.611 34.6016 108.614C34.3367 108.617 34.0946 108.614 33.8427 108.614C33.3357 108.594 32.832 108.561 32.325 108.506C31.2985 108.391 30.2832 108.192 29.2894 107.911C28.2452 107.612 27.2353 107.204 26.2768 106.694C25.7713 106.418 25.2831 106.112 24.8146 105.778C24.3275 105.418 23.8692 105.021 23.444 104.59C23.0967 104.253 22.8673 103.812 22.7898 103.334L22.744 103.056C22.5605 101.936 22.4393 100.807 22.3809 99.674C22.3221 98.5684 22.3155 97.4759 22.3384 96.4029C22.3613 95.33 22.43 94.2473 22.5183 93.1777C22.5674 92.6445 22.6165 92.1113 22.6852 91.5781C22.7538 91.045 22.8225 90.5281 22.9141 89.9426C23.0396 89.1445 23.4722 88.4271 24.1195 87.9437C24.7668 87.4603 25.5775 87.2492 26.3784 87.3556C27.1793 87.4619 27.9068 87.8773 28.4055 88.5129C28.9042 89.1485 29.1346 89.9539 29.0474 90.7571L29.0539 90.8291Z" fill="#263238"/>
<path d="M36.8258 108.469C38.1539 107.442 37.2641 106.327 36.6099 105.833C36.1388 105.507 35.5655 105.363 34.9964 105.428C34.4272 105.493 33.901 105.763 33.5155 106.186C32.7403 106.975 32.9692 108.434 33.3945 108.669C33.8197 108.905 35.0496 109.84 36.8258 108.469Z" fill="#407BFF"/>
<path d="M36.6981 106.579L37.8233 107.289L35.7691 109.719C35.7691 109.719 33.8065 108.679 34.2579 107.587L35.1214 106.746C35.3269 106.544 35.5945 106.418 35.8807 106.388C36.1669 106.358 36.455 106.425 36.6981 106.579Z" fill="#B55B52"/>
<path d="M38.8018 109.719L38.4747 110.145C38.2977 110.375 38.0416 110.532 37.7558 110.584C37.47 110.637 37.1749 110.582 36.9275 110.429L35.7695 109.719L37.8238 107.289L38.7037 108.172C38.9052 108.374 39.0263 108.643 39.0443 108.927C39.0624 109.212 38.9762 109.494 38.8018 109.719Z" fill="#B55B52"/>
<path d="M25.3247 79.5532C26.113 81.2574 27.15 84.2799 26.306 86.1281C26.1919 86.3792 26.1793 86.6648 26.2707 86.925C26.3621 87.1853 26.5506 87.4002 26.7967 87.5248C27.6373 87.9435 29.1617 88.287 31.7949 87.7897C35.0169 87.1813 35.1183 86.3799 34.6996 85.8435C34.529 85.6575 34.3225 85.5079 34.0926 85.4039C33.8627 85.2999 33.614 85.2436 33.3617 85.2383C32.3019 84.3977 31.1374 82.6051 31.6575 81.3294L25.3247 79.5532Z" fill="#B55B52"/>
<path opacity="0.2" d="M31.6316 81.3818L28.0629 83.3445C27.8961 83.616 28.7171 84.7183 30.1237 84.8786C30.9522 84.9596 31.7861 84.791 32.5181 84.3945C31.8082 83.4982 31.2849 82.3141 31.6316 81.3818Z" fill="black"/>
<path d="M31.6639 74.7616C31.5559 72.9102 30.3358 72.2363 30.3358 72.2363C30.1606 72.5228 30.0435 72.8409 29.9913 73.1726C29.9391 73.5044 29.9528 73.8431 30.0316 74.1695L27.2349 76.4102C28.4419 77.4733 31.7718 76.613 31.6639 74.7616Z" fill="#263238"/>
<path d="M24.5368 79.5144C25.8779 81.9677 26.5387 83.4691 28.4195 84.1659C31.2523 85.2126 33.8266 82.5957 33.2444 79.7924C32.721 77.2705 30.6275 73.6854 27.6835 73.8424C27.0338 73.8716 26.4023 74.0667 25.8494 74.4092C25.2965 74.7517 24.8405 75.2302 24.5249 75.7989C24.2094 76.3677 24.0448 77.0078 24.0469 77.6582C24.049 78.3086 24.2176 78.9477 24.5368 79.5144Z" fill="#B55B52"/>
<path d="M28.6974 78.4152C28.7923 78.6212 28.982 78.7423 29.1161 78.6736C29.2502 78.6049 29.2797 78.3923 29.1848 78.1862C29.09 77.9801 28.9002 77.8591 28.7661 77.931C28.632 78.003 28.596 78.2058 28.6974 78.4152Z" fill="#263238"/>
<path d="M31.0198 77.326C31.1146 77.5321 31.3043 77.6532 31.4384 77.5845C31.5726 77.5158 31.602 77.3031 31.5071 77.0971C31.4123 76.891 31.2226 76.77 31.0884 76.8387C30.9543 76.9074 30.9216 77.12 31.0198 77.326Z" fill="#263238"/>
<path d="M30.3296 77.7739C30.8686 78.2908 31.4762 78.731 32.1352 79.0823C31.9324 79.5926 31.2422 79.7366 31.2422 79.7366L30.3296 77.7739Z" fill="#A02724"/>
<path d="M29.8849 80.8234C29.7437 80.9168 29.6141 81.0266 29.4989 81.1505C29.4909 81.164 29.4877 81.1798 29.4899 81.1953C29.4922 81.2108 29.4996 81.2251 29.5111 81.2358C29.5225 81.2465 29.5373 81.253 29.553 81.2541C29.5686 81.2553 29.5841 81.251 29.597 81.2421C29.7861 81.0319 30.0221 80.8694 30.2858 80.7676C30.5496 80.6659 30.8336 80.6278 31.1148 80.6566C31.1317 80.6594 31.1491 80.6556 31.1631 80.6458C31.1772 80.636 31.1869 80.6211 31.19 80.6042C31.193 80.5869 31.1892 80.5692 31.1795 80.5546C31.1698 80.54 31.1548 80.5297 31.1377 80.5257C30.6978 80.4701 30.2527 80.5758 29.8849 80.8234Z" fill="#263238"/>
<path d="M27.4608 76.8975C27.4408 76.9135 27.426 76.9352 27.4184 76.9597C27.4108 76.9842 27.4108 77.0104 27.4183 77.0349C27.47 77.1942 27.4833 77.3635 27.4571 77.5289C27.431 77.6943 27.3661 77.8512 27.2678 77.9868C27.2455 78.0144 27.2348 78.0496 27.2378 78.0849C27.2409 78.1203 27.2575 78.1531 27.2842 78.1765C27.3113 78.1986 27.3459 78.2093 27.3807 78.2062C27.4156 78.2032 27.4478 78.1866 27.4706 78.1602C27.5992 77.9915 27.6849 77.7941 27.7202 77.5849C27.7555 77.3758 27.7395 77.1612 27.6734 76.9597C27.6686 76.9431 27.6605 76.9277 27.6496 76.9142C27.6387 76.9008 27.6253 76.8896 27.6101 76.8814C27.5949 76.8732 27.5782 76.8681 27.561 76.8664C27.5438 76.8646 27.5264 76.8663 27.5099 76.8714C27.4912 76.8748 27.4741 76.8839 27.4608 76.8975Z" fill="#263238"/>
<path d="M30.5846 75.3829C30.5545 75.3857 30.5264 75.3997 30.5061 75.4222C30.4936 75.4346 30.4838 75.4494 30.477 75.4657C30.4703 75.482 30.4668 75.4994 30.4668 75.517C30.4668 75.5347 30.4703 75.5521 30.477 75.5684C30.4838 75.5847 30.4936 75.5995 30.5061 75.6119C30.6568 75.7613 30.8415 75.8718 31.0443 75.9339C31.2472 75.996 31.4621 76.0079 31.6706 75.9685C31.6877 75.9646 31.7039 75.9574 31.7181 75.9472C31.7324 75.937 31.7445 75.924 31.7536 75.9091C31.7628 75.8941 31.7688 75.8775 31.7714 75.8602C31.774 75.8428 31.7731 75.8252 31.7687 75.8082C31.7602 75.7741 31.7386 75.7447 31.7087 75.7263C31.6787 75.708 31.6427 75.7021 31.6085 75.71C31.4429 75.7378 31.2731 75.7255 31.1132 75.6743C30.9533 75.6231 30.8079 75.5344 30.6893 75.4156C30.6752 75.4029 30.6586 75.3934 30.6405 75.3878C30.6225 75.3821 30.6034 75.3805 30.5846 75.3829Z" fill="#263238"/>
<path d="M26.1523 78.8369C26.4303 79.9033 27.6276 80.0799 27.9808 80.5084C28.3341 80.9369 26.5972 81.4472 26.5972 81.4472L25.4883 80.5477L26.1523 78.8369Z" fill="#263238"/>
<path d="M24.1966 81.9411C24.7373 82.3757 25.4213 82.5916 26.1135 82.5463C27.013 82.4678 27.0948 81.5977 26.5289 80.9108C26.0251 80.2991 24.949 79.6023 24.1966 80.0178C23.4443 80.4332 23.5261 81.3981 24.1966 81.9411Z" fill="#B55B52"/>
<path d="M25.9171 80.3614C26.6041 79.5764 25.8386 77.3259 25.4952 76.8549C25.8942 76.5278 27.4382 74.8137 26.591 73.767C25.7438 72.7202 23.5685 73.767 23.5685 73.767C23.6343 73.9097 23.7319 74.0355 23.8538 74.1347C23.9757 74.2339 24.1187 74.304 24.2718 74.3394C23.3134 74.6273 21.9821 75.3207 21.8218 76.5474C22.7246 76.5474 22.754 76.4034 22.754 76.4034C22.754 76.4034 21.4914 78.5591 22.0998 79.717C22.1787 79.7175 22.2568 79.7021 22.3295 79.6716C22.4023 79.6412 22.4681 79.5964 22.5231 79.5398C22.5781 79.4833 22.6211 79.4163 22.6495 79.3428C22.678 79.2692 22.6913 79.1907 22.6886 79.1119C22.6886 79.1119 23.1302 80.7605 25.9171 80.3614Z" fill="#263238"/>
<path d="M27.9088 72.7956C26.6626 71.4185 24.9649 72.1054 24.9649 72.1054C24.9541 72.3905 25.0287 72.6723 25.179 72.9147C25.3294 73.1571 25.5487 73.3491 25.8088 73.4662L25.4817 76.855C27.0976 76.9269 29.1551 74.1694 27.9088 72.7956Z" fill="#263238"/>
<path d="M30.0875 73.4206C29.7408 71.5986 27.9385 71.3042 27.9385 71.3042C27.779 71.5404 27.6938 71.819 27.6938 72.104C27.6938 72.389 27.779 72.6675 27.9385 72.9038L25.894 75.6253C27.2384 76.5248 30.4343 75.2426 30.0875 73.4206Z" fill="#263238"/>
<path d="M46.0404 108.155C45.3861 108.482 44.4343 108.155 44.4343 108.155C44.4343 108.155 43.924 95.8006 51.925 91.9473C52.4255 91.9473 52.7526 92.729 52.7526 92.729C50.358 94.5403 48.54 97.0071 47.5189 99.8305C45.8245 104.557 46.0404 108.155 46.0404 108.155Z" fill="#407BFF"/>
<path d="M99.8493 34.9136C99.4862 36.7683 99.1232 40.1702 100.422 41.4066C98.0232 41.9872 95.8247 43.2017 94.0563 44.923C92.7479 42.5024 94.6549 41.4066 94.6549 41.4066C96.7222 40.9127 96.6699 39.3786 96.31 37.936L99.8493 34.9136Z" fill="#FFC3BD"/>
<path d="M94.6353 43.0813C95.0605 41.364 93.7848 41.0991 95.8914 40.2813C97.5269 39.6271 100.674 39.6075 101.419 40.1668C101.835 40.4939 101.289 41.5341 101.289 41.5341L94.6353 43.0813Z" fill="#263238"/>
<path d="M104.363 43.0094C104.432 43.173 104.468 43.2646 104.517 43.3856L104.648 43.7127C104.733 43.9384 104.802 44.1641 104.874 44.3865C105.014 44.8379 105.139 45.2893 105.25 45.7407C105.472 46.6518 105.627 47.5778 105.714 48.5113C105.91 50.4183 105.776 52.3447 105.319 54.2063C105.256 54.4385 105.198 54.674 105.119 54.9063L105.067 55.0796L105.037 55.1679L104.991 55.3053C104.903 55.5574 104.778 55.7954 104.622 56.0119C104.373 56.3539 104.061 56.6449 103.703 56.8689C103.432 57.0396 103.145 57.1831 102.846 57.2974C101.898 57.6316 100.906 57.8245 99.9017 57.8698C98.1077 57.9682 96.3084 57.8662 94.5371 57.5656C94.3095 57.5273 94.1033 57.4081 93.9565 57.2299C93.8097 57.0517 93.7321 56.8265 93.7381 56.5957C93.7441 56.3649 93.8332 56.144 93.989 55.9737C94.1448 55.8033 94.3569 55.6949 94.5862 55.6684H94.6222C96.2583 55.5097 97.8851 55.2662 99.4961 54.939C99.8693 54.8595 100.238 54.7613 100.602 54.6446C100.918 54.5522 101.225 54.4295 101.518 54.2782C101.76 54.1572 101.9 53.974 101.786 54.0689C101.751 54.1098 101.723 54.1562 101.704 54.2063V54.2259V54.1899L101.72 54.1245L101.75 53.9871C101.796 53.8105 101.825 53.6273 101.861 53.4441C102.105 51.9527 102.122 50.4329 101.91 48.9366C101.811 48.166 101.669 47.4016 101.485 46.6468C101.393 46.2707 101.289 45.8945 101.177 45.5281L101.001 44.9851L100.909 44.7234L100.831 44.5043L100.795 44.4094C100.621 43.9399 100.638 43.4212 100.842 42.9639C101.045 42.5067 101.42 42.147 101.884 41.9615C102.349 41.776 102.868 41.7793 103.331 41.9708C103.793 42.1622 104.162 42.5267 104.36 42.9865L104.363 43.0094Z" fill="#FFC3BD"/>
<path d="M95.0798 57.5987L92.1816 57.2716L93.2284 54.7202C94.0946 55.1092 94.9262 55.571 95.7144 56.1006L95.0798 57.5987Z" fill="#FFC3BD"/>
<path d="M91.0727 55.9171L91.7072 54.8671C91.7732 54.7571 91.8712 54.67 91.9882 54.6173C92.1051 54.5647 92.2354 54.5491 92.3615 54.5727L93.2446 54.733L92.1979 57.2844L91.3114 56.784C91.2381 56.7435 91.1736 56.6887 91.1217 56.623C91.0698 56.5572 91.0316 56.4817 91.0094 56.4009C90.9871 56.3201 90.9813 56.2357 90.9921 56.1526C91.003 56.0695 91.0304 55.9895 91.0727 55.9171Z" fill="#FFC3BD"/>
<path d="M103.47 41.7007C104.903 42.682 105.93 44.6152 106.617 48.184C105.963 49.4662 101.422 50.8433 101.422 50.8433C101.422 50.8433 98.4686 38.953 103.47 41.7007Z" fill="#407BFF"/>
<path d="M93.7647 57.7226L85.3189 59.4268C85.0567 59.4684 84.788 59.4248 84.5525 59.3023C84.3169 59.1798 84.1269 58.985 84.0104 58.7464L78.4496 46.5584C78.3947 46.4584 78.3646 46.3466 78.362 46.2325C78.3594 46.1185 78.3844 46.0054 78.4348 45.903C78.4852 45.8006 78.5595 45.7119 78.6515 45.6443C78.7435 45.5768 78.8504 45.5324 78.9632 45.515L87.4091 43.8108C87.6713 43.7691 87.9399 43.8127 88.1754 43.9352C88.411 44.0577 88.601 44.2526 88.7175 44.4911L94.2783 56.6791C94.3333 56.7791 94.3633 56.8909 94.3659 57.005C94.3685 57.1191 94.3435 57.2321 94.2931 57.3345C94.2428 57.4369 94.1684 57.5257 94.0764 57.5932C93.9844 57.6608 93.8775 57.7051 93.7647 57.7226Z" fill="#263238"/>
<path d="M85.1845 58.6352C85.088 58.6499 84.9892 58.6335 84.9027 58.5882C84.8162 58.5428 84.7465 58.4711 84.7036 58.3833L79.1428 46.1953C79.1222 46.1589 79.1108 46.1179 79.1095 46.0761C79.1082 46.0342 79.1171 45.9926 79.1355 45.955C79.1538 45.9173 79.181 45.8847 79.2148 45.8599C79.2486 45.8351 79.2879 45.8189 79.3293 45.8126L87.7752 44.1084C87.8709 44.0936 87.9688 44.1097 88.0547 44.1544C88.1406 44.1991 88.21 44.2701 88.2527 44.357L93.8135 56.545C93.8341 56.5817 93.8454 56.6228 93.8467 56.6648C93.8479 56.7069 93.8391 56.7486 93.8208 56.7865C93.8025 56.8243 93.7753 56.8572 93.7416 56.8824C93.7079 56.9075 93.6686 56.9242 93.6271 56.9309L85.1845 58.6352Z" fill="white"/>
<path d="M83.1306 49.1099C83.0668 49.1087 83.0046 49.0902 82.9506 49.0565C82.8965 49.0228 82.8525 48.9751 82.8234 48.9184C82.7942 48.8617 82.7809 48.7982 82.7849 48.7346C82.7889 48.671 82.81 48.6097 82.846 48.5571L84.9231 45.6132C84.979 45.5433 85.0595 45.4976 85.1481 45.4853C85.2366 45.473 85.3266 45.495 85.3994 45.5469C85.4722 45.5988 85.5224 45.6766 85.5397 45.7644C85.557 45.8521 85.54 45.9431 85.4923 46.0188L83.4184 48.9627C83.3854 49.0082 83.3421 49.0452 83.2921 49.0708C83.2421 49.0964 83.1867 49.1098 83.1306 49.1099Z" fill="#407BFF"/>
<path d="M89.0285 45.78C89.0809 47.0295 87.1117 49.9179 89.5454 51.5927C89.8299 54.1146 90.1996 56.5974 90.8538 60.7516H103.555C102.201 56.1721 103.146 53.0941 104.828 45.0505C104.919 44.6101 104.918 44.1553 104.822 43.7156C104.727 43.2759 104.54 42.8612 104.274 42.4982C104.009 42.1353 103.67 41.8322 103.279 41.6086C102.889 41.3851 102.456 41.246 102.008 41.2005C101.501 41.1482 100.965 41.1056 100.415 41.0795C98.4952 40.9436 96.5681 40.9436 94.6482 41.0795C94.0234 41.1383 93.379 41.2168 92.7641 41.3019C91.6981 41.4547 90.7265 41.9969 90.0367 42.8238C89.3469 43.6508 88.9877 44.7039 89.0285 45.78Z" fill="#407BFF"/>
<path d="M90.5166 59.0377C90.4748 59.3816 90.5559 59.7292 90.7456 60.019C94.8889 59.3006 99.1149 59.1904 103.29 59.6919C103.365 59.3876 103.343 59.0675 103.228 58.776C103.228 58.776 97.8568 57.8732 90.5166 59.0377Z" fill="#263238"/>
<path d="M84.0171 51.5307L84.3442 48.855L81.7012 49.6498C82.0066 50.552 82.3862 51.4273 82.8362 52.2667L84.0171 51.5307Z" fill="#FFC3BD"/>
<path d="M83.0945 47.615L81.9857 48.1417C81.8716 48.1957 81.7768 48.2832 81.7137 48.3925C81.6506 48.5017 81.6222 48.6276 81.6324 48.7534L81.7011 49.6496L84.3441 48.8548L83.9319 47.9225C83.8978 47.8468 83.8489 47.7787 83.7881 47.7221C83.7273 47.6655 83.6558 47.6216 83.5778 47.593C83.4998 47.5643 83.4169 47.5515 83.334 47.5553C83.251 47.5591 83.1696 47.5794 83.0945 47.615Z" fill="#FFC3BD"/>
<path d="M93.7847 45.1094C93.6571 45.6033 93.5361 46.0253 93.3955 46.4701C93.2548 46.915 93.1109 47.3435 92.9604 47.7785C92.6497 48.6388 92.3062 49.4926 91.9398 50.3332C91.5735 51.1739 91.1646 52.008 90.7263 52.8258C90.288 53.6436 89.8006 54.4417 89.2837 55.2267L89.2183 55.3281C89.0882 55.5258 88.9155 55.6918 88.7128 55.8141C88.5102 55.9363 88.2828 56.0117 88.0473 56.0347C87.2872 56.1037 86.5216 55.9916 85.8131 55.7076C85.163 55.4348 84.5769 55.0293 84.0926 54.5169C83.67 54.0638 83.3142 53.5527 83.036 52.9992C82.9055 52.7376 82.7898 52.4689 82.6893 52.1945C82.5901 51.9119 82.5082 51.6235 82.444 51.3309C82.4007 51.1264 82.426 50.9133 82.5159 50.7245C82.6058 50.5358 82.7553 50.3819 82.9414 50.2866C83.1275 50.1913 83.3398 50.16 83.5455 50.1974C83.7512 50.2348 83.9388 50.3388 84.0795 50.4935L84.2071 50.6407C84.3215 50.7716 84.4753 50.9678 84.6159 51.1281C84.7566 51.2884 84.9071 51.4552 85.0575 51.6024C85.3336 51.8815 85.6422 52.1264 85.9767 52.3319C86.2353 52.4993 86.5262 52.6107 86.8304 52.659C87.0749 52.6897 87.323 52.6707 87.5599 52.6034L86.3234 53.408C86.716 52.6851 87.0889 51.9491 87.4356 51.187C87.7823 50.4248 88.1127 49.6561 88.4169 48.8711C88.7211 48.086 89.0188 47.2944 89.2936 46.4963L89.6926 45.2958C89.8202 44.9033 89.9543 44.4813 90.0623 44.1248V44.0822C90.1989 43.5916 90.5248 43.1754 90.9683 42.9251C91.4118 42.6749 91.9366 42.611 92.4272 42.7477C92.9178 42.8843 93.334 43.2102 93.5843 43.6537C93.8346 44.0973 93.8985 44.622 93.7618 45.1126L93.7847 45.1094Z" fill="#FFC3BD"/>
<path d="M91.7007 41.5702C90.1241 42.3029 88.5638 43.7553 87.9292 47.1899C88.3479 48.5605 92.6264 50.8404 92.6264 50.8404C92.6264 50.8404 97.0882 39.7188 91.7007 41.5702Z" fill="#407BFF"/>
<path d="M91.776 33.2026C91.8251 33.4479 91.7335 33.6769 91.5732 33.7063C91.4129 33.7358 91.2461 33.5657 91.1905 33.3171C91.1349 33.0685 91.233 32.8428 91.3933 32.8101C91.5536 32.7773 91.7269 32.954 91.776 33.2026Z" fill="#263238"/>
<path d="M91.4689 32.8102L90.8408 32.7578C90.8408 32.7578 91.2366 33.1602 91.4689 32.8102Z" fill="#263238"/>
<path d="M91.727 33.4775C91.6201 34.0853 91.4296 34.6753 91.1611 35.2308C91.3041 35.297 91.4599 35.3313 91.6175 35.3313C91.775 35.3313 91.9308 35.297 92.0738 35.2308L91.727 33.4775Z" fill="#ED847E"/>
<path d="M91.6649 35.0278C91.3465 35.0109 91.0453 34.8783 90.8177 34.6549C90.454 34.3113 90.1915 33.8746 90.0588 33.3922C89.7481 32.2932 90.0785 31.2333 90.7916 31.0338C90.9864 30.9904 91.1892 30.9977 91.3805 31.0549C91.5717 31.1122 91.7451 31.2175 91.8841 31.3609C92.2531 31.7126 92.517 32.1599 92.6462 32.653C92.9537 33.7521 92.6266 34.8086 91.9135 35.0082C91.832 35.026 91.7483 35.0326 91.6649 35.0278ZM91.0369 31.1385C90.9685 31.1389 90.9004 31.1477 90.8341 31.1647C90.2093 31.3413 89.9313 32.3095 90.2158 33.3203C90.3352 33.7836 90.5823 34.2041 90.9289 34.5338C91.0463 34.6605 91.1944 34.7547 91.3589 34.8074C91.5233 34.8602 91.6986 34.8696 91.8677 34.8348C92.4958 34.6581 92.7738 33.6932 92.4892 32.6792C92.3668 32.2171 92.1202 31.7974 91.7761 31.4656C91.5767 31.2731 91.3138 31.1603 91.0369 31.1483V31.1385Z" fill="#263238"/>
<path d="M90.9386 31.9627C90.9193 31.9645 90.8998 31.9619 90.8817 31.9551C90.8636 31.9483 90.8472 31.9375 90.8339 31.9234C90.8067 31.8953 90.7915 31.8578 90.7915 31.8187C90.7915 31.7797 90.8067 31.7421 90.8339 31.7141C90.9907 31.5388 91.187 31.4034 91.4066 31.3192C91.6262 31.235 91.8627 31.2044 92.0965 31.2299C92.1354 31.2371 92.17 31.2593 92.1926 31.2918C92.2153 31.3242 92.2242 31.3643 92.2175 31.4033C92.2144 31.4223 92.2075 31.4406 92.1971 31.4569C92.1868 31.4732 92.1733 31.4873 92.1575 31.4982C92.1416 31.5092 92.1237 31.5169 92.1048 31.5208C92.0859 31.5247 92.0664 31.5248 92.0474 31.5211C91.8644 31.5062 91.6803 31.5342 91.51 31.6029C91.3396 31.6716 91.1876 31.7791 91.0661 31.9169C91.0501 31.9342 91.0301 31.9473 91.0079 31.9553C90.9857 31.9633 90.9619 31.9658 90.9386 31.9627Z" fill="#263238"/>
<path d="M99.7935 30.7757C100.212 33.8505 100.448 35.1426 99.2603 36.9907C97.4645 39.7842 93.6668 39.6076 92.3518 36.7192C91.1677 34.1024 90.6803 29.5229 93.356 27.7369C96.0318 25.9509 99.3715 27.6911 99.7935 30.7757Z" fill="#FFC3BD"/>
<path d="M95.2401 37.3539C97.1602 38.2796 100.961 37.7006 102.207 34.9137C103.454 32.1268 102.165 28.2015 99.2635 27.3379C96.4079 26.494 93.8597 27.3052 93.4901 30.2328C93.1205 33.1604 93.5915 36.559 95.2401 37.3539Z" fill="#263238"/>
<path d="M90.1373 33.4354C90.1167 33.4355 90.0968 33.4278 90.0816 33.4139C90.0665 33.3999 90.0571 33.3807 90.0555 33.3602C90.0536 33.339 90.0601 33.3179 90.0736 33.3015C90.087 33.285 90.1063 33.2744 90.1274 33.2719C90.1667 33.2719 94.0527 32.8892 96.0546 33.092C96.0654 33.0932 96.0758 33.0965 96.0853 33.1018C96.0947 33.1071 96.1031 33.1142 96.1097 33.1227C96.1164 33.1312 96.1214 33.141 96.1243 33.1515C96.1272 33.1619 96.1279 33.1728 96.1266 33.1836C96.1258 33.1942 96.1228 33.2046 96.1179 33.214C96.1129 33.2235 96.1061 33.2318 96.0979 33.2385C96.0896 33.2453 96.0801 33.2502 96.0698 33.2532C96.0596 33.2561 96.0488 33.2569 96.0382 33.2555C94.0527 33.056 90.183 33.4289 90.1503 33.4354H90.1373Z" fill="#263238"/>
<path d="M90.8604 60.7358C90.8604 60.7358 90.8375 77.3757 92.1001 87.9412C92.2996 97.8624 93.4314 121.028 93.4314 121.028H95.9338C95.9338 121.028 99.8198 101.284 98.5964 89.5375C103.693 72.757 100.343 60.7522 100.343 60.7522L90.8604 60.7358Z" fill="#FFC3BD"/>
<path d="M93.333 118.98C92.6036 119.723 91.8643 121.947 89.4274 122.686C87.8474 123.164 88.4788 123.667 90.8634 123.667C93.6209 123.667 94.383 122.467 95.3153 122.467C96.2475 122.467 96.784 121.865 96.1428 119.886C94.0657 119.631 93.333 118.98 93.333 118.98Z" fill="#263238"/>
<path d="M96.349 120.762C96.4439 121.725 96.4297 122.695 96.3064 123.654H95.5508L94.6709 121.737L96.349 120.762Z" fill="#263238"/>
<path d="M94.1802 60.7358C94.1802 60.7358 99.3779 80.1463 102.322 89.1941C105.416 98.6801 108.314 120.328 108.321 121.044H110.486C110.486 121.044 112.724 103.498 108.802 89.1842C107.742 65.9597 103.568 60.7522 103.568 60.7522L94.1802 60.7358Z" fill="#FFC3BD"/>
<path d="M108.122 119.313C107.566 120.239 106.924 122.257 105.433 122.686C103.941 123.114 104.543 123.667 106.781 123.667C108.298 123.667 108.743 122.467 109.607 122.467C110.47 122.467 111.223 121.862 110.614 119.883C108.799 120.076 108.122 119.313 108.122 119.313Z" fill="#263238"/>
<path d="M110.823 120.851C110.895 121.785 110.885 122.723 110.794 123.654H109.551L108.772 121.738L110.823 120.851Z" fill="#263238"/>
<path d="M94.6282 33.7813C94.5995 34.0625 94.5111 34.3342 94.3689 34.5785C94.2268 34.8228 94.0341 35.0338 93.8038 35.1977C93.2085 35.5902 92.6524 34.9785 92.6001 34.1902C92.551 33.4804 92.8062 32.4173 93.5095 32.3486C94.2127 32.2799 94.723 33.0388 94.6282 33.7813Z" fill="#7F3E3B"/>
<path d="M102.816 35.7542C101.213 35.0019 97.1698 36.3463 94.3109 38.5215C93.7456 37.6644 93.3328 36.716 93.0908 35.7182C93.1846 36.8034 93.4439 37.8679 93.8595 38.8748C93.6207 39.0645 93.395 39.2608 93.1824 39.457C92.5772 37.9524 91.8543 34.0794 92.0015 30.9981C91.7464 30.756 91.1478 30.7985 90.7847 30.514C91.0038 26.3826 95.4557 25.2803 97.1436 25.3261C98.3679 25.3163 99.5657 25.6828 100.575 26.3761C103.018 28.1588 103.983 32.6303 102.816 35.7542Z" fill="#263238"/>
<path opacity="0.2" d="M102.816 35.7542C101.213 35.0019 97.1698 36.3463 94.3109 38.5215C93.7456 37.6644 93.3328 36.716 93.0908 35.7182C93.1846 36.8034 93.4439 37.8679 93.8595 38.8748C93.6207 39.0645 93.395 39.2608 93.1824 39.457C92.5772 37.9524 91.8543 34.0794 92.0015 30.9981C91.7464 30.756 91.1478 30.7985 90.7847 30.514C91.0038 26.3826 95.4557 25.2803 97.1436 25.3261C98.3679 25.3163 99.5657 25.6828 100.575 26.3761C103.018 28.1588 103.983 32.6303 102.816 35.7542Z" fill="white"/>
<g opacity="0.2">
<path d="M92.1948 91.5846C92.2275 92.7033 92.2635 93.8973 92.3093 95.1403C94.5308 94.6938 96.709 94.0535 98.8187 93.2267C98.7958 92.1603 98.7402 91.1234 98.6552 90.1421C96.5546 90.8351 94.3906 91.3183 92.1948 91.5846Z" fill="black"/>
<path d="M108.602 85.625C106.543 86.8399 104.402 87.9099 102.194 88.8274C102.234 88.9451 102.27 89.0629 102.309 89.1774C102.531 89.8578 102.75 90.6036 102.963 91.3984C104.949 90.4272 106.876 89.3415 108.736 88.147C108.704 87.2813 108.659 86.4406 108.602 85.625Z" fill="black"/>
</g>
<path d="M90.8599 60.7352C90.8599 60.7352 90.5786 73.79 91.5534 93.4262C100.752 92.7262 109.685 86.9069 109.685 86.9069C109.685 86.9069 109.417 66.1815 103.561 60.7385C100.254 59.852 90.9254 60.4375 90.8599 60.7352Z" fill="#263238"/>
<path d="M34.0028 68.4389C33.9731 68.438 33.944 68.4301 33.9177 68.416C33.89 68.3996 33.8677 68.3753 33.8537 68.3462C33.8398 68.317 33.8347 68.2845 33.8392 68.2525C34.1467 66.0249 33.3584 62.6361 30.9116 60.0748C24.7555 58.6029 20.2316 54.7659 18.4816 49.542C15.4461 40.3831 22.1027 29.9157 33.3257 26.1932C44.5487 22.4707 56.1511 26.8736 59.19 36.0064C60.6619 40.4419 59.9259 45.3158 57.1161 49.7285C54.3063 54.1411 49.7758 57.5496 44.359 59.3552C42.3657 60.0183 40.2999 60.4389 38.2061 60.608C38.6117 64.952 34.1467 68.367 34.1009 68.403C34.0723 68.4241 34.0383 68.4366 34.0028 68.4389ZM41.4085 25.1857C38.7006 25.1938 36.0116 25.6356 33.4434 26.4941C22.3807 30.1675 15.8386 40.455 18.8055 49.421C20.5097 54.5468 24.9649 58.3085 31.0327 59.7477C31.064 59.7543 31.0925 59.7703 31.1144 59.7935C33.5187 62.2992 34.3855 65.5768 34.2056 67.8829C35.2065 67.0258 38.301 64.0492 37.8626 60.4706C37.8597 60.4486 37.8613 60.4261 37.8675 60.4047C37.8737 60.3833 37.8843 60.3634 37.8986 60.3463C37.9276 60.3125 37.9687 60.2913 38.0131 60.2875C40.1385 60.1327 42.2363 59.7129 44.2576 59.0379C49.6156 57.2585 54.0904 53.886 56.8544 49.5518C59.6185 45.2177 60.3348 40.4485 58.8923 36.1078C56.632 29.3105 49.5305 25.1857 41.4085 25.1857Z" fill="#263238"/>
<path d="M82.941 26.0326H82.9181C82.7676 26.013 79.2545 25.4798 78.0835 22.8793C76.841 23.4346 75.5363 23.8387 74.1975 24.0831C70.5012 24.7635 66.8114 24.2335 63.802 22.5849C60.7927 20.9363 58.8137 18.3587 58.2412 15.3297C57.0931 9.11471 62.3759 2.88007 70.0171 1.47024C77.6582 0.0604178 84.8153 3.98896 85.9635 10.2236C86.6177 13.7792 85.234 17.4199 82.1625 20.22C81.5802 22.4443 82.1919 24.6097 83.0588 25.7808C83.077 25.8051 83.0881 25.834 83.0908 25.8642C83.0935 25.8945 83.0878 25.9249 83.0742 25.952C83.0606 25.9792 83.0397 26.002 83.0139 26.018C82.9881 26.034 82.9583 26.0424 82.9279 26.0424L82.941 26.0326ZM78.1685 22.4933C78.189 22.4885 78.2102 22.4885 78.2307 22.4933C78.2516 22.5012 78.2706 22.5135 78.2864 22.5293C78.3022 22.545 78.3144 22.564 78.3223 22.5849C79.1466 24.6457 81.6293 25.398 82.5746 25.6172C82.0959 24.7828 81.7865 23.8621 81.6642 22.9078C81.5418 21.9536 81.6089 20.9847 81.8616 20.0564C81.8681 20.0252 81.8855 19.9974 81.9106 19.9779C84.92 17.2531 86.2808 13.7073 85.6462 10.2498C84.5275 4.19177 77.5503 0.384253 70.0825 1.74501C62.6146 3.10577 57.4496 9.17032 58.5651 15.225C59.1048 18.169 61.0184 20.6485 63.9492 22.2546C66.8801 23.8606 70.5077 24.384 74.1288 23.7167C75.4958 23.4658 76.8264 23.0461 78.09 22.4672C78.1179 22.4696 78.1448 22.4785 78.1685 22.4933Z" fill="#263238"/>
<path d="M40.4595 55.6066C40.1946 55.6066 39.9296 55.6066 39.6614 55.6066C36.8188 55.4986 33.8226 54.8575 30.2309 53.5818C28.8734 53.1009 27.3491 52.486 26.4071 51.2528C26.1121 50.8581 25.8712 50.4258 25.6907 49.9672C25.0821 48.4433 24.8858 46.786 25.1215 45.1621C25.0888 44.8121 25.0561 44.4621 25.0267 44.1153C25.0103 43.906 24.9907 43.6934 24.9743 43.484L24.9155 42.8723C24.7225 40.8541 24.5229 38.7671 25.2655 36.8732C26.008 34.9792 27.4865 33.7624 28.5954 33.0657C30.0643 32.2084 31.653 31.5756 33.309 31.1881C34.5716 30.861 35.7721 30.5928 36.9268 30.3965C37.1251 30.2838 37.3318 30.1864 37.545 30.1054C38.6703 29.6736 39.9198 29.7194 40.9894 29.8241C41.2969 29.8535 41.6142 29.8895 41.9381 29.9385C42.324 29.9385 42.7035 29.9385 43.0797 29.968C43.8739 30.0285 44.6481 30.2469 45.3569 30.6103C46.0657 30.9737 46.695 31.4748 47.2077 32.0844C47.8279 32.7983 48.2988 33.6292 48.5926 34.5281C48.8864 35.427 48.9972 36.3757 48.9185 37.3181C50.8246 39.0815 52.1741 41.3633 52.8012 43.8831C57.2368 43.2092 62.0649 41.155 65.4406 38.3484C70.4192 34.2138 74.1972 30.004 77.6613 21.823C80.4482 15.2417 80.5398 10.6589 77.9492 7.81637C76.4825 6.20965 74.438 5.25097 72.2648 5.15099C70.0917 5.05101 67.9677 5.81792 66.3598 7.28319C64.83 8.67868 63.9171 10.6247 63.822 12.6932C63.727 14.7617 64.4574 16.7832 65.8528 18.3132C67.1813 19.7692 69.0337 20.6381 71.0026 20.7289C72.9715 20.8196 74.896 20.1249 76.3529 18.7973C77.7374 17.5327 78.5633 15.7703 78.6491 13.8972C78.735 12.024 78.0738 10.1934 76.8108 8.8075C75.6076 7.49104 73.9312 6.70583 72.1496 6.62426C70.368 6.54269 68.6268 7.17143 67.3084 8.37245C66.0563 9.51745 65.3094 11.1123 65.2316 12.8072C65.1537 14.5021 65.7512 16.1587 66.893 17.4137C67.9814 18.6067 69.4992 19.3186 71.1125 19.3928C72.7257 19.467 74.3024 18.8975 75.4959 17.8095C76.6299 16.7747 77.3066 15.332 77.3771 13.7985C77.4476 12.265 76.9063 10.7663 75.872 9.63181C74.8862 8.55252 73.5124 7.90847 72.0522 7.84101C70.5921 7.77355 69.1648 8.2882 68.0836 9.27199C67.0592 10.2119 66.4494 11.5199 66.3881 12.9088C66.3268 14.2978 66.8189 15.6544 67.7565 16.6809C68.1978 17.1654 68.7302 17.5583 69.3233 17.8369C69.9165 18.1156 70.5587 18.2747 71.2133 18.305C71.8679 18.3354 72.5221 18.2365 73.1385 18.014C73.7549 17.7914 74.3214 17.4496 74.8057 17.008C75.7347 16.1597 76.289 14.9773 76.3467 13.7205C76.4043 12.4637 75.9607 11.2355 75.1131 10.3056C74.714 9.86747 74.2324 9.51225 73.6959 9.2603C73.1595 9.00834 72.5786 8.86458 71.9865 8.83724C71.3944 8.8099 70.8028 8.89951 70.2453 9.10096C69.6879 9.3024 69.1757 9.61172 68.7378 10.0112C67.9007 10.7755 67.3994 11.8396 67.343 12.9718C67.2867 14.1039 67.6798 15.2125 68.4369 16.0562C69.168 16.8546 70.1858 17.3309 71.2673 17.3805C72.3487 17.4302 73.4058 17.0492 74.2071 16.3211C74.9664 15.6262 75.4193 14.6586 75.4665 13.6304C75.5137 12.6022 75.1514 11.5971 74.4589 10.8356C74.132 10.4773 73.7378 10.1869 73.2987 9.98104C72.8596 9.77515 72.3842 9.65777 71.8997 9.63559C71.4152 9.61342 70.9311 9.68689 70.4751 9.85181C70.019 10.0167 69.5998 10.2699 69.2416 10.5968C68.9008 10.9073 68.6245 11.282 68.4286 11.6994C68.2328 12.1169 68.1212 12.5688 68.1002 13.0294C68.0793 13.49 68.1494 13.9503 68.3065 14.3837C68.4636 14.8172 68.7047 15.2155 69.0159 15.5557C69.6128 16.2086 70.4443 16.598 71.328 16.6385C72.2117 16.679 73.0754 16.3672 73.7295 15.7716C74.3509 15.2045 74.7217 14.4139 74.7603 13.5736C74.799 12.7332 74.5023 11.9119 73.9356 11.2902C73.3964 10.7025 72.6466 10.3519 71.8498 10.3152C71.0531 10.2784 70.2742 10.5584 69.6832 11.094C69.4029 11.347 69.1754 11.6529 69.0136 11.9941C68.8519 12.3353 68.7591 12.7051 68.7405 13.0822C68.722 13.4594 68.7781 13.8365 68.9056 14.1919C69.0331 14.5473 69.2296 14.874 69.4836 15.1534C69.9706 15.6865 70.6492 16.0045 71.3705 16.0376C72.0917 16.0707 72.7967 15.8162 73.3304 15.33C73.8362 14.8664 74.1378 14.2213 74.169 13.5359C74.2003 12.8505 73.9587 12.1807 73.4972 11.6729C73.0573 11.1917 72.4442 10.9048 71.7928 10.8754C71.1414 10.8459 70.505 11.0763 70.0234 11.5159C69.7968 11.7224 69.6132 11.9716 69.483 12.2491C69.3528 12.5266 69.2785 12.8271 69.2646 13.1334C69.2506 13.4396 69.2971 13.7456 69.4015 14.0338C69.5059 14.3221 69.6661 14.5869 69.8729 14.8132C70.069 15.0286 70.3055 15.2034 70.5692 15.3274C70.8328 15.4514 71.1182 15.5223 71.4092 15.536C71.7003 15.5497 71.9911 15.5059 72.2652 15.4071C72.5392 15.3083 72.7912 15.1565 73.0066 14.9604C73.4191 14.5829 73.6651 14.0573 73.6909 13.4988C73.7166 12.9402 73.52 12.3943 73.144 11.9804C72.7866 11.5872 72.2878 11.3519 71.757 11.3262C71.4944 11.3135 71.2318 11.3532 70.9847 11.443C70.7376 11.5329 70.5109 11.6711 70.3178 11.8496C70.2942 11.8714 70.2632 11.8836 70.2311 11.8836C70.1989 11.8836 70.168 11.8714 70.1444 11.8496C70.1218 11.8264 70.1092 11.7953 70.1092 11.7629C70.1092 11.7305 70.1218 11.6994 70.1444 11.6762C70.3631 11.4746 70.6198 11.3186 70.8995 11.2175C71.1792 11.1164 71.4763 11.0722 71.7734 11.0874C72.0675 11.0972 72.3568 11.1656 72.6241 11.2886C72.8915 11.4116 73.1316 11.5868 73.3304 11.8038C73.5388 12.0319 73.7002 12.2987 73.8055 12.5892C73.9107 12.8797 73.9577 13.188 73.9437 13.4967C73.9297 13.8053 73.8551 14.1081 73.724 14.3879C73.593 14.6677 73.4081 14.9189 73.1799 15.1272C72.6963 15.567 72.058 15.7971 71.405 15.767C70.752 15.737 70.1375 15.4492 69.6963 14.9669C69.2358 14.4604 68.995 13.7919 69.0269 13.1081C69.0588 12.4243 69.3607 11.7811 69.8664 11.3197C70.3969 10.8374 71.097 10.5853 71.8132 10.6184C72.5293 10.6515 73.2032 10.9672 73.687 11.4963C74.1919 12.0526 74.4558 12.7863 74.4208 13.5367C74.3859 14.2872 74.0549 14.9932 73.5005 15.5001C72.9182 16.0293 72.1499 16.3062 71.3639 16.27C70.5779 16.2339 69.8382 15.8876 69.307 15.3071C68.7523 14.6966 68.4621 13.8911 68.5001 13.067C68.5381 12.243 68.9012 11.4676 69.5098 10.9108C70.15 10.331 70.9936 10.0279 71.8565 10.0677C72.7193 10.1076 73.5314 10.4871 74.1155 11.1234C74.4182 11.4549 74.6526 11.8428 74.8053 12.2649C74.958 12.687 75.0259 13.1351 75.0053 13.5836C74.9846 14.032 74.8757 14.4719 74.6849 14.8783C74.494 15.2846 74.225 15.6493 73.893 15.9515C73.1904 16.5899 72.2639 16.9248 71.3154 16.8831C70.367 16.8415 69.4734 16.4267 68.8294 15.7291C68.1593 14.9932 67.8087 14.0213 67.8547 13.0271C67.9007 12.0328 68.3395 11.0975 69.0748 10.4267C69.456 10.077 69.9025 9.80605 70.3888 9.62951C70.8751 9.45298 71.3914 9.3743 71.9082 9.39801C72.425 9.42173 72.932 9.54735 73.4 9.76767C73.8681 9.98799 74.288 10.2987 74.6356 10.6818C75.3725 11.4906 75.7582 12.5588 75.7079 13.6518C75.6576 14.7448 75.1754 15.7732 74.3673 16.5108C73.5189 17.2834 72.3986 17.6877 71.2523 17.635C70.1061 17.5822 69.0276 17.0768 68.2537 16.2295C67.4441 15.3402 67.0204 14.166 67.0756 12.9646C67.1308 11.7633 67.6604 10.6329 68.5481 9.82153C69.0096 9.40009 69.5495 9.07373 70.1372 8.86108C70.7248 8.64844 71.3486 8.55369 71.9729 8.58225C72.5971 8.6108 73.2097 8.7621 73.7754 9.02751C74.3412 9.29291 74.8491 9.66721 75.2701 10.129C75.7117 10.6132 76.0535 11.1797 76.2761 11.7961C76.4986 12.4125 76.5975 13.0667 76.5671 13.7214C76.5368 14.376 76.3777 15.0182 76.099 15.6113C75.8204 16.2045 75.4275 16.7369 74.943 17.1781C73.9192 18.1148 72.5653 18.6065 71.179 18.5451C69.7927 18.4838 68.4876 17.8744 67.5504 16.851C66.5706 15.7746 66.0579 14.3535 66.1247 12.8995C66.1916 11.4454 66.8326 10.0773 67.907 9.09535C68.4653 8.58561 69.1185 8.19088 69.8295 7.93373C70.5404 7.67657 71.295 7.56204 72.0502 7.59667C72.8054 7.6313 73.5464 7.81442 74.2308 8.13556C74.9152 8.45669 75.5296 8.90955 76.0389 9.46825C76.5739 10.0538 76.9882 10.739 77.2582 11.4847C77.5282 12.2304 77.6486 13.0221 77.6125 13.8144C77.5763 14.6067 77.3843 15.3841 77.0475 16.1022C76.7107 16.8202 76.2357 17.4648 75.6496 17.9992C74.4079 19.1317 72.7673 19.7248 71.0885 19.6481C69.4097 19.5714 67.83 18.8313 66.6967 17.5903C65.5145 16.2857 64.897 14.5661 64.9791 12.8075C65.0612 11.0489 65.8364 9.39433 67.135 8.20562C68.5026 6.96098 70.3081 6.30982 72.1553 6.39506C74.0025 6.48031 75.7403 7.295 76.9875 8.6603C78.2937 10.0942 78.9771 11.9882 78.8876 13.9258C78.798 15.8634 77.9428 17.6862 76.5099 18.9936C75.0059 20.3646 73.019 21.0821 70.9861 20.9882C68.9532 20.8944 67.0408 19.9969 65.6696 18.4931C64.2314 16.9152 63.4787 14.8308 63.5768 12.698C63.675 10.5653 64.616 8.55881 66.193 7.11963C67.0126 6.37159 67.9716 5.7924 69.0151 5.41516C70.0587 5.03791 71.1664 4.87001 72.2749 4.92105C73.3834 4.97208 74.4709 5.24105 75.4754 5.71259C76.4799 6.18413 77.3816 6.84899 78.1291 7.66917C80.7917 10.587 80.7099 15.2548 77.8837 21.9343C74.3902 30.1479 70.5991 34.3741 65.5944 38.5382C62.1925 41.3676 57.3284 43.4448 52.8372 44.1219C52.9519 44.6312 53.0371 45.1467 53.0924 45.6658C53.2592 46.9524 53.1202 48.2603 52.6868 49.4831C52.0914 51.0042 50.8124 52.3748 48.9905 53.4509C46.6026 54.8673 43.6619 55.6066 40.4595 55.6066ZM34.1562 54.5173C35.9571 54.9857 37.8024 55.2631 39.6614 55.3449C43.1287 55.4757 46.3115 54.7463 48.8727 53.2383C50.1092 52.5089 51.7381 51.2495 52.4709 49.3948C52.8906 48.2085 53.024 46.9397 52.8601 45.692C52.8075 45.1759 52.7234 44.6636 52.6082 44.1578C51.6788 44.2937 50.741 44.3636 49.8017 44.3672C49.6077 45.268 49.352 46.1544 49.0363 47.02C48.9643 47.2359 48.8858 47.4485 48.8073 47.6742C48.6358 48.6037 48.2505 49.4805 47.682 50.2355C46.7892 51.3744 45.6524 52.2988 44.3554 52.9406C41.2253 54.5848 37.6367 55.1396 34.1562 54.5173ZM25.3603 45.149C25.4419 46.3935 25.7178 47.6175 26.1781 48.7766C27.251 51.2364 29.7403 53.1467 33.0048 54.0103C36.3354 54.8767 39.8587 54.6226 43.0306 53.2874L42.6806 53.3822C40.9175 53.8402 39.0628 53.8827 37.3226 53.8631C34.8922 53.8369 32.3342 53.6668 30.1001 52.6135C29.1548 52.1687 27.9477 51.3705 27.5585 50.0915C27.3066 49.2574 27.4473 48.3677 27.5977 47.599C27.7024 47.0713 27.8202 46.5544 27.951 46.0485C27.5421 43.6901 27.9248 41.0209 29.0926 38.3681C28.9313 38.4691 28.7751 38.5783 28.6248 38.6952C27.9294 39.2668 27.3498 39.9663 26.9173 40.7559C26.1143 42.1027 25.5883 43.5962 25.3701 45.149H25.3603ZM25.2687 46.3789C25.2432 47.5692 25.4602 48.7523 25.9066 49.856C26.08 50.295 26.3098 50.7096 26.5902 51.0892C27.4931 52.2668 28.9781 52.8654 30.3029 53.3364L31.0291 53.5883C28.6379 52.5514 26.8356 50.8962 25.9524 48.8747C25.622 48.075 25.3955 47.2362 25.2785 46.3789H25.2687ZM28.2127 46.0518C28.3802 47.0099 28.6994 47.9352 29.158 48.7929C30.6725 51.5832 33.8356 53.4575 37.2146 53.5654C40.3483 53.6635 43.6325 52.257 45.9909 49.82C46.4696 49.3352 46.893 48.7987 47.2535 48.2205C47.3517 48.0569 47.4432 47.8901 47.5283 47.72C47.0435 48.452 46.3951 49.0611 45.6344 49.4994C44.8737 49.9376 44.0214 50.193 43.1451 50.2453C42.8851 50.254 42.6249 50.2431 42.3666 50.2126C40.3674 51.0187 38.1936 51.2937 36.0567 51.0107C32.8151 50.6378 30.3618 49.0971 29.4851 46.8925C28.9585 45.5644 29.0468 44.1153 29.279 42.9018C28.8472 43.9266 28.4908 44.9816 28.2127 46.0583V46.0518ZM48.526 45.7705C48.2878 46.6731 47.9303 47.54 47.4629 48.3481C47.0889 48.9402 46.65 49.4887 46.1544 49.9836C44.4396 51.7663 42.2405 53.0081 39.8282 53.5556C40.7683 53.5017 41.7013 53.3604 42.6152 53.1336C43.9236 52.8065 45.7881 52.0476 47.0638 50.4514C47.7129 49.5823 48.2187 48.6149 48.5619 47.5859C48.644 47.1125 48.6529 46.6293 48.5881 46.1532C48.5816 46.0354 48.5489 45.9079 48.526 45.777V45.7705ZM28.0753 46.5981C27.9946 46.9426 27.9194 47.2893 27.8496 47.6383C27.7024 48.3775 27.565 49.2345 27.8038 50.013C28.1669 51.207 29.315 51.9757 30.2146 52.3846C31.7795 53.0687 33.4574 53.4579 35.1637 53.5327C33.8646 53.2324 32.6418 52.6665 31.5722 51.8704C30.5025 51.0744 29.6093 50.0656 28.9487 48.9074C28.5566 48.182 28.2629 47.4076 28.0753 46.6046V46.5981ZM29.7991 41.7569V41.7863C29.4393 43.1144 29.0403 45.0574 29.7239 46.8009C30.5646 48.9205 32.9459 50.399 36.0927 50.7687C38.0539 51.0239 40.0478 50.8075 41.9086 50.1373C41.5088 50.0524 41.1194 49.9241 40.7474 49.7546C40.3761 49.6961 40.0129 49.5951 39.6647 49.4537C38.6214 49.0075 37.7849 48.1839 37.3226 47.1476C37.172 47.2116 37.0136 47.2556 36.8516 47.2784C36.7428 47.2896 36.6332 47.2896 36.5245 47.2784C35.8491 47.4598 35.1471 47.5207 34.4506 47.4583C32.5894 47.2686 30.5548 45.7541 30.5253 43.6312C30.5024 42.5027 31.052 41.3055 32.1609 40.0723C33.437 38.6509 35.0152 37.5332 36.7796 36.8012C35.5305 36.7885 34.2826 36.886 33.0506 37.0924C31.7282 38.469 30.631 40.0453 29.7991 41.7634V41.7569ZM42.8343 50C42.9357 50 43.0339 50 43.1353 50C44.1971 49.9383 45.2169 49.5637 46.0662 48.9234C46.9155 48.2831 47.5563 47.4057 47.9077 46.4018C48.0778 45.8817 48.2087 45.1392 47.8783 44.534C47.413 46.1033 46.4892 47.4976 45.2255 48.5378C44.9397 48.7632 44.6343 48.9625 44.3128 49.1331C43.9159 49.4245 43.497 49.6848 43.06 49.9116L42.8343 50ZM41.6142 49.8168C41.8491 49.8826 42.0885 49.9307 42.3306 49.9607C42.5399 49.8724 42.7427 49.7743 42.9423 49.6729L43.0698 49.6042C42.5961 49.7396 42.1068 49.8133 41.6142 49.8233V49.8168ZM40.803 49.5158C41.965 49.6743 43.1473 49.459 44.1787 48.9009C45.6977 47.81 46.7895 46.2244 47.2666 44.4163C47.295 44.2985 47.3211 44.1775 47.3451 44.0532C46.9887 43.9169 46.645 43.7495 46.318 43.5527C45.7299 43.4906 45.1364 43.5038 44.5516 43.5919H44.46C43.5376 43.6901 42.5301 43.7751 41.4866 43.7915C41.0157 44.4235 40.4661 44.9929 39.8511 45.4859C39.2997 45.9466 38.6998 46.3459 38.0618 46.6766C38.0618 46.6995 38.0815 46.7256 38.0946 46.7518C38.6175 47.9826 39.5843 48.9717 40.803 49.5224V49.5158ZM37.5319 47.0364C37.9685 48.0207 38.7623 48.8028 39.753 49.2247L39.8969 49.2836C38.9989 48.6897 38.2958 47.8443 37.8754 46.8532L37.8558 46.8041C37.7538 46.8929 37.6443 46.9728 37.5287 47.0429L37.5319 47.0364ZM37.3945 36.8372C35.4441 37.5393 33.6993 38.7164 32.3179 40.262C31.2548 41.4461 30.7281 42.5877 30.7478 43.6541C30.7837 45.6396 32.7104 47.0625 34.4637 47.2523C34.9581 47.2998 35.4567 47.2788 35.9455 47.1901C35.4746 47.0039 35.0734 46.6758 34.7973 46.2513C34.4028 45.5736 34.1783 44.8104 34.1431 44.027C34.0254 42.7186 34.0613 40.3013 35.6314 38.741C36.6445 37.7973 37.9861 37.2867 39.3703 37.3181C40.1521 37.3181 41.2282 37.4849 41.8824 38.2667C42.0462 38.4644 42.1806 38.6848 42.2815 38.9209C42.4558 39.3095 42.5663 39.7237 42.6086 40.1475C43.5185 39.7854 44.4961 39.6247 45.4741 39.6765C45.1617 39.2128 44.7748 38.8039 44.3292 38.4662C43.7968 38.1229 43.2125 37.8677 42.5988 37.7106C40.9063 37.204 39.1566 36.9127 37.3913 36.8438L37.3945 36.8372ZM39.3735 37.5438C38.049 37.5091 36.7635 37.994 35.7917 38.8947C34.2936 40.383 34.2641 42.7219 34.3786 43.9845C34.4096 44.7282 34.6206 45.4534 34.9936 46.0976C35.1568 46.3542 35.3738 46.5723 35.6297 46.7366C35.8856 46.901 36.1741 47.0078 36.4754 47.0495C36.7044 46.9873 36.9366 46.9121 37.1688 46.8238C37.0563 46.5069 36.9837 46.1773 36.953 45.8424C36.6106 45.8132 36.2807 45.7003 35.9921 45.5138C35.7035 45.3273 35.4651 45.0729 35.2978 44.7728C35.1795 44.5266 35.1032 44.2624 35.0721 43.991C34.9965 43.4304 35.0483 42.8599 35.2235 42.322C35.3987 41.7841 35.6929 41.2926 36.0842 40.884C36.4755 40.4755 36.9538 40.1603 37.4836 39.962C38.0135 39.7637 38.5812 39.6874 39.1446 39.7386C39.2165 39.6798 39.295 39.6274 39.3703 39.5718C40.0539 39.1008 40.6787 38.9405 41.2053 39.1008C41.4641 39.1908 41.6968 39.3428 41.8833 39.5435C42.0697 39.7442 42.2042 39.9875 42.275 40.2522L42.3568 40.2228C42.3271 39.8046 42.2276 39.3944 42.0624 39.0092C41.9709 38.7911 41.8486 38.5873 41.6993 38.4041C41.0712 37.655 39.9721 37.5405 39.3703 37.5405L39.3735 37.5438ZM47.5675 44.1382C47.5446 44.256 47.5185 44.3705 47.4923 44.4817C47.2883 45.2953 46.95 46.0691 46.4914 46.7714C47.0184 45.997 47.4212 45.1449 47.6853 44.2462C47.6486 44.2034 47.6093 44.163 47.5675 44.1251V44.1382ZM37.1983 45.8752C37.2287 46.1674 37.2934 46.4551 37.3913 46.7322C37.5058 46.6864 37.617 46.634 37.7184 46.5817H37.738C37.6619 46.3578 37.6039 46.128 37.5646 45.8948C37.4466 45.894 37.3287 45.8875 37.2114 45.8752H37.1983ZM48.647 45.3125C48.7311 45.5808 48.7934 45.8553 48.8334 46.1336C48.8602 46.3244 48.8755 46.5166 48.8792 46.7093C49.1461 45.943 49.3646 45.1608 49.5335 44.3672C49.311 44.3672 49.0886 44.3672 48.8792 44.3443C48.8498 44.4751 48.8171 44.606 48.7844 44.7336C48.7549 44.9233 48.7059 45.1163 48.6568 45.3125H48.647ZM37.8231 45.8588C37.8533 46.0311 37.8937 46.2015 37.9441 46.3691C38.1131 46.1783 38.2642 45.9725 38.3955 45.7541C38.2109 45.8033 38.0228 45.8383 37.8329 45.8588H37.8231ZM38.739 45.6462C38.6242 45.8557 38.4964 46.0578 38.3562 46.2513C38.8254 45.9756 39.2717 45.6628 39.6908 45.3158C39.9558 45.0999 40.1979 44.8775 40.4236 44.6616C39.9384 45.0797 39.3852 45.4116 38.788 45.6429L38.739 45.6462ZM37.1819 45.6233C37.304 45.6298 37.4263 45.6298 37.5483 45.6233V45.6037C37.4998 44.876 37.6538 44.1491 37.9932 43.5036L37.859 43.4611C37.5917 43.8366 37.3955 44.2579 37.2801 44.7041C37.2076 45.0048 37.1779 45.3143 37.1917 45.6233H37.1819ZM48.2872 45.0116C48.3181 45.2118 48.3247 45.415 48.3068 45.6167C48.3362 45.5186 48.3657 45.4172 48.3919 45.3158C48.369 45.2144 48.333 45.113 48.297 45.0116H48.2872ZM38.2319 43.5658C37.8965 44.1843 37.7434 44.8853 37.7903 45.5873V45.6135C38.0564 45.5875 38.3187 45.5316 38.5721 45.4466L38.6016 45.391C38.8827 44.8526 39.1233 44.2938 39.3212 43.7195C38.9941 43.6868 38.667 43.6443 38.3399 43.5887L38.2319 43.5658ZM38.824 39.9676C38.3203 39.964 37.8217 40.0687 37.362 40.2745C36.9023 40.4803 36.4921 40.7825 36.1593 41.1606C35.8265 41.5386 35.5788 41.9838 35.433 42.4659C35.2872 42.9481 35.2467 43.4559 35.3142 43.955C35.3426 44.199 35.4112 44.4366 35.517 44.6583C35.663 44.9143 35.868 45.1318 36.1149 45.2928C36.3617 45.4538 36.6434 45.5536 36.9366 45.584C36.9277 45.2669 36.9618 44.95 37.038 44.642C37.1582 44.1809 37.3586 43.7447 37.6301 43.3532C37.4879 43.2763 37.3684 43.1635 37.2833 43.0261C37.0936 42.699 37.146 42.2606 37.4338 41.7176C37.7996 41.0529 38.2815 40.4591 38.8567 39.9643L38.824 39.9676ZM29.4524 38.1522C29.4164 38.234 29.3805 38.3157 29.3412 38.3975C28.3086 40.5962 27.8849 43.0317 28.1146 45.4499C28.4893 44.1519 28.9786 42.8898 29.5767 41.6784C29.9727 40.2465 30.5039 38.8555 31.1632 37.5241C30.5754 37.6766 30.0053 37.8904 29.4622 38.162L29.4524 38.1522ZM39.5698 43.7326C39.3905 44.2713 39.1718 44.7961 38.9156 45.3027C39.6916 44.9634 40.378 44.4482 40.9208 43.798C40.4857 43.8013 40.0441 43.7817 39.5796 43.7424L39.5698 43.7326ZM48.2676 44.2854C48.3504 44.4773 48.4289 44.6736 48.5031 44.8742C48.5194 44.8055 48.5358 44.7336 48.5554 44.6649C48.575 44.5962 48.611 44.4359 48.6372 44.3181L48.4344 44.3018L48.2676 44.2854ZM36.3805 30.7432C35.4145 30.9264 34.4124 31.1532 33.3744 31.4236C31.7425 31.806 30.177 32.43 28.7295 33.275C27.6468 33.9521 26.2075 35.1363 25.4944 36.9452C24.7813 38.7541 24.9678 40.8443 25.1673 42.8331L25.2262 43.4448C25.2458 43.6574 25.2622 43.8667 25.2818 44.0793C25.2818 44.1284 25.2818 44.1775 25.2818 44.2265C25.5649 42.9591 26.0474 41.7446 26.7113 40.6284C27.1618 39.8135 27.7622 39.091 28.4809 38.4989C28.7298 38.3066 28.9946 38.1359 29.2725 37.9886C30.3552 35.6989 31.7618 34.1353 33.4595 33.3633C33.623 33.2914 33.7931 33.2227 33.9697 33.1573C34.2412 32.8302 34.5226 32.5031 34.8137 32.176C35.2831 31.6436 35.8084 31.1632 36.3805 30.7432ZM49.1049 37.8218C49.8167 39.6229 50.1033 41.5639 49.9423 43.4938C49.9162 43.7032 49.8867 43.9158 49.8507 44.1219C50.756 44.1156 51.6598 44.0478 52.5559 43.9191C51.9786 41.6118 50.7859 39.5044 49.1049 37.8218ZM48.9512 44.1022C49.1638 44.1022 49.383 44.1022 49.6054 44.1219C49.6447 43.906 49.6774 43.6868 49.7003 43.4677C49.9358 41.3349 49.419 39.2611 48.6993 37.4325L48.4475 37.2101C47.3792 36.2925 46.1682 35.5556 44.8624 35.0283C45.5686 35.6658 46.1517 36.4275 46.583 37.2755C46.6582 37.4325 46.7334 37.6026 46.8021 37.7597C47.5227 38.336 48.1072 39.0644 48.5138 39.8928C48.9203 40.7212 49.1389 41.6291 49.154 42.5518C49.1371 43.074 49.0691 43.5932 48.9512 44.1022ZM48.1661 44.0303C48.2643 44.0303 48.3624 44.0597 48.4638 44.0695L48.7026 44.0859C48.8234 43.5784 48.8924 43.06 48.9087 42.5387C48.8962 41.7323 48.7199 40.9368 48.3903 40.2008C48.0608 39.4647 47.585 38.8033 46.9918 38.2569C47.1649 38.7643 47.3059 39.2822 47.4138 39.8073C47.476 40.0919 47.525 40.37 47.5708 40.6382C47.8422 40.9139 48.044 41.2503 48.1596 41.6195C48.3172 42.2654 48.3082 42.9407 48.1334 43.5821C48.1138 43.6672 48.0942 43.7555 48.0713 43.8438C48.104 43.8896 48.1334 43.9616 48.1661 44.0303ZM47.7082 43.9256L47.7867 43.9452C47.7973 43.9108 47.8061 43.8759 47.8129 43.8406C47.7671 43.7392 47.7213 43.6345 47.6722 43.5298C47.6722 43.641 47.6461 43.749 47.6297 43.8569L47.7082 43.9256ZM46.3998 43.3237C46.7474 43.3833 47.0805 43.5087 47.3811 43.6934C47.4073 43.4971 47.4269 43.2976 47.44 43.0915C46.9452 42.0747 46.3847 41.0913 45.7619 40.1475L45.6343 39.9513H45.5493C44.5453 39.8762 43.5375 40.0352 42.6054 40.4158C42.615 40.6857 42.6019 40.956 42.5661 41.2237C43.5769 41.4625 44.4535 42.0611 45.3072 42.6401C45.6834 42.8789 46.04 43.1111 46.3998 43.3237ZM39.6581 43.5036C40.1521 43.5429 40.6394 43.5625 41.1236 43.5625C41.4972 43.0707 41.7818 42.5171 41.9642 41.927C42.0226 41.7454 42.0664 41.5595 42.0951 41.3709C41.4048 41.3116 40.7109 41.431 40.0801 41.7176C39.9825 42.3223 39.8415 42.9192 39.6581 43.5036ZM42.5432 41.4494C42.4678 41.8479 42.3471 42.2364 42.1834 42.6074C42.037 42.9393 41.8619 43.2578 41.66 43.5592C42.6413 43.5363 43.5703 43.4546 44.4339 43.363H44.5255C44.9657 43.3056 45.4095 43.2794 45.8535 43.2845C45.6278 43.1373 45.4054 42.9868 45.1993 42.8363C44.3586 42.2639 43.5049 41.6817 42.5432 41.4494ZM38.3693 43.3401H38.3955C38.7226 43.3957 39.0693 43.4415 39.4095 43.4742C39.58 42.9388 39.7133 42.3924 39.8086 41.8387L39.6025 41.9466C39.4695 42.0556 39.3386 42.1701 39.21 42.2901C38.8833 42.6002 38.6004 42.9534 38.3693 43.3401ZM47.7115 43.0457C47.7769 43.1798 47.8423 43.3172 47.9045 43.4513C48.0603 42.8736 48.0671 42.2659 47.9241 41.6849C47.8592 41.4744 47.7609 41.2756 47.633 41.0961C47.7195 41.7421 47.7458 42.3948 47.7115 43.0457ZM38.0193 43.2616L38.1175 43.2877C38.2114 43.1225 38.3152 42.963 38.4282 42.8102C38.2825 42.9518 38.1459 43.1026 38.0193 43.2616ZM39.2263 39.9905C38.5854 40.4952 38.0525 41.1237 37.6595 41.8387C37.4142 42.2868 37.3618 42.6433 37.5058 42.8952C37.5726 43.0067 37.6703 43.0964 37.7871 43.1536C38.2409 42.5758 38.8073 42.0962 39.452 41.7438H39.4684C39.5992 41.6391 39.7334 41.5377 39.8707 41.4461C39.9035 41.2073 39.9296 40.9686 39.946 40.7298C39.9722 40.5844 39.9563 40.4346 39.9002 40.298C39.835 40.2116 39.7511 40.1412 39.6548 40.0919C39.5585 40.0426 39.4523 40.0158 39.3441 40.0134L39.2263 39.9905ZM46.0007 40.0101C46.5394 40.8372 47.0341 41.6921 47.4825 42.5714C47.4822 41.9601 47.4341 41.3499 47.3386 40.7461C46.9602 40.3962 46.5003 40.1466 46.0007 40.02V40.0101ZM39.5011 39.7877C39.6262 39.8024 39.7465 39.845 39.8529 39.9123C39.9593 39.9797 40.0493 40.0702 40.1161 40.177C40.1944 40.3535 40.2205 40.5487 40.1913 40.7396C40.1913 40.9162 40.1619 41.0896 40.139 41.263C40.7464 40.8931 41.3884 40.583 42.0558 40.3372C41.9975 40.1084 41.8842 39.8973 41.7257 39.7223C41.5672 39.5473 41.3684 39.4137 41.1465 39.333C40.6852 39.1989 40.139 39.333 39.5109 39.7746L39.5011 39.7877ZM42.118 40.5793C41.6162 40.7702 41.1278 40.9942 40.6558 41.2499C41.1358 41.1126 41.6376 41.0682 42.1343 41.119C42.1464 40.942 42.1376 40.7641 42.1081 40.5891L42.118 40.5793ZM42.3535 40.491C42.3694 40.5863 42.3803 40.6824 42.3862 40.7788C42.3862 40.6774 42.3862 40.576 42.3862 40.4779L42.3535 40.491ZM31.4805 37.4325C30.9692 38.4317 30.5319 39.4671 30.1721 40.5302C30.8561 39.3241 31.6759 38.2003 32.6155 37.1807C32.3364 37.233 32.0584 37.2919 31.7814 37.3573C31.68 37.39 31.5753 37.4129 31.4707 37.4424L31.4805 37.4325ZM45.811 39.7223C46.347 39.8223 46.8522 40.0464 47.2862 40.3765C47.2568 40.2064 47.2208 40.0298 47.1848 39.8564C47.0506 39.1866 46.858 38.5299 46.6091 37.8938C46.5535 37.848 46.4979 37.8022 46.439 37.7597C44.9069 36.6661 43.0609 36.1001 41.1792 36.147C40.1177 36.153 39.0625 36.3105 38.0455 36.6148C39.611 36.7307 41.1589 37.0192 42.661 37.4751C43.3007 37.6395 43.9094 37.9069 44.4633 38.2667C44.992 38.6687 45.445 39.1616 45.8012 39.7223H45.811ZM33.6754 33.54L33.574 33.5825C32.0006 34.2989 30.6823 35.7152 29.6487 37.8055C30.1862 37.5634 30.7445 37.3707 31.3169 37.2297C31.9805 35.9278 32.767 34.6923 33.6655 33.54H33.6754ZM41.1988 35.9213C43.0457 35.8875 44.8586 36.4206 46.3932 37.4489L46.3638 37.39C45.8415 36.3664 45.0972 35.4724 44.1853 34.7732C42.6445 34.2439 41.0172 34.012 39.3899 34.0895C38.4367 34.1181 37.4939 34.2969 36.5964 34.6194C35.3648 35.1191 34.2507 35.87 33.3254 36.8241C34.6619 36.6222 36.0143 36.5455 37.3651 36.5952C38.5887 36.1588 39.8769 35.9311 41.1759 35.9213H41.1988ZM34.117 33.3633C33.1617 34.541 32.3247 35.8097 31.6179 37.1512L31.7258 37.1283C32.1183 37.0367 32.5109 36.9582 32.9034 36.8896C33.9087 35.7996 35.1432 34.9461 36.5179 34.3905C37.4396 34.0591 38.4077 33.8747 39.3866 33.8442C40.7869 33.7813 42.1882 33.9425 43.5376 34.3218C43.0064 33.9806 42.4407 33.6967 41.8497 33.4746C39.9102 32.7863 37.8257 32.6105 35.7983 32.9643C35.2269 33.0463 34.6642 33.1799 34.117 33.3633ZM44.2965 34.5606C45.8236 35.0856 47.2416 35.886 48.4802 36.9223C48.189 36.2353 47.875 35.5877 47.5675 34.9923C46.7367 33.3568 45.7456 31.7376 44.1493 30.8806C43.4489 30.5247 42.6937 30.2892 41.9152 30.1839H41.8988C40.2536 30.1928 38.6122 30.3416 36.9922 30.6287C36.2363 31.093 35.5567 31.6711 34.9772 32.3428C34.7777 32.5619 34.5814 32.7876 34.3884 33.0133C34.8331 32.8872 35.2854 32.7899 35.7427 32.7222C37.812 32.3629 39.939 32.5432 41.9184 33.2456C42.7724 33.5626 43.574 34.0058 44.2965 34.5606ZM43.1941 30.2231C43.5645 30.3344 43.9228 30.4823 44.2638 30.6647C45.9189 31.5545 46.9362 33.2162 47.7867 34.8811C48.0876 35.4699 48.3984 36.1078 48.6862 36.7849C48.7101 35.1134 48.1161 33.492 47.018 32.2316C46.0526 31.0943 44.6847 30.3746 43.2007 30.2231H43.1941ZM39.717 29.9974C39.1043 29.9883 38.4937 30.0699 37.9048 30.2395C38.6539 30.1348 39.3768 30.0563 40.0834 30.0072C39.9623 30.0007 39.8413 29.9974 39.717 29.9974Z" fill="#407BFF"/>
</svg>
