<svg width="128" height="128" viewBox="0 0 128 128" fill="none" xmlns="http://www.w3.org/2000/svg">
<path d="M108.726 73.2472C105.192 82.3996 98.5475 90.4152 89.3182 93.9385C88.1178 94.396 86.8921 94.7841 85.6472 95.101C79.0624 96.7798 71.8587 96.1959 65.7887 93.1368C63.2125 91.8374 60.8634 90.1204 58.2779 88.8397C55.6923 87.559 52.7398 86.7208 49.9256 87.353C47.5026 87.8973 45.4583 89.4571 43.4 90.8467C38.5477 94.1228 32.7134 96.7153 26.9676 95.5901C24.3238 95.073 21.7203 93.6407 20.4925 91.2464C17.7787 85.9533 22.8969 79.6601 21.8603 73.8063C21.197 70.0598 18.1675 67.2542 16.2841 63.9479C13.0609 58.2939 13.442 50.7799 17.2211 45.4805C21.0003 40.1812 27.977 37.3701 34.3735 38.5723C42.1729 40.0381 48.071 46.6399 55.6558 48.9751C60.3992 50.4347 65.5492 49.9992 70.0795 48.077C77.3991 44.9704 87.4551 40.2061 95.6922 40.9821C100.072 41.395 104.369 43.339 107.26 46.6586C110.915 50.8491 112.01 56.7986 111.401 62.3242C110.982 66.065 110.083 69.7363 108.726 73.2472Z" fill="url(#paint0_linear_261_11728)"/>
<path d="M111.077 80.4849C110.915 80.4847 110.753 80.4651 110.595 80.4266C110.096 80.3039 109.663 79.9953 109.384 79.564C109.105 79.1326 109 78.6108 109.093 78.1053C109.185 77.5997 109.467 77.1485 109.881 76.8437C110.294 76.5389 110.809 76.4036 111.319 76.4653C111.829 76.527 112.297 76.7812 112.626 77.1758C112.955 77.5704 113.121 78.0759 113.091 78.5889C113.06 79.1018 112.834 79.5837 112.46 79.9361C112.086 80.2885 111.591 80.4847 111.077 80.4849ZM111.077 77.3605C110.81 77.3615 110.553 77.4602 110.353 77.6381C110.153 77.8159 110.025 78.0606 109.993 78.326C109.962 78.5915 110.028 78.8594 110.181 79.0793C110.332 79.2992 110.56 79.4559 110.819 79.5199C110.969 79.556 111.126 79.5599 111.278 79.5313C111.43 79.5028 111.574 79.4423 111.7 79.354C111.827 79.2658 111.934 79.1516 112.014 79.0191C112.093 78.8866 112.144 78.7388 112.162 78.5853C112.181 78.4319 112.166 78.2763 112.12 78.1287C112.074 77.9812 111.997 77.8451 111.895 77.7294C111.792 77.6137 111.667 77.5211 111.525 77.4574C111.385 77.3938 111.232 77.3608 111.077 77.3605Z" fill="#E7F6FF"/>
<path d="M109.237 82.6244C109.351 82.1516 109.061 81.6753 108.588 81.5607C108.115 81.446 107.639 81.7363 107.524 82.2093C107.41 82.6821 107.7 83.1584 108.173 83.273C108.646 83.3877 109.122 83.0974 109.237 82.6244Z" fill="#E7F6FF"/>
<path d="M18.2916 80.2929C17.7575 80.2812 17.2495 80.0594 16.878 79.6755C16.5065 79.2916 16.3014 78.7767 16.3072 78.2424C16.3131 77.7083 16.5294 77.198 16.9092 76.8222C17.289 76.4466 17.8017 76.2358 18.3359 76.2358C18.8701 76.2358 19.3828 76.4466 19.7626 76.8222C20.1424 77.198 20.3587 77.7083 20.3645 78.2424C20.3704 78.7767 20.1653 79.2916 19.7938 79.6755C19.4223 80.0594 18.9143 80.2812 18.3802 80.2929H18.2916ZM18.2916 77.1693H18.2457C17.9572 77.1755 17.6829 77.2953 17.4822 77.5026C17.2815 77.7099 17.1707 77.988 17.1738 78.2765C17.177 78.5651 17.2938 78.8407 17.4989 79.0436C17.704 79.2465 17.9809 79.3603 18.2694 79.3603C18.5579 79.3603 18.8348 79.2465 19.0399 79.0436C19.2451 78.8407 19.3619 78.5651 19.365 78.2765C19.3681 77.988 19.2573 77.7099 19.0566 77.5026C18.8559 77.2953 18.5816 77.1755 18.2931 77.1693H18.2916Z" fill="#E7F6FF"/>
<path d="M16.8443 83.6978C17.3304 83.6768 17.7075 83.2657 17.6865 82.7796C17.6656 82.2934 17.2545 81.9164 16.7684 81.9374C16.2822 81.9583 15.9052 82.3694 15.9261 82.8555C15.9471 83.3416 16.3582 83.7187 16.8443 83.6978Z" fill="#E7F6FF"/>
<path d="M69.1387 47.4938C68.6546 47.4945 68.1862 47.3219 67.8184 47.0072C67.4505 46.6925 67.2075 46.2565 67.1334 45.7781C67.0591 45.2996 67.1586 44.8105 67.4138 44.3992C67.669 43.9877 68.0631 43.6813 68.5246 43.5353C68.9862 43.3893 69.4848 43.4133 69.9301 43.6031C70.3754 43.7929 70.7382 44.1358 70.9526 44.5698C71.167 45.0038 71.219 45.5002 71.0991 45.9693C70.9792 46.4383 70.6953 46.8489 70.2989 47.1268C69.9589 47.365 69.5539 47.4932 69.1387 47.4938ZM69.1325 44.3701C68.8492 44.3698 68.5768 44.4789 68.3719 44.6746C68.1671 44.8701 68.0456 45.1373 68.033 45.4203C68.0202 45.7033 68.1172 45.9803 68.3037 46.1935C68.4901 46.4067 68.7517 46.5397 69.0338 46.5649C69.3159 46.59 69.5969 46.5053 69.8181 46.3284C70.0393 46.1515 70.1837 45.896 70.2212 45.6152C70.2587 45.3345 70.1864 45.05 70.0194 44.8213C69.8523 44.5925 69.6034 44.437 69.3246 44.3873C69.2612 44.376 69.1969 44.3702 69.1325 44.3701Z" fill="#E7F6FF"/>
<path d="M65.0026 47.3822C65.401 47.1029 65.4975 46.5534 65.2181 46.155C64.9388 45.7567 64.3893 45.6602 63.991 45.9396C63.5926 46.2189 63.4961 46.7683 63.7755 47.1667C64.0548 47.5651 64.6043 47.6616 65.0026 47.3822Z" fill="#E7F6FF"/>
<path d="M113.999 57.9437C114 57.0888 113.661 56.2686 113.058 55.6634C112.454 55.0583 111.634 54.7177 110.779 54.7167C110.708 54.7167 110.637 54.7167 110.567 54.7237C110.572 54.6537 110.574 54.5829 110.574 54.5114C110.574 54.0532 110.476 53.6003 110.287 53.1828C110.098 52.7654 109.823 52.393 109.478 52.0905C109.134 51.788 108.73 51.5623 108.291 51.4285C107.853 51.2948 107.391 51.256 106.937 51.3147C106.482 51.3734 106.046 51.5284 105.656 51.7691C105.266 52.0099 104.932 52.331 104.676 52.7111C104.42 53.0911 104.248 53.5214 104.171 53.9731C104.095 54.4249 104.115 54.8878 104.232 55.331C103.842 55.0484 103.395 54.8567 102.921 54.7699C102.447 54.683 101.961 54.7032 101.496 54.8291C101.031 54.955 100.601 55.1833 100.236 55.4973C99.8712 55.8113 99.5819 56.203 99.3875 56.6436C99.1939 57.0843 99.1014 57.5626 99.1169 58.0437C99.1325 58.5248 99.2553 58.9963 99.4769 59.4237C99.6978 59.8511 100.012 60.2235 100.396 60.5136C100.78 60.8036 101.224 61.004 101.696 61.1C101.889 61.6108 102.208 62.0643 102.624 62.4179C103.039 62.7716 103.538 63.014 104.073 63.1223C104.608 63.2307 105.162 63.2014 105.682 63.0373C106.202 62.8732 106.673 62.5796 107.049 62.184C107.434 62.4745 107.879 62.675 108.352 62.7706C108.825 62.8664 109.312 62.8548 109.779 62.7369C110.248 62.619 110.682 62.3978 111.053 62.0895C111.424 61.7811 111.72 61.3937 111.922 60.9554C112.532 60.723 113.058 60.3106 113.429 59.7728C113.8 59.2349 113.999 58.5972 113.999 57.9437Z" fill="white"/>
<path d="M28.8872 50.1911C28.8872 49.3362 28.5477 48.5163 27.9432 47.9117C27.3388 47.3071 26.519 46.9674 25.6641 46.9672C25.5925 46.9672 25.5218 46.9672 25.4518 46.9742C25.4564 46.9042 25.4588 46.8334 25.4588 46.7619C25.4587 46.3036 25.3609 45.8508 25.172 45.4333C24.9831 45.0159 24.7074 44.6435 24.3632 44.341C24.019 44.0385 23.6143 43.8128 23.176 43.679C22.7378 43.5452 22.2761 43.5064 21.8217 43.5652C21.3672 43.6239 20.9305 43.7788 20.5407 44.0196C20.1508 44.2604 19.8168 44.5815 19.5608 44.9616C19.3049 45.3416 19.1328 45.7718 19.0563 46.2236C18.9797 46.6754 19.0003 47.1383 19.1167 47.5815C18.727 47.2989 18.279 47.1071 17.8056 47.0203C17.3322 46.9335 16.8453 46.9537 16.3808 47.0796C15.9162 47.2055 15.4857 47.4338 15.1209 47.7478C14.7561 48.0617 14.4662 48.4534 14.2725 48.8941C14.0788 49.3347 13.9863 49.8131 14.0016 50.2941C14.017 50.7753 14.1399 51.2468 14.3612 51.6742C14.5826 52.1015 14.8969 52.474 15.281 52.7641C15.6651 53.0541 16.1092 53.2545 16.5809 53.3505C16.7736 53.8608 17.0927 54.3138 17.5082 54.6672C17.9237 55.0206 18.4221 55.2627 18.9567 55.371C19.4913 55.4793 20.0446 55.4502 20.5649 55.2864C21.0852 55.1226 21.5554 54.8295 21.9316 54.4345C22.3164 54.7249 22.7615 54.9254 23.234 55.0211C23.7066 55.1168 24.1946 55.1053 24.6621 54.9874C25.1296 54.8695 25.5648 54.6483 25.9354 54.3399C26.3061 54.0316 26.6029 53.6441 26.804 53.2059C27.4162 52.9742 27.9434 52.5616 28.3155 52.0231C28.6876 51.4847 28.887 50.8457 28.8872 50.1911Z" fill="white"/>
<g opacity="0.04">
<path opacity="0.04" d="M85.3998 77.4117H62.5585L40.0484 84.5376V84.6947H17.0415V92.3082H40.0484V92.1511L62.5585 85.0252H85.3998V84.9731L108.241 77.7429V70.1294L85.3998 77.3596V77.4117Z" fill="#A8A8A8"/>
</g>
<path d="M45.6691 47.6357H26.0322V92.5595H45.6691V47.6357Z" fill="white"/>
<path d="M103.46 79.7914L83.8242 86.0068V41.0831L103.46 34.8677V79.7914Z" fill="#E5E5E5"/>
<path d="M83.9654 41.083H64.3286V86.0067H83.9654V41.083Z" fill="white"/>
<path d="M64.4703 86.0067L44.8335 92.2229V47.2992L64.4703 41.083V86.0067Z" fill="#E5E5E5"/>
<path d="M43.421 64.3926H39.0415V88.9734H43.421V64.3926Z" fill="#E8EDF7"/>
<path d="M69.0178 59.0249H66.1655V82.4759H75.503L69.0178 59.0249Z" fill="#C0CEE2"/>
<path d="M70.0107 59.0249L76.496 82.4759H82.1289V59.0249H70.0107Z" fill="#C0CEE2"/>
<path d="M100.674 38.9287L86.2256 43.3533V45.4621V50.1449V50.5484L100.674 38.9287Z" fill="#C0CEE2"/>
<path d="M86.2256 51.8909V52.2268V57.2478L101.483 52.541V45.4624V39.6211L86.2256 51.8909Z" fill="#E8837E"/>
<path d="M101.483 70.4517V69.0038V57.2317V55.15V53.5762L86.2256 58.2822V58.8678L101.483 70.4517Z" fill="#C0CEE2"/>
<path d="M47.5181 81.628V88.4087V88.4398L50.9069 87.3395L50.9123 87.3084L53.0313 86.6217L53.0266 86.6513L62.7754 83.4857V83.4639V77.3006V75.219V66.3706L47.5181 81.628Z" fill="#C0CEE2"/>
<path d="M62.7443 65.0669L62.7754 65.098V63.4479V61.3663V59.4658L47.5181 64.1727V70.2146V72.2963V80.2932L62.7443 65.0669Z" fill="#C0CEE2"/>
<path d="M95.4106 66.9828L86.2256 60.0093V63.9992V66.08V69.8164L95.4106 66.9828Z" fill="#E8837E"/>
<path d="M38.0527 79.7627V64.3926H27.457V83.031L38.0527 79.7627Z" fill="#E8837E"/>
<path d="M27.457 84.0654V88.9729H38.0527V80.7964L27.457 84.0654Z" fill="#E8EDF7"/>
<path d="M101.906 43.3438H101.2V44.1913H101.906V43.3438Z" fill="white"/>
<path d="M101.906 50.9718H101.2V49.2735H101.906V50.9718ZM101.906 47.5814H101.2V45.8862H101.906V47.5814Z" fill="white"/>
<path d="M101.165 54.489L100.689 53.9672L101.2 53.5007V52.8086H101.906V53.8125L101.165 54.489Z" fill="white"/>
<path d="M82.4105 64.8165H80.7177V64.1105H82.4129L82.4105 64.8165ZM79.1617 64.8165H77.4665V64.1105H79.1625L79.1617 64.8165ZM75.7713 64.8165H74.0762V64.1105H75.7713V64.8165ZM84.22 64.661L84.0559 63.9736L85.6943 63.5817L85.8584 64.2691L84.22 64.661ZM87.4999 63.8772L87.3351 63.1929L88.9751 62.8041L89.1391 63.4915L87.4999 63.8772ZM90.7799 63.0934L90.6158 62.406L91.6345 62.1626L91.9719 61.8515L92.4478 62.3733L91.9758 62.8041L90.7799 63.0934ZM93.6928 61.2395L93.2169 60.7178L94.4611 59.5809L94.9369 60.1027L93.6928 61.2395ZM96.1811 58.9651L95.7052 58.4433L96.9494 57.3064L97.4253 57.8282L96.1811 58.9651ZM98.6694 56.6913L98.1935 56.1696L99.4377 55.0327L99.9136 55.5545L98.6694 56.6913Z" fill="white"/>
<path d="M71.4536 65.3781L70.8276 65.0508L71.3191 64.1099H72.3805V64.8159H71.7468L71.4536 65.3781Z" fill="white"/>
<path d="M68.7974 70.3215L68.1714 69.9949L68.8261 68.7414L69.4521 69.068L68.7974 70.3215ZM70.1068 67.8145L69.4809 67.4879L70.1356 66.2344L70.7616 66.561L70.1068 67.8145Z" fill="white"/>
<path d="M67.4414 72.9163L66.7236 71.5835L67.3457 71.2483L67.432 71.4085L67.516 71.2476L68.142 71.5742L67.4414 72.9163Z" fill="white"/>
<path d="M65.9034 68.5698L65.2817 68.9046L66.0028 70.2438L66.6245 69.909L65.9034 68.5698Z" fill="white"/>
<path d="M64.5612 67.5666L64.2937 67.0713L63.7525 67.226L63.5581 66.5472L64.646 66.2354L65.1825 67.2322L64.5612 67.5666Z" fill="white"/>
<path d="M45.2983 72.5862H44.9748V71.8801H45.1987L46.4429 71.5232L46.6373 72.202L45.2983 72.5862ZM43.2765 72.5862H41.7213V71.8801H43.2765V72.5862ZM40.0277 72.5862H38.4725V71.8801H40.0277V72.5862ZM36.9172 72.5862H35.362V71.8801H36.9172V72.5862ZM33.6684 72.5862H32.1187V71.8801H33.6739L33.6684 72.5862ZM48.1972 71.6857L48.002 71.0069L49.5572 70.5605L49.7524 71.2394L48.1972 71.6857ZM51.3076 70.7938L51.1132 70.115L52.6684 69.6694L52.8628 70.3482L51.3076 70.7938ZM54.418 69.9019L54.2236 69.223L55.7788 68.7775L55.9732 69.4563L54.418 69.9019ZM57.5284 69.01L57.334 68.3311L58.8892 67.8856L59.0836 68.5644L57.5284 69.01ZM60.6388 68.1181L60.4444 67.4392L61.9996 66.9937L62.194 67.6725L60.6388 68.1181Z" fill="white"/>
<path d="M29.8592 73.0097H29.1523V71.7383H30.4237V72.4451H29.8592V73.0097Z" fill="white"/>
<path d="M30 75.1294H29.2939V77.2484H30V75.1294Z" fill="white"/>
<path d="M30 79.5083H29.2939V80.3559H30V79.5083Z" fill="white"/>
<path d="M43.4206 50.6895H33.2495V63.404H43.4206V50.6895Z" fill="#E8EDF7"/>
<path d="M32.2603 50.6895H27.457V63.404H32.2603V50.6895Z" fill="#E8837E"/>
<path d="M96.3788 67.7183L89.6035 69.8085L94.2046 79.6327L101.482 77.2696V77.2486V71.5931L96.3788 67.7183Z" fill="#E8837E"/>
<path d="M93.2575 79.9405L88.6502 70.103L86.2256 70.8511V82.1924V82.2243L89.6144 81.124L89.6198 81.0929L91.7388 80.4063L91.7341 80.435L93.2575 79.9405Z" fill="#C0CEE2"/>
<path d="M26.0635 92.6241L25.1304 92.621L25.1537 85.8372V46.9469H44.761L64.2524 40.7766L66.8418 40.7307H83.7516L103.926 34.3442V44.775H102.993V35.6187L83.8962 41.6638H66.8465L64.4048 41.7074L44.9056 47.88H26.0868V85.8387L26.0635 92.6241Z" fill="#426572"/>
<path d="M45.2842 92.8038H25.6201V91.8706H45.2297L45.3285 91.859L64.3953 85.6545H83.9349L84.2048 85.6195L102.993 79.5658V56.2051H103.926V80.2455L84.4101 86.5339L83.9948 86.5876H64.5438L45.5283 92.775L45.2842 92.8038Z" fill="#426572"/>
<path d="M103.927 52.3955H102.994V54.1451H103.927V52.3955Z" fill="#426572"/>
<path d="M103.927 46.5503H102.994V51.2672H103.927V46.5503Z" fill="#426572"/>
<path opacity="0.2" d="M65.9436 36.0201C54.2546 35.9952 46.97 43.3506 46.9483 54.9337C46.9405 58.5107 48.8238 64.0986 52.0742 70.8451C53.5423 73.6919 55.3246 76.8544 57.215 80.0208C59.5229 83.9213 62.0408 87.8233 64.5618 91.408L65.8215 93.097C66.2437 92.5698 66.666 92.0449 67.0882 91.4135C69.624 87.7338 72.159 83.9485 74.484 80.0605C76.3876 76.9049 78.0788 73.7502 79.5586 70.9088C82.9435 64.1771 84.8502 58.5994 84.858 55.0201C84.8821 43.7479 77.3168 36.045 65.9436 36.0201ZM65.8775 66.5566C58.9272 66.5418 53.2531 60.8443 53.2686 53.8933C53.2842 46.9423 58.9825 41.2697 65.9327 41.2845C72.8829 41.2992 78.5571 46.9983 78.5407 53.9477C78.5244 60.8972 72.8285 66.5721 65.8782 66.5574L65.8775 66.5566Z" fill="#8DA3B2"/>
<path d="M75.64 52.4074C75.6253 59.36 69.9262 65.0326 62.976 65.017C56.9566 65.0038 51.8936 60.7285 50.6572 55.0637C50.5302 54.3371 50.4675 53.6007 50.4698 52.8631C50.483 45.9144 56.1821 40.2394 63.1315 40.2534C69.1416 40.2667 74.1984 44.5303 75.4464 50.178C75.4459 50.1811 75.4459 50.1842 75.4464 50.1873C75.5767 50.9202 75.6414 51.6631 75.64 52.4074Z" fill="white"/>
<path d="M63.1678 34.6387C51.4804 34.6131 44.1974 41.9692 44.1709 53.55C44.1631 57.127 46.0465 62.7149 49.2969 69.4614C50.765 72.3082 52.5473 75.4707 54.4376 78.6371C56.7456 82.5376 59.2634 86.4396 61.7844 90.0243L63.0441 91.7133C63.4664 91.1861 63.8886 90.6612 64.3109 90.0298C66.8466 86.3501 69.3816 82.5648 71.7066 78.6768C73.6102 75.5212 75.3015 72.3665 76.7813 69.5251C80.1662 62.7934 82.0729 57.2157 82.0807 53.6364C82.1055 42.3666 74.541 34.6628 63.1678 34.6387ZM63.1017 65.1752C56.1522 65.1604 50.4781 59.4598 50.4928 52.5119C50.5076 45.5641 56.2067 39.8876 63.1561 39.9023C70.1056 39.9171 75.7805 45.6185 75.7657 52.5664C75.751 59.5143 70.0519 65.1908 63.1017 65.1752Z" fill="#E8837E"/>
<path d="M76.0524 71.2021C74.7522 73.6663 73.3027 76.3187 71.7024 78.9711C69.379 82.8592 66.8432 86.6469 64.3074 90.3242C63.8852 90.9556 63.463 91.4804 63.0399 92.0077L61.7802 90.3187C59.2608 86.734 56.7414 82.8319 54.4342 78.9323C52.5438 75.7674 50.7616 72.6049 49.2935 69.7565C46.0431 63.01 44.1613 57.4245 44.1675 53.8452C44.1776 49.0653 45.4241 45.0062 47.7056 41.8872C46.802 44.2395 46.3238 46.9191 46.3168 49.8732C46.309 53.4502 48.1924 59.0388 51.4428 65.7845C52.9109 68.6313 54.6931 71.7939 56.5835 74.9603C58.8906 78.8599 61.4093 82.762 63.9295 86.3467L65.1892 88.0357C65.6123 87.5084 66.0345 86.9836 66.4567 86.3522C68.9917 82.6733 71.5275 78.8872 73.8517 74.9991C74.6208 73.7278 75.3525 72.4548 76.0524 71.2021Z" fill="#D66765"/>
<path d="M63.0267 92.6964L61.337 90.4313C58.8152 86.8442 56.267 82.894 53.9676 79.0075C51.9964 75.712 50.2134 72.5238 48.8114 69.8069L48.8051 69.7937C45.3603 62.6444 43.6177 57.2113 43.6255 53.6452C43.638 47.8023 45.4653 42.894 48.9086 39.4508C52.3518 36.0076 57.2616 34.188 63.1053 34.188H63.1659C68.8821 34.2004 73.7631 36.0822 77.2818 39.6312C79.0192 41.3932 80.3678 43.4999 81.2405 45.8155C82.1636 48.2261 82.6286 50.8886 82.6223 53.7292C82.6146 57.3271 80.7623 62.9049 77.2646 69.8613V69.8683C75.9474 72.3971 74.1783 75.7252 72.1737 79.0495C69.69 83.2066 67.0322 87.1366 64.76 90.4328C64.3339 91.0689 63.9046 91.607 63.4855 92.1272L63.0267 92.6964ZM62.2235 89.7991L63.0563 90.9157C63.3261 90.5713 63.5905 90.2159 63.8572 89.8216C66.1231 86.5339 68.7685 82.6218 71.2374 78.4896C73.2266 75.1918 74.9847 71.8839 76.2919 69.3699C79.7133 62.5659 81.5244 57.1568 81.5321 53.7276C81.5438 48.3342 79.8059 43.7245 76.5073 40.3979C73.1986 37.0589 68.5835 35.2883 63.1636 35.2766H63.1053C57.5563 35.2766 52.914 36.9874 49.6776 40.2206C46.4412 43.4539 44.7258 48.0985 44.7157 53.6475C44.7087 56.999 46.4614 62.4166 49.7841 69.3147C51.1753 72.013 52.9459 75.1724 54.9047 78.4515C57.1877 82.3131 59.7188 86.2361 62.2235 89.7991ZM63.127 65.8139H63.0983C60.491 65.8115 57.9433 65.035 55.778 63.5829C53.6126 62.1309 51.9271 60.0685 50.9351 57.6575C49.9432 55.2463 49.6894 52.595 50.2061 50.0395C50.7226 47.4841 51.9864 45.1395 53.837 43.3031C55.0549 42.0805 56.5026 41.1109 58.0966 40.4501C59.6907 39.7892 61.3998 39.4501 63.1255 39.4524H63.1543C65.7612 39.455 68.3088 40.2315 70.474 41.6835C72.6392 43.1356 74.3246 45.1978 75.3165 47.6086C76.3084 50.0196 76.5622 52.6708 76.0458 55.2261C75.5293 57.7815 74.2658 60.126 72.4155 61.9624C71.1976 63.1851 69.75 64.1549 68.156 64.8159C66.5618 65.4768 64.8527 65.816 63.127 65.8139ZM63.127 40.5418C59.9437 40.5744 56.9016 41.8609 54.6609 44.1223C52.4202 46.3836 51.1616 49.4373 51.1582 52.6208C51.1548 55.8044 52.4069 58.8607 54.6428 61.1268C56.8788 63.3929 59.9181 64.6859 63.1014 64.7253H63.1278C66.3111 64.6927 69.3532 63.4061 71.5939 61.1448C73.8346 58.8834 75.0932 55.8297 75.0966 52.6462C75.1 49.4628 73.8479 46.4063 71.6119 44.1402C69.376 41.8741 66.3367 40.5811 63.1535 40.5418H63.127Z" fill="#426572"/>
<path d="M88.1975 96.068H41.8135V95.0571H88.1975C88.3316 95.0571 88.4601 95.1104 88.5549 95.2052C88.6497 95.3 88.703 95.4285 88.703 95.5626C88.703 95.6966 88.6497 95.8252 88.5549 95.92C88.4601 96.0147 88.3316 96.068 88.1975 96.068Z" fill="#426572"/>
<path d="M39.7388 96.068H36.9029C36.7688 96.068 36.6403 96.0147 36.5455 95.92C36.4507 95.8252 36.3975 95.6966 36.3975 95.5626C36.3975 95.4285 36.4507 95.3 36.5455 95.2052C36.6403 95.1104 36.7688 95.0571 36.9029 95.0571H39.7388C39.8729 95.0571 40.0014 95.1104 40.0962 95.2052C40.191 95.3 40.2443 95.4285 40.2443 95.5626C40.2443 95.6966 40.191 95.8252 40.0962 95.92C40.0014 96.0147 39.8729 96.068 39.7388 96.068Z" fill="#426572"/>
<path d="M35.0623 96.068H34.1588C34.0247 96.068 33.8962 96.0147 33.8014 95.92C33.7066 95.8252 33.6533 95.6966 33.6533 95.5626C33.6533 95.4285 33.7066 95.3 33.8014 95.2052C33.8962 95.1104 34.0247 95.0571 34.1588 95.0571H35.0623C35.1964 95.0571 35.3249 95.1104 35.4197 95.2052C35.5145 95.3 35.5678 95.4285 35.5678 95.5626C35.5678 95.6966 35.5145 95.8252 35.4197 95.92C35.3249 96.0147 35.1964 96.068 35.0623 96.068Z" fill="#426572"/>
<path d="M104.462 96.068H90.2051V95.0571H104.462C104.595 95.0571 104.724 95.1104 104.819 95.2052C104.914 95.3 104.967 95.4285 104.967 95.5626C104.967 95.6966 104.914 95.8252 104.819 95.92C104.724 96.0147 104.595 96.068 104.462 96.068Z" fill="#426572"/>
<path d="M31.5737 96.068H17.3164V95.0571H31.5737C31.7078 95.0571 31.8364 95.1104 31.9312 95.2052C32.026 95.3 32.0792 95.4285 32.0792 95.5626C32.0792 95.6966 32.026 95.8252 31.9312 95.92C31.8364 96.0147 31.7078 96.068 31.5737 96.068Z" fill="#426572"/>
<path d="M73.6481 41.011C76.3635 43.5312 78.2422 46.7855 78.9926 50.4239C79.2607 51.7604 79.3925 53.1207 79.386 54.4837C79.386 55.084 80.3192 55.0848 80.3192 54.4837C80.3145 50.1074 78.991 45.8733 76.2515 42.4371C75.6564 41.6937 75.0066 40.9958 74.3075 40.3492C73.8682 39.941 73.2064 40.5996 73.6473 41.0094L73.6481 41.011Z" fill="white"/>
<path d="M68.7622 37.7462L68.8166 37.7688C68.6673 37.7089 68.8944 37.8038 68.9286 37.8193C69.1564 37.9228 69.3804 38.0339 69.602 38.149C70.3669 38.5525 71.1036 39.0071 71.8073 39.5098C72.298 39.8574 72.7653 39.0487 72.2785 38.7042C71.2622 37.9842 70.1735 37.3046 69.0126 36.8465C68.4543 36.6257 68.2117 37.5277 68.7645 37.7462H68.7622Z" fill="white"/>
<defs>
<linearGradient id="paint0_linear_261_11728" x1="14.1029" y1="67.1609" x2="111.558" y2="67.1609" gradientUnits="userSpaceOnUse">
<stop stop-color="#C5E9FA"/>
<stop offset="1" stop-color="#C4F4EA"/>
</linearGradient>
</defs>
</svg>
