<svg width="40" height="40" viewBox="0 0 40 40" fill="none" xmlns="http://www.w3.org/2000/svg">
<path d="M10.2021 28.4208C9.29532 26.5239 11.8124 25.1311 11.7979 21.827C11.7798 17.3296 7.09739 16.0311 7.37304 13.1949C7.9062 7.69279 26.3564 3.86636 27.6839 6.39797C28.1844 7.35185 25.758 8.26222 25.5077 10.8845C25.0725 15.4109 31.902 17.0503 32.0362 21.2829C32.1741 25.6715 25.029 30.1508 18.7616 30.7311C16.0704 30.9777 11.2974 30.7166 10.2021 28.4208Z" fill="#71777C"/>
<path d="M33.2283 29.2948H6.31641L7.54957 32.1311H9.94335C9.94335 32.1311 11.891 31.1155 11.891 31.4057C11.891 31.6958 14.8651 34.1622 14.8651 34.1622C14.8651 34.1622 15.8081 35.1777 17.1211 34.4523C18.434 33.7269 19.6345 33.4223 19.9102 33.1466C20.4216 32.6352 19.6889 31.8264 19.9029 31.6886C20.3309 31.4166 22.2387 34.2093 23.1418 33.8103C23.5117 33.6471 23.4066 33.0777 23.8635 32.9C24.3532 32.7078 24.6288 33.2953 25.5573 33.4223C26.4786 33.5492 27.4832 33.1466 27.5014 33.143C27.5014 33.143 27.3454 32.7368 28.0817 32.0005C28.8179 31.2642 29.1335 31.0031 29.7501 31.6197C30.3666 32.2362 30.2941 32.8166 30.6205 33.143C30.8817 33.4041 30.9869 33.7559 31.092 33.7233C31.3205 33.6544 31.0231 32.0984 31.1682 32.0658C31.2915 32.0404 31.5672 33.1684 31.8863 33.143C31.9299 33.1394 32.0169 33.0523 32.2091 32.8927C32.2889 32.8274 32.3796 32.744 32.5065 32.6171C32.9708 32.1528 33.2319 31.9787 33.2319 31.3984C33.2319 30.8181 33.2283 29.2948 33.2283 29.2948Z" fill="#F1F7FF"/>
<g opacity="0.28">
<g opacity="0.28">
<path opacity="0.28" d="M9.18582 19.8141V21.5623H5.68945" stroke="#434955" stroke-width="0.367863" stroke-miterlimit="10" stroke-linecap="round" stroke-linejoin="round"/>
<path opacity="0.28" d="M12.6819 21.5623H9.18555V19.8141" stroke="#434955" stroke-width="0.367863" stroke-miterlimit="10" stroke-linecap="round" stroke-linejoin="round"/>
<path opacity="0.28" d="M10.9339 21.5623H7.4375V23.3104H10.9339V21.5623Z" stroke="#434955" stroke-width="0.367863" stroke-miterlimit="10" stroke-linecap="round" stroke-linejoin="round"/>
<path opacity="0.28" d="M10.1793 25.0586H9.18555V23.3104H12.6819" stroke="#434955" stroke-width="0.367863" stroke-miterlimit="10" stroke-linecap="round" stroke-linejoin="round"/>
<path opacity="0.28" d="M13.4579 23.3104H10.9336V21.5623H12.1486" stroke="#434955" stroke-width="0.367863" stroke-miterlimit="10" stroke-linecap="round" stroke-linejoin="round"/>
</g>
</g>
<g opacity="0.28">
<g opacity="0.28">
<path opacity="0.28" d="M29.1895 8.96228V10.7105H32.6895" stroke="#434955" stroke-width="0.367863" stroke-miterlimit="10" stroke-linecap="round" stroke-linejoin="round"/>
<path opacity="0.28" d="M25.6953 10.7105H29.1917V8.96228" stroke="#434955" stroke-width="0.367863" stroke-miterlimit="10" stroke-linecap="round" stroke-linejoin="round"/>
<path opacity="0.28" d="M27.4453 12.4591H30.9417V10.7109H27.4453V12.4591Z" stroke="#434955" stroke-width="0.367863" stroke-miterlimit="10" stroke-linecap="round" stroke-linejoin="round"/>
<path opacity="0.28" d="M28.1979 14.2068H29.1917V12.4586H25.6953" stroke="#434955" stroke-width="0.367863" stroke-miterlimit="10" stroke-linecap="round" stroke-linejoin="round"/>
<path opacity="0.28" d="M32.6895 12.4586H29.1895V14.2068H32.0257" stroke="#434955" stroke-width="0.367863" stroke-miterlimit="10" stroke-linecap="round" stroke-linejoin="round"/>
<path opacity="0.28" d="M33.8789 10.7104H30.9375V12.4586H32.6893" stroke="#434955" stroke-width="0.367863" stroke-miterlimit="10" stroke-linecap="round" stroke-linejoin="round"/>
<path opacity="0.28" d="M24.9219 12.4586H27.4426V10.7104H26.2312" stroke="#434955" stroke-width="0.367863" stroke-miterlimit="10" stroke-linecap="round" stroke-linejoin="round"/>
</g>
</g>
<path d="M17.7532 14.6021L17.2454 10.101C17.1946 9.64402 17.2527 9.1834 17.4159 8.74817H14.6485C14.8117 9.1834 14.8698 9.64402 14.819 10.101L14.3112 14.6021C14.1806 15.7627 13.7744 16.8834 13.1216 17.8844C12.2112 19.2844 11.7869 20.9093 11.9065 22.5378L12.3091 27.9528C12.3563 28.5984 12.9076 29.1098 13.6076 29.1606L14.8008 29.2476C15.6205 29.3057 16.4402 29.3057 17.2599 29.2476L18.4532 29.1606C19.1495 29.1098 19.7008 28.5948 19.7516 27.9528L20.1542 22.5378C20.2739 20.9093 19.8532 19.2844 18.9392 17.8844C18.29 16.8834 17.8837 15.7627 17.7532 14.6021Z" fill="#7D9D6B"/>
<path d="M16.6551 29.2513L17.8374 29.1643C18.5266 29.1135 19.0742 28.5984 19.1214 27.9565L19.5203 22.5415C19.64 20.913 19.3281 19.3969 18.425 17.9969C18.425 17.9969 17.5654 16.927 17.4276 14.4969L16.9634 9.99587C16.9162 9.57515 17.0685 9.15442 17.2027 8.75183H17.4276C17.2644 9.18706 17.2064 9.64769 17.2608 10.1047L17.7613 14.6057C17.8918 15.7663 18.2908 16.8871 18.9364 17.8881C19.8395 19.2881 20.2602 20.913 20.1406 22.5415L19.7416 27.9565C19.6944 28.6021 19.1468 29.1135 18.4577 29.1643L17.2753 29.2513C16.7675 29.2876 16.2597 29.3021 15.752 29.2912C16.0494 29.2876 16.354 29.2731 16.6551 29.2513Z" fill="#6E8F5D"/>
<path d="M17.2384 9.53159C17.2602 9.26319 17.3218 9.00205 17.4161 8.74817H17.2783C17.2312 9.00568 17.2166 9.27045 17.2384 9.53159Z" fill="#7D9D6B"/>
<path d="M14.7902 8.74817H14.6523C14.7466 9.00205 14.8083 9.26682 14.8301 9.53159C14.8518 9.27045 14.8373 9.00568 14.7902 8.74817Z" fill="#7D9D6B"/>
<path d="M20.1582 22.0483L19.7557 27.4633C19.7085 28.1089 19.1572 28.6203 18.4572 28.6711L17.264 28.7581C16.4443 28.8161 15.6246 28.8161 14.8049 28.7581L13.6116 28.6711C12.9153 28.6203 12.364 28.1053 12.3132 27.4633L11.9106 22.0483C11.9033 21.9503 11.8961 21.8488 11.8961 21.7509C11.8888 22.012 11.8925 22.2768 11.9106 22.5415L12.3132 27.9565C12.3603 28.6021 12.9116 29.1135 13.6116 29.1643L14.8049 29.2514C15.6246 29.3094 16.4443 29.3094 17.264 29.2514L18.4572 29.1643C19.1536 29.1135 19.7049 28.5985 19.7557 27.9565L20.1582 22.5415C20.1764 22.2768 20.1836 22.0156 20.1728 21.7509C20.1728 21.8488 20.1655 21.9467 20.1582 22.0483Z" fill="#6E8F5D"/>
<path opacity="0.5" d="M14.6911 18.5302C14.4445 19.0996 14.1688 19.8576 14.0818 20.5395C13.8714 22.1353 14.0818 23.3721 14.0818 23.3721" stroke="white" stroke-width="0.64376" stroke-miterlimit="10" stroke-linecap="round" stroke-linejoin="round"/>
<path opacity="0.5" d="M15.1197 17.6306C15.1197 17.6306 15.1342 17.5762 15 17.8627" stroke="white" stroke-width="0.64376" stroke-miterlimit="10" stroke-linecap="round" stroke-linejoin="round"/>
<path d="M17.7532 14.6021L17.2454 10.101C17.1946 9.64402 17.2527 9.1834 17.4159 8.74817H14.6485C14.8117 9.1834 14.8698 9.64402 14.819 10.101L14.3112 14.6021C14.1806 15.7627 13.7744 16.8834 13.1216 17.8844C12.2112 19.2844 11.7869 20.9093 11.9065 22.5378L12.3091 27.9528C12.3563 28.5984 12.9076 29.1098 13.6076 29.1606L14.8008 29.2476C15.6205 29.3057 16.4402 29.3057 17.2599 29.2476L18.4532 29.1606C19.1495 29.1098 19.7008 28.5948 19.7516 27.9528L20.1542 22.5378C20.2739 20.9093 19.8532 19.2844 18.9392 17.8844C18.29 16.8834 17.8837 15.7627 17.7532 14.6021Z" stroke="#246D49" stroke-width="0.367863" stroke-miterlimit="10" stroke-linecap="round" stroke-linejoin="round"/>
<path d="M17.9121 15.6538C17.6691 15.6901 17.4297 15.7191 17.1867 15.7445C16.9364 16.0637 16.4976 16.2813 15.9971 16.2813C15.4929 16.2813 15.0541 16.0637 14.8074 15.7445C14.5644 15.7227 14.3214 15.6901 14.082 15.6538C14.0929 15.6103 14.1038 15.5668 14.1147 15.5233C14.1582 15.3492 14.1945 15.1751 14.2235 15.001V14.9974C14.2307 14.9575 14.238 14.9176 14.2416 14.8777C14.2416 14.8704 14.2452 14.8668 14.2452 14.8595C14.2525 14.816 14.2561 14.7761 14.2634 14.7326C14.2706 14.6891 14.2743 14.6419 14.2815 14.5984L14.3432 14.0471L14.7893 10.0974C14.8002 9.98855 14.8074 9.88337 14.8074 9.77456C14.8074 9.42637 14.7421 9.07819 14.6188 8.74451H17.3789C17.2157 9.17974 17.1577 9.64036 17.2085 10.0974L17.6546 14.0471L17.7162 14.5984C17.7199 14.6419 17.7271 14.6891 17.7344 14.7326C17.7634 14.9538 17.8033 15.1751 17.8504 15.3927C17.8613 15.4362 17.8686 15.4797 17.8794 15.5233C17.8903 15.5704 17.9012 15.6103 17.9121 15.6538Z" fill="#F2A356"/>
<path d="M17.2013 8.74813C17.0671 9.15072 16.9147 9.57145 16.9619 9.99217L17.4261 14.4932C17.4515 14.9429 17.5023 15.3455 17.5676 15.701C17.6836 15.6865 17.7997 15.672 17.9158 15.6538C17.9049 15.6103 17.894 15.5668 17.8831 15.5233C17.8722 15.4797 17.8614 15.4362 17.8541 15.3927C17.8033 15.1751 17.7671 14.9538 17.738 14.7326C17.7308 14.6891 17.7272 14.6419 17.7199 14.5984L17.6583 14.0471L17.2121 10.0974C17.1614 9.64036 17.2194 9.17974 17.3826 8.74451H17.2013V8.74813Z" fill="#D6954B"/>
<path d="M17.7528 14.6021L17.6911 14.0508C17.4699 14.0834 17.2486 14.1124 17.0274 14.1305C16.759 13.8912 16.4108 13.7461 16.03 13.7461C15.6492 13.7461 15.301 13.8912 15.0326 14.1305C14.8113 14.1124 14.5901 14.0834 14.3688 14.0508L14.3072 14.6021C14.2673 14.9575 14.202 15.3093 14.1113 15.6539C14.3543 15.6901 14.5937 15.7191 14.8367 15.7445C15.087 16.0637 15.5258 16.2813 16.0264 16.2813C16.5305 16.2813 16.9694 16.0637 17.216 15.7445C17.459 15.7228 17.702 15.6901 17.9414 15.6539C17.8616 15.3093 17.7927 14.9575 17.7528 14.6021Z" fill="#806940"/>
<path opacity="0.3" d="M17.3867 14.0907L17.4266 14.4933C17.452 14.943 17.5028 15.3456 17.5681 15.701C17.6841 15.6865 17.8002 15.672 17.9163 15.6539C17.9054 15.6104 17.8945 15.5668 17.8836 15.5233C17.8727 15.4798 17.8618 15.4363 17.8546 15.3928C17.8038 15.1751 17.7675 14.9539 17.7385 14.7326C17.7313 14.6891 17.7277 14.642 17.7204 14.5984L17.6587 14.0508C17.5644 14.0689 17.4738 14.0798 17.3867 14.0907Z" fill="#806940"/>
<path opacity="0.3" d="M15.998 15.5197C16.3906 15.5197 16.7089 15.2696 16.7089 14.9611C16.7089 14.6527 16.3906 14.4026 15.998 14.4026C15.6054 14.4026 15.2871 14.6527 15.2871 14.9611C15.2871 15.2696 15.6054 15.5197 15.998 15.5197Z" fill="#806940"/>
<path opacity="0.5" d="M15.5879 10.8591L15.5117 13.0389" stroke="white" stroke-width="0.64376" stroke-miterlimit="10" stroke-linecap="round" stroke-linejoin="round"/>
<path d="M15.3905 29.2513L14.2081 29.1643C13.519 29.1135 12.9713 28.5984 12.9242 27.9565L12.5252 22.5415C12.4055 20.913 12.7174 19.3969 13.6205 17.9969C13.6205 17.9969 14.4801 16.927 14.618 14.4969L15.0822 9.99587C15.1294 9.57515 14.977 9.15442 14.8428 8.75183H14.6216C14.7848 9.18706 14.8428 9.64769 14.7884 10.1047L14.2879 14.6057C14.1573 15.7663 13.7584 16.8871 13.1128 17.8881C12.2097 19.2881 11.7889 20.913 11.9086 22.5415L12.3076 27.9565C12.3547 28.6021 12.9024 29.1135 13.5915 29.1643L14.7739 29.2513C15.2817 29.2876 15.7895 29.3021 16.2972 29.2912C15.9962 29.2876 15.6915 29.2731 15.3905 29.2513Z" fill="#FCFFFA"/>
<path d="M14.7679 9.32856C14.7679 9.32856 15.4679 9.82183 15.5513 9.82183C15.6347 9.82183 15.9974 9.5752 15.9974 9.5752L16.2984 9.98867C16.2984 9.98867 16.3891 9.83634 16.4761 9.83634C16.5632 9.83634 16.8606 9.86535 16.9041 9.86535C16.9476 9.86535 17.2451 9.86535 17.2451 9.86535V9.43737V8.93323H14.7461L14.7679 9.32856Z" fill="#7D9D6B"/>
<path d="M15.0692 9.43008L15.051 9.03112H17.249V8.92957H14.75L14.7681 9.32853C14.7681 9.32853 15.4681 9.82179 15.5516 9.82179C15.5661 9.82179 15.5915 9.81454 15.6205 9.80003C15.3883 9.65495 15.0692 9.43008 15.0692 9.43008Z" fill="#FCFFFA"/>
<path d="M16.2988 9.67676C16.2988 9.67676 16.2299 9.72391 16.1465 9.77469L16.3024 9.98505C16.3024 9.98505 16.3605 9.88712 16.4294 9.85085L16.2988 9.67676Z" fill="#FCFFFA"/>
<path d="M14.7679 9.32856C14.7679 9.32856 15.4679 9.82183 15.5513 9.82183C15.6347 9.82183 15.9974 9.5752 15.9974 9.5752L16.2984 9.98867C16.2984 9.98867 16.3891 9.83634 16.4761 9.83634C16.5632 9.83634 16.8606 9.86535 16.9041 9.86535C16.9476 9.86535 17.2451 9.86535 17.2451 9.86535V9.43737V8.93323H14.7461L14.7679 9.32856Z" stroke="#434955" stroke-width="0.367863" stroke-miterlimit="10" stroke-linecap="round" stroke-linejoin="round"/>
<path d="M18.2314 21.9975C17.6511 21.7907 17.0019 21.6348 16.3091 21.6348C15.6164 21.6348 14.9671 21.7907 14.3868 21.9975C13.8827 22.1788 13.3568 22.2695 12.8236 22.2695C12.6423 22.2695 12.5008 22.4291 12.5081 22.6177L12.7438 27.1767C12.7511 27.3436 12.8817 27.4778 13.0412 27.4886C13.3785 27.5068 13.9951 27.5721 14.7096 27.7788C15.2029 27.9203 15.7433 28.0363 16.3091 28.0363C16.8749 28.0363 17.4117 27.9203 17.9086 27.7788C18.5215 27.6047 19.1526 27.5032 19.7873 27.4959L20.0521 23.9524L20.1464 22.2731H19.7982C19.2651 22.2695 18.7355 22.1752 18.2314 21.9975Z" fill="#F2A356"/>
<path d="M20.1135 22.8353L20.1461 22.2695H19.7979C19.7109 22.2695 19.6238 22.2658 19.5368 22.2622C19.5332 22.3529 19.5259 22.4472 19.5223 22.5379L19.1523 27.5321C19.3591 27.5104 19.5658 27.4995 19.7726 27.4959L20.1135 22.8353Z" fill="#D6954B"/>
<path d="M19.9107 26.6835C17.506 26.8395 15.0941 26.8395 12.6895 26.6835C12.7003 26.4695 12.7148 26.2592 12.7257 26.0452C15.105 26.2011 17.4915 26.2011 19.8708 26.0452C19.8853 26.2592 19.8962 26.4695 19.9107 26.6835Z" fill="#806940"/>
<path d="M19.9107 26.6835C17.506 26.8395 15.0941 26.8395 12.6895 26.6835C12.7003 26.4695 12.7148 26.2592 12.7257 26.0452C15.105 26.2011 17.4915 26.2011 19.8708 26.0452C19.8853 26.2592 19.8962 26.4695 19.9107 26.6835Z" fill="#CE7657"/>
<path d="M19.9107 26.6835C17.506 26.8395 15.0941 26.8395 12.6895 26.6835C12.7003 26.4695 12.7148 26.2592 12.7257 26.0452C15.105 26.2011 17.4915 26.2011 19.8708 26.0452C19.8853 26.2592 19.8962 26.4695 19.9107 26.6835Z" stroke="#434955" stroke-width="0.367863" stroke-miterlimit="10" stroke-linecap="round" stroke-linejoin="round"/>
<path d="M17.6731 26.4768C17.6804 26.7452 17.0638 26.97 16.2985 26.97C15.5332 26.97 14.9166 26.7452 14.9239 26.4768C14.9311 26.2084 15.5477 25.9944 16.2985 25.9944C17.0529 25.9944 17.6659 26.2047 17.6731 26.4768Z" fill="#CE7657"/>
<path d="M17.6731 26.4768C17.6804 26.7452 17.0638 26.97 16.2985 26.97C15.5332 26.97 14.9166 26.7452 14.9239 26.4768C14.9311 26.2084 15.5477 25.9944 16.2985 25.9944C17.0529 25.9944 17.6659 26.2047 17.6731 26.4768Z" stroke="#434955" stroke-width="0.367863" stroke-miterlimit="10" stroke-linecap="round" stroke-linejoin="round"/>
<path d="M18.2314 21.9975C17.6511 21.7907 17.0019 21.6348 16.3091 21.6348C15.6164 21.6348 14.9671 21.7907 14.3868 21.9975C13.8827 22.1788 13.3568 22.2695 12.8236 22.2695C12.6423 22.2695 12.5008 22.4291 12.5081 22.6177L12.7438 27.1767C12.7511 27.3436 12.8817 27.4778 13.0412 27.4886C13.3785 27.5068 13.9951 27.5721 14.7096 27.7788C15.2029 27.9203 15.7433 28.0363 16.3091 28.0363C16.8749 28.0363 17.4117 27.9203 17.9086 27.7788C18.5215 27.6047 19.1526 27.5032 19.7873 27.4959L20.0521 23.9524L20.1464 22.2731H19.7982C19.2651 22.2695 18.7355 22.1752 18.2314 21.9975Z" stroke="#434955" stroke-width="0.367863" stroke-miterlimit="10" stroke-linecap="round" stroke-linejoin="round"/>
<path opacity="0.13" d="M16.3097 27.7425C15.8563 27.7425 15.374 27.6627 14.79 27.4959C14.0719 27.2891 13.4517 27.2166 13.06 27.1948C13.0527 27.1948 13.0382 27.1803 13.0346 27.1586L12.7988 22.5995C12.7988 22.5814 12.8061 22.5705 12.8097 22.5632C12.817 22.556 12.8206 22.556 12.8206 22.556C13.3828 22.556 13.9413 22.4581 14.4817 22.2658C15.131 22.0337 15.7258 21.9213 16.3061 21.9213C16.8864 21.9213 17.4812 22.0337 18.1304 22.2658C18.6708 22.4581 19.2294 22.556 19.7916 22.556H19.8351L19.7589 23.9269L19.5159 27.2093C18.961 27.2347 18.3952 27.3327 17.8258 27.4959C17.4594 27.6011 16.9009 27.7425 16.3097 27.7425Z" stroke="#434955" stroke-width="0.0919658" stroke-miterlimit="10" stroke-linecap="round" stroke-linejoin="round"/>
<path d="M17.7528 14.6021L17.6911 14.0508C17.4699 14.0834 17.2486 14.1124 17.0274 14.1305C16.759 13.8912 16.4108 13.7461 16.03 13.7461C15.6492 13.7461 15.301 13.8912 15.0326 14.1305C14.8113 14.1124 14.5901 14.0834 14.3688 14.0508L14.3072 14.6021C14.2673 14.9575 14.202 15.3093 14.1113 15.6539C14.3543 15.6901 14.5937 15.7191 14.8367 15.7445C15.087 16.0637 15.5258 16.2813 16.0264 16.2813C16.5305 16.2813 16.9694 16.0637 17.216 15.7445C17.459 15.7228 17.702 15.6901 17.9414 15.6539C17.8616 15.3093 17.7927 14.9575 17.7528 14.6021Z" stroke="#434955" stroke-width="0.367863" stroke-miterlimit="10" stroke-linecap="round" stroke-linejoin="round"/>
<path d="M17.9492 15.6538C17.7062 15.6901 17.4668 15.7191 17.2238 15.7445C16.9735 16.0637 16.5347 16.2813 16.0342 16.2813C15.53 16.2813 15.0912 16.0637 14.8445 15.7445C14.6015 15.7227 14.3585 15.6901 14.1191 15.6538C14.13 15.6103 14.1409 15.5668 14.1518 15.5233C14.1953 15.3492 14.2316 15.1751 14.2606 15.001V14.9974C14.2678 14.9575 14.2751 14.9176 14.2787 14.8777C14.2787 14.8704 14.2824 14.8668 14.2824 14.8595C14.2896 14.816 14.2932 14.7761 14.3005 14.7326C14.3077 14.6891 14.3114 14.6419 14.3186 14.5984L14.3803 14.0471L14.8264 10.0974C14.8373 9.98855 14.8445 9.88337 14.8445 9.77456C14.8445 9.42637 14.7792 9.07819 14.6559 8.74451H17.416C17.2528 9.17974 17.1948 9.64036 17.2456 10.0974L17.6917 14.0471L17.7533 14.5984C17.757 14.6419 17.7642 14.6891 17.7715 14.7326C17.8005 14.9538 17.8404 15.1751 17.8875 15.3927C17.8984 15.4362 17.9057 15.4797 17.9165 15.5233C17.9274 15.5704 17.9383 15.6103 17.9492 15.6538Z" stroke="#434955" stroke-width="0.367863" stroke-miterlimit="10" stroke-linecap="round" stroke-linejoin="round"/>
<path d="M17.7532 14.6021L17.2454 10.101C17.1946 9.64402 17.2527 9.1834 17.4159 8.74817H14.6485C14.8117 9.1834 14.8698 9.64402 14.819 10.101L14.3112 14.6021C14.1806 15.7627 13.7744 16.8834 13.1216 17.8844C12.2112 19.2844 11.7869 20.9093 11.9065 22.5378L12.3091 27.9528C12.3563 28.5984 12.9076 29.1098 13.6076 29.1606L14.8008 29.2476C15.6205 29.3057 16.4402 29.3057 17.2599 29.2476L18.4532 29.1606C19.1495 29.1098 19.7008 28.5948 19.7516 27.9528L20.1542 22.5378C20.2739 20.9093 19.8532 19.2844 18.9392 17.8844C18.29 16.8834 17.8837 15.7627 17.7532 14.6021Z" stroke="#434955" stroke-width="0.367863" stroke-miterlimit="10" stroke-linecap="round" stroke-linejoin="round"/>
<path d="M24.3641 22.6721L23.2942 24.0576L22.2242 22.6721C21.662 21.9431 21.3683 21.0073 21.4009 20.0534L21.6366 15.0011H24.9553L25.191 20.0534C25.2201 21.0073 24.9263 21.9431 24.3641 22.6721Z" fill="#97B8A3"/>
<path d="M25.0786 17.6923H21.5097L21.4009 20.0534C21.3683 21.0073 21.662 21.943 22.2242 22.6721L23.2942 24.0575L24.3641 22.6721C24.9263 21.943 25.2201 21.0073 25.1874 20.0534L25.0786 17.6923Z" fill="#F2A356"/>
<path d="M22.5406 22.6721C22.2251 22.2623 21.993 21.7871 21.8552 21.2794C21.7645 20.9421 21.7173 20.5903 21.7137 20.2312C21.7137 20.1732 21.7137 20.1115 21.7173 20.0535L21.7355 19.6835L21.9531 15.0048H21.6339L21.4163 19.6835L21.3982 20.0535C21.3945 20.1115 21.3945 20.1732 21.3945 20.2312C21.3982 20.5866 21.4453 20.9384 21.536 21.2794C21.6702 21.7871 21.9023 22.2623 22.2215 22.6721L23.2914 24.0576L23.3785 23.8871L22.5406 22.6721Z" fill="#FCFFFA"/>
<path d="M23.2949 24.0576V29.041" stroke="#434955" stroke-width="0.367863" stroke-miterlimit="10" stroke-linecap="round" stroke-linejoin="round"/>
<path d="M21.5176 29.0409H25.072" stroke="#434955" stroke-width="0.367863" stroke-miterlimit="10" stroke-linecap="round" stroke-linejoin="round"/>
<path d="M24.9922 18.327L24.9704 17.4457H21.6155L21.5938 18.327H24.9922Z" fill="#FCFFFA"/>
<path d="M22.183 18.2037C22.5235 18.2037 22.7996 17.9277 22.7996 17.5872C22.7996 17.2466 22.5235 16.9706 22.183 16.9706C21.8425 16.9706 21.5664 17.2466 21.5664 17.5872C21.5664 17.9277 21.8425 18.2037 22.183 18.2037Z" fill="#FCFFFA"/>
<path d="M23.0599 18.3524C23.4005 18.3524 23.6765 18.0764 23.6765 17.7358C23.6765 17.3953 23.4005 17.1193 23.0599 17.1193C22.7194 17.1193 22.4434 17.3953 22.4434 17.7358C22.4434 18.0764 22.7194 18.3524 23.0599 18.3524Z" fill="#FCFFFA"/>
<path d="M23.7843 18.1855C24.0567 18.1855 24.2775 17.9647 24.2775 17.6922C24.2775 17.4198 24.0567 17.199 23.7843 17.199C23.5119 17.199 23.291 17.4198 23.291 17.6922C23.291 17.9647 23.5119 18.1855 23.7843 18.1855Z" fill="#FCFFFA"/>
<path d="M24.3289 17.7357C24.5192 17.7357 24.6735 17.5815 24.6735 17.3912C24.6735 17.2009 24.5192 17.0466 24.3289 17.0466C24.1386 17.0466 23.9844 17.2009 23.9844 17.3912C23.9844 17.5815 24.1386 17.7357 24.3289 17.7357Z" fill="#FCFFFA"/>
<path d="M24.7575 17.7359C24.8998 17.7359 25.015 17.6206 25.015 17.4783C25.015 17.3361 24.8998 17.2208 24.7575 17.2208C24.6153 17.2208 24.5 17.3361 24.5 17.4783C24.5 17.6206 24.6153 17.7359 24.7575 17.7359Z" fill="#FCFFFA"/>
<path d="M24.0388 16.0456C24.1249 16.0456 24.1947 15.9757 24.1947 15.8896C24.1947 15.8035 24.1249 15.7336 24.0388 15.7336C23.9526 15.7336 23.8828 15.8035 23.8828 15.8896C23.8828 15.9757 23.9526 16.0456 24.0388 16.0456Z" fill="#FCFFFA"/>
<path d="M24.3641 22.6721L23.2942 24.0576L22.2242 22.6721C21.662 21.9431 21.3683 21.0073 21.4009 20.0534L21.6366 15.0011H24.9553L25.191 20.0534C25.2201 21.0073 24.9263 21.9431 24.3641 22.6721Z" stroke="#434955" stroke-width="0.367863" stroke-miterlimit="10" stroke-linecap="round" stroke-linejoin="round"/>
<path opacity="0.5" d="M22.5801 15.6503V16.6441" stroke="white" stroke-width="0.64376" stroke-miterlimit="10" stroke-linecap="round" stroke-linejoin="round"/>
<path d="M24.2341 19.5311C24.3483 19.5311 24.4408 19.4386 24.4408 19.3244C24.4408 19.2102 24.3483 19.1177 24.2341 19.1177C24.1199 19.1177 24.0273 19.2102 24.0273 19.3244C24.0273 19.4386 24.1199 19.5311 24.2341 19.5311Z" fill="#FFEEEE"/>
<path d="M24.3278 21.2611C24.414 21.2611 24.4838 21.1913 24.4838 21.1052C24.4838 21.019 24.414 20.9492 24.3278 20.9492C24.2417 20.9492 24.1719 21.019 24.1719 21.1052C24.1719 21.1913 24.2417 21.2611 24.3278 21.2611Z" fill="#434955"/>
<path d="M23.1381 19.9918C23.1702 19.9918 23.1961 19.9658 23.1961 19.9338C23.1961 19.9017 23.1702 19.8757 23.1381 19.8757C23.1061 19.8757 23.0801 19.9017 23.0801 19.9338C23.0801 19.9658 23.1061 19.9918 23.1381 19.9918Z" fill="#FFEEEE"/>
<path d="M22.853 20.7499C22.885 20.7499 22.911 20.7239 22.911 20.6918C22.911 20.6598 22.885 20.6338 22.853 20.6338C22.8209 20.6338 22.7949 20.6598 22.7949 20.6918C22.7949 20.7239 22.8209 20.7499 22.853 20.7499Z" fill="#FFEEEE"/>
<path d="M23.4838 21.4389C23.5159 21.4389 23.5418 21.413 23.5418 21.3809C23.5418 21.3488 23.5159 21.3229 23.4838 21.3229C23.4518 21.3229 23.4258 21.3488 23.4258 21.3809C23.4258 21.413 23.4518 21.4389 23.4838 21.4389Z" fill="#FFEEEE"/>
<path opacity="0.5" d="M22.293 20.2167C22.3111 20.797 22.4707 21.4317 23.0184 21.9939" stroke="white" stroke-width="0.64376" stroke-miterlimit="10" stroke-linecap="round" stroke-linejoin="round"/>
<path opacity="0.5" d="M22.3379 19.1285V19.3897" stroke="white" stroke-width="0.64376" stroke-miterlimit="10" stroke-linecap="round" stroke-linejoin="round"/>
<path d="M26.9947 22.6721L25.9247 24.0576L24.8512 22.6721C24.289 21.9431 23.9952 21.0073 24.0278 20.0534L24.2636 15.0011H27.5822L27.818 20.0534C27.8506 21.0073 27.5569 21.9431 26.9947 22.6721Z" fill="#97B8A3"/>
<path d="M27.7056 17.6923H24.1367L24.0278 20.0534C23.9952 21.0073 24.289 21.943 24.8512 22.6721L25.9211 24.0575L26.9911 22.6721C27.5532 21.943 27.847 21.0073 27.8144 20.0534L27.7056 17.6923Z" fill="#F2A356"/>
<path d="M25.1695 22.6721C24.854 22.2623 24.6219 21.7871 24.4841 21.2794C24.3934 20.9421 24.3462 20.5903 24.3426 20.2312C24.3426 20.1732 24.3426 20.1115 24.3462 20.0535L24.3644 19.6835L24.582 15.0048H24.2628L24.0452 19.6835L24.0271 20.0535C24.0234 20.1115 24.0234 20.1732 24.0234 20.2312C24.0271 20.5866 24.0742 20.9384 24.1649 21.2794C24.2991 21.7871 24.5312 22.2623 24.8504 22.6721L25.9203 24.0576L26.0074 23.8871L25.1695 22.6721Z" fill="#FCFFFA"/>
<path d="M25.9199 24.0576V29.041" stroke="#434955" stroke-width="0.367863" stroke-miterlimit="10" stroke-linecap="round" stroke-linejoin="round"/>
<path d="M24.1445 29.0409H27.7026" stroke="#434955" stroke-width="0.367863" stroke-miterlimit="10" stroke-linecap="round" stroke-linejoin="round"/>
<path d="M27.6211 18.327L27.5993 17.4457H24.2444L24.2227 18.327H27.6211Z" fill="#FCFFFA"/>
<path d="M24.806 18.2037C25.1466 18.2037 25.4226 17.9277 25.4226 17.5872C25.4226 17.2466 25.1466 16.9706 24.806 16.9706C24.4655 16.9706 24.1895 17.2466 24.1895 17.5872C24.1895 17.9277 24.4655 18.2037 24.806 18.2037Z" fill="#FCFFFA"/>
<path d="M25.6888 18.3524C26.0294 18.3524 26.3054 18.0764 26.3054 17.7358C26.3054 17.3953 26.0294 17.1193 25.6888 17.1193C25.3483 17.1193 25.0723 17.3953 25.0723 17.7358C25.0723 18.0764 25.3483 18.3524 25.6888 18.3524Z" fill="#FCFFFA"/>
<path d="M26.4213 18.6244C26.7618 18.6244 27.0378 18.3483 27.0378 18.0078C27.0378 17.6673 26.7618 17.3912 26.4213 17.3912C26.0807 17.3912 25.8047 17.6673 25.8047 18.0078C25.8047 18.3483 26.0807 18.6244 26.4213 18.6244Z" fill="#FCFFFA"/>
<path d="M26.9578 17.7357C27.1481 17.7357 27.3024 17.5815 27.3024 17.3912C27.3024 17.2009 27.1481 17.0466 26.9578 17.0466C26.7675 17.0466 26.6133 17.2009 26.6133 17.3912C26.6133 17.5815 26.7675 17.7357 26.9578 17.7357Z" fill="#FCFFFA"/>
<path d="M27.3864 17.7359C27.5287 17.7359 27.6439 17.6206 27.6439 17.4783C27.6439 17.3361 27.5287 17.2208 27.3864 17.2208C27.2442 17.2208 27.1289 17.3361 27.1289 17.4783C27.1289 17.6206 27.2442 17.7359 27.3864 17.7359Z" fill="#FCFFFA"/>
<path d="M26.8055 16.7711C26.8836 16.7711 26.947 16.7077 26.947 16.6296C26.947 16.5515 26.8836 16.4882 26.8055 16.4882C26.7274 16.4882 26.6641 16.5515 26.6641 16.6296C26.6641 16.7077 26.7274 16.7711 26.8055 16.7711Z" fill="#FCFFFA"/>
<path d="M26.9947 22.6721L25.9247 24.0576L24.8512 22.6721C24.289 21.9431 23.9952 21.0073 24.0278 20.0534L24.2636 15.0011H27.5822L27.818 20.0534C27.8506 21.0073 27.5569 21.9431 26.9947 22.6721Z" stroke="#434955" stroke-width="0.367863" stroke-miterlimit="10" stroke-linecap="round" stroke-linejoin="round"/>
<path opacity="0.5" d="M25.209 15.6503V16.6441" stroke="white" stroke-width="0.64376" stroke-miterlimit="10" stroke-linecap="round" stroke-linejoin="round"/>
<path d="M26.8591 19.5311C26.9733 19.5311 27.0658 19.4386 27.0658 19.3244C27.0658 19.2102 26.9733 19.1177 26.8591 19.1177C26.7449 19.1177 26.6523 19.2102 26.6523 19.3244C26.6523 19.4386 26.7449 19.5311 26.8591 19.5311Z" fill="#FFEEEE"/>
<path d="M25.769 19.9918C25.801 19.9918 25.827 19.9658 25.827 19.9338C25.827 19.9017 25.801 19.8757 25.769 19.8757C25.7369 19.8757 25.7109 19.9017 25.7109 19.9338C25.7109 19.9658 25.7369 19.9918 25.769 19.9918Z" fill="#FFEEEE"/>
<path d="M26.9584 20.9348C26.9905 20.9348 27.0165 20.9088 27.0165 20.8768C27.0165 20.8447 26.9905 20.8187 26.9584 20.8187C26.9264 20.8187 26.9004 20.8447 26.9004 20.8768C26.9004 20.9088 26.9264 20.9348 26.9584 20.9348Z" fill="#FFEEEE"/>
<path d="M26.1127 21.4389C26.1448 21.4389 26.1707 21.413 26.1707 21.3809C26.1707 21.3488 26.1448 21.3229 26.1127 21.3229C26.0807 21.3229 26.0547 21.3488 26.0547 21.3809C26.0547 21.413 26.0807 21.4389 26.1127 21.4389Z" fill="#FFEEEE"/>
<path opacity="0.5" d="M24.9219 20.2167C24.94 20.797 25.0996 21.4317 25.6473 21.9939" stroke="white" stroke-width="0.64376" stroke-miterlimit="10" stroke-linecap="round" stroke-linejoin="round"/>
<path opacity="0.5" d="M24.9668 19.1285V19.3897" stroke="white" stroke-width="0.64376" stroke-miterlimit="10" stroke-linecap="round" stroke-linejoin="round"/>
<path d="M33.2283 29.2948H6.31641" stroke="#434955" stroke-width="0.367863" stroke-miterlimit="10" stroke-linecap="round" stroke-linejoin="round"/>
<path d="M16.9013 7.98299H15.0987C14.8702 7.98299 14.6816 7.79801 14.6816 7.56589V7.41356C14.6816 7.18506 14.8666 6.99646 15.0987 6.99646H16.9013C17.1298 6.99646 17.3184 7.18143 17.3184 7.41356V7.56589C17.3184 7.79801 17.1298 7.98299 16.9013 7.98299Z" fill="#7D9D6B"/>
<path d="M15.0499 7.56589V7.41356C15.0499 7.18506 15.2349 6.99646 15.467 6.99646H15.1007C14.8722 6.99646 14.6836 7.18143 14.6836 7.41356V7.56589C14.6836 7.79439 14.8686 7.98299 15.1007 7.98299H15.467C15.2349 7.98299 15.0499 7.79801 15.0499 7.56589Z" fill="#FCFFFA"/>
<path d="M16.9013 7.98299H15.0987C14.8702 7.98299 14.6816 7.79801 14.6816 7.56589V7.41356C14.6816 7.18506 14.8666 6.99646 15.0987 6.99646H16.9013C17.1298 6.99646 17.3184 7.18143 17.3184 7.41356V7.56589C17.3184 7.79801 17.1298 7.98299 16.9013 7.98299Z" stroke="#434955" stroke-width="0.367863" stroke-miterlimit="10" stroke-linecap="round" stroke-linejoin="round"/>
<path opacity="0.5" d="M15.375 7.38086V7.47879" stroke="white" stroke-width="0.64376" stroke-miterlimit="10" stroke-linecap="round" stroke-linejoin="round"/>
<path d="M16.8064 8.96222H14.9386C14.623 8.96222 14.3691 8.70834 14.3691 8.39279C14.3691 8.07725 14.623 7.82336 14.9386 7.82336H16.8064C17.122 7.82336 17.3759 8.07725 17.3759 8.39279C17.3759 8.70834 17.122 8.96222 16.8064 8.96222Z" fill="#7D9D6B"/>
<path d="M14.8119 8.39279C14.8119 8.07725 15.0477 7.82336 15.3378 7.82336H14.899C14.6088 7.82336 14.373 8.07725 14.373 8.39279C14.373 8.70834 14.6088 8.96222 14.899 8.96222H15.3378C15.0477 8.96222 14.8119 8.70834 14.8119 8.39279Z" fill="#FCFFFA"/>
<path d="M16.8064 8.96222H14.9386C14.623 8.96222 14.3691 8.70834 14.3691 8.39279C14.3691 8.07725 14.623 7.82336 14.9386 7.82336H16.8064C17.122 7.82336 17.3759 8.07725 17.3759 8.39279C17.3759 8.70834 17.122 8.96222 16.8064 8.96222Z" stroke="#434955" stroke-width="0.367863" stroke-miterlimit="10" stroke-linecap="round" stroke-linejoin="round"/>
<path d="M17.7866 6.55032C17.7902 6.5213 17.7939 6.49591 17.7939 6.4669C17.7939 6.0897 17.4892 5.78503 17.112 5.78503C16.9524 5.78503 16.8073 5.83944 16.6913 5.93011C16.6115 5.89747 16.5244 5.87933 16.4301 5.87933C16.1799 5.87933 15.9622 6.01353 15.8426 6.21664C15.7628 6.18037 15.6721 6.16949 15.5778 6.18037C15.3602 6.20939 15.1861 6.39073 15.1607 6.61198C15.1317 6.90576 15.3602 7.15239 15.6467 7.15239C15.7591 7.15239 15.8643 7.11249 15.9477 7.04721C16.0711 7.17052 16.2415 7.24669 16.4301 7.24669C16.4555 7.24669 16.4773 7.24669 16.5027 7.24306V7.24669C16.6876 7.24669 16.84 7.39902 16.84 7.584V9.87985C16.84 10.1446 17.054 10.3586 17.3187 10.3586C17.5835 10.3586 17.7975 10.1446 17.7975 9.87985V6.63737C17.7975 6.60835 17.7939 6.57933 17.7866 6.55032Z" fill="#FCFFFA"/>
<path d="M17.7866 6.55032C17.7902 6.5213 17.7939 6.49591 17.7939 6.4669C17.7939 6.0897 17.4892 5.78503 17.112 5.78503C16.9524 5.78503 16.8073 5.83944 16.6913 5.93011C16.6115 5.89747 16.5244 5.87933 16.4301 5.87933C16.1799 5.87933 15.9622 6.01353 15.8426 6.21664C15.7628 6.18037 15.6721 6.16949 15.5778 6.18037C15.3602 6.20939 15.1861 6.39073 15.1607 6.61198C15.1317 6.90576 15.3602 7.15239 15.6467 7.15239C15.7591 7.15239 15.8643 7.11249 15.9477 7.04721C16.0711 7.17052 16.2415 7.24669 16.4301 7.24669C16.4555 7.24669 16.4773 7.24669 16.5027 7.24306V7.24669C16.6876 7.24669 16.84 7.39902 16.84 7.584V9.87985C16.84 10.1446 17.054 10.3586 17.3187 10.3586C17.5835 10.3586 17.7975 10.1446 17.7975 9.87985V6.63737C17.7975 6.60835 17.7939 6.57933 17.7866 6.55032Z" stroke="#434955" stroke-width="0.367863" stroke-miterlimit="10" stroke-linecap="round" stroke-linejoin="round"/>
<path opacity="0.5" d="M15.2656 8.2876V8.48345" stroke="white" stroke-width="0.64376" stroke-miterlimit="10" stroke-linecap="round" stroke-linejoin="round"/>
<path d="M16.2996 24.8338C17.0788 24.8338 17.7104 24.4424 17.7104 23.9597C17.7104 23.4769 17.0788 23.0856 16.2996 23.0856C15.5203 23.0856 14.8887 23.4769 14.8887 23.9597C14.8887 24.4424 15.5203 24.8338 16.2996 24.8338Z" fill="#FCFFFA"/>
</svg>
