<svg width="24" height="25" viewBox="0 0 24 25" fill="none" stroke="#434F68" xmlns="http://www.w3.org/2000/svg">
<path d="M21 11.7858V9.08577C21 7.40561 21 6.56553 20.673 5.9238C20.3854 5.35931 19.9265 4.90037 19.362 4.61275C18.7202 4.28577 17.8802 4.28577 16.2 4.28577H7.8C6.11984 4.28577 5.27976 4.28577 4.63803 4.61275C4.07354 4.90037 3.6146 5.35931 3.32698 5.9238C3 6.56553 3 7.40561 3 9.08577V17.4858C3 19.1659 3 20.006 3.32698 20.6477C3.6146 21.2122 4.07354 21.6712 4.63803 21.9588C5.27976 22.2858 6.11984 22.2858 7.8 22.2858H12.5M21 10.2858H3M16 2.28577V6.28577M8 2.28577V6.28577M18 21.2858V15.2858M15 18.2858H21" stroke-width="1.5" stroke-linecap="round" stroke-linejoin="round"/>
</svg>
