<svg width="24" height="24" viewBox="0 0 24 24" fill="none" stroke="#4A9ECD" xmlns="http://www.w3.org/2000/svg">
<g id="Hamburger Menu Icons">
<path id="Icon" d="M12.5 1H13.2C14.8802 1 15.7202 1 16.362 1.32698C16.9265 1.6146 17.3854 2.07354 17.673 2.63803C18 3.27976 18 4.11984 18 5.8V16.2C 18 16.2C18 16.2 18 17.7202 17.673 18.362C17.3854 18.9265 16.9265 19.3854 16.362 19.673C15.7202 20 14.8802 20 13.2 20H8.8C7.11984 20 6.27976 20 5.63803 19.673V19.673C5.63679 19.6724 5.63989 19.674 5.62182 19.6644C4.65025 19.1526 4.06245 18.2179 4.02209 17.1205C4.02134 17.1 4.01717 16.9198 4.00883 16.5593C4 16.1776 4 15.8 4 15.5M14 12H11.5M14 8H12.5M14 16H8M6 9V3.5C6 2.67157 6.67157 2 7.5 2C8.32843 2 9 2.67157 9 3.5V9C9 10.6569 7.65685 12 6 12C4.34315 12 3 10.6569 3 9V5M20 5V5C20.5523 5 21 5.44772 21 6V16.1C21 18.3402 21 19.4603 20.564 20.316C20.1805 21.0686 19.5686 21.6805 18.816 22.064C17.9603 22.5 16.8402 22.5 14.6 22.5H9" stroke-width="1.5" stroke-linecap="round" stroke-linejoin="round"/>
</g>
</svg>
