<svg width="21" height="20" viewBox="0 0 21 20" fill="none" stroke="none"
    xmlns="http://www.w3.org/2000/svg">
    <path
        d="M8.46183 17.4998C9.04944 18.0185 9.82131 18.3332 10.6667 18.3332C11.5121 18.3332 12.2839 18.0185 12.8715 17.4998M15.6667 6.6665V1.6665M13.1667 4.1665H18.1667M11.5 1.73642C11.2265 1.69018 10.9478 1.6665 10.6667 1.6665C9.3406 1.6665 8.06883 2.19329 7.13115 3.13097C6.19347 4.06865 5.66668 5.34042 5.66668 6.6665C5.66668 9.24166 5.01707 11.0048 4.2914 12.171C3.67929 13.1547 3.37323 13.6466 3.38445 13.7838C3.39688 13.9357 3.42907 13.9937 3.5515 14.0845C3.66206 14.1665 4.16051 14.1665 5.15739 14.1665H16.176C17.1728 14.1665 17.6712 14.1665 17.7818 14.0845C17.9042 13.9937 17.9364 13.9357 17.9489 13.7838C17.9601 13.6466 17.654 13.1547 17.0418 12.1708C16.6318 11.5118 16.2461 10.6622 15.9881 9.58317"
        stroke-width="1.5" stroke-linecap="round" stroke-linejoin="round" />
</svg>