<svg width="24" height="25" viewBox="0 0 24 25" fill="none" stroke="none"
    xmlns="http://www.w3.org/2000/svg">
    <path
        d="M16 4.5C16.93 4.5 17.395 4.5 17.7765 4.60222C18.8117 4.87962 19.6204 5.68827 19.8978 6.72354C20 7.10504 20 7.57003 20 8.5V17.7C20 19.3802 20 20.2202 19.673 20.862C19.3854 21.4265 18.9265 21.8854 18.362 22.173C17.7202 22.5 16.8802 22.5 15.2 22.5H8.8C7.11984 22.5 6.27976 22.5 5.63803 22.173C5.07354 21.8854 4.6146 21.4265 4.32698 20.862C4 20.2202 4 19.3802 4 17.7V8.5C4 7.57003 4 7.10504 4.10222 6.72354C4.37962 5.68827 5.18827 4.87962 6.22354 4.60222C6.60504 4.5 7.07003 4.5 8 4.5M12 17.5V11.5M9 14.5H15M9.6 6.5H14.4C14.9601 6.5 15.2401 6.5 15.454 6.39101C15.6422 6.29513 15.7951 6.14215 15.891 5.95399C16 5.74008 16 5.46005 16 4.9V4.1C16 3.53995 16 3.25992 15.891 3.04601C15.7951 2.85785 15.6422 2.70487 15.454 2.60899C15.2401 2.5 14.9601 2.5 14.4 2.5H9.6C9.03995 2.5 8.75992 2.5 8.54601 2.60899C8.35785 2.70487 8.20487 2.85785 8.10899 3.04601C8 3.25992 8 3.53995 8 4.1V4.9C8 5.46005 8 5.74008 8.10899 5.95399C8.20487 6.14215 8.35785 6.29513 8.54601 6.39101C8.75992 6.5 9.03995 6.5 9.6 6.5Z"
        stroke-width="1.5" stroke-linecap="round" stroke-linejoin="round" />
</svg>