<svg width="18" height="22" viewBox="0 0 18 22" fill="none" stroke="#434F68" xmlns="http://www.w3.org/2000/svg">
<g id="Group 40410">
<path id="Icon" d="M16.9999 9.5V5.8C16.9999 4.11984 16.9999 3.27976 16.673 2.63803C16.3853 2.07354 15.9264 1.6146 15.3619 1.32698C14.7202 1 13.8801 1 12.1999 1H5.79994C4.11978 1 3.2797 1 2.63797 1.32698C2.07348 1.6146 1.61454 2.07354 1.32692 2.63803C0.999939 3.27976 0.999939 4.11984 0.999939 5.8V16.2C0.999939 17.8802 0.999939 18.7202 1.32692 19.362C1.61454 19.9265 2.07348 20.3854 2.63797 20.673C3.2797 21 4.11978 21 5.79994 21H8.99994M5.99994 10H5.49994H4.99994M9.99994 6H4.99994"  stroke-width="1.5" stroke-linecap="round" stroke-linejoin="round"/>
<path id="Icon_2" d="M10.5999 17.6389H13.4799C14.3731 17.6389 14.8197 17.6389 15.1831 17.7441C16.0012 17.9811 16.6415 18.5925 16.8897 19.3737C16.9999 19.7207 16.9999 20.1472 16.9999 21M8.99994 12.75C8.99994 14.2688 10.2894 15.5 11.8799 15.5C13.4705 15.5 14.7599 14.2688 14.7599 12.75C14.7599 11.2312 13.4705 10 11.8799 10C10.2894 10 8.99994 11.2312 8.99994 12.75Z"  stroke-width="1.5" stroke-linecap="round" stroke-linejoin="round"/>
</g>
</svg>
