<svg width="18" height="15" viewBox="0 0 18 15" fill="none" stroke="#434F68"
    xmlns="http://www.w3.org/2000/svg">
    <path
        d="M1.01677 8.0944C0.90328 7.9147 0.846535 7.82485 0.81477 7.68626C0.79091 7.58216 0.79091 7.418 0.81477 7.3139C0.846535 7.17532 0.90328 7.08547 1.01677 6.90577C1.95461 5.42078 4.74617 1.66675 9.00034 1.66675C13.2545 1.66675 16.0461 5.42078 16.9839 6.90577C17.0974 7.08547 17.1541 7.17532 17.1859 7.3139C17.2098 7.418 17.2098 7.58216 17.1859 7.68626C17.1541 7.82485 17.0974 7.9147 16.9839 8.0944C16.0461 9.57938 13.2545 13.3334 9.00034 13.3334C4.74617 13.3334 1.95461 9.57938 1.01677 8.0944Z"
        stroke-width="1.5" stroke-linecap="round" stroke-linejoin="round" />
    <path
        d="M9.00034 10.0001C10.381 10.0001 11.5003 8.88079 11.5003 7.50008C11.5003 6.11937 10.381 5.00008 9.00034 5.00008C7.61962 5.00008 6.50034 6.11937 6.50034 7.50008C6.50034 8.88079 7.61962 10.0001 9.00034 10.0001Z"
        stroke-width="1.5" stroke-linecap="round" stroke-linejoin="round" />
</svg>