<svg width="24" height="25" viewBox="0 0 24 25" fill="none" stroke="#434F68" xmlns="http://www.w3.org/2000/svg">
<g id="Master - Icons">
<path id="Icon" d="M9 21.7753V14.3765C9 13.8166 9 13.5366 9.10899 13.3227C9.20487 13.1346 9.35785 12.9816 9.54601 12.8858C9.75992 12.7768 10.0399 12.7768 10.6 12.7768H13.4C13.9601 12.7768 14.2401 12.7768 14.454 12.8858C14.6422 12.9816 14.7951 13.1346 14.891 13.3227C15 13.5366 15 13.8166 15 14.3765V21.7753M11.0177 3.54236L4.23539 8.8166C3.78202 9.16916 3.55534 9.34544 3.39203 9.56621C3.24737 9.76176 3.1396 9.98206 3.07403 10.2163C3 10.4807 3 10.7678 3 11.3421V18.5758C3 19.6957 3 20.2557 3.21799 20.6835C3.40973 21.0597 3.71569 21.3656 4.09202 21.5573C4.51984 21.7753 5.07989 21.7753 6.2 21.7753H17.8C18.9201 21.7753 19.4802 21.7753 19.908 21.5573C20.2843 21.3656 20.5903 21.0597 20.782 20.6835C21 20.2557 21 19.6957 21 18.5758V11.3421C21 10.7678 21 10.4807 20.926 10.2163C20.8604 9.98206 20.7526 9.76176 20.608 9.56621C20.4447 9.34544 20.218 9.16916 19.7646 8.8166L12.9823 3.54236C12.631 3.26915 12.4553 3.13255 12.2613 3.08004C12.0902 3.03371 11.9098 3.03371 11.7387 3.08004C11.5447 3.13255 11.369 3.26915 11.0177 3.54236Z"  stroke-width="1.4" stroke-linecap="round" stroke-linejoin="round"/>
</g>
</svg>
