<svg width="24" height="25" viewBox="0 0 24 25" fill="none" stroke="#434F68" xmlns="http://www.w3.org/2000/svg">
<g id="Master - Icons">
<path id="Icon" d="M16 7.04529C16 6.11532 16 5.65033 15.8978 5.26883C15.6204 4.23355 14.8117 3.42491 13.7765 3.14751C13.395 3.04529 12.93 3.04529 12 3.04529C11.07 3.04529 10.605 3.04529 10.2235 3.14751C9.18827 3.42491 8.37962 4.23355 8.10222 5.26883C8 5.65033 8 6.11532 8 7.04529M5.2 21.0453H18.8C19.9201 21.0453 20.4802 21.0453 20.908 20.8273C21.2843 20.6356 21.5903 20.3296 21.782 19.9533C22 19.5254 22 18.9654 22 17.8453V10.2453C22 9.12518 22 8.56513 21.782 8.13731C21.5903 7.76098 21.2843 7.45502 20.908 7.26328C20.4802 7.04529 19.9201 7.04529 18.8 7.04529H5.2C4.07989 7.04529 3.51984 7.04529 3.09202 7.26328C2.71569 7.45502 2.40973 7.76098 2.21799 8.13731C2 8.56513 2 9.12518 2 10.2453V17.8453C2 18.9654 2 19.5254 2.21799 19.9533C2.40973 20.3296 2.71569 20.6356 3.09202 20.8273C3.51984 21.0453 4.0799 21.0453 5.2 21.0453Z"  stroke-width="1.5" stroke-linecap="round" stroke-linejoin="round"/>
</g>
</svg>
