<svg width="38" height="38" viewBox="0 0 38 38" fill="none" xmlns="http://www.w3.org/2000/svg">
    <path
        d="M25.408 25.5591C26.6794 27.8289 26.938 30.1755 25.8632 32.5869C23.8254 37.1589 18.0272 38.4299 14.1483 35.2624C11.4532 33.0613 10.9037 28.9517 12.3287 26.1899C12.431 25.9917 12.493 25.7734 12.5711 25.5699C11.5771 25.8691 10.6599 26.1616 9.73461 26.4204C8.16283 26.8584 6.67051 26.4999 5.27248 25.803C2.14238 24.2436 0.600234 21.0208 1.10935 17.8048C1.62519 14.5416 4.28119 12.0467 7.57694 11.5911C9.42752 11.335 11.072 11.8404 12.6546 12.7125C12.695 12.7368 12.7341 12.7597 12.7745 12.7839C12.7664 12.7327 12.757 12.6815 12.7489 12.6303C11.2081 10.0518 11.0626 7.41133 12.5307 4.77489C14.4877 1.26099 18.9983 -0.0329628 22.5014 1.85136C26.1582 3.81926 27.5683 8.25645 25.6962 11.9065C25.5642 12.1626 25.4174 12.4119 25.1723 12.8527C25.5319 12.6546 25.7272 12.5454 25.9238 12.4402C30.689 9.9022 35.9444 12.8662 36.832 17.4543C37.4192 20.4897 36.6192 23.2192 33.9012 25.0819C31.3139 26.8557 28.6175 26.9757 25.8417 25.5402C25.742 25.489 25.6423 25.4391 25.544 25.3879C25.4457 25.3421 25.3474 25.2962 25.1036 25.1817C25.2773 25.3946 25.342 25.4755 25.408 25.5564V25.5591ZM1.84473 19.0071C1.96864 21.6934 3.13098 23.7772 5.60245 24.9781C8.06451 26.1751 10.435 25.8677 12.6196 24.2355C13.0034 23.9484 13.2526 23.9578 13.6068 24.2692C14.0903 24.6951 14.1186 25.0321 13.7105 25.5658C12.0189 27.7804 11.9179 30.7187 13.39 33.0748C14.8419 35.3972 17.5531 36.586 20.228 36.0711C25.1372 35.1263 27.3111 29.511 24.3008 25.5025C23.9345 25.0159 23.9736 24.7288 24.379 24.3069C24.8544 23.8136 25.1763 24.0683 25.5831 24.3676C28.3158 26.3718 32.1786 25.9958 34.3915 23.5588C36.6327 21.0895 36.9586 17.4314 34.4723 14.6534C32.021 11.9146 28.3737 11.5978 25.5036 13.7302C25.0726 14.0496 24.7844 14.1332 24.3615 13.7099C23.9318 13.28 23.9587 12.9807 24.313 12.513C25.68 10.7082 26.0545 8.6635 25.3581 6.52847C24.4881 3.86238 22.5971 2.26516 19.7943 1.91067C17.0709 1.56561 14.4634 2.90674 13.2081 5.29383C11.899 7.782 12.0593 10.2216 13.7388 12.5049C14.0621 12.9443 14.1254 13.2301 13.7105 13.6493C13.2957 14.0685 13.0155 14.0927 12.5239 13.7288C10.369 12.1329 8.02006 11.9024 5.61727 13.0603C3.17542 14.2383 1.98345 16.2857 1.84473 19.0071Z"
        fill="url(#paint0_radial_1003_37781)" />
    <path
        d="M13.1368 21.1542C12.6089 21.6583 12.128 22.1597 11.6028 22.6112C10.136 23.8742 7.98511 24.1384 6.39313 23.2757C4.47117 22.2352 3.56069 20.4964 3.79639 18.3156C3.98899 16.5364 5.44764 14.8758 7.31573 14.4081C8.94273 14.001 10.4148 14.3703 11.6984 15.4702C12.0472 15.7694 12.0782 16.0431 11.7469 16.3665C11.3765 16.7264 10.9953 17.0782 10.6573 17.4664C10.299 17.8789 9.99328 17.9287 9.51514 17.5998C8.55753 16.9394 7.37768 17.2912 6.92245 18.3061C6.61267 18.9962 6.76352 19.7713 7.30495 20.2794C7.88679 20.8253 8.6545 20.925 9.34948 20.5369C9.50437 20.4506 9.6606 20.3495 9.78586 20.2255C12.1482 17.8896 14.5052 15.5497 17.0158 13.0602C16.5376 12.6478 16.0838 12.3175 15.7026 11.9186C13.4049 9.50722 13.9072 5.93941 16.7599 4.30713C18.7505 3.16818 21.385 3.74777 22.8315 5.64422C24.2026 7.44229 24.0571 10.2229 22.4786 11.742C22.3399 11.8754 21.9008 11.9064 21.7581 11.7905C21.2543 11.3848 20.8153 10.8969 20.356 10.4359C20.0018 10.0814 20.2523 9.79028 20.4543 9.48566C20.8813 8.83868 20.8759 8.17013 20.4637 7.52855C20.0772 6.9274 19.494 6.69017 18.7869 6.7643C17.6636 6.88157 16.9363 8.15665 17.4185 9.17969C17.5128 9.38052 17.6299 9.58405 17.7835 9.73906C20.1445 12.1046 22.5136 14.4633 24.9097 16.8518C25.4633 16.3301 25.9966 15.791 26.569 15.2963C28.0169 14.0469 30.0991 14.0118 31.5362 14.7073C33.5673 15.6899 34.4212 17.74 34.2663 19.2645C34.0427 21.4642 32.8036 23.0102 30.8857 23.5615C29.2291 24.0373 27.7556 23.6922 26.4182 22.622C25.94 22.2392 25.9535 21.9184 26.3912 21.5397C26.6108 21.3496 26.8047 21.1286 27.0108 20.9223C27.5459 20.3868 28.1413 20.2776 28.7967 20.5948C29.5065 20.9385 30.3725 20.7485 30.8641 20.1392C31.4069 19.4693 31.4123 18.5663 30.8803 17.9085C30.3887 17.302 29.5065 17.0823 28.8183 17.4246C28.5812 17.5419 28.3523 17.7009 28.165 17.8869C25.9064 20.1365 23.6558 22.3942 21.4052 24.6506C21.3284 24.7274 21.2665 24.8177 21.2072 24.8905C21.7621 25.5065 22.3561 26.0658 22.8288 26.7128C24.0087 28.3276 24.1339 30.0798 23.1736 31.8253C22.1648 33.6597 20.5243 34.4738 18.461 34.2501C16.5619 34.0439 15.2285 32.9642 14.5685 31.1729C13.918 29.4059 14.2911 27.7871 15.4884 26.3367C15.7794 25.985 16.042 25.9944 16.3316 26.268C16.803 26.7155 17.2542 27.1873 17.7175 27.6442C18.069 27.9906 17.7916 28.2332 17.603 28.5122C17.0723 29.2967 17.1747 30.2173 17.8427 30.8279C18.4865 31.4155 19.4334 31.4452 20.1189 30.8993C20.9068 30.2725 21.0159 29.0783 20.2819 28.3329C17.9209 25.9337 15.5329 23.5601 13.1341 21.1569L13.1368 21.1542ZM15.4925 18.9383C16.6979 20.1446 17.9236 21.3698 19.0482 22.4953C20.1944 21.3483 21.4092 20.1325 22.5419 18.9989C21.3836 17.8371 20.1701 16.6213 19.0064 15.454C17.832 16.6186 16.6131 17.8276 15.4925 18.9383Z"
        fill="url(#paint1_radial_1003_37781)" />
    <defs>
        <radialGradient id="paint0_radial_1003_37781" cx="0" cy="0" r="1"
            gradientUnits="userSpaceOnUse"
            gradientTransform="translate(19.0137 19) scale(18 18.0133)">
            <stop stop-color="#ABD1BC" />
            <stop offset="1" stop-color="#ABD1BC" />
        </radialGradient>
        <radialGradient id="paint1_radial_1003_37781" cx="0" cy="0" r="1"
            gradientUnits="userSpaceOnUse"
            gradientTransform="translate(19.0137 19) scale(18 18.0133)">
            <stop stop-color="#ABD1BC" />
            <stop offset="1" stop-color="#ABD1BC" />
        </radialGradient>
    </defs>
</svg>