<svg width="36" height="36" viewBox="0 0 36 36" fill="none" xmlns="http://www.w3.org/2000/svg">
    <g id="Group 40412">
        <g id="Vector">
            <path
                d="M11.1505 23.7474C8.94086 24.9851 6.65645 25.2368 4.30905 24.1905C-0.141679 22.2068 -1.37901 16.5623 1.70448 12.7863C3.84718 10.1627 7.84786 9.62772 10.5364 11.0149C10.7293 11.1146 10.9419 11.1749 11.14 11.2509C10.8487 10.2833 10.564 9.39041 10.312 8.48966C9.88559 6.95956 10.2346 5.50682 10.913 4.14586C12.4311 1.09878 15.5684 -0.402473 18.6991 0.0931363C21.8758 0.595302 24.3045 3.18086 24.748 6.38921C24.9973 8.19072 24.5053 9.79161 23.6564 11.3322C23.6327 11.3715 23.6104 11.4096 23.5868 11.4489C23.6367 11.441 23.6865 11.4318 23.7364 11.424C26.2465 9.92404 28.8169 9.78244 31.3835 11.2116C34.8042 13.1167 36.0638 17.5077 34.2295 20.9179C32.3138 24.4777 27.9942 25.8504 24.441 24.0279C24.1917 23.8994 23.949 23.7565 23.5199 23.5179C23.7128 23.868 23.8191 24.0581 23.9214 24.2495C26.3921 28.8883 23.5068 34.0044 19.0403 34.8684C16.0854 35.4401 13.4283 34.6613 11.615 32.0154C9.88821 29.4967 9.77143 26.8718 11.1688 24.1695C11.2187 24.0725 11.2673 23.9755 11.3171 23.8798C11.3617 23.7841 11.4063 23.6884 11.5179 23.451C11.3106 23.6202 11.2318 23.6831 11.1531 23.7474H11.1505ZM17.5287 0.809017C14.9137 0.929641 12.8851 2.06115 11.716 4.46709C10.5508 6.86385 10.85 9.17145 12.439 11.2981C12.7185 11.6718 12.7093 11.9143 12.4062 12.2592C11.9916 12.7299 11.6635 12.7574 11.1439 12.3601C8.9881 10.7133 6.12766 10.615 3.83406 12.0481C1.57327 13.4615 0.415975 16.1008 0.917207 18.7047C1.83701 23.4838 7.30332 25.6 11.2056 22.6696C11.6793 22.313 11.9587 22.351 12.3694 22.7456C12.8497 23.2085 12.6017 23.5218 12.3104 23.9178C10.3593 26.5781 10.7253 30.3384 13.0977 32.4926C15.5015 34.6744 19.0626 34.9917 21.7669 32.5713C24.4331 30.185 24.7415 26.6345 22.6657 23.8404C22.3547 23.4209 22.2734 23.1403 22.6854 22.7286C23.1039 22.3103 23.3952 22.3366 23.8505 22.6814C25.6075 24.0122 27.598 24.3767 29.6764 23.6988C32.2718 22.8518 33.8266 21.011 34.1717 18.2825C34.5076 15.6314 33.2021 13.0931 30.8783 11.8711C28.4561 10.5967 26.0812 10.7527 23.8584 12.3877C23.4307 12.7023 23.1525 12.764 22.7444 12.3601C22.3364 11.9563 22.3127 11.6836 22.667 11.205C24.2206 9.1072 24.4449 6.82058 23.3178 4.48151C22.171 2.10442 20.1779 0.944064 17.5287 0.809017Z"
                fill="url(#paint0_linear_1_2364)" />
            <path
                d="M15.4386 11.8017C14.9478 11.2877 14.4597 10.8196 14.0201 10.3083C12.7907 8.88044 12.5335 6.78656 13.3733 5.2368C14.3862 3.3658 16.0789 2.47948 18.2019 2.70892C19.9339 2.89642 21.5504 4.31638 22.0057 6.13492C22.402 7.71878 22.0425 9.15185 20.9718 10.4014C20.6805 10.7409 20.4141 10.7711 20.0992 10.4486C19.7489 10.088 19.4064 9.71695 19.0285 9.38785C18.627 9.03909 18.5785 8.74146 18.8986 8.27601C19.5416 7.34379 19.1991 6.19524 18.2111 5.75207C17.5393 5.45051 16.7848 5.59736 16.2901 6.12443C15.7587 6.69085 15.6616 7.43819 16.0395 8.11474C16.1235 8.26552 16.2219 8.41761 16.3426 8.53955C18.6165 10.8393 20.8944 13.1338 23.3179 15.5777C23.7194 15.1123 24.0409 14.6704 24.4292 14.2994C26.7766 12.0626 30.2498 12.5516 31.8388 15.3286C32.9476 17.2665 32.3834 19.8311 30.5372 21.2392C28.7868 22.574 26.0799 22.4324 24.6011 20.8957C24.4712 20.7607 24.4411 20.3332 24.5539 20.1942C24.9488 19.7039 25.4238 19.2764 25.8726 18.8293C26.2177 18.4845 26.5011 18.7284 26.7976 18.9251C27.4275 19.3407 28.0783 19.3354 28.7028 18.9342C29.288 18.5579 29.519 17.9902 29.4468 17.3019C29.3327 16.2084 28.0914 15.5004 27.0955 15.9698C26.9 16.0615 26.7018 16.1756 26.551 16.3251C24.2482 18.6235 21.9519 20.9298 19.6269 23.2623C20.1347 23.8012 20.6595 24.3204 21.1411 24.8776C22.3574 26.2871 22.3915 28.3141 21.7145 29.7131C20.7579 31.6903 18.7622 32.5215 17.2782 32.3708C15.1368 32.1531 13.6318 30.9469 13.0951 29.0798C12.6319 27.4671 12.9678 26.0327 14.0096 24.7308C14.3823 24.2653 14.6946 24.2784 15.0633 24.7046C15.2483 24.9183 15.4635 25.1071 15.6642 25.3077C16.1856 25.8286 16.2919 26.4082 15.9831 27.0462C15.6485 27.7372 15.8335 28.5803 16.4266 29.0588C17.0787 29.5872 17.9578 29.5925 18.5982 29.0746C19.1886 28.596 19.4025 27.7372 19.0692 27.0672C18.9551 26.8365 18.8002 26.6136 18.6191 26.4313C16.4292 24.2325 14.2314 22.0416 12.0349 19.8507C11.9601 19.776 11.8722 19.7157 11.8013 19.658C11.2017 20.1982 10.6572 20.7764 10.0273 21.2366C8.45542 22.3852 6.74966 22.5071 5.05045 21.5722C3.26465 20.5902 2.47212 18.9932 2.68994 16.9846C2.89069 15.1359 3.94171 13.8379 5.68552 13.1954C7.40572 12.5621 8.98158 12.9253 10.3934 14.0909C10.7359 14.3741 10.7267 14.6298 10.4603 14.9117C10.0247 15.3706 9.56548 15.8098 9.12067 16.2608C8.78345 16.603 8.54727 16.3329 8.27566 16.1494C7.512 15.6328 6.61582 15.7324 6.02143 16.3828C5.44934 17.0095 5.42047 17.9312 5.95188 18.5986C6.56202 19.3656 7.72457 19.4718 8.45017 18.7572C10.7858 16.4588 13.0964 14.1342 15.4359 11.799L15.4386 11.8017ZM17.5957 14.0948C16.4213 15.2683 15.2286 16.4614 14.133 17.5562C15.2496 18.672 16.4331 19.8547 17.5366 20.9573C18.6677 19.8297 19.8512 18.6484 20.9875 17.5156C19.8539 16.3723 18.6769 15.1857 17.5957 14.0948Z"
                fill="url(#paint1_linear_1_2364)" />
        </g>
    </g>
    <defs>
        <linearGradient id="paint0_linear_1_2364" x1="8.7678" y1="2.34759" x2="26.284" y2="32.7089"
            gradientUnits="userSpaceOnUse">
            <stop stop-color="#6FCBFF" />
            <stop offset="1" stop-color="#0E8FE2" />
        </linearGradient>
        <linearGradient id="paint1_linear_1_2364" x1="8.7678" y1="2.34759" x2="26.284" y2="32.7089"
            gradientUnits="userSpaceOnUse">
            <stop stop-color="#6FCBFF" />
            <stop offset="1" stop-color="#0E8FE2" />
        </linearGradient>
    </defs>
</svg>