<svg width="25" height="24" viewBox="0 0 25 24" fill="none" xmlns="http://www.w3.org/2000/svg">
<path d="M12.5 4.92375L11.9291 5.4101L12.5 6.08032L13.0709 5.4101L12.5 4.92375ZM8.5 11.25C8.08579 11.25 7.75 11.5858 7.75 12C7.75 12.4142 8.08579 12.75 8.5 12.75V11.25ZM16.5 12.75C16.9142 12.75 17.25 12.4142 17.25 12C17.25 11.5858 16.9142 11.25 16.5 11.25V12.75ZM13.25 8C13.25 7.58579 12.9142 7.25 12.5 7.25C12.0858 7.25 11.75 7.58579 11.75 8H13.25ZM11.75 16C11.75 16.4142 12.0858 16.75 12.5 16.75C12.9142 16.75 13.25 16.4142 13.25 16H11.75ZM16.6111 3.75C19.6016 3.75 21.75 6.63854 21.75 9.48H23.25C23.25 6.06646 20.665 2.25 16.6111 2.25V3.75ZM21.75 9.48C21.75 10.8669 21.2117 12.2343 20.3397 13.5342C19.4682 14.8334 18.2904 16.0243 17.0833 17.0417C15.8791 18.0566 14.666 18.8818 13.7429 19.4529C13.2818 19.7381 12.8963 19.958 12.6244 20.1048C12.4879 20.1785 12.3836 20.2319 12.315 20.2651C12.2796 20.2822 12.2602 20.2908 12.2536 20.2936C12.2494 20.2953 12.2579 20.2916 12.2742 20.286C12.2821 20.2834 12.3008 20.2772 12.3262 20.2709C12.3399 20.2675 12.4088 20.25 12.5 20.25V21.75C12.594 21.75 12.6668 21.7318 12.6857 21.7272C12.7162 21.7197 12.7412 21.7116 12.7565 21.7064C12.7876 21.6958 12.8154 21.6845 12.835 21.6763C12.876 21.6591 12.9219 21.6378 12.9682 21.6153C13.063 21.5695 13.188 21.5052 13.337 21.4247C13.6363 21.2632 14.0473 21.0284 14.5321 20.7285C15.5006 20.1293 16.7765 19.262 18.05 18.1886C19.3207 17.1177 20.6096 15.8245 21.5853 14.3699C22.5605 12.9161 23.25 11.2599 23.25 9.48H21.75ZM12.5 20.25C12.5912 20.25 12.6601 20.2675 12.6738 20.2709C12.6992 20.2772 12.7179 20.2834 12.7258 20.286C12.7421 20.2916 12.7506 20.2953 12.7464 20.2936C12.7398 20.2908 12.7204 20.2822 12.685 20.2651C12.6164 20.2319 12.5121 20.1785 12.3756 20.1048C12.1037 19.958 11.7182 19.7381 11.2571 19.4529C10.334 18.8818 9.12093 18.0566 7.91667 17.0417C6.70959 16.0243 5.53178 14.8334 4.66035 13.5342C3.78832 12.2343 3.25 10.8669 3.25 9.48H1.75C1.75 11.2599 2.43945 12.9161 3.41465 14.3699C4.39044 15.8245 5.67929 17.1177 6.95 18.1886C8.22352 19.262 9.49937 20.1293 10.4679 20.7285C10.9527 21.0284 11.3637 21.2632 11.663 21.4247C11.812 21.5052 11.937 21.5695 12.0318 21.6153C12.0781 21.6378 12.124 21.6591 12.165 21.6763C12.1846 21.6845 12.2124 21.6958 12.2435 21.7064C12.2588 21.7116 12.2838 21.7197 12.3143 21.7272C12.3332 21.7318 12.406 21.75 12.5 21.75V20.25ZM3.25 9.48C3.25 6.63854 5.39836 3.75 8.38889 3.75V2.25C4.33497 2.25 1.75 6.06646 1.75 9.48H3.25ZM8.38889 3.75C10.1254 3.75 11.2557 4.61961 11.9291 5.4101L13.0709 4.4374C12.211 3.42789 10.6968 2.25 8.38889 2.25V3.75ZM13.0709 5.4101C13.7443 4.61961 14.8746 3.75 16.6111 3.75V2.25C14.3032 2.25 12.789 3.42789 11.9291 4.4374L13.0709 5.4101ZM8.5 12.75H12.5V11.25H8.5V12.75ZM12.5 12.75H16.5V11.25H12.5V12.75ZM11.75 8V12H13.25V8H11.75ZM11.75 12V16H13.25V12H11.75Z" fill="#434F68"/>
</svg>
