<svg width="21" height="20" viewBox="0 0 21 20" fill="none" stroke="#434F68"
    xmlns="http://www.w3.org/2000/svg">
    <path
        d="M15.6667 8.33326L12.3334 4.99993M2.75 17.9166L5.57031 17.6032C5.91488 17.5649 6.08717 17.5458 6.2482 17.4937C6.39108 17.4474 6.52704 17.3821 6.65241 17.2994C6.79371 17.2062 6.91629 17.0836 7.16144 16.8385L18.1667 5.83326C19.0872 4.91279 19.0872 3.4204 18.1667 2.49993C17.2462 1.57945 15.7538 1.57945 14.8334 2.49992L3.82811 13.5052C3.58296 13.7503 3.46038 13.8729 3.3672 14.0142C3.28453 14.1396 3.21918 14.2755 3.17293 14.4184C3.1208 14.5794 3.10165 14.7517 3.06337 15.0963L2.75 17.9166Z"
        stroke-width="1.5" stroke-linecap="round" stroke-linejoin="round" />
</svg>