<svg width="24" height="25" viewBox="0 0 24 25" fill="none" stroke="#434F68" xmlns="http://www.w3.org/2000/svg">
<g id="Master - Icons">
<g id="Icon">
<path d="M17.1984 14.0261C17.4754 14.0261 17.6139 14.0261 17.7261 14.0876C17.8187 14.1384 17.9049 14.2336 17.9461 14.3308C17.9961 14.4486 17.9835 14.574 17.9584 14.8247C17.8279 16.1247 17.3805 17.3772 16.6502 18.4702C15.7713 19.7857 14.522 20.8109 13.0603 21.4164C11.5986 22.0218 9.99029 22.1802 8.4386 21.8716C6.88692 21.5629 5.4616 20.8011 4.3429 19.6824C3.2242 18.5637 2.46235 17.1384 2.15371 15.5867C1.84506 14.035 2.00347 12.4266 2.6089 10.965C3.21434 9.50333 4.23961 8.25403 5.55507 7.37507C6.64807 6.64475 7.90063 6.19736 9.20055 6.06693C9.45128 6.04177 9.57665 6.0292 9.69447 6.07918C9.79166 6.12042 9.88693 6.2066 9.93766 6.29919C9.99916 6.41144 9.99916 6.54992 9.99916 6.82689V13.2262C9.99916 13.5062 9.99916 13.6462 10.0537 13.7532C10.1016 13.8472 10.1781 13.9237 10.2721 13.9716C10.3791 14.0261 10.5191 14.0261 10.7991 14.0261H17.1984Z"  stroke-width="1.5" stroke-linecap="round" stroke-linejoin="round"/>
<path d="M13.9987 2.82731C13.9987 2.55033 13.9987 2.41185 14.0602 2.29961C14.111 2.20701 14.2062 2.12083 14.3034 2.0796C14.4212 2.02961 14.5466 2.04218 14.7973 2.06733C16.6256 2.25071 18.3443 3.05959 19.655 4.37029C20.9657 5.681 21.7746 7.39973 21.958 9.22794C21.9831 9.47868 21.9957 9.60405 21.9457 9.72187C21.9045 9.81906 21.8183 9.91432 21.7257 9.96505C21.6134 10.0265 21.475 10.0265 21.198 10.0265L14.7987 10.0265C14.5187 10.0265 14.3787 10.0265 14.2717 9.97206C14.1776 9.92413 14.1012 9.84765 14.0532 9.75357C13.9987 9.64663 13.9987 9.50663 13.9987 9.22663V2.82731Z"  stroke-width="1.5" stroke-linecap="round" stroke-linejoin="round"/>
</g>
</g>
</svg>
