<svg width="24" height="25" viewBox="0 0 24 25" fill="none" stroke="#434F68" xmlns="http://www.w3.org/2000/svg">
<g id="Master - Icons">
<path id="Icon" d="M21 10.0453H3M16 2.04529V6.04529M8 2.04529V6.04529M7.8 22.0453H16.2C17.8802 22.0453 18.7202 22.0453 19.362 21.7183C19.9265 21.4307 20.3854 20.9717 20.673 20.4073C21 19.7655 21 18.9254 21 17.2453V8.84529C21 7.16513 21 6.32505 20.673 5.68332C20.3854 5.11883 19.9265 4.65989 19.362 4.37227C18.7202 4.04529 17.8802 4.04529 16.2 4.04529H7.8C6.11984 4.04529 5.27976 4.04529 4.63803 4.37227C4.07354 4.65989 3.6146 5.11883 3.32698 5.68332C3 6.32505 3 7.16513 3 8.84529V17.2453C3 18.9254 3 19.7655 3.32698 20.4073C3.6146 20.9717 4.07354 21.4307 4.63803 21.7183C5.27976 22.0453 6.11984 22.0453 7.8 22.0453Z"  stroke-width="1.5" stroke-linecap="round" stroke-linejoin="round"/>
</g>
</svg>
