<svg width="25" height="24" viewBox="0 0 25 24" fill="none" stroke="#434F68" xmlns="http://www.w3.org/2000/svg">
<path d="M10.5 16H14.5M9.3 22H15.7C17.3802 22 18.2202 22 18.862 21.673C19.4265 21.3854 19.8854 20.9265 20.173 20.362C20.5 19.7202 20.5 18.8802 20.5 17.2V6.8C20.5 5.11984 20.5 4.27976 20.173 3.63803C19.8854 3.07354 19.4265 2.6146 18.862 2.32698C18.2202 2 17.3802 2 15.7 2H9.3C7.61984 2 6.77976 2 6.13803 2.32698C5.57354 2.6146 5.1146 3.07354 4.82698 3.63803C4.5 4.27976 4.5 5.11984 4.5 6.8V17.2C4.5 18.8802 4.5 19.7202 4.82698 20.362C5.1146 20.9265 5.57354 21.3854 6.13803 21.673C6.77976 22 7.61984 22 9.3 22ZM15.5 9C15.5 10.6569 14.1569 12 12.5 12C10.8431 12 9.5 10.6569 9.5 9C9.5 7.34315 10.8431 6 12.5 6C14.1569 6 15.5 7.34315 15.5 9Z" stroke-width="1.5" stroke-linecap="round" stroke-linejoin="round"/>
</svg>
