<svg width="19" height="22" viewBox="0 0 19 22" fill="none" stroke="#434F68" xmlns="http://www.w3.org/2000/svg">
<g id="Group 39139">
<path id="Vector" d="M11 1.04529H3C2.46957 1.04529 1.96086 1.256 1.58579 1.63107C1.21071 2.00615 1 2.51486 1 3.04529V19.0453C1 19.5757 1.21071 20.0844 1.58579 20.4595C1.96086 20.8346 2.46957 21.0453 3 21.0453H15C15.5304 21.0453 16.0391 20.8346 16.4142 20.4595C16.7893 20.0844 17 19.5757 17 19.0453V15.5453M11 1.04529L16.4142 6.04529H12C11.4477 6.04529 11 5.59757 11 5.04529V1.04529Z"  stroke-width="1.5" stroke-linecap="round" stroke-linejoin="round"/>
<path id="Vector_2" d="M10 12.0453H5"  stroke-width="1.5" stroke-linecap="round" stroke-linejoin="round"/>
<path id="Vector_3" d="M7 16.0453H5"  stroke-width="1.5" stroke-linecap="round" stroke-linejoin="round"/>
<path id="Vector_4" d="M17.0964 8.37189C17.3055 8.16277 17.5892 8.04529 17.8849 8.04529C18.0313 8.04529 18.1763 8.07413 18.3116 8.13017C18.4469 8.18621 18.5699 8.26835 18.6734 8.37189C18.7769 8.47544 18.8591 8.59836 18.9151 8.73365C18.9712 8.86894 19 9.01395 19 9.16038C19 9.30682 18.9712 9.45182 18.9151 9.58711C18.8591 9.7224 18.7769 9.84533 18.6734 9.94887L12.1026 16.5196L10 17.0453L10.5257 14.9426L17.0964 8.37189Z" fill="#434F68"/>
</g>
</svg>
