<svg width="24" height="24" viewBox="0 0 24 24" fill="none" xmlns="http://www.w3.org/2000/svg">
<g id="Main Icons">
<path id="00" fill-rule="evenodd" clip-rule="evenodd" d="M16.485 18.2098C14.9689 19.3637 13.0767 20.0488 11.0244 20.0488C6.04035 20.0488 2 16.0084 2 11.0244C2 6.04035 6.04035 2 11.0244 2C16.0084 2 20.0488 6.04035 20.0488 11.0244C20.0488 13.0767 19.3637 14.969 18.2097 16.4851L21.6427 19.9182C22.1189 20.3944 22.1189 21.1666 21.6427 21.6428C21.1665 22.1191 20.3943 22.1191 19.9181 21.6428L16.485 18.2098ZM4.43902 11.0244C4.43902 7.38739 7.38739 4.43902 11.0244 4.43902C14.6614 4.43902 17.6097 7.38739 17.6097 11.0244C17.6097 12.7923 16.9131 14.3976 15.7792 15.5805C15.7429 15.6094 15.7078 15.6406 15.6742 15.6743C15.6405 15.7079 15.6093 15.743 15.5804 15.7793C14.3975 16.9131 12.7923 17.6097 11.0244 17.6097C7.38739 17.6097 4.43902 14.6614 4.43902 11.0244Z" fill="#808285"/>
</g>
</svg>
