<svg width="24" height="24" viewBox="0 0 24 24" fill="none" xmlns="http://www.w3.org/2000/svg">
<g id="Master - Icons">
<path id="Icon" d="M13 7C13 6.07003 13 5.60504 12.8978 5.22354C12.6204 4.18827 11.8117 3.37962 10.7765 3.10222C10.395 3 9.92997 3 9 3H7.8C6.11984 3 5.27976 3 4.63803 3.32698C4.07354 3.6146 3.6146 4.07354 3.32698 4.63803C3 5.27976 3 6.11984 3 7.8V16.2C3 17.8802 3 18.7202 3.32698 19.362C3.6146 19.9265 4.07354 20.3854 4.63803 20.673C5.27976 21 6.11984 21 7.8 21H9C9.92997 21 10.395 21 10.7765 20.8978C11.8117 20.6204 12.6204 19.8117 12.8978 18.7765C13 18.395 13 17.93 13 17M17 16L21 12M21 12L17 8M21 12H9" stroke="#434F68" stroke-width="1.5" stroke-linecap="round" stroke-linejoin="round"/>
</g>
</svg>
