<svg width="25" height="24" viewBox="0 0 25 24" fill="none" stroke="#434F68" xmlns="http://www.w3.org/2000/svg">
<path d="M17.5 13.9404V10.935C17.5 10.7555 17.5 10.6658 17.4727 10.5865C17.4485 10.5165 17.4091 10.4527 17.3572 10.3997C17.2986 10.3399 17.2183 10.2997 17.0578 10.2195L12.5 7.94071M4.5 8.94066V15.7469C4.5 16.1188 4.5 16.3047 4.55802 16.4675C4.60931 16.6115 4.6929 16.7417 4.80238 16.8483C4.92622 16.9689 5.09527 17.0464 5.43335 17.2013L11.8334 20.1345C12.0786 20.2469 12.2012 20.3031 12.3289 20.3253C12.4421 20.3449 12.5579 20.3449 12.6711 20.3253C12.7988 20.3031 12.9214 20.2469 13.1666 20.1345L19.5666 17.2013C19.9047 17.0464 20.0738 16.9689 20.1976 16.8483C20.3071 16.7417 20.3907 16.6115 20.442 16.4675C20.5 16.3047 20.5 16.1188 20.5 15.7469V8.94066M2.5 7.94071L12.1422 3.11986C12.2734 3.05427 12.339 3.02148 12.4078 3.00857C12.4687 2.99714 12.5313 2.99714 12.5922 3.00857C12.661 3.02148 12.7266 3.05427 12.8578 3.11986L22.5 7.94071L12.8578 12.7616C12.7266 12.8271 12.661 12.8599 12.5922 12.8729C12.5313 12.8843 12.4687 12.8843 12.4078 12.8729C12.339 12.8599 12.2734 12.8271 12.1422 12.7616L2.5 7.94071Z" stroke-width="1.5" stroke-linecap="round" stroke-linejoin="round"/>
</svg>
