<svg width="8" height="9" viewBox="0 0 8 9" fill="none" stroke="#434F68" xmlns="http://www.w3.org/2000/svg">
<g id="hexagon-01" clip-path="url(#clip0_202_626)">
<path id="Icon" d="M3.74099 1.31057C3.83553 1.25805 3.88279 1.23179 3.93285 1.22149C3.97715 1.21238 4.02285 1.21238 4.06715 1.22149C4.11721 1.23179 4.16447 1.25805 4.25901 1.31057L6.72568 2.68094C6.82552 2.73641 6.87544 2.76414 6.91179 2.80359C6.94395 2.83848 6.96828 2.87984 6.98317 2.9249C7 2.97583 7 3.03294 7 3.14716V5.85286C7 5.96707 7 6.02418 6.98317 6.07511C6.96828 6.12017 6.94395 6.16153 6.91179 6.19643C6.87544 6.23588 6.82552 6.26361 6.72568 6.31908L4.25901 7.68945C4.16447 7.74197 4.11721 7.76823 4.06715 7.77852C4.02285 7.78763 3.97715 7.78763 3.93285 7.77852C3.88279 7.76823 3.83553 7.74197 3.74099 7.68945L1.27432 6.31908C1.17448 6.26361 1.12456 6.23588 1.08821 6.19643C1.05605 6.16153 1.03172 6.12017 1.01683 6.07511C1 6.02418 1 5.96707 1 5.85286V3.14716C1 3.03294 1 2.97583 1.01683 2.9249C1.03172 2.87984 1.05605 2.83848 1.08821 2.80359C1.12456 2.76414 1.17448 2.73641 1.27432 2.68094L3.74099 1.31057Z"  stroke-linecap="round" stroke-linejoin="round"/>
</g>
<defs>
<clipPath id="clip0_202_626">
<rect width="8" height="8" fill="white" transform="translate(0 0.5)"/>
</clipPath>
</defs>
</svg>
