<svg width="24" height="25" viewBox="0 0 24 25" fill="none" stroke="#434F68" xmlns="http://www.w3.org/2000/svg">
<g id="Master - Icons">
<path id="Icon" d="M16 3.51305C17.4817 4.2494 18.5 5.77843 18.5 7.54529C18.5 9.31215 17.4817 10.8412 16 11.5775M18 16.8117C19.5115 17.4956 20.8725 18.6103 22 20.0453M2 20.0453C3.94649 17.5679 6.58918 16.0453 9.5 16.0453C12.4108 16.0453 15.0535 17.5679 17 20.0453M14 7.54529C14 10.0306 11.9853 12.0453 9.5 12.0453C7.01472 12.0453 5 10.0306 5 7.54529C5 5.06001 7.01472 3.04529 9.5 3.04529C11.9853 3.04529 14 5.06001 14 7.54529Z"  stroke-width="1.5" stroke-linecap="round" stroke-linejoin="round"/>
</g>
</svg>
