<svg width="24" height="25" viewBox="0 0 24 25" fill="none" stroke="#434F68" xmlns="http://www.w3.org/2000/svg">
<g id="Master - Icons">
<path id="Icon" d="M9 17.0453L4 22.0453M15 17.0453L20 22.0453M12 2.04529V4.04529M12 22.0453V17.0453M5.2 17.0453H18.8C19.9201 17.0453 20.4802 17.0453 20.908 16.8273C21.2843 16.6356 21.5903 16.3296 21.782 15.9533C22 15.5254 22 14.9654 22 13.8453V7.24529C22 6.12518 22 5.56513 21.782 5.13731C21.5903 4.76098 21.2843 4.45502 20.908 4.26327C20.4802 4.04529 19.9201 4.04529 18.8 4.04529H5.2C4.07989 4.04529 3.51984 4.04529 3.09202 4.26327C2.71569 4.45502 2.40973 4.76098 2.21799 5.13731C2 5.56513 2 6.12518 2 7.24529V13.8453C2 14.9654 2 15.5254 2.21799 15.9533C2.40973 16.3296 2.71569 16.6356 3.09202 16.8273C3.51984 17.0453 4.0799 17.0453 5.2 17.0453Z"  stroke-width="1.5" stroke-linecap="round" stroke-linejoin="round"/>
</g>
</svg>
