<svg width="24" height="25" viewBox="0 0 24 25" fill="none" stroke="#434F68" xmlns="http://www.w3.org/2000/svg">
<g id="Master - Icons">
<path id="Icon" d="M12 7.90071V11.9003M12 15.8999H12.01M3 7.84216V15.9584C3 16.301 3 16.4723 3.05048 16.6251C3.09515 16.7603 3.16816 16.8843 3.26463 16.989C3.37369 17.1073 3.52345 17.1905 3.82297 17.3569L11.223 21.4676C11.5066 21.6251 11.6484 21.7039 11.7985 21.7348C11.9315 21.7621 12.0685 21.7621 12.2015 21.7348C12.3516 21.7039 12.4934 21.6251 12.777 21.4676L20.177 17.3569C20.4766 17.1905 20.6263 17.1073 20.7354 16.989C20.8318 16.8843 20.9049 16.7603 20.9495 16.6251C21 16.4723 21 16.301 21 15.9584V7.84216C21 7.49956 21 7.32825 20.9495 7.17547C20.9049 7.04031 20.8318 6.91624 20.7354 6.81156C20.6263 6.69323 20.4766 6.61004 20.177 6.44366L12.777 2.33298C12.4934 2.17544 12.3516 2.09667 12.2015 2.06579C12.0685 2.03845 11.9315 2.03845 11.7985 2.06579C11.6484 2.09667 11.5066 2.17544 11.223 2.33298L3.82297 6.44366C3.52345 6.61004 3.37369 6.69323 3.26463 6.81156C3.16816 6.91624 3.09515 7.04031 3.05048 7.17547C3 7.32825 3 7.49955 3 7.84216Z"  stroke-width="1.5" stroke-linecap="round" stroke-linejoin="round"/>
</g>
</svg>
