<svg width="38" height="38" viewBox="0 0 38 38" fill="none" xmlns="http://www.w3.org/2000/svg">
<path d="M12.4542 25.3943C10.1844 26.6657 7.83778 26.9243 5.42644 25.8495C0.854462 23.8117 -0.416581 18.0135 2.75092 14.1346C4.95199 11.4395 9.06165 10.89 11.8234 12.315C12.0216 12.4173 12.2399 12.4793 12.4435 12.5574C12.1442 11.5634 11.8517 10.6462 11.593 9.72094C11.1549 8.14916 11.5134 6.65684 12.2103 5.2588C13.7698 2.12871 16.9925 0.586562 20.2086 1.09567C23.4717 1.61152 25.9667 4.26752 26.4222 7.56327C26.6783 9.41385 26.1729 11.0584 25.3008 12.6409C25.2766 12.6813 25.2536 12.7204 25.2294 12.7608C25.2806 12.7527 25.3318 12.7433 25.383 12.7352C27.9615 11.1944 30.602 11.0489 33.2384 12.517C36.7523 14.474 38.0463 18.9846 36.162 22.4878C34.1941 26.1445 29.7569 27.5546 26.1068 25.6825C25.8507 25.5505 25.6014 25.4037 25.1606 25.1586C25.3588 25.5182 25.4679 25.7135 25.5731 25.9101C28.1111 30.6753 25.1472 35.9307 20.559 36.8183C17.5236 37.4055 14.7941 36.6055 12.9314 33.8876C11.1576 31.3003 11.0376 28.6038 12.4731 25.828C12.5243 25.7283 12.5742 25.6286 12.6254 25.5303C12.6713 25.432 12.7171 25.3337 12.8316 25.0899C12.6187 25.2636 12.5378 25.3283 12.4569 25.3943H12.4542ZM19.0063 1.83106C16.3199 1.95497 14.2361 3.1173 13.0352 5.58878C11.8383 8.05083 12.1456 10.4213 13.7779 12.6059C14.065 12.9898 14.0555 13.2389 13.7442 13.5931C13.3182 14.0767 12.9813 14.1049 12.4475 13.6969C10.233 12.0052 7.29459 11.9042 4.93851 13.3763C2.61613 14.8282 1.42731 17.5394 1.94219 20.2143C2.88705 25.1236 8.50229 27.2974 12.5109 24.2872C12.9974 23.9208 13.2845 23.9599 13.7064 24.3653C14.1997 24.8407 13.945 25.1626 13.6458 25.5694C11.6415 28.3022 12.0175 32.1649 14.4545 34.3778C16.9238 36.619 20.5819 36.9449 23.3599 34.4586C26.0987 32.0074 26.4155 28.3601 24.2832 25.4899C23.9637 25.0589 23.8802 24.7707 24.3034 24.3478C24.7334 23.9181 25.0326 23.9451 25.5003 24.2993C27.3051 25.6664 29.3498 26.0408 31.4848 25.3445C34.1509 24.4744 35.7482 22.5834 36.1027 19.7806C36.4477 17.0573 35.1066 14.4497 32.7195 13.1945C30.2313 11.8853 27.7917 12.0456 25.5084 13.7251C25.069 14.0484 24.7832 14.1117 24.364 13.6969C23.9449 13.282 23.9206 13.0019 24.2845 12.5103C25.8804 10.3553 26.1109 8.00639 24.9531 5.6036C23.775 3.16175 21.7276 1.96978 19.0063 1.83106Z" fill="url(#paint0_linear_1003_37783)"/>
<path d="M16.8591 13.1232C16.355 12.5952 15.8536 12.1144 15.4021 11.5891C14.1391 10.1224 13.875 7.97144 14.7376 6.37946C15.7781 4.4575 17.5169 3.54702 19.6978 3.78272C21.4769 3.97532 23.1375 5.43397 23.6052 7.30206C24.0123 8.92906 23.643 10.4012 22.5431 11.6847C22.2439 12.0336 21.9703 12.0645 21.6468 11.7332C21.2869 11.3628 20.9351 10.9817 20.5469 10.6436C20.1345 10.2853 20.0846 9.9796 20.4135 9.50147C21.0739 8.54386 20.7221 7.36401 19.7072 6.90877C19.0171 6.599 18.2421 6.74984 17.7339 7.29128C17.188 7.87312 17.0883 8.64083 17.4765 9.33581C17.5627 9.49069 17.6638 9.64693 17.7878 9.77219C20.1237 12.1346 22.4636 14.4916 24.9531 17.0021C25.3656 16.524 25.6958 16.0701 26.0948 15.6889C28.5061 13.3912 32.0739 13.8936 33.7062 16.7462C34.8451 18.7369 34.2656 21.3713 32.3691 22.8178C30.571 24.1889 27.7904 24.0435 26.2713 22.465C26.1379 22.3262 26.1069 21.8872 26.2228 21.7444C26.6285 21.2407 27.1164 20.8016 27.5774 20.3423C27.9319 19.9881 28.223 20.2386 28.5277 20.4406C29.1746 20.8676 29.8432 20.8622 30.4848 20.4501C31.0859 20.0635 31.3232 19.4803 31.249 18.7732C31.1318 17.6499 29.8567 16.9226 28.8336 17.4048C28.6328 17.4991 28.4293 17.6163 28.2743 17.7698C25.9087 20.1309 23.55 22.5 21.1615 24.896C21.6832 25.4496 22.2223 25.9829 22.717 26.5554C23.9665 28.0032 24.0015 30.0855 23.306 31.5226C22.3234 33.5536 20.2733 34.4075 18.7489 34.2526C16.5491 34.0291 15.0031 32.7899 14.4518 30.872C13.976 29.2154 14.3211 27.7419 15.3913 26.4045C15.7741 25.9264 16.0949 25.9398 16.4736 26.3776C16.6637 26.5971 16.8847 26.7911 17.091 26.9971C17.6265 27.5323 17.7357 28.1276 17.4185 28.7831C17.0748 29.4928 17.2648 30.3589 17.8741 30.8505C18.544 31.3933 19.4471 31.3986 20.1048 30.8666C20.7114 30.375 20.9311 29.4928 20.5887 28.8046C20.4714 28.5676 20.3124 28.3386 20.1264 28.1514C17.8768 25.8927 15.6191 23.6421 13.3628 21.3915C13.2859 21.3147 13.1956 21.2528 13.1228 21.1935C12.5069 21.7484 11.9475 22.3424 11.3005 22.8151C9.68577 23.995 7.93353 24.1202 6.18804 23.1599C4.35359 22.1511 3.53947 20.5107 3.76322 18.4473C3.96944 16.5482 5.04909 15.2148 6.84041 14.5549C8.60747 13.9043 10.2263 14.2774 11.6766 15.4748C12.0284 15.7657 12.0189 16.0283 11.7453 16.3179C11.2978 16.7893 10.8261 17.2405 10.3691 17.7038C10.0227 18.0553 9.78012 17.7779 9.50111 17.5893C8.71665 17.0587 7.79605 17.161 7.18546 17.8291C6.59779 18.4729 6.56814 19.4197 7.11403 20.1053C7.74079 20.8932 8.935 21.0023 9.68037 20.2682C12.0796 17.9072 14.4532 15.5192 16.8564 13.1205L16.8591 13.1232ZM19.075 15.4788C17.8687 16.6842 16.6435 17.9099 15.518 19.0345C16.665 20.1807 17.8808 21.3956 19.0144 22.5283C20.1762 21.37 21.392 20.1564 22.5593 18.9928C21.3947 17.8183 20.1857 16.5994 19.075 15.4788Z" fill="url(#paint1_linear_1003_37783)"/>
<defs>
<linearGradient id="paint0_linear_1003_37783" x1="10.0067" y1="3.41154" x2="28" y2="34.6" gradientUnits="userSpaceOnUse">
<stop stop-color="#6FCBFF"/>
<stop offset="1" stop-color="#0E8FE2"/>
</linearGradient>
<linearGradient id="paint1_linear_1003_37783" x1="10.0067" y1="3.41154" x2="28" y2="34.6" gradientUnits="userSpaceOnUse">
<stop stop-color="#6FCBFF"/>
<stop offset="1" stop-color="#0E8FE2"/>
</linearGradient>
</defs>
</svg>
