<svg width="38" height="38" viewBox="0 0 38 38" fill="none" xmlns="http://www.w3.org/2000/svg">
<path d="M12.6194 12.4409C11.3479 10.1711 11.0894 7.82446 12.1641 5.41312C14.2019 0.841141 20.0001 -0.429902 23.8791 2.7376C26.5741 4.93867 27.1237 9.04833 25.6987 11.8101C25.5963 12.0083 25.5344 12.2266 25.4563 12.4301C26.4502 12.1309 27.3674 11.8384 28.2927 11.5796C29.8645 11.1416 31.3568 11.5001 32.7549 12.197C35.885 13.7564 37.4271 16.9792 36.918 20.1952C36.4022 23.4584 33.7462 25.9533 30.4504 26.4089C28.5998 26.665 26.9553 26.1596 25.3728 25.2875C25.3323 25.2632 25.2933 25.2403 25.2529 25.2161C25.261 25.2673 25.2704 25.3185 25.2785 25.3697C26.8193 27.9482 26.9647 30.5887 25.4967 33.2251C23.5397 36.739 19.0291 38.033 15.5259 36.1486C11.8692 34.1807 10.459 29.7436 12.3312 26.0935C12.4631 25.8374 12.61 25.5881 12.8551 25.1473C12.4955 25.3454 12.3002 25.4546 12.1035 25.5598C7.33836 28.0978 2.08294 25.1338 1.19535 20.5457C0.608128 17.5103 1.40816 14.7808 4.12611 12.9181C6.71342 11.1443 9.40982 11.0243 12.1857 12.4598C12.2854 12.511 12.385 12.5609 12.4833 12.6121C12.5817 12.6579 12.68 12.7038 12.9238 12.8183C12.75 12.6054 12.6854 12.5245 12.6194 12.4436V12.4409ZM36.1826 18.9929C36.0587 16.3066 34.8964 14.2228 32.4249 13.0219C29.9628 11.8249 27.5924 12.1323 25.4078 13.7645C25.0239 14.0516 24.7748 14.0422 24.4205 13.7308C23.937 13.3049 23.9087 12.9679 24.3168 12.4342C26.0085 10.2196 26.1095 7.28127 24.6374 4.92519C23.1855 2.60281 20.4742 1.41399 17.7994 1.92887C12.8901 2.87373 10.7163 8.48896 13.7265 12.4975C14.0928 12.9841 14.0538 13.2712 13.6484 13.6931C13.1729 14.1864 12.851 13.9317 12.4443 13.6324C9.71152 11.6282 5.84874 12.0042 3.63586 14.4412C1.39469 16.9105 1.06875 20.5686 3.55504 23.3466C6.00632 26.0854 9.6536 26.4022 12.5238 24.2698C12.9547 23.9504 13.243 23.8668 13.6659 24.2901C14.0955 24.72 14.0686 25.0193 13.7144 25.487C12.3473 27.2918 11.9729 29.3365 12.6692 31.4715C13.5393 34.1376 15.4303 35.7348 18.2331 36.0893C20.9564 36.4344 23.5639 35.0933 24.8192 32.7062C26.1283 30.218 25.9681 27.7784 24.2885 25.4951C23.9653 25.0557 23.902 24.7699 24.3168 24.3507C24.7317 23.9315 25.0118 23.9073 25.5034 24.2712C27.6584 25.8671 30.0073 26.0976 32.4101 24.9397C34.8519 23.7617 36.0439 21.7143 36.1826 18.9929Z" fill="url(#paint0_linear_1003_37782)"/>
<path d="M24.8905 16.8458C25.4185 16.3417 25.8993 15.8403 26.4246 15.3888C27.8913 14.1258 30.0422 13.8616 31.6342 14.7243C33.5562 15.7648 34.4666 17.5036 34.2309 19.6844C34.0383 21.4636 32.5797 23.1242 30.7116 23.5919C29.0846 23.999 27.6125 23.6297 26.3289 22.5298C25.9801 22.2306 25.9491 21.9569 26.2805 21.6335C26.6508 21.2736 27.032 20.9218 27.3701 20.5336C27.7283 20.1211 28.0341 20.0713 28.5122 20.4002C29.4698 21.0606 30.6497 20.7088 31.1049 19.6939C31.4147 19.0038 31.2638 18.2287 30.7224 17.7206C30.1406 17.1747 29.3728 17.075 28.6779 17.4631C28.523 17.5494 28.3667 17.6505 28.2415 17.7745C25.8791 20.1104 23.5221 22.4503 21.0116 24.9398C21.4897 25.3522 21.9436 25.6825 22.3247 26.0814C24.6225 28.4928 24.1201 32.0606 21.2675 33.6929C19.2768 34.8318 16.6424 34.2522 15.1958 32.3558C13.8247 30.5577 13.9702 27.7771 15.5487 26.258C15.6874 26.1246 16.1265 26.0936 16.2693 26.2095C16.773 26.6152 17.2121 27.1031 17.6714 27.5641C18.0256 27.9186 17.7751 28.2097 17.573 28.5143C17.1461 29.1613 17.1515 29.8299 17.5636 30.4715C17.9502 31.0726 18.5333 31.3098 19.2404 31.2357C20.3637 31.1184 21.091 29.8433 20.6089 28.8203C20.5146 28.6195 20.3974 28.4159 20.2439 28.2609C17.8828 25.8954 15.5137 23.5367 13.1176 21.1482C12.5641 21.6699 12.0307 22.209 11.4583 22.7037C10.0104 23.9531 7.92821 23.9882 6.49112 23.2927C4.46006 22.3101 3.60615 20.26 3.76104 18.7355C3.98462 16.5358 5.22372 14.9898 7.14165 14.4385C8.79828 13.9627 10.2717 14.3078 11.6092 15.378C12.0873 15.7608 12.0738 16.0816 11.6361 16.4603C11.4166 16.6504 11.2226 16.8714 11.0165 17.0777C10.4814 17.6132 9.88609 17.7224 9.23062 17.4052C8.52083 17.0615 7.6548 17.2515 7.1632 17.8608C6.62041 18.5307 6.61503 19.4337 7.14704 20.0915C7.63864 20.698 8.52083 20.9177 9.20907 20.5754C9.44612 20.4581 9.67508 20.2991 9.8623 20.1131C12.121 17.8635 14.3716 15.6058 16.6222 13.3494C16.6989 13.2726 16.7609 13.1823 16.8202 13.1095C16.2652 12.4935 15.6713 11.9342 15.1985 11.2872C14.0187 9.67244 13.8934 7.92021 14.8537 6.17472C15.8625 4.34027 17.503 3.52615 19.5664 3.7499C21.4655 3.95612 22.7988 5.03577 23.4588 6.82709C24.1093 8.59415 23.7363 10.2129 22.5389 11.6633C22.248 12.015 21.9853 12.0056 21.6958 11.732C21.2244 11.2845 20.7732 10.8127 20.3099 10.3558C19.9583 10.0094 20.2358 9.7668 20.4243 9.48779C20.955 8.70332 20.8526 7.78273 20.1846 7.17214C19.5408 6.58447 18.594 6.55482 17.9084 7.10071C17.1205 7.72747 17.0114 8.92168 17.7454 9.66705C20.1065 12.0663 22.4945 14.4399 24.8932 16.8431L24.8905 16.8458ZM22.5349 19.0617C21.3294 17.8554 20.1038 16.6302 18.9792 15.5047C17.833 16.6517 16.6181 17.8675 15.4854 19.0011C16.6437 20.1629 17.8572 21.3787 19.0209 22.546C20.1954 21.3814 21.4143 20.1724 22.5349 19.0617Z" fill="url(#paint1_linear_1003_37782)"/>
<defs>
<linearGradient id="paint0_linear_1003_37782" x1="37.0137" y1="19" x2="1.01367" y2="19" gradientUnits="userSpaceOnUse">
<stop offset="0.565476" stop-color="#9BD661"/>
<stop offset="1" stop-color="#6DA732"/>
</linearGradient>
<linearGradient id="paint1_linear_1003_37782" x1="37.0137" y1="19" x2="1.01367" y2="19" gradientUnits="userSpaceOnUse">
<stop offset="0.565476" stop-color="#9BD661"/>
<stop offset="1" stop-color="#6DA732"/>
</linearGradient>
</defs>
</svg>
