<svg width="38" height="38" viewBox="0 0 38 38" fill="none" xmlns="http://www.w3.org/2000/svg">
<path d="M25.5731 12.6057C27.8429 11.3343 30.1896 11.0757 32.6009 12.1505C37.1729 14.1883 38.4439 19.9865 35.2764 23.8654C33.0754 26.5605 28.9657 27.11 26.2039 25.685C26.0058 25.5827 25.7874 25.5207 25.5839 25.4426C25.8831 26.4366 26.1756 27.3538 26.4344 28.2791C26.8724 29.8508 26.5139 31.3432 25.8171 32.7412C24.2576 35.8713 21.0348 37.4134 17.8188 36.9043C14.5556 36.3885 12.0607 33.7325 11.6051 30.4367C11.349 28.5861 11.8545 26.9416 12.7265 25.3591C12.7508 25.3187 12.7737 25.2796 12.798 25.2392C12.7468 25.2473 12.6955 25.2567 12.6443 25.2648C10.0658 26.8056 7.42535 26.9511 4.78892 25.483C1.27502 23.526 -0.01894 19.0154 1.86538 15.5122C3.83328 11.8555 8.27047 10.4454 11.9205 12.3175C12.1766 12.4495 12.426 12.5963 12.8667 12.8414C12.6686 12.4818 12.5594 12.2865 12.4543 12.0899C9.91622 7.32469 12.8802 2.06926 17.4683 1.18168C20.5038 0.594456 23.2332 1.39449 25.096 4.11244C26.8698 6.69975 26.9897 9.39615 25.5542 12.172C25.503 12.2717 25.4531 12.3714 25.4019 12.4697C25.3561 12.568 25.3103 12.6663 25.1957 12.9101C25.4087 12.7364 25.4895 12.6717 25.5704 12.6057H25.5731ZM19.0211 36.1689C21.7074 36.045 23.7912 34.8827 24.9922 32.4112C26.1891 29.9492 25.8818 27.5787 24.2495 25.3941C23.9624 25.0102 23.9718 24.7611 24.2832 24.4069C24.7091 23.9233 25.0461 23.8951 25.5798 24.3031C27.7944 25.9948 30.7328 26.0958 33.0888 24.6237C35.4112 23.1718 36.6 20.4606 36.0851 17.7857C35.1403 12.8764 29.5251 10.7026 25.5165 13.7128C25.0299 14.0792 24.7428 14.0401 24.3209 13.6347C23.8276 13.1593 24.0824 12.8374 24.3816 12.4306C26.3859 9.69785 26.0098 5.83507 23.5729 3.62218C21.1036 1.38102 17.4454 1.05508 14.6675 3.54137C11.9286 5.99265 11.6118 9.63993 13.7442 12.5101C14.0636 12.9411 14.1472 13.2293 13.724 13.6522C13.294 14.0819 12.9948 14.0549 12.527 13.7007C10.7222 12.3336 8.67753 11.9592 6.5425 12.6555C3.87641 13.5256 2.27918 15.4166 1.92469 18.2194C1.57964 20.9427 2.92076 23.5503 5.30785 24.8055C7.79602 26.1147 10.2357 25.9544 12.519 24.2749C12.9584 23.9516 13.2441 23.8883 13.6633 24.3031C14.0825 24.718 14.1068 24.9981 13.7428 25.4897C12.1469 27.6447 11.9165 29.9936 13.0743 32.3964C14.2523 34.8383 16.2997 36.0302 19.0211 36.1689Z" fill="url(#paint0_radial_1003_37780)"/>
<path d="M21.1682 24.8768C21.6723 25.4048 22.1737 25.8856 22.6253 26.4109C23.8882 27.8776 24.1524 30.0286 23.2898 31.6205C22.2492 33.5425 20.5104 34.453 18.3296 34.2173C16.5504 34.0247 14.8898 32.566 14.4221 30.6979C14.015 29.0709 14.3844 27.5988 15.4842 26.3153C15.7835 25.9664 16.0571 25.9355 16.3806 26.2668C16.7404 26.6372 17.0922 27.0183 17.4804 27.3564C17.8929 27.7147 17.9427 28.0204 17.6139 28.4985C16.9534 29.4561 17.3052 30.636 18.3202 31.0912C19.0103 31.401 19.7853 31.2502 20.2934 30.7087C20.8393 30.1269 20.9391 29.3592 20.5509 28.6642C20.4646 28.5093 20.3635 28.3531 20.2395 28.2278C17.9037 25.8654 15.5638 23.5084 13.0742 20.9979C12.6618 21.476 12.3316 21.9299 11.9326 22.3111C9.52125 24.6088 5.95343 24.1064 4.32116 21.2538C3.18221 19.2631 3.76179 16.6287 5.65825 15.1822C7.45631 13.8111 10.237 13.9565 11.756 15.535C11.8895 15.6738 11.9205 16.1128 11.8045 16.2556C11.3988 16.7593 10.9109 17.1984 10.4499 17.6577C10.0954 18.0119 9.8043 17.7614 9.49968 17.5594C8.8527 17.1324 8.18416 17.1378 7.54257 17.5499C6.94142 17.9365 6.70419 18.5197 6.77833 19.2268C6.89559 20.3501 8.17068 21.0774 9.19371 20.5952C9.39454 20.5009 9.59807 20.3837 9.75308 20.2302C12.1186 17.8691 14.4774 15.5 16.8658 13.104C16.3442 12.5504 15.805 12.0171 15.3104 11.4446C14.0609 9.99678 14.0258 7.91454 14.7213 6.47744C15.7039 4.44638 17.754 3.59248 19.2785 3.74737C21.4782 3.97095 23.0242 5.21005 23.5755 7.12798C24.0513 8.78461 23.7062 10.2581 22.636 11.5955C22.2532 12.0736 21.9324 12.0602 21.5537 11.6224C21.3636 11.4029 21.1426 11.2089 20.9364 11.0029C20.4008 10.4677 20.2916 9.87242 20.6088 9.21695C20.9525 8.50715 20.7625 7.64113 20.1533 7.14952C19.4834 6.60674 18.5803 6.60135 17.9225 7.13336C17.316 7.62497 17.0963 8.50715 17.4386 9.1954C17.5559 9.43245 17.715 9.66141 17.901 9.84862C20.1506 12.1073 22.4082 14.3579 24.6646 16.6085C24.7414 16.6853 24.8317 16.7472 24.9045 16.8065C25.5205 16.2516 26.0798 15.6576 26.7268 15.1849C28.3416 14.005 30.0938 13.8798 31.8393 14.8401C33.6738 15.8489 34.4879 17.4893 34.2641 19.5527C34.0579 21.4518 32.9783 22.7852 31.1869 23.4451C29.4199 24.0957 27.8011 23.7226 26.3508 22.5252C25.999 22.2343 26.0084 21.9717 26.282 21.6821C26.7295 21.2107 27.2013 20.7595 27.6582 20.2962C28.0046 19.9447 28.2472 20.2221 28.5262 20.4107C29.3107 20.9413 30.2313 20.839 30.8419 20.1709C31.4296 19.5271 31.4592 18.5803 30.9133 17.8947C30.2866 17.1068 29.0923 16.9977 28.347 17.7318C25.9478 20.0928 23.5742 22.4808 21.1709 24.8795L21.1682 24.8768ZM18.9523 22.5212C20.1586 21.3158 21.3839 20.0901 22.5093 18.9655C21.3623 17.8193 20.1465 16.6044 19.013 15.4717C17.8511 16.63 16.6353 17.8436 15.4681 19.0072C16.6326 20.1817 17.8417 21.4006 18.9523 22.5212Z" fill="url(#paint1_radial_1003_37780)"/>
<defs>
<radialGradient id="paint0_radial_1003_37780" cx="0" cy="0" r="1" gradientUnits="userSpaceOnUse" gradientTransform="translate(19.014 19) rotate(-90) scale(18 18.0133)">
<stop stop-color="#FFE6CF"/>
<stop offset="1" stop-color="#FFAB48"/>
</radialGradient>
<radialGradient id="paint1_radial_1003_37780" cx="0" cy="0" r="1" gradientUnits="userSpaceOnUse" gradientTransform="translate(19.014 19) rotate(-90) scale(18 18.0133)">
<stop stop-color="#FFE6CF"/>
<stop offset="1" stop-color="#FFAB48"/>
</radialGradient>
</defs>
</svg>
