<svg width="24" height="26" viewBox="0 0 24 26" fill="none" xmlns="http://www.w3.org/2000/svg">
<path d="M3.66455 2.85576C3.66455 2.45546 3.98906 2.13095 4.38936 2.13095C4.38936 2.13095 12.5107 2.13095 13.4495 2.13095C14.2393 2.13095 14.7262 2.64398 14.8608 2.8068C14.8872 2.83874 14.9138 2.87049 14.9431 2.8998L19.6085 7.56514C19.6097 7.56639 19.6108 7.56744 19.612 7.56868C19.6505 7.60714 20.3351 8.30199 20.3351 9.01662C20.3351 9.7519 20.3351 23.1504 20.3351 23.1504C20.3351 23.5507 20.0106 23.8752 19.6103 23.8752H4.38936C3.98906 23.8752 3.66455 23.5507 3.66455 23.1504V2.85576Z" fill="white"/>
<path d="M15.3028 2.4413C15.1316 2.23434 14.4983 1.55742 13.4495 1.55742H13.4439H13.4381H13.4322H13.4261H13.4199H13.4135H13.407H13.4002H13.3934H13.3863H13.3792H13.3718H13.3643H13.3566H13.3488H13.3409H13.3327H13.3245H13.316H13.3075H13.2987H13.2899H13.2808H13.2717H13.2623H13.2529H13.2433H13.2335H13.2236H13.2135H13.2033H13.193H13.1825H13.1719H13.1611H13.1502H13.1392H13.128H13.1167H13.1052H13.0936H13.0819H13.07H13.058H13.0459H13.0336H13.0212H13.0086H12.996H12.9832H12.9703H12.9572H12.944H12.9307H12.9172H12.9037H12.89H12.8762H12.8622H12.8481H12.8339H12.8196H12.8052H12.7906H12.7759H12.7611H12.7462H12.7312H12.716H12.7008H12.6854H12.6699H12.6542H12.6385H12.6226H12.6067H12.5906H12.5744H12.5581H12.5417H12.5252H12.5086H12.4918H12.475H12.458H12.441H12.4238H12.4066H12.3892H12.3717H12.3541H12.3365H12.3187H12.3008H12.2828H12.2647H12.2466H12.2283H12.2099H12.1914H12.1729H12.1542H12.1354H12.1166H12.0977H12.0786H12.0595H12.0403H12.021H12.0016H11.9821H11.9625H11.9428H11.9231H11.9032H11.8833H11.8633H11.8432H11.823H11.8028H11.7824H11.762H11.7415H11.7209H11.7002H11.6795H11.6587H11.6378H11.6168H11.5957H11.5746H11.5534H11.5321H11.5108H11.4894H11.4679H11.4463H11.4247H11.4029H11.3812H11.3593H11.3374H11.3154H11.2934H11.2713H11.2491H11.2268H11.2045H11.1822H11.1597H11.1372H11.1147H11.0921H11.0694H11.0467H11.0239H11.001H10.9781H10.9551H10.9321H10.9091H10.8859H10.8627H10.8395H10.8162H10.7929H10.7695H10.7461H10.7226H10.699H10.6754H10.6518H10.6281H10.6044H10.5806H10.5568H10.533H10.509H10.4851H10.4611H10.4371H10.413H10.3889H10.3648H10.3406H10.3163H10.2921H10.2678H10.2434H10.2191H10.1947H10.1702H10.1458H10.1213H10.0967H10.0722H10.0476H10.0229H9.99828H9.9736H9.94889H9.92415H9.89939H9.8746H9.84979H9.82495H9.80009H9.7752H9.75029H9.72537H9.70042H9.67545H9.65046H9.62545H9.60043H9.57539H9.55033H9.52525H9.50016H9.47506H9.44994H9.42481H9.39967H9.37451H9.34934H9.32416H9.29898H9.27378H9.24858H9.22336H9.19814H9.17292H9.14769H9.12245H9.09721H9.07196H9.04672H9.02147H8.99622H8.97096H8.94571H8.92046H8.89521H8.86996H8.84471H8.81947H8.79423H8.769H8.74377H8.71854H8.69333H8.66812H8.64292H8.61772H8.59254H8.56737H8.5422H8.51705H8.49191H8.46679H8.44167H8.41658H8.39149H8.36642H8.34137H8.31634H8.29132H8.26632H8.24134H8.21638H8.19144H8.16652H8.14162H8.11675H8.09189H8.06707H8.04226H8.01748H7.99273H7.968H7.9433H7.91863H7.89399H7.86937H7.84479H7.82024H7.79571H7.77122H7.74677H7.72234H7.69795H7.6736H7.64928H7.62499H7.60074H7.57653H7.55236H7.52823H7.50414H7.48008H7.45607H7.4321H7.40817H7.38428H7.36044H7.33664H7.31289H7.28918H7.26552H7.24191H7.21834H7.19482H7.17135H7.14793H7.12457H7.10125H7.07798H7.05477H7.03161H7.0085H6.98545H6.96245H6.93951H6.91663H6.8938H6.87103H6.84832H6.82567H6.80308H6.78055H6.75808H6.73567H6.71333H6.69105H6.66883H6.64668H6.62459H6.60257H6.58062H6.55873H6.53691H6.51516H6.49348H6.47188H6.45034H6.42887H6.40748H6.38616H6.36491H6.34374H6.32264H6.30161H6.28067H6.2598H6.23901H6.2183H6.19766H6.17711H6.15664H6.13625H6.11594H6.09571H6.07556H6.0555H6.03553H6.01564H5.99583H5.97612H5.95649H5.93694H5.91749H5.89813H5.87885H5.85967H5.84058H5.82158H5.80267H5.78386H5.76514H5.74652H5.72799H5.70956H5.69122H5.67298H5.65484H5.6368H5.61886H5.60102H5.58328H5.56565H5.54811H5.53068H5.51335H5.49613H5.47901H5.462H5.44509H5.42829H5.4116H5.39502H5.37855H5.36218H5.34593H5.32979H5.31376H5.29784H5.28204H5.26635H5.25078H5.23532H5.21997H5.20475H5.18964H5.17465H5.15978H5.14502H5.13039H5.11588H5.10149H5.08722H5.07308H5.05906H5.04516H5.03139H5.01775H5.00423H4.99083H4.97757H4.96443H4.95143H4.93855H4.9258H4.91319H4.9007H4.88835H4.87613H4.86405H4.8521H4.84028H4.82861H4.81706H4.80566H4.79439H4.78327H4.77228H4.76143H4.75072H4.74015H4.72973H4.71945H4.70931H4.69932H4.68947H4.67977H4.67021H4.6608H4.65153H4.64242H4.63345H4.62464H4.61597H4.60746H4.5991H4.59088H4.58283H4.57492H4.56717H4.55958H4.55214H4.54486H4.53773H4.53077H4.52396H4.51731H4.51082H4.50449H4.49832H4.49232H4.48647H4.48079H4.47528H4.46993H4.46474H4.45972H4.45487H4.45018H4.44566H4.44132H4.43714H4.43313H4.42929H4.42562H4.42213H4.41881H4.41566H4.41268H4.40989H4.40726H4.40481H4.40254H4.40045H4.39854H4.3968H4.39525H4.39387H4.39268H4.39167H4.39084H4.39019H4.38973H4.38945L4.38936 2.13095V1.55742C3.67231 1.55742 3.09102 2.13871 3.09102 2.85576V23.1504C3.09102 23.8674 3.67231 24.4487 4.38936 24.4487H19.6103C20.3274 24.4487 20.9087 23.8674 20.9087 23.1504H20.3351C20.9087 23.1504 20.9087 23.1503 20.9087 23.1502V23.1498V23.149V23.1479V23.1466V23.1449V23.1429V23.1407V23.1381V23.1352V23.1321V23.1286V23.1249V23.1209V23.1165V23.1119V23.107V23.1018V23.0963V23.0906V23.0845V23.0782V23.0716V23.0647V23.0576V23.0501V23.0424V23.0344V23.0262V23.0176V23.0088V22.9997V22.9904V22.9808V22.9709V22.9607V22.9503V22.9396V22.9287V22.9175V22.906V22.8943V22.8823V22.8701V22.8576V22.8448V22.8318V22.8186V22.8051V22.7913V22.7773V22.7631V22.7486V22.7338V22.7188V22.7036V22.6882V22.6724V22.6565V22.6403V22.6239V22.6072V22.5903V22.5732V22.5559V22.5383V22.5205V22.5024V22.4841V22.4656V22.4469V22.428V22.4088V22.3894V22.3698V22.35V22.3299V22.3096V22.2892V22.2685V22.2475V22.2264V22.2051V22.1835V22.1618V22.1398V22.1177V22.0953V22.0727V22.0499V22.0269V22.0038V21.9804V21.9568V21.933V21.909V21.8849V21.8605V21.836V21.8112V21.7863V21.7612V21.7358V21.7103V21.6847V21.6588V21.6327V21.6065V21.5801V21.5535V21.5267V21.4998V21.4726V21.4453V21.4179V21.3902V21.3624V21.3344V21.3062V21.2779V21.2494V21.2208V21.1919V21.1629V21.1338V21.1045V21.075V21.0454V21.0156V20.9856V20.9555V20.9253V20.8949V20.8643V20.8336V20.8028V20.7717V20.7406V20.7093V20.6779V20.6463V20.6145V20.5827V20.5507V20.5185V20.4862V20.4538V20.4212V20.3885V20.3557V20.3228V20.2897V20.2564V20.2231V20.1896V20.156V20.1223V20.0884V20.0545V20.0204V19.9862V19.9518V19.9174V19.8828V19.8481V19.8133V19.7784V19.7434V19.7083V19.673V19.6377V19.6022V19.5666V19.531V19.4952V19.4593V19.4233V19.3873V19.3511V19.3148V19.2784V19.242V19.2054V19.1687V19.132V19.0951V19.0582V19.0212V18.9841V18.9469V18.9096V18.8722V18.8348V18.7973V18.7597V18.722V18.6842V18.6464V18.6084V18.5704V18.5324V18.4942V18.456V18.4177V18.3794V18.341V18.3025V18.2639V18.2253V18.1866V18.1479V18.1091V18.0702V18.0313V17.9923V17.9533V17.9142V17.8751V17.8359V17.7966V17.7573V17.718V17.6786V17.6391V17.5996V17.5601V17.5205V17.4809V17.4413V17.4016V17.3618V17.3221V17.2822V17.2424V17.2025V17.1626V17.1227V17.0827V17.0427V17.0026V16.9626V16.9225V16.8824V16.8423V16.8021V16.7619V16.7217V16.6815V16.6413V16.601V16.5608V16.5205V16.4802V16.4399V16.3996V16.3592V16.3189V16.2786V16.2382V16.1979V16.1575V16.1171V16.0768V16.0364V15.9961V15.9557V15.9153V15.875V15.8346V15.7943V15.754V15.7137V15.6733V15.633V15.5928V15.5525V15.5122V15.472V15.4318V15.3916V15.3514V15.3112V15.2711V15.2309V15.1908V15.1508V15.1107V15.0707V15.0307V14.9908V14.9508V14.9109V14.8711V14.8313V14.7915V14.7517V14.712V14.6723V14.6327V14.5931V14.5535V14.514V14.4746V14.4351V14.3958V14.3565V14.3172V14.278V14.2388V14.1997V14.1606V14.1216V14.0827V14.0438V14.005V13.9662V13.9275V13.8888V13.8503V13.8118V13.7733V13.7349V13.6966V13.6584V13.6202V13.5821V13.5441V13.5061V13.4682V13.4304V13.3927V13.3551V13.3175V13.28V13.2426V13.2053V13.1681V13.1309V13.0938V13.0569V13.02V12.9832V12.9465V12.9099V12.8734V12.837V12.8006V12.7644V12.7283V12.6923V12.6564V12.6205V12.5848V12.5492V12.5137V12.4783V12.443V12.4078V12.3727V12.3378V12.3029V12.2682V12.2336V12.1991V12.1647V12.1304V12.0963V12.0622V12.0283V11.9946V11.9609V11.9274V11.894V11.8607V11.8275V11.7945V11.7616V11.7289V11.6963V11.6638V11.6314V11.5992V11.5672V11.5352V11.5034V11.4718V11.4403V11.4089V11.3777V11.3466V11.3157V11.2849V11.2543V11.2238V11.1935V11.1633V11.1333V11.1035V11.0738V11.0442V11.0148V10.9856V10.9565V10.9276V10.8989V10.8703V10.8419V10.8137V10.7856V10.7577V10.73V10.7025V10.6751V10.6479V10.6208V10.594V10.5673V10.5408V10.5145V10.4884V10.4624V10.4367V10.4111V10.3857V10.3605V10.3354V10.3106V10.286V10.2615V10.2373V10.2132V10.1893V10.1657V10.1422V10.1189V10.0959V10.073V10.0503V10.0279V10.0056V9.98355V9.9617V9.94006V9.91864V9.89742V9.87641V9.85562V9.83504V9.81467V9.79453V9.7746V9.75489V9.73539V9.71612V9.69708V9.67825V9.65965V9.64128V9.62313V9.60521V9.58752V9.57006V9.55283V9.53584V9.51908V9.50255V9.48626V9.47021V9.4544V9.43882V9.42349V9.4084V9.39355V9.37895V9.36459V9.35048V9.33661V9.323V9.30964V9.29652V9.28366V9.27106V9.2587V9.24661V9.23477V9.22319V9.21187V9.20081V9.19001V9.17948V9.16921V9.1592V9.14946V9.13999V9.13079V9.12186V9.1132V9.10481V9.0967V9.08886V9.08129V9.074V9.067V9.06027V9.05382V9.04765V9.04176V9.03616V9.03085V9.02582V9.02108V9.01662C20.9087 8.49157 20.6645 8.02427 20.4673 7.72417C20.2616 7.41099 20.0511 7.19665 20.0176 7.16318L20.0175 7.16314L20.0151 7.16069L20.014 7.1596L15.3487 2.49426L14.9439 2.899L15.3487 2.49425C15.3408 2.48645 15.33 2.47416 15.3028 2.4413ZM15.3028 2.4413L14.8626 2.80533L15.3028 2.4413C15.3028 2.4413 15.3028 2.4413 15.3028 2.4413Z" stroke="black" stroke-opacity="0.2" stroke-width="1.14706"/>
<path d="M14.166 2.28259V7.56459C14.166 7.96613 14.4893 8.28943 14.8909 8.28943H20.133C20.0148 8.05069 19.8439 7.79935 19.6092 7.56459L14.898 2.85336C14.6698 2.56465 14.416 2.38988 14.1731 2.28287L14.166 2.28259Z" fill="white"/>
<path d="M14.8907 9.37664C13.8886 9.37664 13.0786 8.56655 13.0786 7.56459V2.125L13.4492 2.13077C13.8474 2.13077 14.1658 2.28259 14.1658 2.28259V7.56459C14.1658 7.96613 14.4891 8.28942 14.8907 8.28942H20.1328C20.1328 8.28942 20.3349 8.65404 20.3349 9.01645V9.37664H14.8907Z" fill="#CCCCCC"/>
<path d="M7.87549 14.3084V20.4013C7.87549 20.661 8.08451 20.87 8.34417 20.87H11.1562C11.4159 20.87 11.6249 20.661 11.6249 20.4013V14.3084H7.87549ZM8.81285 18.0577H10.6876V19.9325H8.81285V18.0577Z" fill="#FFBE16"/>
<path d="M9.74971 2.12277H7.875V3.99749H9.74971V2.12277ZM9.74971 3.99749V5.87221H11.6244V3.99749H9.74971ZM9.74971 5.87221H7.875V7.74692H9.74971V5.87221ZM9.74971 7.74692V9.62164H11.6244V7.74692H9.74971ZM9.74971 9.62164H7.875V11.4964H9.74971V9.62164ZM9.74971 11.4964V13.3711H11.6244V11.4964H9.74971Z" fill="#FFBE16"/>
</svg>
