<svg width="16" height="17" viewBox="0 0 16 17" fill="none" stroke="#ACACBE" xmlns="http://www.w3.org/2000/svg">
<g clip-path="url(#clip0_395_27543)">
<path d="M11.3334 9.26668L8.66669 15.2667C8.13625 15.2667 7.62755 15.056 7.25247 14.6809C6.8774 14.3058 6.66669 13.7971 6.66669 13.2667V10.6H2.89335C2.70008 10.6022 2.50864 10.5623 2.33231 10.4832C2.15597 10.4041 1.99894 10.2875 1.87211 10.1417C1.74529 9.99582 1.65168 9.82413 1.59779 9.63851C1.5439 9.45289 1.53102 9.25778 1.56002 9.06668L2.48002 3.06668C2.52824 2.74874 2.68973 2.45894 2.93475 2.25068C3.17977 2.04241 3.4918 1.92971 3.81335 1.93335H11.3334M11.3334 9.26668V1.93335M11.3334 9.26668H13.1134C13.4907 9.27335 13.8573 9.14126 14.1436 8.89547C14.43 8.64968 14.6161 8.30731 14.6667 7.93335V3.26668C14.6161 2.89272 14.43 2.55035 14.1436 2.30456C13.8573 2.05877 13.4907 1.92667 13.1134 1.93335H11.3334" stroke-width="1.33333" stroke-linecap="round" stroke-linejoin="round"/>
</g>
<defs>
<clipPath id="clip0_395_27543">
<rect width="16" height="16" fill="white" transform="translate(0 0.600098)"/>
</clipPath>
</defs>
</svg>
