<svg width="16" height="17" viewBox="0 0 16 17" fill="none" stroke="#ACACBE" xmlns="http://www.w3.org/2000/svg">
<g clip-path="url(#clip0_395_27540)">
<path d="M4.66683 7.93359L7.3335 1.93359C7.86393 1.93359 8.37264 2.14431 8.74771 2.51938C9.12278 2.89445 9.3335 3.40316 9.3335 3.93359V6.60026H13.1068C13.3001 6.59807 13.4915 6.63793 13.6679 6.71707C13.8442 6.79621 14.0012 6.91275 14.1281 7.0586C14.2549 7.20446 14.3485 7.37614 14.4024 7.56176C14.4563 7.74738 14.4692 7.9425 14.4402 8.13359L13.5202 14.1336C13.4719 14.4515 13.3105 14.7413 13.0654 14.9496C12.8204 15.1579 12.5084 15.2706 12.1868 15.2669H4.66683M4.66683 7.93359V15.2669M4.66683 7.93359H2.66683C2.31321 7.93359 1.97407 8.07407 1.72402 8.32412C1.47397 8.57417 1.3335 8.91331 1.3335 9.26693V13.9336C1.3335 14.2872 1.47397 14.6264 1.72402 14.8764C1.97407 15.1265 2.31321 15.2669 2.66683 15.2669H4.66683" stroke-width="1.33333" stroke-linecap="round" stroke-linejoin="round"/>
</g>
<defs>
<clipPath id="clip0_395_27540">
<rect width="16" height="16" fill="white" transform="translate(0 0.600098)"/>
</clipPath>
</defs>
</svg>
