<svg width="24" height="24" viewBox="0 0 24 24" fill="none" xmlns="http://www.w3.org/2000/svg">
<path d="M4 6.6H5.8M5.8 6.6H20.2M5.8 6.6L5.8 19.2C5.8 19.6774 5.98964 20.1352 6.32721 20.4728C6.66477 20.8104 7.12261 21 7.6 21H16.6C17.0774 21 17.5352 20.8104 17.8728 20.4728C18.2104 20.1352 18.4 19.6774 18.4 19.2V6.6H5.8ZM8.5 6.6V4.8C8.5 4.32261 8.68964 3.86477 9.02721 3.52721C9.36477 3.18964 9.82261 3 10.3 3H13.9C14.3774 3 14.8352 3.18964 15.1728 3.52721C15.5104 3.86477 15.7 4.32261 15.7 4.8V6.6M10.3 11.1V16.5M13.9 11.1V16.5" stroke="#ACB1CB" stroke-width="1.6" stroke-linecap="round" stroke-linejoin="round"/>
</svg>
