<svg width="24" height="24" viewBox="0 0 24 24" fill="none" xmlns="http://www.w3.org/2000/svg">
<path d="M12.0001 2.80118L12.0001 2.80128H12.0087C14.3108 2.83197 16.5151 3.73733 18.1743 5.33378C19.8329 6.92976 20.8224 9.0968 20.9422 11.3953C20.9712 12.2732 20.8747 13.149 20.6572 13.9965L20.704 14.0093C20.3299 15.5379 19.5625 16.9531 18.465 18.1079C16.9727 19.6782 14.9685 20.6635 12.8137 20.8863C12.5645 20.9108 12.315 20.9257 12.0641 20.9303L12.0567 20.9304L12.0494 20.9307C12.0186 20.9318 11.9877 20.9328 11.9569 20.9336H4.604L5.42646 18.9183L5.62099 18.4416L5.26773 18.0671C4.27097 17.0103 3.53868 15.7243 3.14061 14.3143C2.62751 12.4969 2.69552 10.5646 3.33513 8.7877C3.97475 7.01082 5.15391 5.4784 6.70763 4.40496L6.25289 3.74677L6.70763 4.40496C8.26136 3.33151 10.1119 2.77076 12.0001 2.80118Z" stroke="#ACB1CB" stroke-width="1.6"/>
<circle cx="8.2" cy="12.2" r="1.2" fill="#ACB1CB"/>
<circle cx="12.2" cy="12.2" r="1.2" fill="#ACB1CB"/>
<circle cx="16.2" cy="12.2" r="1.2" fill="#ACB1CB"/>
</svg>
