<svg width="24" height="24" viewBox="0 0 24 24" fill="none" xmlns="http://www.w3.org/2000/svg">
<path d="M12.0002 13.8C11.0061 13.8 10.2002 12.9942 10.2002 12C10.2002 11.0059 11.0061 10.2 12.0002 10.2C12.9943 10.2 13.8002 11.0059 13.8002 12C13.8002 12.9942 12.9943 13.8 12.0002 13.8Z" fill="#ACB1CB"/>
<path d="M19.0002 13.8C18.0061 13.8 17.2002 12.9942 17.2002 12C17.2002 11.0059 18.0061 10.2 19.0002 10.2C19.9943 10.2 20.8002 11.0059 20.8002 12C20.8002 12.9942 19.9943 13.8 19.0002 13.8Z" fill="#ACB1CB"/>
<path d="M5.0002 13.8C4.00608 13.8 3.2002 12.9942 3.2002 12C3.2002 11.0059 4.00608 10.2 5.0002 10.2C5.99431 10.2 6.8002 11.0059 6.8002 12C6.8002 12.9942 5.99431 13.8 5.0002 13.8Z" fill="#ACB1CB"/>
</svg>
