<svg width="24" height="24" viewBox="0 0 24 24" fill="none" xmlns="http://www.w3.org/2000/svg">
<path d="M5.77778 20H18.2222C19.2041 20 20 19.2041 20 18.2222V5.77778C20 4.79594 19.2041 4 18.2222 4H5.77778C4.79594 4 4 4.79594 4 5.77778V18.2222C4 19.2041 4.79594 20 5.77778 20ZM5.77778 20L15.5556 10.2222L20 14.6667M10.2222 8.88889C10.2222 9.62527 9.62527 10.2222 8.88889 10.2222C8.15251 10.2222 7.55556 9.62527 7.55556 8.88889C7.55556 8.15251 8.15251 7.55556 8.88889 7.55556C9.62527 7.55556 10.2222 8.15251 10.2222 8.88889Z" stroke="#ACB1CB" stroke-width="1.6" stroke-linecap="round" stroke-linejoin="round"/>
</svg>
