<svg width="24" height="24" viewBox="0 0 24 24" fill="none" xmlns="http://www.w3.org/2000/svg">
<path d="M20.2934 15.5039C19.7207 16.8583 18.825 18.0517 17.6845 18.9799C16.544 19.9081 15.1935 20.5428 13.7511 20.8285C12.3087 21.1141 10.8182 21.0421 9.41001 20.6187C8.00182 20.1953 6.7188 19.4334 5.67311 18.3996C4.62742 17.3658 3.8509 16.0915 3.41143 14.6883C2.97197 13.285 2.88294 11.7955 3.15214 10.3499C3.42133 8.90425 4.04055 7.54659 4.95567 6.39558C5.87078 5.24457 7.05391 4.33526 8.40164 3.74713" stroke="#ACB1CB" stroke-width="1.6" stroke-linecap="round" stroke-linejoin="round"/>
<path d="M21.0046 12.0021C21.0046 10.8199 20.7717 9.64935 20.3193 8.55716C19.8669 7.46497 19.2038 6.47258 18.3679 5.63666C17.532 4.80074 16.5396 4.13764 15.4474 3.68525C14.3552 3.23285 13.1846 3 12.0024 3V12.0021H21.0046Z" stroke="#ACB1CB" stroke-width="1.6" stroke-linecap="round" stroke-linejoin="round"/>
</svg>
