<svg width="24" height="24" viewBox="0 0 24 24" fill="none" xmlns="http://www.w3.org/2000/svg">
<path d="M21 5.81625V10.7253M21 10.7253H16.0909M21 10.7253L17.2036 7.15806C16.3243 6.27828 15.2364 5.6356 14.0415 5.28997C12.8466 4.94434 11.5836 4.90704 10.3704 5.18155C9.1572 5.45605 8.03329 6.03342 7.10356 6.85977C6.17384 7.68612 5.46859 8.73452 5.05364 9.90716M3 18.9072V13.9981M3 13.9981H7.90909M3 13.9981L6.79636 17.5653C7.6757 18.4451 8.76358 19.0878 9.95848 19.4334C11.1534 19.7791 12.4164 19.8164 13.6296 19.5419C14.8428 19.2673 15.9667 18.69 16.8964 17.8636C17.8262 17.0373 18.5314 15.9889 18.9464 14.8162" stroke="#ACB1CB" stroke-width="1.6" stroke-linecap="round" stroke-linejoin="round"/>
</svg>
