<svg width="24" height="24" viewBox="0 0 24 24" fill="none" xmlns="http://www.w3.org/2000/svg">
<path d="M20.0713 14.4633L19.3546 13.8656C19.1389 13.6864 18.9679 13.4594 18.8552 13.2025C18.7425 12.9456 18.6913 12.666 18.7056 12.3859V11.6128C18.6913 11.3327 18.7425 11.0531 18.8552 10.7963C18.9679 10.5394 19.1389 10.3123 19.3546 10.1331L20.0763 9.53796C20.2424 9.40349 20.3553 9.21445 20.395 9.0045C20.4347 8.79455 20.3986 8.57733 20.2931 8.39152L19.2506 6.58351C19.1432 6.40097 18.9751 6.26202 18.7755 6.19101C18.576 6.12 18.3579 6.12145 18.1593 6.1951L17.2572 6.51961C16.994 6.61898 16.7113 6.65544 16.4315 6.62607C16.1517 6.5967 15.8827 6.50232 15.6459 6.35047C15.4338 6.20377 15.2105 6.07391 14.9781 5.96205C14.7278 5.83364 14.511 5.64848 14.345 5.42136C14.179 5.19424 14.0684 4.93145 14.0221 4.65398L13.8692 3.75186C13.8333 3.53949 13.7227 3.34697 13.5572 3.20909C13.3918 3.07121 13.1824 2.99708 12.9671 3.00009H10.891C10.6756 2.99708 10.4663 3.07121 10.3008 3.20909C10.1354 3.34697 10.0247 3.53949 9.98885 3.75186L9.83599 4.65398C9.79339 4.92814 9.68815 5.18879 9.52843 5.41566C9.36871 5.64253 9.15882 5.8295 8.91507 5.96205C8.68267 6.07391 8.45939 6.20377 8.24725 6.35047C8.01126 6.50193 7.74322 6.59631 7.4644 6.62611C7.18557 6.6559 6.90364 6.6203 6.64097 6.52212L5.73885 6.19761C5.54254 6.12856 5.32839 6.12952 5.13269 6.2003C4.937 6.27109 4.77179 6.40736 4.66508 6.58602L3.61887 8.39026C3.51338 8.57607 3.47726 8.7933 3.51696 9.00324C3.55665 9.21319 3.66958 9.40224 3.83563 9.53671L4.55732 10.1319C4.77325 10.3112 4.94436 10.5385 5.05703 10.7956C5.1697 11.0527 5.22083 11.3325 5.20635 11.6128V12.3884C5.22048 12.6686 5.16906 12.9483 5.05618 13.2052C4.94329 13.462 4.77206 13.689 4.55607 13.8681L3.83437 14.4633C3.66833 14.5978 3.5554 14.7868 3.51571 14.9968C3.47601 15.2067 3.51212 15.4239 3.61761 15.6097L4.66382 17.414C4.7712 17.5965 4.93938 17.7355 5.13891 17.8065C5.33843 17.8775 5.55658 17.8761 5.75514 17.8024L6.65726 17.4779C6.91993 17.3797 7.20186 17.3441 7.48068 17.3739C7.75951 17.4037 8.02755 17.4981 8.26354 17.6495C8.47585 17.796 8.69911 17.9258 8.93136 18.0379C9.18165 18.1664 9.39845 18.3515 9.56444 18.5786C9.73043 18.8058 9.84101 19.0686 9.88736 19.346L10.0402 20.2481C10.0761 20.4605 10.1868 20.653 10.3522 20.7909C10.5177 20.9288 10.727 21.0029 10.9423 20.9999H13.0172C13.2326 21.0029 13.4419 20.9288 13.6073 20.7909C13.7728 20.653 13.8835 20.4605 13.9193 20.2481L14.0722 19.346C14.1185 19.0686 14.2291 18.8058 14.3951 18.5786C14.5611 18.3515 14.7779 18.1664 15.0282 18.0379C15.2606 17.9261 15.4839 17.7962 15.696 17.6495C15.932 17.4981 16.2 17.4037 16.4789 17.3739C16.7577 17.3441 17.0396 17.3797 17.3023 17.4779L18.2044 17.8024C18.3959 17.8622 18.6019 17.8565 18.7898 17.7862C18.9777 17.7158 19.1367 17.5849 19.2419 17.414L20.2881 15.6097C20.3936 15.4239 20.4297 15.2067 20.39 14.9968C20.3503 14.7868 20.2373 14.5978 20.0713 14.4633ZM11.956 14.7039C11.4207 14.7039 10.8975 14.5451 10.4524 14.2478C10.0073 13.9504 9.66045 13.5277 9.45562 13.0332C9.25078 12.5387 9.19718 11.9945 9.30161 11.4695C9.40603 10.9445 9.66379 10.4623 10.0423 10.0838C10.4208 9.70531 10.903 9.44756 11.428 9.34313C11.953 9.23871 12.4971 9.2923 12.9917 9.49714C13.4862 9.70198 13.9089 10.0489 14.2062 10.4939C14.5036 10.939 14.6623 11.4622 14.6623 11.9975C14.6623 12.7153 14.3772 13.4036 13.8697 13.9112C13.3621 14.4187 12.6737 14.7039 11.956 14.7039Z" stroke="#ACB1CB" stroke-width="1.4"/>
</svg>
