<svg width="218" height="82" viewBox="0 0 218 82" fill="none" xmlns="http://www.w3.org/2000/svg">
<g id="Union" filter="url(#filter0_d_380_24535)">
<mask id="path-1-outside-1_380_24535" maskUnits="userSpaceOnUse" x="8.58984" y="7" width="201" height="65" fill="black">
<rect fill="white" x="8.58984" y="7" width="201" height="65"/>
<path d="M26.7875 15.5307C28.1103 13.3394 30.4833 12 33.043 12H197.194C202.764 12 206.286 17.9824 203.583 22.8525L196.351 35.8828C195.127 38.0882 195.127 40.7689 196.351 42.9743L203.583 56.0046C206.286 60.8747 202.764 66.8571 197.194 66.8571H33.043C30.4833 66.8571 28.1103 65.5177 26.7875 63.3264L14.641 43.2046C13.2392 40.8824 13.2392 37.9747 14.641 35.6524L26.7875 15.5307Z"/>
</mask>
<path d="M26.7875 15.5307C28.1103 13.3394 30.4833 12 33.043 12H197.194C202.764 12 206.286 17.9824 203.583 22.8525L196.351 35.8828C195.127 38.0882 195.127 40.7689 196.351 42.9743L203.583 56.0046C206.286 60.8747 202.764 66.8571 197.194 66.8571H33.043C30.4833 66.8571 28.1103 65.5177 26.7875 63.3264L14.641 43.2046C13.2392 40.8824 13.2392 37.9747 14.641 35.6524L26.7875 15.5307Z" fill="white"/>
<path d="M14.641 43.2046L10.7274 45.5671L14.641 43.2046ZM14.641 35.6524L10.7274 33.29L14.641 35.6524ZM26.7875 63.3264L30.7012 60.9639L26.7875 63.3264ZM203.583 56.0046L199.586 58.2229L203.583 56.0046ZM196.351 35.8828L200.348 38.1012L196.351 35.8828ZM196.351 42.9743L200.348 40.7559L196.351 42.9743ZM203.583 22.8525L199.586 20.6342L203.583 22.8525ZM26.7875 15.5307L22.8739 13.1682L26.7875 15.5307ZM33.043 16.5714H197.194V7.42854H33.043V16.5714ZM199.586 20.6342L192.354 33.6645L200.348 38.1012L207.58 25.0709L199.586 20.6342ZM192.354 45.1926L199.586 58.2229L207.58 53.7862L200.348 40.7559L192.354 45.1926ZM197.194 62.2857H33.043V71.4285H197.194V62.2857ZM30.7012 60.9639L18.5547 40.8422L10.7274 45.5671L22.8739 65.6889L30.7012 60.9639ZM18.5547 38.0149L30.7012 17.8932L22.8739 13.1682L10.7274 33.29L18.5547 38.0149ZM18.5547 40.8422C18.0299 39.9728 18.0299 38.8843 18.5547 38.0149L10.7274 33.29C8.44853 37.0651 8.44853 41.792 10.7274 45.5671L18.5547 40.8422ZM33.043 62.2857C32.0847 62.2857 31.1964 61.7843 30.7012 60.9639L22.8739 65.6889C25.0243 69.2512 28.8819 71.4285 33.043 71.4285V62.2857ZM199.586 58.2229C200.598 60.0461 199.279 62.2857 197.194 62.2857V71.4285C206.249 71.4285 211.974 61.7034 207.58 53.7862L199.586 58.2229ZM192.354 33.6645C190.364 37.2496 190.364 41.6075 192.354 45.1926L200.348 40.7559C199.89 39.9303 199.89 38.9268 200.348 38.1012L192.354 33.6645ZM197.194 16.5714C199.279 16.5714 200.598 18.811 199.586 20.6342L207.58 25.0709C211.974 17.1537 206.249 7.42854 197.194 7.42854V16.5714ZM33.043 7.42854C28.8819 7.42854 25.0242 9.60591 22.8739 13.1682L30.7012 17.8932C31.1964 17.0728 32.0847 16.5714 33.043 16.5714V7.42854Z" fill="#FFB400" mask="url(#path-1-outside-1_380_24535)"/>
</g>
<defs>
<filter id="filter0_d_380_24535" x="0.570867" y="0.67122" width="216.966" height="80.8934" filterUnits="userSpaceOnUse" color-interpolation-filters="sRGB">
<feFlood flood-opacity="0" result="BackgroundImageFix"/>
<feColorMatrix in="SourceAlpha" type="matrix" values="0 0 0 0 0 0 0 0 0 0 0 0 0 0 0 0 0 0 127 0" result="hardAlpha"/>
<feOffset dy="1.68934"/>
<feGaussianBlur stdDeviation="4.22336"/>
<feComposite in2="hardAlpha" operator="out"/>
<feColorMatrix type="matrix" values="0 0 0 0 0 0 0 0 0 0 0 0 0 0 0 0 0 0 0.1 0"/>
<feBlend mode="normal" in2="BackgroundImageFix" result="effect1_dropShadow_380_24535"/>
<feBlend mode="normal" in="SourceGraphic" in2="effect1_dropShadow_380_24535" result="shape"/>
</filter>
</defs>
</svg>
