<svg stroke="#434F68" width="24" height="24" viewBox="0 0 24 24" fill="none" xmlns="http://www.w3.org/2000/svg">
<path d="M12 7.85542V11.855M12 15.8546H12.01M3 7.79687V15.9131C3 16.2557 3 16.427 3.05048 16.5798C3.09515 16.715 3.16816 16.839 3.26463 16.9437C3.37369 17.0621 3.52345 17.1452 3.82297 17.3116L11.223 21.4223C11.5066 21.5798 11.6484 21.6586 11.7985 21.6895C11.9315 21.7168 12.0685 21.7168 12.2015 21.6895C12.3516 21.6586 12.4934 21.5798 12.777 21.4223L20.177 17.3116C20.4766 17.1452 20.6263 17.0621 20.7354 16.9437C20.8318 16.839 20.9049 16.715 20.9495 16.5798C21 16.427 21 16.2557 21 15.9131V7.79687C21 7.45427 21 7.28296 20.9495 7.13018C20.9049 6.99502 20.8318 6.87095 20.7354 6.76627C20.6263 6.64795 20.4766 6.56475 20.177 6.39837L12.777 2.28769C12.4934 2.13015 12.3516 2.05138 12.2015 2.0205C12.0685 1.99317 11.9315 1.99317 11.7985 2.0205C11.6484 2.05138 11.5066 2.13015 11.223 2.28769L3.82297 6.39837C3.52345 6.56475 3.37369 6.64795 3.26463 6.76627C3.16816 6.87095 3.09515 6.99502 3.05048 7.13018C3 7.28296 3 7.45427 3 7.79687Z" stroke-width="1.5" stroke-linecap="round" stroke-linejoin="round"/>
</svg>
