<svg stroke="#ACB1CB" width="24" height="24" viewBox="0 0 24 24" fill="none" xmlns="http://www.w3.org/2000/svg">
<path d="M13.429 20.1734C13.2837 20.4237 13.0753 20.6315 12.8245 20.776C12.5737 20.9205 12.2893 20.9965 11.9999 20.9965C11.7105 20.9965 11.4261 20.9205 11.1753 20.776C10.9245 20.6315 10.716 20.4237 10.5708 20.1734M12.0262 4.50423L12.0262 2.79999M16.9563 9.43454C16.9563 8.12003 16.4341 6.85936 15.5046 5.92986C14.5751 5.00037 13.3145 4.47818 12 4.47818C10.6855 4.47818 9.42479 5.00037 8.49529 5.92986C7.5658 6.85936 7.04361 8.12003 7.04361 9.43454C7.04361 15.217 4.56543 16.8691 4.56543 16.8691H19.4345C19.4345 16.8691 16.9563 15.217 16.9563 9.43454Z" stroke-width="1.6" stroke-linecap="round" stroke-linejoin="round"/>
</svg>
