<svg stroke="#ACB1CB" width="24" height="24" viewBox="0 0 24 24" fill="none" xmlns="http://www.w3.org/2000/svg">
<path d="M19.59 11.5008L12.4558 18.635C11.5818 19.509 10.3964 20 9.1604 20C7.92438 20 6.73899 19.509 5.865 18.635C4.991 17.761 4.5 16.5756 4.5 15.3396C4.5 14.1036 4.991 12.9182 5.865 12.0442L12.9992 4.91C13.5819 4.32734 14.3721 4 15.1961 4C16.0201 4 16.8104 4.32734 17.3931 4.91C17.9757 5.49266 18.3031 6.28292 18.3031 7.10693C18.3031 7.93094 17.9757 8.7212 17.3931 9.30386L10.2511 16.4381C9.95977 16.7294 9.56464 16.8931 9.15263 16.8931C8.74063 16.8931 8.3455 16.7294 8.05417 16.4381C7.76284 16.1467 7.59917 15.7516 7.59917 15.3396C7.59917 14.9276 7.76284 14.5325 8.05417 14.2411L14.645 7.6581" stroke-width="1.6" stroke-linecap="round" stroke-linejoin="round"/>
</svg>
