<svg stroke="#ACB1CB" width="24" height="24" viewBox="0 0 24 24" fill="none" xmlns="http://www.w3.org/2000/svg">
<path d="M14.5313 6.375H9.4126C9.02472 6.375 8.65273 6.52908 8.37845 6.80336C8.10418 7.07763 7.9501 7.44962 7.9501 7.8375V19.5375C7.9501 19.9254 8.10418 20.2974 8.37845 20.5716C8.65273 20.8459 9.02472 21 9.4126 21H18.1876C18.5755 21 18.9475 20.8459 19.2217 20.5716C19.496 20.2974 19.6501 19.9254 19.6501 19.5375V11.4938M14.5313 6.375L19.6501 11.4938M14.5313 6.375V11.4938H19.6501M14.2501 3H8.2501C6.09619 3 4.3501 4.74609 4.3501 6.9V18.75" stroke-width="1.6" stroke-linecap="round" stroke-linejoin="round"/>
</svg>
