<svg stroke="#ACB1CB" width="24" height="24" viewBox="0 0 24 24" fill="none" xmlns="http://www.w3.org/2000/svg">
<path d="M11.2514 4.7677H4.98934C4.51483 4.7677 4.05975 4.9562 3.72422 5.29173C3.38869 5.62726 3.2002 6.08234 3.2002 6.55685V19.0809C3.2002 19.5554 3.38869 20.0105 3.72422 20.346C4.05975 20.6815 4.51483 20.87 4.98934 20.87H17.5134C17.9879 20.87 18.443 20.6815 18.7785 20.346C19.114 20.0105 19.3025 19.5554 19.3025 19.0809V12.8189" stroke-width="1.6" stroke-linecap="round" stroke-linejoin="round"/>
<path fill-rule="evenodd" clip-rule="evenodd" d="M20.4064 3.52078C19.8987 3.01309 19.0756 3.01309 18.5679 3.52078L17.8994 4.18928L19.7379 6.02775L20.4064 5.35925C20.914 4.85157 20.914 4.02846 20.4064 3.52078ZM19.0308 6.73486L17.1923 4.89638L9.68188 12.4068C9.57603 12.5126 9.49529 12.6409 9.44563 12.7821L8.66211 15.01C8.60642 15.1683 8.75879 15.3207 8.91713 15.265L11.145 14.4815C11.2862 14.4318 11.4145 14.3511 11.5204 14.2453L19.0308 6.73486Z" fill="#ACB1CB"/>
</svg>
