<svg stroke="#ACB1CB" width="24" height="24" viewBox="0 0 24 24" fill="none" xmlns="http://www.w3.org/2000/svg">
<path d="M12.4818 6.26778C12.5392 6.17339 12.6642 6.13992 12.7611 6.19303L16.5939 8.29458C16.6908 8.34769 16.7228 8.46726 16.6654 8.56165L9.98891 19.5439C9.96445 19.5841 9.92623 19.6151 9.88095 19.6313L6.61341 20.8031C6.49391 20.8459 6.36554 20.7755 6.34487 20.6558L5.77961 17.3825C5.77178 17.3372 5.78089 17.2903 5.80534 17.25L12.4818 6.26778Z" stroke-width="1.6"/>
<mask id="path-2-inside-1_1_434" fill="white">
<rect width="8.59029" height="2.14923" rx="1" transform="matrix(0.876872 0.480883 -0.519443 0.854599 11.2983 4.50806)"/>
</mask>
<rect width="8.59029" height="2.14923" rx="1" transform="matrix(0.876872 0.480883 -0.519443 0.854599 11.2983 4.50806)" stroke-width="2.14923" mask="url(#path-2-inside-1_1_434)"/>
<mask id="path-3-inside-2_1_434" fill="white">
<path d="M13.3424 3.2502C14.2608 1.7427 16.2608 1.20748 17.8094 2.05475C19.358 2.90203 19.8688 4.81095 18.9504 6.31845L17.255 9.10119C16.9676 9.5729 16.3418 9.74037 15.8572 9.47525L12.004 7.36708C11.5194 7.10196 11.3596 6.50465 11.647 6.03294L13.3424 3.2502Z"/>
</mask>
<path d="M13.3424 3.2502C14.2608 1.7427 16.2608 1.20748 17.8094 2.05475C19.358 2.90203 19.8688 4.81095 18.9504 6.31845L17.255 9.10119C16.9676 9.5729 16.3418 9.74037 15.8572 9.47525L12.004 7.36708C11.5194 7.10196 11.3596 6.50465 11.647 6.03294L13.3424 3.2502Z" stroke-width="3.2" mask="url(#path-3-inside-2_1_434)"/>
</svg>
