<svg stroke="#ACB1CB" width="24" height="24" viewBox="0 0 24 24" fill="none" xmlns="http://www.w3.org/2000/svg">
<path d="M5.01488 3.23178C5.24288 2.95819 5.58061 2.8 5.93675 2.8H18.0632C18.4194 2.8 18.7571 2.95819 18.9851 3.23178L22.3033 7.2136C22.6782 7.66344 22.6736 8.31817 22.2925 8.76277L12.9111 19.7078C12.4322 20.2665 11.5678 20.2665 11.0889 19.7078L1.70746 8.76277C1.32638 8.31817 1.32183 7.66344 1.6967 7.21359L5.01488 3.23178Z" stroke-width="1.6"/>
<path d="M9.29334 2.92864C9.32293 2.85117 9.39726 2.8 9.48018 2.8H14.5198C14.6027 2.8 14.6771 2.85117 14.7067 2.92864L16.6144 7.92355C16.6322 7.97012 16.632 8.02165 16.6137 8.06804L12.1862 19.3383C12.1197 19.5075 11.8803 19.5075 11.8138 19.3383L7.38625 8.06804C7.36802 8.02165 7.36778 7.97012 7.38557 7.92355L9.29334 2.92864Z" stroke-width="1.6"/>
<path d="M2 8.25H22" stroke-width="1.6" stroke-linecap="round"/>
</svg>
