<svg width="200" height="36" viewBox="0 0 200 36" fill="none" xmlns="http://www.w3.org/2000/svg">
<g id="Group 40412">
<g id="Vector">
<path d="M11.1505 23.7474C8.94086 24.9851 6.65645 25.2368 4.30905 24.1905C-0.141679 22.2068 -1.37901 16.5623 1.70448 12.7863C3.84718 10.1627 7.84786 9.62772 10.5364 11.0149C10.7293 11.1146 10.9419 11.1749 11.14 11.2509C10.8487 10.2833 10.564 9.39041 10.312 8.48966C9.88559 6.95956 10.2346 5.50682 10.913 4.14586C12.4311 1.09878 15.5684 -0.402473 18.6991 0.0931363C21.8758 0.595302 24.3045 3.18086 24.748 6.38921C24.9973 8.19072 24.5053 9.79161 23.6564 11.3322C23.6327 11.3715 23.6104 11.4096 23.5868 11.4489C23.6367 11.441 23.6865 11.4318 23.7364 11.424C26.2465 9.92404 28.8169 9.78244 31.3835 11.2116C34.8042 13.1167 36.0638 17.5077 34.2295 20.9179C32.3138 24.4777 27.9942 25.8504 24.441 24.0279C24.1917 23.8994 23.949 23.7565 23.5199 23.5179C23.7128 23.868 23.8191 24.0581 23.9214 24.2495C26.3921 28.8883 23.5068 34.0044 19.0403 34.8684C16.0854 35.4401 13.4283 34.6613 11.615 32.0154C9.88821 29.4967 9.77143 26.8718 11.1688 24.1695C11.2187 24.0725 11.2673 23.9755 11.3171 23.8798C11.3617 23.7841 11.4063 23.6884 11.5179 23.451C11.3106 23.6202 11.2318 23.6831 11.1531 23.7474H11.1505ZM17.5287 0.809017C14.9137 0.929641 12.8851 2.06115 11.716 4.46709C10.5508 6.86385 10.85 9.17145 12.439 11.2981C12.7185 11.6718 12.7093 11.9143 12.4062 12.2592C11.9916 12.7299 11.6635 12.7574 11.1439 12.3601C8.9881 10.7133 6.12766 10.615 3.83406 12.0481C1.57327 13.4615 0.415975 16.1008 0.917207 18.7047C1.83701 23.4838 7.30332 25.6 11.2056 22.6696C11.6793 22.313 11.9587 22.351 12.3694 22.7456C12.8497 23.2085 12.6017 23.5218 12.3104 23.9178C10.3593 26.5781 10.7253 30.3384 13.0977 32.4926C15.5015 34.6744 19.0626 34.9917 21.7669 32.5713C24.4331 30.185 24.7415 26.6345 22.6657 23.8404C22.3547 23.4209 22.2734 23.1403 22.6854 22.7286C23.1039 22.3103 23.3952 22.3366 23.8505 22.6814C25.6075 24.0122 27.598 24.3767 29.6764 23.6988C32.2718 22.8518 33.8266 21.011 34.1717 18.2825C34.5076 15.6314 33.2021 13.0931 30.8783 11.8711C28.4561 10.5967 26.0812 10.7527 23.8584 12.3877C23.4307 12.7023 23.1525 12.764 22.7444 12.3601C22.3364 11.9563 22.3127 11.6836 22.667 11.205C24.2206 9.1072 24.4449 6.82058 23.3178 4.48151C22.171 2.10442 20.1779 0.944064 17.5287 0.809017Z" fill="#ABD1BC"/>
<path d="M15.4386 11.8017C14.9478 11.2877 14.4597 10.8196 14.0201 10.3083C12.7907 8.88044 12.5335 6.78656 13.3733 5.2368C14.3862 3.3658 16.0789 2.47948 18.2019 2.70892C19.9339 2.89642 21.5504 4.31638 22.0057 6.13492C22.402 7.71878 22.0425 9.15185 20.9718 10.4014C20.6805 10.7409 20.4141 10.7711 20.0992 10.4486C19.7489 10.088 19.4064 9.71695 19.0285 9.38785C18.627 9.03909 18.5785 8.74146 18.8986 8.27601C19.5416 7.34379 19.1991 6.19524 18.2111 5.75207C17.5393 5.45051 16.7848 5.59736 16.2901 6.12443C15.7587 6.69085 15.6616 7.43819 16.0395 8.11474C16.1235 8.26552 16.2219 8.41761 16.3426 8.53955C18.6165 10.8393 20.8944 13.1338 23.3179 15.5777C23.7194 15.1123 24.0409 14.6704 24.4292 14.2994C26.7766 12.0626 30.2498 12.5516 31.8388 15.3286C32.9476 17.2665 32.3834 19.8311 30.5372 21.2392C28.7868 22.574 26.0799 22.4324 24.6011 20.8957C24.4712 20.7607 24.4411 20.3332 24.5539 20.1942C24.9488 19.7039 25.4238 19.2764 25.8726 18.8293C26.2177 18.4845 26.5011 18.7284 26.7976 18.9251C27.4275 19.3407 28.0783 19.3354 28.7028 18.9342C29.288 18.5579 29.519 17.9902 29.4468 17.3019C29.3327 16.2084 28.0914 15.5004 27.0955 15.9698C26.9 16.0615 26.7018 16.1756 26.551 16.3251C24.2482 18.6235 21.9519 20.9298 19.6269 23.2623C20.1347 23.8012 20.6595 24.3204 21.1411 24.8776C22.3574 26.2871 22.3915 28.3141 21.7145 29.7131C20.7579 31.6903 18.7622 32.5215 17.2782 32.3708C15.1368 32.1531 13.6318 30.9469 13.0951 29.0798C12.6319 27.4671 12.9678 26.0327 14.0096 24.7308C14.3823 24.2653 14.6946 24.2784 15.0633 24.7046C15.2483 24.9183 15.4635 25.1071 15.6642 25.3077C16.1856 25.8286 16.2919 26.4082 15.9831 27.0462C15.6485 27.7372 15.8335 28.5803 16.4266 29.0588C17.0787 29.5872 17.9578 29.5925 18.5982 29.0746C19.1886 28.596 19.4025 27.7372 19.0692 27.0672C18.9551 26.8365 18.8002 26.6136 18.6191 26.4313C16.4292 24.2325 14.2314 22.0416 12.0349 19.8507C11.9601 19.776 11.8722 19.7157 11.8013 19.658C11.2017 20.1982 10.6572 20.7764 10.0273 21.2366C8.45542 22.3852 6.74966 22.5071 5.05045 21.5722C3.26465 20.5902 2.47212 18.9932 2.68994 16.9846C2.89069 15.1359 3.94171 13.8379 5.68552 13.1954C7.40572 12.5621 8.98158 12.9253 10.3934 14.0909C10.7359 14.3741 10.7267 14.6298 10.4603 14.9117C10.0247 15.3706 9.56548 15.8098 9.12067 16.2608C8.78345 16.603 8.54727 16.3329 8.27566 16.1494C7.512 15.6328 6.61582 15.7324 6.02143 16.3828C5.44934 17.0095 5.42047 17.9312 5.95188 18.5986C6.56202 19.3656 7.72457 19.4718 8.45017 18.7572C10.7858 16.4588 13.0964 14.1342 15.4359 11.799L15.4386 11.8017ZM17.5957 14.0948C16.4213 15.2683 15.2286 16.4614 14.133 17.5562C15.2496 18.672 16.4331 19.8547 17.5366 20.9573C18.6677 19.8297 19.8512 18.6484 20.9875 17.5156C19.8539 16.3723 18.6769 15.1857 17.5957 14.0948Z" fill="#ABD1BC"/>
</g>
<g id="Vector_2">
<path d="M186.493 14.4124V24.8569H184.735V10.1184C185.218 10.1184 185.72 10.0699 186.203 10.1433C186.389 10.1709 186.586 10.4514 186.688 10.6599C188.482 14.3455 190.261 18.0377 192.045 21.7272C192.147 21.9396 192.26 22.1468 192.412 22.4431C192.556 22.1796 192.674 21.9855 192.771 21.7823C194.502 18.1871 196.253 14.6025 197.94 10.9877C198.271 10.2784 198.662 9.97156 199.417 10.1105C199.605 10.1446 199.801 10.1355 200 10.1473V24.8713H198.349V14.3652L198.23 14.3311C198.126 14.5291 198.015 14.7231 197.919 14.9237C196.418 18.0482 194.902 21.166 193.434 24.3049C193.193 24.8228 192.884 24.9133 192.382 24.912C191.899 24.912 191.612 24.8189 191.382 24.3259C189.914 21.1857 188.402 18.0665 186.905 14.9408C186.814 14.752 186.717 14.5658 186.623 14.377C186.581 14.3888 186.536 14.4006 186.493 14.4124Z" fill="black"/>
<path d="M124.432 24.8359C123.856 24.8608 123.28 24.8871 122.603 24.9172V22.7735C122.613 19.2138 122.624 15.654 122.633 12.0943C122.634 11.4649 122.633 10.8343 122.633 10.1853C123.439 10.0424 124.027 10.0909 124.583 10.833C127.193 14.3075 129.877 17.7256 132.537 21.1634C132.641 21.2972 132.754 21.4243 132.95 21.6577V10.1551H134.674V24.8464C133.891 24.9867 133.302 24.8884 132.739 24.1384C130.182 20.7334 127.544 17.3887 124.935 14.023C124.805 13.8565 124.671 13.6926 124.431 13.391V24.8346L124.432 24.8359Z" fill="black"/>
<path d="M119.879 20.4148C119.033 22.2215 117.757 23.6297 115.923 24.4452C114.201 25.2096 112.435 25.3473 110.576 24.8136C108.769 24.2957 107.513 23.0921 106.452 21.7023C105.76 20.7963 105.387 19.6609 105.306 18.4612C105.225 17.2471 105.188 16.0316 105.705 14.9172C106.1 14.0636 106.612 13.2468 107.178 12.4942C108.4 10.8684 110.189 10.2456 112.111 9.91912C114.14 9.83783 115.991 10.3321 117.588 11.6275C119.926 13.5247 121.191 16.8026 119.879 20.4148ZM107.105 17.4739C107.113 20.8304 109.633 23.4527 112.845 23.4487C115.985 23.4448 118.583 20.7976 118.592 17.5932C118.6 14.2944 116.006 11.6013 112.829 11.6105C109.677 11.6197 107.099 14.2616 107.105 17.4739Z" fill="black"/>
<path d="M173.681 19.6084V24.8438H171.962V10.0253C174.137 10.1237 176.307 10.0778 178.434 10.3583C180.369 10.614 181.737 12.3093 181.929 14.1869C182.167 16.5154 181.298 18.1793 179.371 19.0827C179.216 19.1548 179.057 19.2216 178.839 19.3173C180.142 21.1569 181.424 22.9662 182.789 24.8923C182.147 24.8923 181.613 24.9303 181.09 24.8726C180.903 24.8517 180.705 24.6248 180.577 24.4465C179.533 22.9925 178.492 21.5358 177.484 20.0568C177.241 19.7015 176.984 19.5861 176.573 19.5992C175.636 19.6268 174.696 19.6084 173.681 19.6084ZM173.704 18.1334C175.241 18.0233 176.716 18.0482 178.136 17.7807C179.587 17.5067 180.281 16.3122 180.214 14.731C180.153 13.2507 179.291 12.0746 177.874 11.9199C176.505 11.7704 175.106 11.8871 173.702 11.8871L173.704 18.1334Z" fill="black"/>
<path d="M169.818 11.697C169.469 12.0982 169.141 12.4745 168.781 12.8902C167.256 11.8072 165.6 11.3391 163.768 11.7586C162.33 12.0877 161.164 12.8613 160.295 14.0558C158.619 16.3581 158.853 19.6399 160.871 21.6931C162.841 23.6952 165.971 24.1948 168.808 22.1376C169.164 22.5218 169.525 22.9125 169.885 23.3019C167.52 25.5348 162.771 26.0605 159.617 22.923C156.664 19.986 156.592 15.3066 159.458 12.3028C162.227 9.40253 167.003 9.10359 169.817 11.6983L169.818 11.697Z" fill="black"/>
<path d="M149.431 10.1184C148.252 11.8203 147.148 13.4094 146.051 15.0037C145.334 16.0447 144.359 17.0097 143.996 18.1649C143.638 19.2977 143.904 20.6285 143.9 21.8728C143.897 22.8535 143.9 23.8342 143.9 24.8556H142.156C142.156 24.6642 142.156 24.4557 142.156 24.2472C142.156 22.3697 142.171 20.4908 142.142 18.6133C142.137 18.292 142.021 17.9262 141.839 17.6601C140.264 15.3538 138.663 13.0645 137.072 10.77C136.95 10.5944 136.842 10.4108 136.66 10.1223C137.309 10.1223 137.871 10.0856 138.422 10.142C138.608 10.1604 138.81 10.3859 138.936 10.5655C140.159 12.3198 141.368 14.0833 142.581 15.8441C142.715 16.0382 142.857 16.2283 143.026 16.4656C144.283 14.6497 145.555 12.902 146.721 11.0873C147.204 10.3361 147.726 9.95321 148.617 10.1132C148.843 10.1538 149.082 10.1184 149.431 10.1184Z" fill="black"/>
<path d="M74.8232 21.4637C74.831 17.9708 74.8389 14.4792 74.8468 10.9864C74.8468 10.7255 74.8468 10.4645 74.8468 10.1197C75.5921 10.1197 76.3059 10.1092 77.021 10.1223C78.2872 10.1446 79.5639 10.0896 80.817 10.2285C82.9767 10.4685 84.546 12.0182 84.8308 14.023C85.1785 16.4656 84.2692 18.1767 82.0937 19.1705C82.0005 19.2138 81.9073 19.2583 81.7696 19.3226C83.0686 21.1582 84.3479 22.9662 85.7112 24.891C85.0551 24.891 84.5198 24.9225 83.9923 24.8726C83.8257 24.8569 83.6459 24.6445 83.5291 24.4819C82.4768 23.0095 81.4258 21.5332 80.3997 20.0424C80.1766 19.7172 79.9405 19.5861 79.5468 19.5979C78.5903 19.6255 77.6324 19.6071 76.6457 19.6071V24.8045C76.0684 24.8464 75.4924 24.8884 74.8232 24.9382V21.4637ZM76.6326 18.0154C77.8516 18.0154 79.0062 18.0285 80.1596 18.0062C80.4588 18.001 80.7605 17.9053 81.0518 17.8187C82.5122 17.3808 83.2287 16.2952 83.1342 14.6851C83.045 13.1642 82.1645 12.0405 80.6976 11.8963C79.3658 11.7652 78.0116 11.8688 76.6326 11.8688V18.0154Z" fill="black"/>
<path d="M56.729 24.8687H55.0455V18.4913H47.5126V24.8595H45.7517V10.1577H47.4758V16.7633H55.0022V10.1538H56.7276L56.729 24.8687Z" fill="black"/>
<path d="M67.5264 12.2661C68.0014 13.3215 68.4777 14.3757 68.9527 15.4311C69.0761 15.7012 69.1994 15.9713 69.3227 16.2414C69.7859 17.2903 70.2478 18.3392 70.711 19.3881C70.7858 19.5494 70.8606 19.7107 70.9353 19.872C71.018 20.0529 71.1007 20.2325 71.1846 20.4135C71.308 20.6835 71.4313 20.9523 71.5547 21.2224C72.0677 22.4182 72.5821 23.6153 73.1318 24.8962C72.6319 24.8962 72.1779 24.9408 71.7397 24.8779C71.5166 24.8464 71.2253 24.6694 71.1309 24.4767C70.7083 23.6179 70.3659 22.7184 69.9434 21.8596C69.8489 21.6682 69.5445 21.465 69.3346 21.4624C66.9963 21.4335 64.6568 21.4532 62.3186 21.4335C61.942 21.4309 61.7833 21.5751 61.6521 21.8977C61.3227 22.704 60.9304 23.4854 60.6194 24.2984C60.4475 24.7481 60.2271 24.9723 59.7193 24.9054C59.3558 24.8569 58.9806 24.8962 58.5016 24.8962C58.6079 24.6353 58.6801 24.4439 58.7641 24.2564C60.7887 19.7212 62.8264 15.1912 64.8261 10.6455C65.0439 10.1512 65.3352 10.0935 65.78 10.1092C66.2222 10.125 66.6394 10.066 66.7969 10.656C66.9006 11.0493 67.1341 11.4073 67.3086 11.7809C67.3821 11.9422 67.4556 12.1035 67.5291 12.2661H67.5264ZM65.8167 12.4155C64.6936 14.984 63.6281 17.4188 62.5377 19.9139H69.0944C68.0067 17.4267 66.9465 14.9998 65.8167 12.4155Z" fill="black"/>
<path d="M87.661 10.1892C87.7476 10.1551 87.7673 10.142 87.7883 10.1407C88.8048 10.062 89.533 10.4785 89.973 11.3902C91.6538 14.8621 93.3346 18.334 95.0155 21.8046C95.1086 21.9973 95.2084 22.1874 95.3527 22.4733C95.6269 21.9213 95.8644 21.4506 96.0927 20.9759C97.3406 18.3838 98.5871 15.793 99.831 13.1996C100.218 12.3919 100.638 11.5961 100.963 10.7635C101.148 10.2902 101.406 10.1341 101.882 10.1787C102.247 10.2128 102.617 10.1853 103.019 10.1853V24.8517H101.251V14.4347C101.206 14.4176 101.161 14.4019 101.117 14.3848C101.017 14.5815 100.913 14.7756 100.818 14.9749C99.3074 18.1177 97.7788 21.2513 96.3066 24.4111C96.0494 24.9631 95.6742 24.8739 95.2543 24.9002C94.8318 24.9264 94.5615 24.8517 94.3476 24.3941C92.8597 21.2172 91.3284 18.0613 89.809 14.8988C89.7197 14.7139 89.6148 14.5369 89.4219 14.3809V24.8569H87.6584V10.1892H87.661Z" fill="black"/>
</g>
</g>
</svg>
