<svg width="128" height="128" viewBox="0 0 128 128" fill="none" xmlns="http://www.w3.org/2000/svg">
<path d="M56.1846 23.1373C60.6141 21.6075 65.4706 21.6075 69.9002 23.1551C67.89 20.718 65.5596 18.6722 63.0335 17C60.5074 18.6722 58.177 20.718 56.1846 23.1373Z" fill="#601B23"/>
<path d="M56.1846 23.1373C60.6141 21.6075 65.4706 21.6075 69.9002 23.1551C67.89 20.718 65.5596 18.6722 63.0335 17C60.5074 18.6722 58.177 20.718 56.1846 23.1373Z" stroke="#601B23" stroke-width="0.357599" stroke-miterlimit="10" stroke-linecap="round" stroke-linejoin="round"/>
<path d="M70.4873 92.2311C70.4873 95.5399 69.7935 98.7064 68.5127 101.926C68.4771 102.033 68.4238 102.14 68.3704 102.264C67.0895 105.324 65.2572 108.384 63.0336 110.181C60.7387 108.33 58.8708 105.146 57.5722 101.997C57.5544 101.98 57.5544 101.962 57.5366 101.926C56.2558 98.7064 55.562 95.5399 55.562 92.2311C55.562 91.2171 55.6332 90.2209 55.7577 89.1891C56.1846 85.7379 58.5328 81.5752 61.4681 81.1305C61.5037 81.1305 61.5393 81.1127 61.5748 81.1127C62.4999 81.006 63.4427 81.006 64.3678 81.0949C64.4033 81.0949 64.4567 81.0949 64.4923 81.1127C67.4809 81.4863 69.8825 85.7024 70.3094 89.1891C70.4162 90.2209 70.4873 91.2171 70.4873 92.2311Z" fill="#F4A045"/>
<path d="M70.4873 92.2311C70.4873 95.5399 69.7935 98.7064 68.5127 101.926C68.4771 102.033 68.4238 102.14 68.3704 102.264C67.0895 105.324 65.2572 108.384 63.0336 110.181C60.7387 108.33 58.8708 105.146 57.5722 101.997C57.5544 101.98 57.5544 101.962 57.5366 101.926C56.2558 98.7064 55.562 95.5399 55.562 92.2311C55.562 91.2171 55.6332 90.2209 55.7577 89.1891C56.1846 85.7379 58.5328 81.5752 61.4681 81.1305C61.5037 81.1305 61.5393 81.1127 61.5748 81.1127C62.4999 81.006 63.4427 81.006 64.3678 81.0949C64.4033 81.0949 64.4567 81.0949 64.4923 81.1127C67.4809 81.4863 69.8825 85.7024 70.3094 89.1891C70.4162 90.2209 70.4873 91.2171 70.4873 92.2311Z" stroke="#601B23" stroke-width="0.357599" stroke-miterlimit="10" stroke-linecap="round" stroke-linejoin="round"/>
<path d="M62.2157 81.0771C60.5435 81.2906 59.2093 83.6388 58.9602 85.5779C58.8891 86.1471 58.8535 86.6986 58.8535 87.2678C58.8535 89.1179 59.2449 90.8791 59.9565 92.6758C60.668 94.437 61.7354 96.2337 63.0162 97.2655C64.3149 96.2337 65.3644 94.437 66.076 92.6758C66.7876 90.8791 67.179 89.1179 67.179 87.2678C67.179 86.6986 67.1434 86.1471 67.0722 85.5779C66.8232 83.621 65.489 81.2906 63.8168 81.0771C63.3009 81.0238 62.7494 81.0238 62.2157 81.0771Z" fill="#E36535"/>
<path d="M62.2157 81.0771C60.5435 81.2906 59.2093 83.6388 58.9602 85.5779C58.8891 86.1471 58.8535 86.6986 58.8535 87.2678C58.8535 89.1179 59.2449 90.8791 59.9565 92.6758C60.668 94.437 61.7354 96.2337 63.0162 97.2655C64.3149 96.2337 65.3644 94.437 66.076 92.6758C66.7876 90.8791 67.179 89.1179 67.179 87.2678C67.179 86.6986 67.1434 86.1471 67.0722 85.5779C66.8232 83.621 65.489 81.2906 63.8168 81.0771C63.3009 81.0238 62.7494 81.0238 62.2157 81.0771Z" stroke="#601B23" stroke-width="0.357599" stroke-miterlimit="10" stroke-linecap="round" stroke-linejoin="round"/>
<path d="M41.5611 53.913L35.7617 56.1723V45.1606L53.5689 31.2671V52.0985L49.2639 54.3577C46.969 53.1481 44.1761 52.899 41.5611 53.913Z" fill="#C11A4D"/>
<path d="M33.8768 59.0539C32.0623 56.4211 31.0127 53.3079 31.0127 49.9813C31.0127 45.7652 32.6671 41.9049 35.4245 38.9341C38.1818 41.9049 39.854 45.7652 39.8718 49.9813C39.8718 53.3257 38.8222 56.4211 37.0255 59.0539H33.8768Z" fill="#CF264D"/>
<path opacity="0.72" d="M35.7617 56.1724L41.5255 53.931C41.5966 52.4011 41.4899 50.8356 41.2053 49.2701C40.7783 46.9219 39.9778 44.716 38.8749 42.7236L35.7617 45.1608V56.1724Z" fill="#A5143A"/>
<path opacity="0.23" d="M36.5089 48.2382L53.5867 34.9317V31.2671L35.7617 45.1428V56.1723L36.5089 55.8876V48.2382Z" fill="#F4A15D"/>
<path opacity="0.72" d="M46.4892 53.4149C47.4676 53.575 48.3926 53.8952 49.2643 54.3577L53.5693 52.0985V31.2671L46.0622 37.1198C45.6886 39.3791 45.5107 41.7451 45.5107 44.1822C45.5285 47.4021 45.8665 50.5152 46.4892 53.4149Z" fill="#A5143A"/>
<path d="M41.5611 53.913L35.7617 56.1723V45.1606L53.5689 31.2671V52.0985L49.2639 54.3577C46.969 53.1481 44.1761 52.899 41.5611 53.913Z" stroke="#601B23" stroke-width="0.357599" stroke-miterlimit="10" stroke-linecap="round" stroke-linejoin="round"/>
<path d="M33.8768 59.0539C32.0623 56.4211 31.0127 53.3079 31.0127 49.9813C31.0127 45.7652 32.6671 41.9049 35.4245 38.9341C38.1818 41.9049 39.854 45.7652 39.8718 49.9813C39.8718 53.3257 38.8222 56.4211 37.0255 59.0539H33.8768Z" fill="#CF264D"/>
<path opacity="0.23" d="M35.1573 38.9341C35.3708 39.1653 35.5843 39.4144 35.7799 39.6634C33.9298 42.5098 32.8625 45.8542 32.8447 49.412C32.8447 52.9343 33.3784 56.2254 35.1929 59.0717H33.5563C31.7595 56.4389 30.71 53.3257 30.71 49.9991C30.7278 45.7652 32.4 41.9049 35.1573 38.9341Z" fill="#F4A15D"/>
<path opacity="0.32" d="M35.1573 38.9341C35.2285 39.0052 35.2996 39.0942 35.3708 39.1831C33.2894 42.2607 32.0975 45.872 32.0797 49.75C32.0797 53.1122 32.987 56.2788 34.5703 59.0717H33.5563C31.7595 56.4389 30.71 53.3257 30.71 49.9991C30.7278 45.7652 32.4 41.9049 35.1573 38.9341Z" fill="#F4A15D"/>
<path opacity="0.37" d="M39.8717 49.9813C39.8717 45.7652 38.1995 41.9227 35.4244 38.9341C35.2109 39.1653 34.9974 39.4144 34.8018 39.6634C36.6519 42.5098 37.7192 45.8542 37.737 49.412C37.737 52.9343 36.7052 56.2254 34.8907 59.0717H37.0254C38.8222 56.4211 39.8717 53.3079 39.8717 49.9813Z" fill="#A5143A"/>
<path opacity="0.72" d="M39.8718 49.9813C39.8718 45.7652 38.1996 41.9227 35.4244 38.9341C35.3533 39.0052 35.2821 39.0942 35.2109 39.1831C37.2923 42.2607 38.4842 45.872 38.502 49.75C38.502 53.1122 37.5947 56.2788 36.0115 59.0717H37.0255C38.8222 56.4211 39.8718 53.3079 39.8718 49.9813Z" fill="#A5143A"/>
<path opacity="0.37" d="M35.4244 38.9341C35.2109 39.1653 34.9974 39.4144 34.8018 39.6634C36.6519 42.5098 37.7192 45.8542 37.737 49.412C37.737 52.9343 36.7052 56.2254 34.8907 59.0717H37.0254C38.8222 56.4389 39.8717 53.3257 39.8717 49.9991C39.8539 45.7652 38.1817 41.9049 35.4244 38.9341Z" fill="#A5143A"/>
<path opacity="0.72" d="M35.4244 38.9341C35.3533 39.0052 35.2821 39.0942 35.2109 39.1831C37.2923 42.2607 38.4842 45.872 38.502 49.75C38.502 53.1122 37.5947 56.2788 36.0115 59.0717H37.0255C38.8222 56.4389 39.8718 53.3257 39.8718 49.9991C39.854 45.7652 38.1818 41.9049 35.4244 38.9341Z" fill="#A5143A"/>
<path d="M37.4513 42.1364C36.7931 40.9801 36.0103 39.9127 35.1031 38.9165C34.1958 39.8949 33.4131 40.9801 32.7549 42.1364H37.4513Z" fill="#601B23"/>
<path d="M33.8768 59.0539C32.0623 56.4211 31.0127 53.3079 31.0127 49.9813C31.0127 45.7652 32.6671 41.9049 35.4245 38.9341C38.1818 41.9049 39.854 45.7652 39.8718 49.9813C39.8718 53.3257 38.8222 56.4211 37.0255 59.0539H33.8768Z" stroke="#601B23" stroke-width="0.357599" stroke-miterlimit="10" stroke-linecap="round" stroke-linejoin="round"/>
<path d="M56.9848 72.7871C56.9848 72.7871 54.8323 73.2497 51.7369 76.345C50.6162 77.4658 48.8551 79.7428 47.5564 81.4684C47.0228 82.18 45.8842 81.8242 45.8664 80.9347L45.4395 61.989C45.3505 61.4553 45.4929 60.9038 45.8309 60.4947L50.4917 54.6953L56.9848 72.7871Z" fill="#CF264D"/>
<path opacity="0.32" d="M45.8309 81.3083C46.8449 81.166 47.6098 80.2943 47.6276 79.2625L47.8233 61.651C47.7343 61.1173 47.8766 60.5658 48.2146 60.1567L51.1321 56.5098L50.4739 54.6953L45.8309 60.4769C45.4929 60.9038 45.3505 61.4375 45.4395 61.9712L45.8309 81.3083Z" fill="#F4A15D"/>
<path opacity="0.72" d="M56.9842 72.7872L50.4911 54.6953L47.9116 57.9152C49.2992 63.252 51.4873 68.6778 54.4403 74.0858C56.0058 73.0006 56.9842 72.7872 56.9842 72.7872Z" fill="#A5143A"/>
<path d="M56.9848 72.7871C56.9848 72.7871 54.8323 73.2497 51.7369 76.345C50.6162 77.4658 48.8551 79.7428 47.5564 81.4684C47.0228 82.18 45.8842 81.8242 45.8664 80.9347L45.4395 61.989C45.3505 61.4553 45.4929 60.9038 45.8309 60.4947L50.4917 54.6953L56.9848 72.7871Z" stroke="#601B23" stroke-width="0.357599" stroke-miterlimit="10" stroke-linecap="round" stroke-linejoin="round"/>
<path d="M32.1865 56.7061H38.0392" stroke="#601B23" stroke-width="0.2384" stroke-miterlimit="10" stroke-linecap="round" stroke-linejoin="round"/>
<path d="M33.8768 59.0539C32.0623 56.4211 31.0127 53.3079 31.0127 49.9813C31.0127 45.7652 32.6671 41.9049 35.4245 38.9341C38.1818 41.9049 39.854 45.7652 39.8718 49.9813C39.8718 53.3257 38.8222 56.4211 37.0255 59.0539H33.8768Z" fill="#CF264D"/>
<path d="M33.8768 59.0539C32.0623 56.4211 31.0127 53.3079 31.0127 49.9813C31.0127 45.7652 32.6671 41.9049 35.4245 38.9341C38.1818 41.9049 39.854 45.7652 39.8718 49.9813C39.8718 53.3257 38.8222 56.4211 37.0255 59.0539H33.8768Z" fill="#CF264D"/>
<path opacity="0.23" d="M35.1573 38.9341C35.3708 39.1653 35.5843 39.4144 35.7799 39.6634C33.9298 42.5098 32.8625 45.8542 32.8447 49.412C32.8447 52.9343 33.3784 56.2254 35.1929 59.0717H33.5563C31.7595 56.4389 30.71 53.3257 30.71 49.9991C30.7278 45.7652 32.4 41.9049 35.1573 38.9341Z" fill="#F4A15D"/>
<path opacity="0.32" d="M35.1573 38.9341C35.2285 39.0052 35.2996 39.0942 35.3708 39.1831C33.2894 42.2607 32.0975 45.872 32.0797 49.75C32.0797 53.1122 32.987 56.2788 34.5703 59.0717H33.5563C31.7595 56.4389 30.71 53.3257 30.71 49.9991C30.7278 45.7652 32.4 41.9049 35.1573 38.9341Z" fill="#F4A15D"/>
<path opacity="0.37" d="M39.8717 49.9813C39.8717 45.7652 38.1995 41.9227 35.4244 38.9341C35.2109 39.1653 34.9974 39.4144 34.8018 39.6634C36.6519 42.5098 37.7192 45.8542 37.737 49.412C37.737 52.9343 36.7052 56.2254 34.8907 59.0717H37.0254C38.8222 56.4211 39.8717 53.3079 39.8717 49.9813Z" fill="#A5143A"/>
<path opacity="0.72" d="M39.8718 49.9813C39.8718 45.7652 38.1996 41.9227 35.4244 38.9341C35.3533 39.0052 35.2821 39.0942 35.2109 39.1831C37.2923 42.2607 38.4842 45.872 38.502 49.75C38.502 53.1122 37.5947 56.2788 36.0115 59.0717H37.0255C38.8222 56.4211 39.8718 53.3079 39.8718 49.9813Z" fill="#A5143A"/>
<path opacity="0.37" d="M35.4244 38.9341C35.2109 39.1653 34.9974 39.4144 34.8018 39.6634C36.6519 42.5098 37.7192 45.8542 37.737 49.412C37.737 52.9343 36.7052 56.2254 34.8907 59.0717H37.0254C38.8222 56.4389 39.8717 53.3257 39.8717 49.9991C39.8539 45.7652 38.1817 41.9049 35.4244 38.9341Z" fill="#A5143A"/>
<path opacity="0.72" d="M35.4244 38.9341C35.3533 39.0052 35.2821 39.0942 35.2109 39.1831C37.2923 42.2607 38.4842 45.872 38.502 49.75C38.502 53.1122 37.5947 56.2788 36.0115 59.0717H37.0255C38.8222 56.4389 39.8718 53.3257 39.8718 49.9991C39.854 45.7652 38.1818 41.9049 35.4244 38.9341Z" fill="#A5143A"/>
<path d="M37.7721 42.1364C37.1139 40.9801 36.3311 39.9127 35.4239 38.9165C34.5166 39.8949 33.7339 40.9801 33.0757 42.1364H37.7721Z" fill="#601B23"/>
<path d="M33.8768 59.0539C32.0623 56.4211 31.0127 53.3079 31.0127 49.9813C31.0127 45.7652 32.6671 41.9049 35.4245 38.9341C38.1818 41.9049 39.854 45.7652 39.8718 49.9813C39.8718 53.3257 38.8222 56.4211 37.0255 59.0539H33.8768Z" stroke="#601B23" stroke-width="0.357599" stroke-miterlimit="10" stroke-linecap="round" stroke-linejoin="round"/>
<path d="M32.1865 56.7061H38.0392" stroke="#601B23" stroke-width="0.2384" stroke-miterlimit="10" stroke-linecap="round" stroke-linejoin="round"/>
<path d="M83.4556 53.913L89.255 56.1723V45.1606L71.4478 31.2671V52.0985L75.7528 54.3577C78.0476 53.1481 80.8406 52.899 83.4556 53.913Z" fill="#C11A4D"/>
<path opacity="0.72" d="M89.2558 56.1724L83.4921 53.931C83.4209 52.4011 83.5276 50.8356 83.8123 49.2701C84.2392 46.9219 85.0397 44.716 86.1427 42.7236L89.2558 45.1608V56.1724Z" fill="#A5143A"/>
<path opacity="0.23" d="M88.5256 48.2382L71.4478 34.9317V31.2671L89.255 45.1428V56.1723L88.5256 55.8876V48.2382Z" fill="#F4A15D"/>
<path opacity="0.72" d="M78.5279 53.4149C77.5495 53.575 76.6245 53.8952 75.7528 54.3577L71.4478 52.0985V31.2671L78.9549 37.1198C79.3285 39.3791 79.5064 41.7451 79.5064 44.1822C79.5064 47.4021 79.1684 50.5152 78.5279 53.4149Z" fill="#A5143A"/>
<path d="M83.4556 53.913L89.255 56.1723V45.1606L71.4478 31.2671V52.0985L75.7528 54.3577C78.0476 53.1481 80.8406 52.899 83.4556 53.913Z" stroke="#601B23" stroke-width="0.357599" stroke-miterlimit="10" stroke-linecap="round" stroke-linejoin="round"/>
<path d="M68.0503 72.7871C68.0503 72.7871 70.2028 73.2497 73.2982 76.345C74.4189 77.4658 76.1801 79.7428 77.4787 81.4684C78.0124 82.18 79.1509 81.8242 79.1687 80.9347L79.5956 61.989C79.6846 61.4553 79.5422 60.9038 79.2042 60.4947L74.5434 54.6953L68.0503 72.7871Z" fill="#CF264D"/>
<path opacity="0.72" d="M79.1865 81.3083C78.1725 81.166 77.4076 80.2943 77.3898 79.2625L77.1941 61.651C77.283 61.1173 77.1407 60.5658 76.8027 60.1567L73.8853 56.5098L74.5435 54.6953L79.2043 60.4947C79.5423 60.9216 79.6846 61.4553 79.5956 61.989L79.1865 81.3083Z" fill="#A5143A"/>
<path opacity="0.72" d="M68.0503 72.7872L74.5434 54.6953L77.1229 57.9152C75.7353 63.252 73.5472 68.6778 70.5942 74.0858C69.0287 73.0006 68.0503 72.7872 68.0503 72.7872Z" fill="#A5143A"/>
<path d="M68.0503 72.7871C68.0503 72.7871 70.2028 73.2497 73.2982 76.345C74.4189 77.4658 76.1801 79.7428 77.4787 81.4684C78.0124 82.18 79.1509 81.8242 79.1687 80.9347L79.5956 61.989C79.6846 61.4553 79.5422 60.9038 79.2042 60.4947L74.5434 54.6953L68.0503 72.7871Z" stroke="#601B23" stroke-width="0.357599" stroke-miterlimit="10" stroke-linecap="round" stroke-linejoin="round"/>
<path d="M67.961 82.9633C68.1566 80.8464 67.872 78.854 64.3141 73.6061C63.7271 72.77 62.3217 72.77 61.7347 73.6061C58.1768 78.8717 57.8921 80.8642 58.0878 82.9633C58.1234 83.2302 58.6037 83.5326 58.9061 83.4258C60.9519 82.3763 65.0969 82.3763 67.1426 83.4258C67.4451 83.5326 67.9254 83.2479 67.961 82.9633Z" fill="#4E8280"/>
<g opacity="0.32">
<g opacity="0.32">
<g opacity="0.32">
<path opacity="0.32" d="M59.8855 82.9631C59.6898 80.8461 59.9745 78.8537 63.5324 73.6058C63.6391 73.4457 63.7814 73.3212 63.9237 73.2323C63.2477 72.7875 62.2159 72.9121 61.7356 73.6058C58.1777 78.8715 57.8931 80.8639 58.0888 82.9631C58.1244 83.2299 58.6047 83.5323 58.9071 83.4256C59.2095 83.2833 59.5475 83.141 59.9033 83.0342C59.9033 83.0164 59.8855 82.9987 59.8855 82.9631Z" fill="#F4A15D"/>
</g>
<g opacity="0.32">
<path opacity="0.32" d="M63.9233 82.6788C65.1508 82.7677 66.3071 83.0168 67.1432 83.4259C67.4101 83.5327 67.837 83.2836 67.9437 83.0346C66.7696 82.6966 65.3109 82.572 63.9233 82.6788Z" fill="#F4A15D"/>
</g>
</g>
</g>
<path d="M62.3579 73.6062C62.3045 73.535 62.2511 73.4817 62.1978 73.4283C62.856 72.7701 64.0834 72.8413 64.6171 73.6062C68.175 78.8719 68.4596 80.8641 68.2639 82.9633C68.2284 83.2301 67.748 83.5327 67.4456 83.426C67.0365 83.2125 66.5384 83.0524 66.0047 82.9279C66.2004 80.8287 65.8979 78.8363 62.3579 73.6062Z" fill="#37605D"/>
<path d="M67.961 82.9633C68.1566 80.8464 67.872 78.854 64.3141 73.6061C63.7271 72.77 62.3217 72.77 61.7347 73.6061C58.1768 78.8717 57.8921 80.8642 58.0878 82.9633C58.1234 83.2302 58.6037 83.5326 58.9061 83.4258C60.9519 82.3763 65.0969 82.3763 67.1426 83.4258C67.4451 83.5326 67.9254 83.2479 67.961 82.9633Z" stroke="#601B23" stroke-width="0.357599" stroke-miterlimit="10" stroke-linecap="round" stroke-linejoin="round"/>
<path d="M67.0361 76.5768C75.4149 62.8611 78.4569 49.3945 76.5712 38.1694C74.9346 28.4208 69.6689 21.394 63.0157 17C56.3624 21.394 51.0968 28.4208 49.4601 38.1694C47.5745 49.3945 50.6343 62.8611 58.9953 76.5768H67.0361Z" fill="#CF264D"/>
<path opacity="0.23" d="M55.8288 38.3649C56.8961 29.5413 59.6713 22.5323 63.407 17.2844C63.2825 17.1955 63.1402 17.1065 63.0157 17.0176C56.3624 21.4116 51.0968 28.4384 49.4601 38.187C47.5745 49.4121 50.6343 62.8787 58.9953 76.5943H60.6853C56.0422 62.8787 54.4768 49.6967 55.8288 38.3649Z" fill="#F4A15D"/>
<path opacity="0.37" d="M76.5709 38.1696C74.9521 28.4922 69.7576 21.5009 63.1577 17.1069C64.3852 19.0816 65.9507 21.9279 67.2671 25.5391C69.6686 32.1034 69.9355 37.5114 70.0778 40.9092C70.7182 56.1903 64.8655 73.0902 63.638 76.5947H67.0358C75.4146 62.8613 78.4566 49.3947 76.5709 38.1696Z" fill="#A5143A"/>
<path opacity="0.72" d="M76.5704 38.1694C74.9338 28.4208 69.6682 21.394 63.0149 17C62.837 17.1067 62.6769 17.2313 62.499 17.338C65.0251 19.3126 66.9464 21.4296 68.4051 23.4576C81.4981 41.6739 68.9388 68.9451 67.2132 72.5563C67.1421 70.1014 66.8218 67.0594 65.9146 63.6616C65.3275 61.4913 64.616 59.5879 63.9044 57.969C63.6375 63.9996 63.3707 70.0302 63.1039 76.0609H65.3097C65.2564 76.2388 65.203 76.3989 65.1319 76.5768H66.9997C75.4141 62.8611 78.4561 49.3945 76.5704 38.1694Z" fill="#A5143A"/>
<path opacity="0.32" d="M51.7014 41.2652C51.9505 38.4189 52.8755 29.1684 58.5859 21.5723C59.4932 20.3804 60.8452 18.7616 60.7384 18.6726C60.5783 18.5303 57.4474 21.3588 55.2237 24.3652C52.4308 28.1188 50.385 32.7263 49.4777 38.1698C47.592 49.3949 50.6518 62.8615 59.0129 76.5772H59.7422C57.4474 72.0053 55.9353 67.8781 54.9035 64.6227C54.2275 62.4346 53.0356 58.5565 52.2885 53.362C51.8081 49.8753 51.2745 46.1395 51.7014 41.2652Z" fill="#F4A15D"/>
<path opacity="0.72" d="M63.9764 44.9294C66.6487 44.9294 68.8151 42.7632 68.8151 40.0907C68.8151 37.4183 66.6487 35.252 63.9764 35.252C61.3041 35.252 59.1377 37.4183 59.1377 40.0907C59.1377 42.7632 61.3041 44.9294 63.9764 44.9294Z" fill="#A5143A" stroke="#A5143A" stroke-width="0.357599" stroke-miterlimit="10" stroke-linecap="round" stroke-linejoin="round"/>
<path d="M67.0361 76.5768C75.4149 62.8611 78.4569 49.3945 76.5712 38.1694C74.9346 28.4208 69.6689 21.394 63.0157 17C56.3624 21.394 51.0968 28.4208 49.4601 38.1694C47.5745 49.3945 50.6343 62.8611 58.9953 76.5768H67.0361Z" stroke="#601B23" stroke-width="0.357599" stroke-miterlimit="10" stroke-linecap="round" stroke-linejoin="round"/>
<path d="M67.794 40.1185C68.222 37.4807 66.4308 34.9952 63.7928 34.5672C61.155 34.139 58.6695 35.9304 58.2415 38.5682C57.8133 41.2062 59.6047 43.6915 62.2425 44.1197C64.8805 44.5479 67.3658 42.7565 67.794 40.1185Z" fill="#ABCFD8"/>
<path opacity="0.93" d="M62.3569 41.9941C63.9681 41.9941 65.2744 40.6878 65.2744 39.0766C65.2744 37.4655 63.9681 36.1592 62.3569 36.1592C60.7457 36.1592 59.4395 37.4655 59.4395 39.0766C59.4395 40.6878 60.7457 41.9941 62.3569 41.9941Z" fill="#E2F0F2"/>
<path d="M67.794 40.1185C68.222 37.4807 66.4308 34.9952 63.7928 34.5672C61.155 34.139 58.6695 35.9304 58.2415 38.5682C57.8133 41.2062 59.6047 43.6915 62.2425 44.1197C64.8805 44.5479 67.3658 42.7565 67.794 40.1185Z" stroke="#601B23" stroke-width="0.357599" stroke-miterlimit="10" stroke-linecap="round" stroke-linejoin="round"/>
<path d="M63.0161 84.9022C63.2118 84.9022 63.3719 84.6887 63.3897 84.4041L64.7239 62.6298C64.8662 60.3884 64.1547 58.307 63.1051 57.8089C63.0339 57.7733 62.9628 57.7733 62.9094 57.8089C61.8598 58.2892 61.1482 60.3706 61.2906 62.6298L62.6248 84.4041C62.6603 84.6887 62.8382 84.9022 63.0161 84.9022Z" fill="#BC1D4E"/>
<path opacity="0.74" d="M63.0161 84.9022C63.2118 84.9022 63.3719 84.6887 63.3897 84.4041L64.7239 62.6298C64.8662 60.3884 64.1547 58.307 63.1051 57.8089C63.0339 57.7733 62.9628 57.7733 62.9094 57.8089C61.8598 58.2892 61.1482 60.3706 61.2906 62.6298L62.6248 84.4041C62.6603 84.6887 62.8382 84.9022 63.0161 84.9022Z" fill="#A5143A"/>
<g opacity="0.53">
<g opacity="0.53">
<g opacity="0.53">
<path opacity="0.53" d="M62.9265 57.8086C61.8769 58.2889 61.1653 60.3703 61.3077 62.6295L62.6419 84.4038C62.6596 84.635 62.7664 84.8307 62.9087 84.8841V57.8086H62.9265Z" fill="#F4A15D"/>
</g>
<g opacity="0.53">
<path opacity="0.53" d="M62.9258 57.8079H63.1215C63.0503 57.7724 62.9791 57.7724 62.9258 57.8079Z" fill="#F4A15D"/>
</g>
</g>
</g>
<path d="M63.0161 84.9022C63.2118 84.9022 63.3719 84.6887 63.3897 84.4041L64.7239 62.6298C64.8662 60.3884 64.1547 58.307 63.1051 57.8089C63.0339 57.7733 62.9628 57.7733 62.9094 57.8089C61.8598 58.2892 61.1482 60.3706 61.2906 62.6298L62.6248 84.4041C62.6603 84.6887 62.8382 84.9022 63.0161 84.9022Z" stroke="#601B23" stroke-width="0.357599" stroke-miterlimit="10" stroke-linecap="round" stroke-linejoin="round"/>
<path d="M89.1297 59.0539C87.3152 56.4211 86.2656 53.3079 86.2656 49.9813C86.2656 45.7652 87.92 41.9049 90.6774 38.9341C93.4348 41.9049 95.107 45.7652 95.1248 49.9813C95.1248 53.3257 94.0752 56.4211 92.2784 59.0539H89.1297Z" fill="#CF264D"/>
<path d="M89.1297 59.0539C87.3152 56.4211 86.2656 53.3079 86.2656 49.9813C86.2656 45.7652 87.92 41.9049 90.6774 38.9341C93.4348 41.9049 95.107 45.7652 95.1248 49.9813C95.1248 53.3257 94.0752 56.4211 92.2784 59.0539H89.1297Z" fill="#CF264D"/>
<path opacity="0.23" d="M90.4298 38.9341C90.6432 39.1653 90.8567 39.4144 91.0524 39.6634C89.2023 42.5098 88.1349 45.8542 88.1172 49.412C88.1172 52.9343 88.6508 56.2254 90.4654 59.0717H88.8287C87.032 56.4389 85.9824 53.3257 85.9824 49.9991C85.9824 45.7652 87.6546 41.9049 90.4298 38.9341Z" fill="#F4A15D"/>
<path opacity="0.32" d="M90.4298 38.9341C90.5009 39.0052 90.5721 39.0942 90.6433 39.1831C88.5619 42.2607 87.37 45.872 87.3522 49.75C87.3522 53.1122 88.2595 56.2788 89.8427 59.0717H88.8287C87.032 56.4389 85.9824 53.3257 85.9824 49.9991C85.9824 45.7652 87.6546 41.9049 90.4298 38.9341Z" fill="#F4A15D"/>
<path opacity="0.37" d="M95.1256 49.9813C95.1256 45.7652 93.4534 41.9227 90.6783 38.9341C90.4648 39.1653 90.2513 39.4144 90.0557 39.6634C91.9058 42.5098 92.9731 45.8542 92.9909 49.412C92.9909 52.9343 91.9591 56.2254 90.1446 59.0717H92.2793C94.0761 56.4211 95.1256 53.3079 95.1256 49.9813Z" fill="#A5143A"/>
<path opacity="0.72" d="M95.1252 49.9813C95.1252 45.7652 93.453 41.9227 90.6778 38.9341C90.6067 39.0052 90.5355 39.0942 90.4644 39.1831C92.5457 42.2607 93.7376 45.872 93.7554 49.75C93.7554 53.1122 92.8481 56.2788 91.2649 59.0717H92.2789C94.0756 56.4211 95.1252 53.3079 95.1252 49.9813Z" fill="#A5143A"/>
<path opacity="0.37" d="M90.6783 38.9341C90.4648 39.1653 90.2513 39.4144 90.0557 39.6634C91.9058 42.5098 92.9731 45.8542 92.9909 49.412C92.9909 52.9343 91.9591 56.2254 90.1446 59.0717H92.2793C94.0761 56.4389 95.1256 53.3257 95.1256 49.9991C95.1256 45.7652 93.4534 41.9049 90.6783 38.9341Z" fill="#A5143A"/>
<path opacity="0.72" d="M90.6778 38.9341C90.6067 39.0052 90.5355 39.0942 90.4644 39.1831C92.5457 42.2607 93.7376 45.872 93.7554 49.75C93.7554 53.1122 92.8481 56.2788 91.2649 59.0717H92.2789C94.0756 56.4389 95.1252 53.3257 95.1252 49.9991C95.1252 45.7652 93.453 41.9049 90.6778 38.9341Z" fill="#A5143A"/>
<path d="M93.0441 42.1364C92.3859 40.9801 91.6031 39.9127 90.6959 38.9165C89.7886 39.8949 89.0059 40.9801 88.3477 42.1364H93.0441Z" fill="#601B23"/>
<path d="M89.1297 59.0539C87.3152 56.4211 86.2656 53.3079 86.2656 49.9813C86.2656 45.7652 87.92 41.9049 90.6774 38.9341C93.4348 41.9049 95.107 45.7652 95.1247 49.9813C95.1247 53.3257 94.0752 56.4211 92.2784 59.0539H89.1297Z" stroke="#601B23" stroke-width="0.357599" stroke-miterlimit="10" stroke-linecap="round" stroke-linejoin="round"/>
<path d="M87.7788 56.7061H93.6315" stroke="#601B23" stroke-width="0.2384" stroke-miterlimit="10" stroke-linecap="round" stroke-linejoin="round"/>
<path opacity="0.41" d="M57.5361 22.5318C57.5361 22.5318 58.7458 20.6284 62.8552 17.4263C60.9517 20.0057 60.5781 21.6246 60.4536 21.7491C59.2439 21.9804 57.5361 22.5318 57.5361 22.5318Z" fill="white"/>
<path d="M118.871 119.738C118.871 112.268 115.5 105 109 104.5C104.589 104.161 101 106 100.303 108.259C99.131 107.706 97.8261 107.407 96.4437 107.407C95.8355 107.407 95.2494 107.462 94.6853 107.584C94.6853 107.529 94.6853 107.473 94.6853 107.407C94.6853 104.587 92.6948 102.232 90.0517 101.668C89.0343 98.184 85.8272 95.6294 82.0119 95.6294C78.838 95.6294 76.0733 97.3988 74.6578 99.9976C73.6735 99.0798 72.3575 98.5047 70.9088 98.5047C70.0794 98.5047 69.2942 98.6927 68.5865 99.0134C63.1246 90.5405 60.9167 94.5728 55.6697 101.214C54.3316 99.5553 52.2857 98.5047 49.9965 98.5047C47.6963 98.5047 45.6504 99.5663 44.3123 101.225C43.2396 100.595 42.001 100.23 40.6629 100.23C38.5174 100.23 36.5821 101.181 35.2661 102.674C33.3198 99.7875 30.0242 97.8854 26.2864 97.8854C20.3146 97.8854 15.4708 102.729 15.4708 108.701C15.4708 108.734 15.4708 108.767 15.4708 108.8C11.4233 110.857 8.58116 114.949 8.30469 119.738H34.4036H87.9173H118.871Z" fill="#E2EFFF"/>
</svg>
