<svg width="24" height="24" viewBox="0 0 24 24" fill="none" xmlns="http://www.w3.org/2000/svg">
<path d="M4 6V9.75C4 11.2688 5.23122 12.5 6.75 12.5V12.5C8.26878 12.5 9.5 11.2688 9.5 9.75V4C9.5 3.17157 8.82843 2.5 8 2.5V2.5C7.17157 2.5 6.5 3.17157 6.5 4V9.5M12 2H14.5C16.1569 2 17.5 3.34315 17.5 5V16.5C17.5 18.1569 16.1569 19.5 14.5 19.5H8C6.34315 19.5 5 18.1569 5 16.5V15.5M8.5 16H14M14 12.5H11.5M14 8.5H12.5M9 22H16C18.2091 22 20 20.2091 20 18V6.5C20 5.94772 19.5523 5.5 19 5.5V5.5" stroke="#434F68" stroke-width="1.5" stroke-linecap="round"/>
</svg>
