<svg width="24" height="24" viewBox="0 0 24 24" fill="none" xmlns="http://www.w3.org/2000/svg">
<path d="M13 2H5C4.46957 2 3.96086 2.21071 3.58579 2.58579C3.21071 2.96086 3 3.46957 3 4V20C3 20.5304 3.21071 21.0391 3.58579 21.4142C3.96086 21.7893 4.46957 22 5 22H17C17.5304 22 18.0391 21.7893 18.4142 21.4142C18.7893 21.0391 19 20.5304 19 20V16.5M13 2L18.4142 7H14C13.4477 7 13 6.55228 13 6V2Z" stroke="#434F68" stroke-width="1.5" stroke-linecap="round" stroke-linejoin="round"/>
<path d="M12 13H7" stroke="#434F68" stroke-width="1.5" stroke-linecap="round" stroke-linejoin="round"/>
<path d="M9 17H7" stroke="#434F68" stroke-width="1.5" stroke-linecap="round" stroke-linejoin="round"/>
<path d="M19.0964 9.3266C19.3055 9.11748 19.5892 9 19.8849 9C20.0313 9 20.1763 9.02884 20.3116 9.08488C20.4469 9.14092 20.5699 9.22306 20.6734 9.3266C20.7769 9.43015 20.8591 9.55308 20.9151 9.68837C20.9712 9.82366 21 9.96866 21 10.1151C21 10.2615 20.9712 10.4065 20.9151 10.5418C20.8591 10.6771 20.7769 10.8 20.6734 10.9036L14.1026 17.4743L12 18L12.5257 15.8974L19.0964 9.3266Z" fill="#434F68"/>
</svg>
