<svg width="24" height="24" viewBox="0 0 24 24" fill="none" xmlns="http://www.w3.org/2000/svg">
<path d="M6 19.75C3.23858 19.75 1 16.3921 1 12.25C1 8.10786 3.23858 4.75 6 4.75" stroke="#434F68" stroke-width="1.5" stroke-linecap="round"/>
<path d="M9.12224 4.78416C11.5155 4.78416 13.4556 7.01769 13.4556 9.77288C13.4556 12.5281 11.5155 14.7616 9.12224 14.7616" stroke="#434F68" stroke-width="1.5"/>
<path d="M12.7056 19.75C12.7056 20.1642 13.0414 20.5 13.4556 20.5C13.8698 20.5 14.2056 20.1642 14.2056 19.75L12.7056 19.75ZM9.12224 15.5113C11.0056 15.5113 12.7056 17.3064 12.7056 19.75L14.2056 19.75C14.2056 16.6833 12.0254 14.0113 9.12224 14.0113L9.12224 15.5113Z" fill="#434F68"/>
<path d="M7.6499 19.75C7.6499 20.1642 7.98569 20.5 8.3999 20.5C8.81412 20.5 9.1499 20.1642 9.1499 19.75H7.6499ZM7.6499 4V19.75H9.1499V4H7.6499Z" fill="#434F68"/>
<path d="M16 19.75V4.75L19.5 11.1786L23 4.75V19.75" stroke="#434F68" stroke-width="1.5" stroke-linecap="round" stroke-linejoin="round"/>
</svg>
