<svg width="24" height="24" viewBox="0 0 24 24" fill="none" xmlns="http://www.w3.org/2000/svg">
<path d="M17 13.9404V10.935C17 10.7555 17 10.6658 16.9727 10.5865C16.9485 10.5165 16.9091 10.4527 16.8572 10.3997C16.7986 10.3399 16.7183 10.2997 16.5578 10.2195L12 7.94071M4 8.94066V15.7469C4 16.1188 4 16.3047 4.05802 16.4675C4.10931 16.6115 4.1929 16.7417 4.30238 16.8483C4.42622 16.9689 4.59527 17.0464 4.93335 17.2013L11.3334 20.1345C11.5786 20.2469 11.7012 20.3031 11.8289 20.3253C11.9421 20.3449 12.0579 20.3449 12.1711 20.3253C12.2988 20.3031 12.4214 20.2469 12.6666 20.1345L19.0666 17.2013C19.4047 17.0464 19.5738 16.9689 19.6976 16.8483C19.8071 16.7417 19.8907 16.6115 19.942 16.4675C20 16.3047 20 16.1188 20 15.7469V8.94066M2 7.94071L11.6422 3.11986C11.7734 3.05427 11.839 3.02148 11.9078 3.00857C11.9687 2.99714 12.0313 2.99714 12.0922 3.00857C12.161 3.02148 12.2266 3.05427 12.3578 3.11986L22 7.94071L12.3578 12.7616C12.2266 12.8271 12.161 12.8599 12.0922 12.8729C12.0313 12.8843 11.9687 12.8843 11.9078 12.8729C11.839 12.8599 11.7734 12.8271 11.6422 12.7616L2 7.94071Z" stroke="#434F68" stroke-width="1.5" stroke-linecap="round" stroke-linejoin="round"/>
</svg>
