<svg width="24" height="24" viewBox="0 0 24 24" fill="none" xmlns="http://www.w3.org/2000/svg">
<path d="M20 10.5V6.8C20 5.11984 20 4.27976 19.673 3.63803C19.3854 3.07354 18.9265 2.6146 18.362 2.32698C17.7202 2 16.8802 2 15.2 2H8.8C7.11984 2 6.27976 2 5.63803 2.32698C5.07354 2.6146 4.6146 3.07354 4.32698 3.63803C4 4.27976 4 5.11984 4 6.8V17.2C4 18.8802 4 19.7202 4.32698 20.362C4.6146 20.9265 5.07354 21.3854 5.63803 21.673C6.27976 22 7.11984 22 8.8 22H12M9 11H8.5H8M13 7H8" stroke="#434F68" stroke-width="1.5" stroke-linecap="round" stroke-linejoin="round"/>
<path d="M13.6 18.6389H16.48C17.3732 18.6389 17.8197 18.6389 18.1831 18.7441C19.0013 18.9811 19.6416 19.5925 19.8898 20.3737C20 20.7207 20 21.1472 20 22M12 13.75C12 15.2688 13.2894 16.5 14.88 16.5C16.4706 16.5 17.76 15.2688 17.76 13.75C17.76 12.2312 16.4706 11 14.88 11C13.2894 11 12 12.2312 12 13.75Z" stroke="#434F68" stroke-width="1.5" stroke-linecap="round" stroke-linejoin="round"/>
</svg>
