<svg width="24" height="24" viewBox="0 0 24 24" fill="none" xmlns="http://www.w3.org/2000/svg">
<path d="M12 4.92375L11.4291 5.4101L12 6.08032L12.5709 5.4101L12 4.92375ZM8 11.25C7.58579 11.25 7.25 11.5858 7.25 12C7.25 12.4142 7.58579 12.75 8 12.75V11.25ZM16 12.75C16.4142 12.75 16.75 12.4142 16.75 12C16.75 11.5858 16.4142 11.25 16 11.25V12.75ZM12.75 8C12.75 7.58579 12.4142 7.25 12 7.25C11.5858 7.25 11.25 7.58579 11.25 8H12.75ZM11.25 16C11.25 16.4142 11.5858 16.75 12 16.75C12.4142 16.75 12.75 16.4142 12.75 16H11.25ZM16.1111 3.75C19.1016 3.75 21.25 6.63854 21.25 9.48H22.75C22.75 6.06646 20.165 2.25 16.1111 2.25V3.75ZM21.25 9.48C21.25 10.8669 20.7117 12.2343 19.8397 13.5342C18.9682 14.8334 17.7904 16.0243 16.5833 17.0417C15.3791 18.0566 14.166 18.8818 13.2429 19.4529C12.7818 19.7381 12.3963 19.958 12.1244 20.1048C11.9879 20.1785 11.8836 20.2319 11.815 20.2651C11.7796 20.2822 11.7602 20.2908 11.7536 20.2936C11.7494 20.2953 11.7579 20.2916 11.7742 20.286C11.7821 20.2834 11.8008 20.2772 11.8262 20.2709C11.8399 20.2675 11.9088 20.25 12 20.25V21.75C12.094 21.75 12.1668 21.7318 12.1857 21.7272C12.2162 21.7197 12.2412 21.7116 12.2565 21.7064C12.2876 21.6958 12.3154 21.6845 12.335 21.6763C12.376 21.6591 12.4219 21.6378 12.4682 21.6153C12.563 21.5695 12.688 21.5052 12.837 21.4247C13.1363 21.2632 13.5473 21.0284 14.0321 20.7285C15.0006 20.1293 16.2765 19.262 17.55 18.1886C18.8207 17.1177 20.1096 15.8245 21.0853 14.3699C22.0605 12.9161 22.75 11.2599 22.75 9.48H21.25ZM12 20.25C12.0912 20.25 12.1601 20.2675 12.1738 20.2709C12.1992 20.2772 12.2179 20.2834 12.2258 20.286C12.2421 20.2916 12.2506 20.2953 12.2464 20.2936C12.2398 20.2908 12.2204 20.2822 12.185 20.2651C12.1164 20.2319 12.0121 20.1785 11.8756 20.1048C11.6037 19.958 11.2182 19.7381 10.7571 19.4529C9.83397 18.8818 8.62093 18.0566 7.41667 17.0417C6.20959 16.0243 5.03178 14.8334 4.16035 13.5342C3.28832 12.2343 2.75 10.8669 2.75 9.48H1.25C1.25 11.2599 1.93945 12.9161 2.91465 14.3699C3.89044 15.8245 5.17929 17.1177 6.45 18.1886C7.72352 19.262 8.99937 20.1293 9.9679 20.7285C10.4527 21.0284 10.8637 21.2632 11.163 21.4247C11.312 21.5052 11.437 21.5695 11.5318 21.6153C11.5781 21.6378 11.624 21.6591 11.665 21.6763C11.6846 21.6845 11.7124 21.6958 11.7435 21.7064C11.7588 21.7116 11.7838 21.7197 11.8143 21.7272C11.8332 21.7318 11.906 21.75 12 21.75V20.25ZM2.75 9.48C2.75 6.63854 4.89836 3.75 7.88889 3.75V2.25C3.83497 2.25 1.25 6.06646 1.25 9.48H2.75ZM7.88889 3.75C9.62539 3.75 10.7557 4.61961 11.4291 5.4101L12.5709 4.4374C11.711 3.42789 10.1968 2.25 7.88889 2.25V3.75ZM12.5709 5.4101C13.2443 4.61961 14.3746 3.75 16.1111 3.75V2.25C13.8032 2.25 12.289 3.42789 11.4291 4.4374L12.5709 5.4101ZM8 12.75H12V11.25H8V12.75ZM12 12.75H16V11.25H12V12.75ZM11.25 8V12H12.75V8H11.25ZM11.25 12V16H12.75V12H11.25Z" fill="#434F68"/>
</svg>
