<svg width="24" height="24" viewBox="0 0 24 24" fill="none" xmlns="http://www.w3.org/2000/svg">
<path d="M17.1984 13.9808C17.4754 13.9808 17.6139 13.9808 17.7261 14.0423C17.8187 14.0931 17.9049 14.1883 17.9461 14.2855C17.9961 14.4034 17.9835 14.5287 17.9584 14.7795C17.8279 16.0794 17.3805 17.3319 16.6502 18.4249C15.7713 19.7404 14.522 20.7657 13.0603 21.3711C11.5986 21.9765 9.99029 22.1349 8.4386 21.8263C6.88692 21.5176 5.4616 20.7558 4.3429 19.6371C3.2242 18.5184 2.46235 17.0931 2.15371 15.5414C1.84506 13.9897 2.00347 12.3813 2.6089 10.9197C3.21434 9.45804 4.23961 8.20874 5.55507 7.32978C6.64807 6.59946 7.90063 6.15207 9.20055 6.02164C9.45128 5.99649 9.57665 5.98391 9.69447 6.03389C9.79166 6.07513 9.88693 6.16131 9.93766 6.2539C9.99916 6.36615 9.99916 6.50463 9.99916 6.7816V13.1809C9.99916 13.4609 9.99916 13.6009 10.0537 13.7079C10.1016 13.8019 10.1781 13.8784 10.2721 13.9263C10.3791 13.9808 10.5191 13.9808 10.7991 13.9808H17.1984Z" stroke="#434F68" stroke-width="1.5" stroke-linecap="round" stroke-linejoin="round"/>
<path d="M13.9987 2.78202C13.9987 2.50505 13.9987 2.36656 14.0602 2.25432C14.111 2.16173 14.2062 2.07554 14.3034 2.03431C14.4212 1.98432 14.5466 1.9969 14.7973 2.02205C16.6256 2.20543 18.3443 3.0143 19.655 4.325C20.9657 5.63571 21.7746 7.35444 21.958 9.18265C21.9831 9.43339 21.9957 9.55876 21.9457 9.67658C21.9045 9.77377 21.8183 9.86903 21.7257 9.91976C21.6134 9.98126 21.475 9.98126 21.198 9.98126L14.7987 9.98126C14.5187 9.98126 14.3787 9.98126 14.2717 9.92677C14.1776 9.87884 14.1012 9.80236 14.0532 9.70829C13.9987 9.60134 13.9987 9.46134 13.9987 9.18135V2.78202Z" stroke="#434F68" stroke-width="1.5" stroke-linecap="round" stroke-linejoin="round"/>
</svg>
